<svg width="670" height="53" viewBox="0 0 670 53" fill="none" xmlns="http://www.w3.org/2000/svg">
<path d="M20.574 52.639C16.9293 52.639 13.474 52.1657 10.208 51.219C6.98934 50.225 4.36234 48.8997 2.327 47.243C1.23834 46.4383 0.694004 45.3023 0.694004 43.835C0.694004 42.841 0.978004 41.989 1.546 41.279C2.16134 40.5217 2.87134 40.143 3.676 40.143C4.528 40.143 5.49834 40.4743 6.587 41.137C8.62234 42.6043 10.7523 43.6693 12.977 44.332C15.2017 44.9947 17.663 45.326 20.361 45.326C23.8163 45.326 26.467 44.7343 28.313 43.551C30.159 42.3203 31.082 40.5453 31.082 38.226C31.082 36.4273 30.2063 35.0547 28.455 34.108C26.751 33.114 23.8873 32.1673 19.864 31.268C15.6987 30.3687 12.3143 29.3273 9.711 28.144C7.10767 26.9607 5.14334 25.446 3.818 23.6C2.49267 21.754 1.83 19.411 1.83 16.571C1.83 13.6363 2.65834 11.0093 4.315 8.69C5.97167 6.37066 8.26734 4.572 11.202 3.294C14.184 1.96866 17.521 1.306 21.213 1.306C27.9817 1.306 33.496 3.10466 37.756 6.702C38.3713 7.22266 38.7973 7.74333 39.034 8.264C39.318 8.73733 39.46 9.35267 39.46 10.11C39.46 11.104 39.1523 11.9797 38.537 12.737C37.969 13.447 37.2827 13.802 36.478 13.802C36.0047 13.802 35.555 13.731 35.129 13.589C34.7503 13.447 34.2297 13.1867 33.567 12.808C31.6263 11.388 29.733 10.3467 27.887 9.684C26.0883 8.974 23.8637 8.619 21.213 8.619C17.9943 8.619 15.4383 9.28167 13.545 10.607C11.699 11.885 10.776 13.6837 10.776 16.003C10.776 17.9437 11.6043 19.4347 13.261 20.476C14.9177 21.5173 17.734 22.4877 21.71 23.387C25.9227 24.3337 29.3307 25.3987 31.934 26.582C34.5847 27.718 36.5963 29.1853 37.969 30.984C39.389 32.7827 40.099 35.031 40.099 37.729C40.099 40.6637 39.2707 43.267 37.614 45.539C36.0047 47.7637 33.709 49.515 30.727 50.793C27.7923 52.0237 24.408 52.639 20.574 52.639ZM75.2224 42.486C76.027 42.486 76.666 42.7937 77.1394 43.409C77.66 44.0243 77.9204 44.8527 77.9204 45.894C77.9204 47.3613 77.0447 48.592 75.2934 49.586C73.684 50.4853 71.8617 51.219 69.8264 51.787C67.791 52.3077 65.8504 52.568 64.0044 52.568C58.419 52.568 53.9934 50.9587 50.7274 47.74C47.4614 44.5213 45.8284 40.1193 45.8284 34.534C45.8284 30.984 46.5384 27.8363 47.9584 25.091C49.3784 22.3457 51.3664 20.2157 53.9224 18.701C56.5257 17.1863 59.4604 16.429 62.7264 16.429C65.8504 16.429 68.572 17.1153 70.8914 18.488C73.2107 19.8607 75.0094 21.8013 76.2874 24.31C77.5654 26.8187 78.2044 29.777 78.2044 33.185C78.2044 35.2203 77.305 36.238 75.5064 36.238H54.5614C54.8454 39.504 55.7684 41.918 57.3304 43.48C58.8924 44.9947 61.1644 45.752 64.1464 45.752C65.661 45.752 66.9864 45.5627 68.1224 45.184C69.3057 44.8053 70.631 44.2847 72.0984 43.622C73.5184 42.8647 74.5597 42.486 75.2224 42.486ZM62.9394 22.677C60.5254 22.677 58.5847 23.4343 57.1174 24.949C55.6974 26.4637 54.8454 28.641 54.5614 31.481H70.6074C70.5127 28.5937 69.8027 26.4163 68.4774 24.949C67.152 23.4343 65.306 22.677 62.9394 22.677ZM112.941 42.486C113.746 42.486 114.385 42.7937 114.858 43.409C115.379 44.0243 115.639 44.8527 115.639 45.894C115.639 47.3613 114.763 48.592 113.012 49.586C111.403 50.4853 109.58 51.219 107.545 51.787C105.51 52.3077 103.569 52.568 101.723 52.568C96.1378 52.568 91.7121 50.9587 88.4461 47.74C85.1801 44.5213 83.5471 40.1193 83.5471 34.534C83.5471 30.984 84.2571 27.8363 85.6771 25.091C87.0971 22.3457 89.0851 20.2157 91.6411 18.701C94.2445 17.1863 97.1791 16.429 100.445 16.429C103.569 16.429 106.291 17.1153 108.61 18.488C110.929 19.8607 112.728 21.8013 114.006 24.31C115.284 26.8187 115.923 29.777 115.923 33.185C115.923 35.2203 115.024 36.238 113.225 36.238H92.2801C92.5641 39.504 93.4871 41.918 95.0491 43.48C96.6111 44.9947 98.8831 45.752 101.865 45.752C103.38 45.752 104.705 45.5627 105.841 45.184C107.024 44.8053 108.35 44.2847 109.817 43.622C111.237 42.8647 112.278 42.486 112.941 42.486ZM100.658 22.677C98.2441 22.677 96.3035 23.4343 94.8361 24.949C93.4161 26.4637 92.5641 28.641 92.2801 31.481H108.326C108.231 28.5937 107.521 26.4163 106.196 24.949C104.871 23.4343 103.025 22.677 100.658 22.677ZM154.068 45.113C155.015 46.0123 155.488 47.03 155.488 48.166C155.488 49.2547 155.086 50.225 154.281 51.077C153.524 51.929 152.624 52.355 151.583 52.355C150.542 52.355 149.571 51.929 148.672 51.077L132.058 36.025V48.166C132.058 49.5387 131.632 50.58 130.78 51.29C129.928 52 128.863 52.355 127.585 52.355C126.307 52.355 125.242 52 124.39 51.29C123.585 50.58 123.183 49.5387 123.183 48.166V5.779C123.183 4.40633 123.585 3.365 124.39 2.655C125.242 1.945 126.307 1.59 127.585 1.59C128.863 1.59 129.928 1.945 130.78 2.655C131.632 3.365 132.058 4.40633 132.058 5.779V32.475L147.252 17.92C148.104 17.068 149.074 16.642 150.163 16.642C151.252 16.642 152.198 17.0443 153.003 17.849C153.808 18.6537 154.21 19.6003 154.21 20.689C154.21 21.7777 153.76 22.7717 152.861 23.671L141.714 34.037L154.068 45.113ZM196.357 52.568C192.807 52.568 189.683 51.8343 186.985 50.367C184.334 48.8997 182.275 46.7933 180.808 44.048C179.34 41.3027 178.607 38.1077 178.607 34.463C178.607 30.8183 179.34 27.647 180.808 24.949C182.275 22.2037 184.334 20.0973 186.985 18.63C189.683 17.1627 192.807 16.429 196.357 16.429C199.907 16.429 203.007 17.1627 205.658 18.63C208.356 20.0973 210.415 22.2037 211.835 24.949C213.302 27.647 214.036 30.8183 214.036 34.463C214.036 38.1077 213.302 41.3027 211.835 44.048C210.415 46.7933 208.356 48.8997 205.658 50.367C203.007 51.8343 199.907 52.568 196.357 52.568ZM196.286 45.681C199.173 45.681 201.374 44.7343 202.889 42.841C204.403 40.9477 205.161 38.155 205.161 34.463C205.161 30.8183 204.403 28.0493 202.889 26.156C201.374 24.2153 199.197 23.245 196.357 23.245C193.517 23.245 191.316 24.2153 189.754 26.156C188.239 28.0493 187.482 30.8183 187.482 34.463C187.482 38.155 188.239 40.9477 189.754 42.841C191.268 44.7343 193.446 45.681 196.286 45.681ZM248.769 16.571C250.141 16.571 251.23 16.9497 252.035 17.707C252.839 18.4643 253.242 19.482 253.242 20.76V48.308C253.242 49.5387 252.816 50.5327 251.964 51.29C251.159 52.0473 250.094 52.426 248.769 52.426C247.491 52.426 246.473 52.071 245.716 51.361C244.958 50.651 244.58 49.6807 244.58 48.45V46.675C243.491 48.5683 242.024 50.0357 240.178 51.077C238.332 52.071 236.249 52.568 233.93 52.568C225.41 52.568 221.15 47.7873 221.15 38.226V20.76C221.15 19.482 221.552 18.4643 222.357 17.707C223.161 16.9497 224.226 16.571 225.552 16.571C226.924 16.571 228.013 16.9497 228.818 17.707C229.622 18.4643 230.025 19.482 230.025 20.76V38.297C230.025 40.7583 230.522 42.5807 231.516 43.764C232.51 44.9473 234.072 45.539 236.202 45.539C238.663 45.539 240.627 44.7343 242.095 43.125C243.609 41.4683 244.367 39.291 244.367 36.593V20.76C244.367 19.482 244.769 18.4643 245.574 17.707C246.378 16.9497 247.443 16.571 248.769 16.571ZM281.862 16.571C283.092 16.4763 284.063 16.7367 284.773 17.352C285.483 17.9673 285.838 18.8903 285.838 20.121C285.838 21.399 285.53 22.3457 284.915 22.961C284.299 23.5763 283.187 23.9787 281.578 24.168L279.448 24.381C276.655 24.665 274.596 25.6117 273.271 27.221C271.993 28.8303 271.354 30.842 271.354 33.256V48.166C271.354 49.5387 270.928 50.6037 270.076 51.361C269.224 52.071 268.159 52.426 266.881 52.426C265.603 52.426 264.538 52.071 263.686 51.361C262.881 50.6037 262.479 49.5387 262.479 48.166V20.689C262.479 19.3637 262.881 18.346 263.686 17.636C264.538 16.926 265.579 16.571 266.81 16.571C268.04 16.571 269.034 16.926 269.792 17.636C270.549 18.2987 270.928 19.269 270.928 20.547V23.387C271.827 21.3043 273.152 19.695 274.904 18.559C276.702 17.423 278.69 16.784 280.868 16.642L281.862 16.571ZM327.039 52.639C323.394 52.639 319.939 52.1657 316.673 51.219C313.454 50.225 310.827 48.8997 308.792 47.243C307.703 46.4383 307.159 45.3023 307.159 43.835C307.159 42.841 307.443 41.989 308.011 41.279C308.626 40.5217 309.336 40.143 310.141 40.143C310.993 40.143 311.963 40.4743 313.052 41.137C315.087 42.6043 317.217 43.6693 319.442 44.332C321.667 44.9947 324.128 45.326 326.826 45.326C330.281 45.326 332.932 44.7343 334.778 43.551C336.624 42.3203 337.547 40.5453 337.547 38.226C337.547 36.4273 336.671 35.0547 334.92 34.108C333.216 33.114 330.352 32.1673 326.329 31.268C322.164 30.3687 318.779 29.3273 316.176 28.144C313.573 26.9607 311.608 25.446 310.283 23.6C308.958 21.754 308.295 19.411 308.295 16.571C308.295 13.6363 309.123 11.0093 310.78 8.69C312.437 6.37066 314.732 4.572 317.667 3.294C320.649 1.96866 323.986 1.306 327.678 1.306C334.447 1.306 339.961 3.10466 344.221 6.702C344.836 7.22266 345.262 7.74333 345.499 8.264C345.783 8.73733 345.925 9.35267 345.925 10.11C345.925 11.104 345.617 11.9797 345.002 12.737C344.434 13.447 343.748 13.802 342.943 13.802C342.47 13.802 342.02 13.731 341.594 13.589C341.215 13.447 340.695 13.1867 340.032 12.808C338.091 11.388 336.198 10.3467 334.352 9.684C332.553 8.974 330.329 8.619 327.678 8.619C324.459 8.619 321.903 9.28167 320.01 10.607C318.164 11.885 317.241 13.6837 317.241 16.003C317.241 17.9437 318.069 19.4347 319.726 20.476C321.383 21.5173 324.199 22.4877 328.175 23.387C332.388 24.3337 335.796 25.3987 338.399 26.582C341.05 27.718 343.061 29.1853 344.434 30.984C345.854 32.7827 346.564 35.031 346.564 37.729C346.564 40.6637 345.736 43.267 344.079 45.539C342.47 47.7637 340.174 49.515 337.192 50.793C334.257 52.0237 330.873 52.639 327.039 52.639ZM381.687 42.486C382.492 42.486 383.131 42.7937 383.604 43.409C384.125 44.0243 384.385 44.8527 384.385 45.894C384.385 47.3613 383.51 48.592 381.758 49.586C380.149 50.4853 378.327 51.219 376.291 51.787C374.256 52.3077 372.315 52.568 370.469 52.568C364.884 52.568 360.458 50.9587 357.192 47.74C353.926 44.5213 352.293 40.1193 352.293 34.534C352.293 30.984 353.003 27.8363 354.423 25.091C355.843 22.3457 357.831 20.2157 360.387 18.701C362.991 17.1863 365.925 16.429 369.191 16.429C372.315 16.429 375.037 17.1153 377.356 18.488C379.676 19.8607 381.474 21.8013 382.752 24.31C384.03 26.8187 384.669 29.777 384.669 33.185C384.669 35.2203 383.77 36.238 381.971 36.238H361.026C361.31 39.504 362.233 41.918 363.795 43.48C365.357 44.9947 367.629 45.752 370.611 45.752C372.126 45.752 373.451 45.5627 374.587 45.184C375.771 44.8053 377.096 44.2847 378.563 43.622C379.983 42.8647 381.025 42.486 381.687 42.486ZM369.404 22.677C366.99 22.677 365.05 23.4343 363.582 24.949C362.162 26.4637 361.31 28.641 361.026 31.481H377.072C376.978 28.5937 376.268 26.4163 374.942 24.949C373.617 23.4343 371.771 22.677 369.404 22.677ZM411.312 16.571C412.543 16.4763 413.513 16.7367 414.223 17.352C414.933 17.9673 415.288 18.8903 415.288 20.121C415.288 21.399 414.98 22.3457 414.365 22.961C413.75 23.5763 412.637 23.9787 411.028 24.168L408.898 24.381C406.105 24.665 404.046 25.6117 402.721 27.221C401.443 28.8303 400.804 30.842 400.804 33.256V48.166C400.804 49.5387 400.378 50.6037 399.526 51.361C398.674 52.071 397.609 52.426 396.331 52.426C395.053 52.426 393.988 52.071 393.136 51.361C392.331 50.6037 391.929 49.5387 391.929 48.166V20.689C391.929 19.3637 392.331 18.346 393.136 17.636C393.988 16.926 395.029 16.571 396.26 16.571C397.491 16.571 398.485 16.926 399.242 17.636C399.999 18.2987 400.378 19.269 400.378 20.547V23.387C401.277 21.3043 402.603 19.695 404.354 18.559C406.153 17.423 408.141 16.784 410.318 16.642L411.312 16.571ZM445.469 19.127C445.848 18.275 446.345 17.636 446.96 17.21C447.623 16.784 448.333 16.571 449.09 16.571C450.179 16.571 451.149 16.9497 452.001 17.707C452.9 18.417 453.35 19.3163 453.35 20.405C453.35 20.973 453.208 21.541 452.924 22.109L439.789 49.586C439.363 50.4853 438.748 51.1717 437.943 51.645C437.186 52.1183 436.334 52.355 435.387 52.355C434.488 52.355 433.612 52.1183 432.76 51.645C431.955 51.1717 431.34 50.4853 430.914 49.586L417.708 22.109C417.471 21.6357 417.353 21.0913 417.353 20.476C417.353 19.3873 417.803 18.4643 418.702 17.707C419.649 16.9497 420.714 16.571 421.897 16.571C423.601 16.571 424.855 17.3993 425.66 19.056L435.6 40.995L445.469 19.127ZM464.211 52.426C462.933 52.426 461.868 52.071 461.016 51.361C460.211 50.6037 459.809 49.5387 459.809 48.166V20.76C459.809 19.3873 460.211 18.346 461.016 17.636C461.868 16.926 462.933 16.571 464.211 16.571C465.489 16.571 466.554 16.926 467.406 17.636C468.258 18.346 468.684 19.3873 468.684 20.76V48.166C468.684 49.5387 468.258 50.6037 467.406 51.361C466.554 52.071 465.489 52.426 464.211 52.426ZM464.211 10.252C462.602 10.252 461.324 9.826 460.377 8.974C459.43 8.07467 458.957 6.915 458.957 5.495C458.957 4.075 459.43 2.939 460.377 2.087C461.324 1.235 462.602 0.808999 464.211 0.808999C465.773 0.808999 467.027 1.235 467.974 2.087C468.968 2.939 469.465 4.075 469.465 5.495C469.465 6.915 468.992 8.07467 468.045 8.974C467.098 9.826 465.82 10.252 464.211 10.252ZM493.243 52.568C489.788 52.568 486.735 51.8343 484.084 50.367C481.481 48.8997 479.469 46.817 478.049 44.119C476.629 41.421 475.919 38.2733 475.919 34.676C475.919 31.0787 476.653 27.9073 478.12 25.162C479.635 22.3693 481.741 20.2157 484.439 18.701C487.137 17.1863 490.238 16.429 493.74 16.429C495.586 16.429 497.432 16.6893 499.278 17.21C501.172 17.7307 502.828 18.4407 504.248 19.34C505.763 20.334 506.52 21.5883 506.52 23.103C506.52 24.1443 506.26 24.9963 505.739 25.659C505.266 26.2743 504.627 26.582 503.822 26.582C503.302 26.582 502.757 26.4637 502.189 26.227C501.621 25.9903 501.053 25.7063 500.485 25.375C499.444 24.7597 498.45 24.2863 497.503 23.955C496.557 23.5763 495.468 23.387 494.237 23.387C491.303 23.387 489.031 24.3573 487.421 26.298C485.859 28.1913 485.078 30.9367 485.078 34.534C485.078 38.084 485.859 40.8293 487.421 42.77C489.031 44.6633 491.303 45.61 494.237 45.61C495.421 45.61 496.462 45.4443 497.361 45.113C498.308 44.7343 499.349 44.2373 500.485 43.622C501.195 43.196 501.811 42.8883 502.331 42.699C502.852 42.4623 503.373 42.344 503.893 42.344C504.651 42.344 505.29 42.6753 505.81 43.338C506.331 44.0007 506.591 44.829 506.591 45.823C506.591 46.6277 506.402 47.3377 506.023 47.953C505.692 48.521 505.124 49.0417 504.319 49.515C502.852 50.4617 501.148 51.219 499.207 51.787C497.267 52.3077 495.279 52.568 493.243 52.568ZM539.981 42.486C540.786 42.486 541.425 42.7937 541.898 43.409C542.419 44.0243 542.679 44.8527 542.679 45.894C542.679 47.3613 541.803 48.592 540.052 49.586C538.443 50.4853 536.62 51.219 534.585 51.787C532.55 52.3077 530.609 52.568 528.763 52.568C523.178 52.568 518.752 50.9587 515.486 47.74C512.22 44.5213 510.587 40.1193 510.587 34.534C510.587 30.984 511.297 27.8363 512.717 25.091C514.137 22.3457 516.125 20.2157 518.681 18.701C521.284 17.1863 524.219 16.429 527.485 16.429C530.609 16.429 533.331 17.1153 535.65 18.488C537.969 19.8607 539.768 21.8013 541.046 24.31C542.324 26.8187 542.963 29.777 542.963 33.185C542.963 35.2203 542.064 36.238 540.265 36.238H519.32C519.604 39.504 520.527 41.918 522.089 43.48C523.651 44.9947 525.923 45.752 528.905 45.752C530.42 45.752 531.745 45.5627 532.881 45.184C534.064 44.8053 535.39 44.2847 536.857 43.622C538.277 42.8647 539.318 42.486 539.981 42.486ZM527.698 22.677C525.284 22.677 523.343 23.4343 521.876 24.949C520.456 26.4637 519.604 28.641 519.32 31.481H535.366C535.271 28.5937 534.561 26.4163 533.236 24.949C531.911 23.4343 530.065 22.677 527.698 22.677ZM562.79 52.568C557.631 52.568 553.465 51.5503 550.294 49.515C548.779 48.6157 548.022 47.3377 548.022 45.681C548.022 44.7343 548.282 43.977 548.803 43.409C549.324 42.7937 549.963 42.486 550.72 42.486C551.525 42.486 552.637 42.8647 554.057 43.622C555.572 44.332 556.944 44.8763 558.175 45.255C559.453 45.6337 561.062 45.823 563.003 45.823C564.991 45.823 566.529 45.4917 567.618 44.829C568.754 44.1663 569.322 43.2433 569.322 42.06C569.322 41.2553 569.085 40.6163 568.612 40.143C568.186 39.6697 567.381 39.2437 566.198 38.865C565.062 38.439 563.311 37.9657 560.944 37.445C556.731 36.593 553.702 35.386 551.856 33.824C550.057 32.262 549.158 30.1083 549.158 27.363C549.158 25.2803 549.773 23.4107 551.004 21.754C552.235 20.05 553.915 18.7483 556.045 17.849C558.222 16.9023 560.684 16.429 563.429 16.429C565.417 16.429 567.334 16.6893 569.18 17.21C571.026 17.6833 572.683 18.3933 574.15 19.34C575.665 20.2867 576.422 21.541 576.422 23.103C576.422 24.0497 576.162 24.8543 575.641 25.517C575.12 26.1323 574.481 26.44 573.724 26.44C573.203 26.44 572.683 26.3453 572.162 26.156C571.689 25.9193 571.073 25.588 570.316 25.162C568.943 24.452 567.76 23.9313 566.766 23.6C565.772 23.2213 564.541 23.032 563.074 23.032C561.323 23.032 559.926 23.387 558.885 24.097C557.891 24.807 557.394 25.7773 557.394 27.008C557.394 28.1913 557.915 29.0907 558.956 29.706C559.997 30.3213 562.009 30.9367 564.991 31.552C568.162 32.2147 570.647 32.972 572.446 33.824C574.245 34.676 575.523 35.741 576.28 37.019C577.085 38.297 577.487 39.93 577.487 41.918C577.487 45.1367 576.138 47.7163 573.44 49.657C570.789 51.5977 567.239 52.568 562.79 52.568ZM619.01 16.429C623.838 16.429 627.412 17.636 629.731 20.05C632.098 22.4167 633.281 26.0377 633.281 30.913V48.237C633.281 49.515 632.903 50.5327 632.145 51.29C631.388 52 630.347 52.355 629.021 52.355C627.791 52.355 626.773 51.9763 625.968 51.219C625.211 50.4617 624.832 49.4677 624.832 48.237V46.675C624.028 48.521 622.75 49.9647 620.998 51.006C619.294 52.0473 617.306 52.568 615.034 52.568C612.715 52.568 610.609 52.0947 608.715 51.148C606.822 50.2013 605.331 48.8997 604.242 47.243C603.154 45.5863 602.609 43.7403 602.609 41.705C602.609 39.149 603.248 37.1373 604.526 35.67C605.852 34.2027 607.982 33.1377 610.916 32.475C613.851 31.8123 617.898 31.481 623.057 31.481H624.832V29.848C624.832 27.5287 624.335 25.8483 623.341 24.807C622.347 23.7183 620.738 23.174 618.513 23.174C617.141 23.174 615.744 23.387 614.324 23.813C612.904 24.1917 611.224 24.7597 609.283 25.517C608.053 26.1323 607.153 26.44 606.585 26.44C605.733 26.44 605.023 26.1323 604.455 25.517C603.935 24.9017 603.674 24.097 603.674 23.103C603.674 22.2983 603.864 21.612 604.242 21.044C604.668 20.4287 605.355 19.8607 606.301 19.34C607.958 18.4407 609.922 17.7307 612.194 17.21C614.514 16.6893 616.786 16.429 619.01 16.429ZM616.809 46.178C619.176 46.178 621.093 45.397 622.56 43.835C624.075 42.2257 624.832 40.1667 624.832 37.658V36.167H623.554C620.383 36.167 617.922 36.309 616.17 36.593C614.419 36.877 613.165 37.374 612.407 38.084C611.65 38.794 611.271 39.7643 611.271 40.995C611.271 42.5097 611.792 43.764 612.833 44.758C613.922 45.7047 615.247 46.178 616.809 46.178ZM654.868 52.568C649.709 52.568 645.543 51.5503 642.372 49.515C640.857 48.6157 640.1 47.3377 640.1 45.681C640.1 44.7343 640.36 43.977 640.881 43.409C641.402 42.7937 642.041 42.486 642.798 42.486C643.603 42.486 644.715 42.8647 646.135 43.622C647.65 44.332 649.022 44.8763 650.253 45.255C651.531 45.6337 653.14 45.823 655.081 45.823C657.069 45.823 658.607 45.4917 659.696 44.829C660.832 44.1663 661.4 43.2433 661.4 42.06C661.4 41.2553 661.163 40.6163 660.69 40.143C660.264 39.6697 659.459 39.2437 658.276 38.865C657.14 38.439 655.389 37.9657 653.022 37.445C648.809 36.593 645.78 35.386 643.934 33.824C642.135 32.262 641.236 30.1083 641.236 27.363C641.236 25.2803 641.851 23.4107 643.082 21.754C644.313 20.05 645.993 18.7483 648.123 17.849C650.3 16.9023 652.762 16.429 655.507 16.429C657.495 16.429 659.412 16.6893 661.258 17.21C663.104 17.6833 664.761 18.3933 666.228 19.34C667.743 20.2867 668.5 21.541 668.5 23.103C668.5 24.0497 668.24 24.8543 667.719 25.517C667.198 26.1323 666.559 26.44 665.802 26.44C665.281 26.44 664.761 26.3453 664.24 26.156C663.767 25.9193 663.151 25.588 662.394 25.162C661.021 24.452 659.838 23.9313 658.844 23.6C657.85 23.2213 656.619 23.032 655.152 23.032C653.401 23.032 652.004 23.387 650.963 24.097C649.969 24.807 649.472 25.7773 649.472 27.008C649.472 28.1913 649.993 29.0907 651.034 29.706C652.075 30.3213 654.087 30.9367 657.069 31.552C660.24 32.2147 662.725 32.972 664.524 33.824C666.323 34.676 667.601 35.741 668.358 37.019C669.163 38.297 669.565 39.93 669.565 41.918C669.565 45.1367 668.216 47.7163 665.518 49.657C662.867 51.5977 659.317 52.568 654.868 52.568Z" fill="white"/>
</svg>
