<svg width="219" height="89" viewBox="0 0 219 89" fill="none" xmlns="http://www.w3.org/2000/svg">
<path d="M15.5117 0.34375C17.7318 0.34375 20.0664 0.422526 22.5156 0.580078C24.9648 0.73763 27.543 1.04557 30.25 1.50391V6.96094C29.2904 6.6888 28.1947 6.43099 26.9629 6.1875C25.903 5.98698 24.6283 5.79362 23.1387 5.60742C21.6491 5.42122 19.9661 5.29948 18.0898 5.24219V33.043H12.9766V5.24219C11.1003 5.29948 9.41732 5.42122 7.92773 5.60742C6.43815 5.79362 5.16341 5.98698 4.10352 6.1875C2.87174 6.43099 1.77604 6.6888 0.816406 6.96094V1.50391C3.49479 1.04557 6.07292 0.73763 8.55078 0.580078C11.0286 0.422526 13.349 0.34375 15.5117 0.34375ZM44.043 14.1367H58.4805V0.644531C59.7122 0.6875 60.8724 0.759115 61.9609 0.859375C63.0495 0.959635 64.0163 1.06706 64.8613 1.18164C65.8353 1.31055 66.7448 1.44661 67.5898 1.58984V7.08984C67.0312 6.91797 66.4154 6.76042 65.7422 6.61719C65.069 6.45964 64.3672 6.31641 63.6367 6.1875V27.457C65.2122 27.1992 66.5299 26.8984 67.5898 26.5547V32.0117C66.5586 32.1836 65.6133 32.3268 64.7539 32.4414C63.8945 32.556 63.0996 32.6491 62.3691 32.7207C61.6387 32.7923 60.9512 32.8496 60.3066 32.8926C59.6764 32.9355 59.0677 32.9714 58.4805 33V19.3359H44.043V33C43.4557 32.9714 42.8398 32.9355 42.1953 32.8926C41.5651 32.8496 40.8848 32.7923 40.1543 32.7207C39.4238 32.6491 38.6289 32.556 37.7695 32.4414C36.9102 32.3268 35.9648 32.1836 34.9336 32.0117V26.5547C35.4922 26.7266 36.0938 26.8913 36.7383 27.0488C37.3971 27.1921 38.1133 27.3281 38.8867 27.457V6.1875C37.3971 6.44531 36.0794 6.74609 34.9336 7.08984V1.58984C35.75 1.44661 36.6523 1.31055 37.6406 1.18164C38.4714 1.06706 39.4382 0.959635 40.541 0.859375C41.6439 0.759115 42.8112 0.6875 44.043 0.644531V14.1367ZM89.8477 0.300781C92.0534 0.300781 94.388 0.379557 96.8516 0.537109C99.3294 0.694661 101.908 1.0026 104.586 1.46094V6.91797C103.383 6.57422 102.165 6.29492 100.934 6.08008C99.7018 5.85091 98.4629 5.67188 97.2168 5.54297C95.985 5.41406 94.7533 5.32096 93.5215 5.26367C92.2897 5.20638 91.0651 5.17057 89.8477 5.15625C89.2604 5.15625 88.6087 5.17057 87.8926 5.19922C87.1908 5.21354 86.4388 5.24219 85.6367 5.28516C84.849 5.32812 84.0182 5.39258 83.1445 5.47852C82.2708 5.56445 81.3828 5.67188 80.4805 5.80078V13.6211H99.2578V18.9062H80.4805V27.543C81.8698 27.7435 83.3164 27.8939 84.8203 27.9941C86.3242 28.0944 88 28.1445 89.8477 28.1445C92.3398 28.1445 94.8177 28.0228 97.2812 27.7793C99.7448 27.5358 102.18 27.0703 104.586 26.3828V31.8398C101.908 32.2982 99.3366 32.6061 96.873 32.7637C94.4095 32.9212 92.0964 33 89.9336 33C87.7279 33 85.3861 32.9212 82.9082 32.7637C80.4447 32.6061 77.8594 32.2982 75.1523 31.8398V1.46094C77.8594 1.0026 80.4447 0.694661 82.9082 0.537109C85.3717 0.379557 87.6849 0.300781 89.8477 0.300781ZM17.918 54.6992C20.0807 54.6992 22.1289 54.8926 24.0625 55.2793C25.9961 55.6517 27.679 56.1816 29.1113 56.8691C30.5579 57.5566 31.7038 58.3802 32.5488 59.3398C33.3939 60.2852 33.8164 61.3307 33.8164 62.4766V66.2578H28.1445V64.1523C28.1445 63.5365 27.9082 62.9492 27.4355 62.3906C26.9629 61.8177 26.2826 61.3236 25.3945 60.9082C24.5208 60.4785 23.4538 60.1419 22.1934 59.8984C20.9329 59.6406 19.5078 59.5117 17.918 59.5117C16.3854 59.5117 14.9889 59.6335 13.7285 59.877C12.4681 60.1061 11.3867 60.4284 10.4844 60.8438C9.58203 61.2591 8.88021 61.7533 8.37891 62.3262C7.89193 62.8848 7.64844 63.4935 7.64844 64.1523V79.3203C7.64844 79.9505 7.89193 80.5449 8.37891 81.1035C8.88021 81.6621 9.58203 82.1491 10.4844 82.5645C11.3867 82.9655 12.4681 83.2878 13.7285 83.5312C14.9889 83.7604 16.3854 83.875 17.918 83.875C19.5078 83.875 20.9329 83.7533 22.1934 83.5098C23.4538 83.252 24.5208 82.9154 25.3945 82.5C26.2826 82.0846 26.9629 81.6048 27.4355 81.0605C27.9082 80.502 28.1445 79.9219 28.1445 79.3203V77.1719H33.8164V80.9531C33.8164 81.7122 33.623 82.4355 33.2363 83.123C32.8496 83.7962 32.3053 84.4193 31.6035 84.9922C30.916 85.5651 30.0853 86.0807 29.1113 86.5391C28.1517 86.9831 27.0775 87.3698 25.8887 87.6992C24.7142 88.0143 23.4538 88.2578 22.1074 88.4297C20.7611 88.6016 19.3646 88.6875 17.918 88.6875C16.4714 88.6875 15.0749 88.6016 13.7285 88.4297C12.3822 88.2578 11.1146 88.0143 9.92578 87.6992C8.7513 87.3698 7.67708 86.9831 6.70312 86.5391C5.74349 86.0807 4.91276 85.5651 4.21094 84.9922C3.52344 84.4193 2.98633 83.7962 2.59961 83.123C2.21289 82.4355 2.01953 81.7122 2.01953 80.9531V62.4766C2.01953 61.7174 2.21289 60.9941 2.59961 60.3066C2.98633 59.6191 3.52344 58.9889 4.21094 58.416C4.91276 57.8431 5.74349 57.3275 6.70312 56.8691C7.67708 56.4108 8.7513 56.0241 9.92578 55.709C11.1146 55.3796 12.3822 55.1289 13.7285 54.957C15.0749 54.7852 16.4714 54.6992 17.918 54.6992ZM51.2188 55.1719C52.651 55.1719 54.112 55.2435 55.6016 55.3867C57.1055 55.5156 58.5664 55.752 59.9844 56.0957C61.4023 56.4251 62.7344 56.8906 63.9805 57.4922C65.2266 58.0794 66.3151 58.8314 67.2461 59.748C68.1914 60.6504 68.9362 61.7389 69.4805 63.0137C70.0247 64.2741 70.2969 65.7565 70.2969 67.4609C70.2969 69.8099 69.8743 71.7936 69.0293 73.4121C68.1842 75.0163 67.0312 76.3125 65.5703 77.3008C66.1862 78.2461 66.7161 79.2344 67.1602 80.2656C67.6042 81.2969 67.9622 82.2995 68.2344 83.2734C68.5208 84.2331 68.7285 85.1283 68.8574 85.959C68.9863 86.7897 69.0508 87.4844 69.0508 88.043H63.5508C63.5508 87.1693 63.4792 86.3457 63.3359 85.5723C63.1927 84.7845 62.9922 84.0397 62.7344 83.3379C62.4766 82.6217 62.1758 81.9486 61.832 81.3184C61.5026 80.6882 61.1445 80.0794 60.7578 79.4922C59.3971 79.8789 57.9577 80.1582 56.4395 80.3301C54.9212 80.4876 53.3385 80.5664 51.6914 80.5664C50.7031 80.5664 49.7005 80.5378 48.6836 80.4805C47.6667 80.4232 46.6641 80.3516 45.6758 80.2656V87.957H40.3477V56.418C40.6628 56.3177 41.1641 56.196 41.8516 56.0527C42.5534 55.9095 43.377 55.7734 44.3223 55.6445C45.2819 55.5156 46.349 55.4082 47.5234 55.3223C48.6979 55.222 49.9297 55.1719 51.2188 55.1719ZM52.7656 59.8984C51.8203 59.8984 50.918 59.9414 50.0586 60.0273C49.1992 60.099 48.4473 60.1849 47.8027 60.2852C47.0293 60.3997 46.3203 60.5286 45.6758 60.6719V75.3672C46.1341 75.4674 46.6426 75.5534 47.2012 75.625C47.6738 75.6966 48.2253 75.7611 48.8555 75.8184C49.4857 75.8613 50.1589 75.8828 50.875 75.8828C51.806 75.8828 52.7871 75.8613 53.8184 75.8184C54.8639 75.7611 55.8952 75.6393 56.9121 75.4531C57.9434 75.2669 58.9173 74.9948 59.834 74.6367C60.765 74.2643 61.5814 73.7773 62.2832 73.1758C62.9993 72.5599 63.5651 71.8008 63.9805 70.8984C64.4102 69.9961 64.625 68.9076 64.625 67.6328C64.625 66.5729 64.4531 65.6419 64.1094 64.8398C63.7656 64.0378 63.3001 63.3503 62.7129 62.7773C62.1257 62.2044 61.4382 61.7318 60.6504 61.3594C59.877 60.987 59.0462 60.6934 58.1582 60.4785C57.2845 60.2637 56.3822 60.1133 55.4512 60.0273C54.5345 59.9414 53.6393 59.8984 52.7656 59.8984ZM83.4453 79.2344C83.4453 79.8646 83.6816 80.4518 84.1543 80.9961C84.6413 81.5404 85.3216 82.0202 86.1953 82.4355C87.0833 82.8366 88.1432 83.1589 89.375 83.4023C90.6211 83.6315 92.0104 83.7461 93.543 83.7461C95.1042 83.7461 96.5078 83.6243 97.7539 83.3809C99 83.123 100.053 82.7865 100.912 82.3711C101.786 81.9557 102.452 81.4759 102.91 80.9316C103.368 80.3874 103.598 79.8216 103.598 79.2344V55.7734C104.829 55.8307 105.99 55.9167 107.078 56.0312C108.167 56.1315 109.133 56.2389 109.979 56.3535C110.952 56.4824 111.862 56.6185 112.707 56.7617V62.2617C112.363 62.1471 111.869 62.0111 111.225 61.8535C110.58 61.6816 109.871 61.5312 109.098 61.4023V80.8242C109.098 81.9557 108.682 82.987 107.852 83.918C107.035 84.849 105.918 85.651 104.5 86.3242C103.096 86.9831 101.449 87.4987 99.5586 87.8711C97.668 88.2435 95.6628 88.4297 93.543 88.4297C91.4089 88.4297 89.3965 88.2435 87.5059 87.8711C85.6152 87.4987 83.9609 86.9831 82.543 86.3242C81.125 85.651 80.0007 84.849 79.1699 83.918C78.3535 82.987 77.9453 81.9557 77.9453 80.8242V61.4023C77.1719 61.5599 76.4557 61.7174 75.7969 61.875C75.1523 62.0182 74.6654 62.1471 74.3359 62.2617V56.7617C75.1523 56.6185 76.0547 56.4824 77.043 56.3535C77.8737 56.2389 78.8405 56.1315 79.9434 56.0312C81.0462 55.9167 82.2135 55.8307 83.4453 55.7734V79.2344ZM130.539 55.3438C132.759 55.3438 135.094 55.4225 137.543 55.5801C139.992 55.7376 142.57 56.0456 145.277 56.5039V61.9609C144.318 61.6888 143.222 61.431 141.99 61.1875C140.93 60.987 139.656 60.7936 138.166 60.6074C136.676 60.4212 134.993 60.2995 133.117 60.2422V88.043H128.004V60.2422C126.128 60.2995 124.445 60.4212 122.955 60.6074C121.465 60.7936 120.191 60.987 119.131 61.1875C117.899 61.431 116.803 61.6888 115.844 61.9609V56.5039C118.522 56.0456 121.1 55.7376 123.578 55.5801C126.056 55.4225 128.376 55.3438 130.539 55.3438ZM164.012 54.6992C166.174 54.6992 168.223 54.8926 170.156 55.2793C172.09 55.6517 173.773 56.1816 175.205 56.8691C176.652 57.5566 177.798 58.3802 178.643 59.3398C179.488 60.2852 179.91 61.3307 179.91 62.4766V66.2578H174.238V64.1523C174.238 63.5365 174.002 62.9492 173.529 62.3906C173.057 61.8177 172.376 61.3236 171.488 60.9082C170.615 60.4785 169.548 60.1419 168.287 59.8984C167.027 59.6406 165.602 59.5117 164.012 59.5117C162.479 59.5117 161.083 59.6335 159.822 59.877C158.562 60.1061 157.48 60.4284 156.578 60.8438C155.676 61.2591 154.974 61.7533 154.473 62.3262C153.986 62.8848 153.742 63.4935 153.742 64.1523V79.3203C153.742 79.9505 153.986 80.5449 154.473 81.1035C154.974 81.6621 155.676 82.1491 156.578 82.5645C157.48 82.9655 158.562 83.2878 159.822 83.5312C161.083 83.7604 162.479 83.875 164.012 83.875C165.602 83.875 167.027 83.7533 168.287 83.5098C169.548 83.252 170.615 82.9154 171.488 82.5C172.376 82.0846 173.057 81.6048 173.529 81.0605C174.002 80.502 174.238 79.9219 174.238 79.3203V77.1719H179.91V80.9531C179.91 81.7122 179.717 82.4355 179.33 83.123C178.943 83.7962 178.399 84.4193 177.697 84.9922C177.01 85.5651 176.179 86.0807 175.205 86.5391C174.245 86.9831 173.171 87.3698 171.982 87.6992C170.808 88.0143 169.548 88.2578 168.201 88.4297C166.855 88.6016 165.458 88.6875 164.012 88.6875C162.565 88.6875 161.169 88.6016 159.822 88.4297C158.476 88.2578 157.208 88.0143 156.02 87.6992C154.845 87.3698 153.771 86.9831 152.797 86.5391C151.837 86.0807 151.007 85.5651 150.305 84.9922C149.617 84.4193 149.08 83.7962 148.693 83.123C148.307 82.4355 148.113 81.7122 148.113 80.9531V62.4766C148.113 61.7174 148.307 60.9941 148.693 60.3066C149.08 59.6191 149.617 58.9889 150.305 58.416C151.007 57.8431 151.837 57.3275 152.797 56.8691C153.771 56.4108 154.845 56.0241 156.02 55.709C157.208 55.3796 158.476 55.1289 159.822 54.957C161.169 54.7852 162.565 54.6992 164.012 54.6992ZM194.863 69.1367H209.301V55.6445C210.533 55.6875 211.693 55.7591 212.781 55.8594C213.87 55.9596 214.837 56.0671 215.682 56.1816C216.656 56.3105 217.565 56.4466 218.41 56.5898V62.0898C217.852 61.918 217.236 61.7604 216.562 61.6172C215.889 61.4596 215.188 61.3164 214.457 61.1875V82.457C216.033 82.1992 217.35 81.8984 218.41 81.5547V87.0117C217.379 87.1836 216.434 87.3268 215.574 87.4414C214.715 87.556 213.92 87.6491 213.189 87.7207C212.459 87.7923 211.771 87.8496 211.127 87.8926C210.497 87.9355 209.888 87.9714 209.301 88V74.3359H194.863V88C194.276 87.9714 193.66 87.9355 193.016 87.8926C192.385 87.8496 191.705 87.7923 190.975 87.7207C190.244 87.6491 189.449 87.556 188.59 87.4414C187.73 87.3268 186.785 87.1836 185.754 87.0117V81.5547C186.312 81.7266 186.914 81.8913 187.559 82.0488C188.217 82.1921 188.934 82.3281 189.707 82.457V61.1875C188.217 61.4453 186.9 61.7461 185.754 62.0898V56.5898C186.57 56.4466 187.473 56.3105 188.461 56.1816C189.292 56.0671 190.258 55.9596 191.361 55.8594C192.464 55.7591 193.632 55.6875 194.863 55.6445V69.1367Z" fill="#F2F2F2"/>
</svg>
