<svg width="974" height="112" viewBox="0 0 974 112" fill="none" xmlns="http://www.w3.org/2000/svg">
<path d="M172.574 72.639C168.929 72.639 165.474 72.1657 162.208 71.219C158.989 70.225 156.362 68.8997 154.327 67.243C153.238 66.4383 152.694 65.3023 152.694 63.835C152.694 62.841 152.978 61.989 153.546 61.279C154.161 60.5217 154.871 60.143 155.676 60.143C156.528 60.143 157.498 60.4743 158.587 61.137C160.622 62.6043 162.752 63.6693 164.977 64.332C167.202 64.9947 169.663 65.326 172.361 65.326C175.816 65.326 178.467 64.7343 180.313 63.551C182.159 62.3203 183.082 60.5453 183.082 58.226C183.082 56.4273 182.206 55.0547 180.455 54.108C178.751 53.114 175.887 52.1673 171.864 51.268C167.699 50.3687 164.314 49.3273 161.711 48.144C159.108 46.9607 157.143 45.446 155.818 43.6C154.493 41.754 153.83 39.411 153.83 36.571C153.83 33.6363 154.658 31.0093 156.315 28.69C157.972 26.3707 160.267 24.572 163.202 23.294C166.184 21.9687 169.521 21.306 173.213 21.306C179.982 21.306 185.496 23.1047 189.756 26.702C190.371 27.2227 190.797 27.7433 191.034 28.264C191.318 28.7373 191.46 29.3527 191.46 30.11C191.46 31.104 191.152 31.9797 190.537 32.737C189.969 33.447 189.283 33.802 188.478 33.802C188.005 33.802 187.555 33.731 187.129 33.589C186.75 33.447 186.23 33.1867 185.567 32.808C183.626 31.388 181.733 30.3467 179.887 29.684C178.088 28.974 175.864 28.619 173.213 28.619C169.994 28.619 167.438 29.2817 165.545 30.607C163.699 31.885 162.776 33.6837 162.776 36.003C162.776 37.9437 163.604 39.4347 165.261 40.476C166.918 41.5173 169.734 42.4877 173.71 43.387C177.923 44.3337 181.331 45.3987 183.934 46.582C186.585 47.718 188.596 49.1853 189.969 50.984C191.389 52.7827 192.099 55.031 192.099 57.729C192.099 60.6637 191.271 63.267 189.614 65.539C188.005 67.7637 185.709 69.515 182.727 70.793C179.792 72.0237 176.408 72.639 172.574 72.639ZM227.222 62.486C228.027 62.486 228.666 62.7937 229.139 63.409C229.66 64.0243 229.92 64.8527 229.92 65.894C229.92 67.3613 229.045 68.592 227.293 69.586C225.684 70.4853 223.862 71.219 221.826 71.787C219.791 72.3077 217.85 72.568 216.004 72.568C210.419 72.568 205.993 70.9587 202.727 67.74C199.461 64.5213 197.828 60.1193 197.828 54.534C197.828 50.984 198.538 47.8363 199.958 45.091C201.378 42.3457 203.366 40.2157 205.922 38.701C208.526 37.1863 211.46 36.429 214.726 36.429C217.85 36.429 220.572 37.1153 222.891 38.488C225.211 39.8607 227.009 41.8013 228.287 44.31C229.565 46.8187 230.204 49.777 230.204 53.185C230.204 55.2203 229.305 56.238 227.506 56.238H206.561C206.845 59.504 207.768 61.918 209.33 63.48C210.892 64.9947 213.164 65.752 216.146 65.752C217.661 65.752 218.986 65.5627 220.122 65.184C221.306 64.8053 222.631 64.2847 224.098 63.622C225.518 62.8647 226.56 62.486 227.222 62.486ZM214.939 42.677C212.525 42.677 210.585 43.4343 209.117 44.949C207.697 46.4637 206.845 48.641 206.561 51.481H222.607C222.513 48.5937 221.803 46.4163 220.477 44.949C219.152 43.4343 217.306 42.677 214.939 42.677ZM264.941 62.486C265.746 62.486 266.385 62.7937 266.858 63.409C267.379 64.0243 267.639 64.8527 267.639 65.894C267.639 67.3613 266.763 68.592 265.012 69.586C263.403 70.4853 261.58 71.219 259.545 71.787C257.51 72.3077 255.569 72.568 253.723 72.568C248.138 72.568 243.712 70.9587 240.446 67.74C237.18 64.5213 235.547 60.1193 235.547 54.534C235.547 50.984 236.257 47.8363 237.677 45.091C239.097 42.3457 241.085 40.2157 243.641 38.701C246.244 37.1863 249.179 36.429 252.445 36.429C255.569 36.429 258.291 37.1153 260.61 38.488C262.929 39.8607 264.728 41.8013 266.006 44.31C267.284 46.8187 267.923 49.777 267.923 53.185C267.923 55.2203 267.024 56.238 265.225 56.238H244.28C244.564 59.504 245.487 61.918 247.049 63.48C248.611 64.9947 250.883 65.752 253.865 65.752C255.38 65.752 256.705 65.5627 257.841 65.184C259.024 64.8053 260.35 64.2847 261.817 63.622C263.237 62.8647 264.278 62.486 264.941 62.486ZM252.658 42.677C250.244 42.677 248.303 43.4343 246.836 44.949C245.416 46.4637 244.564 48.641 244.28 51.481H260.326C260.231 48.5937 259.521 46.4163 258.196 44.949C256.871 43.4343 255.025 42.677 252.658 42.677ZM306.068 65.113C307.015 66.0123 307.488 67.03 307.488 68.166C307.488 69.2547 307.086 70.225 306.281 71.077C305.524 71.929 304.624 72.355 303.583 72.355C302.542 72.355 301.571 71.929 300.672 71.077L284.058 56.025V68.166C284.058 69.5387 283.632 70.58 282.78 71.29C281.928 72 280.863 72.355 279.585 72.355C278.307 72.355 277.242 72 276.39 71.29C275.585 70.58 275.183 69.5387 275.183 68.166V25.779C275.183 24.4063 275.585 23.365 276.39 22.655C277.242 21.945 278.307 21.59 279.585 21.59C280.863 21.59 281.928 21.945 282.78 22.655C283.632 23.365 284.058 24.4063 284.058 25.779V52.475L299.252 37.92C300.104 37.068 301.074 36.642 302.163 36.642C303.252 36.642 304.198 37.0443 305.003 37.849C305.808 38.6537 306.21 39.6003 306.21 40.689C306.21 41.7777 305.76 42.7717 304.861 43.671L293.714 54.037L306.068 65.113ZM348.357 72.568C344.807 72.568 341.683 71.8343 338.985 70.367C336.334 68.8997 334.275 66.7933 332.808 64.048C331.34 61.3027 330.607 58.1077 330.607 54.463C330.607 50.8183 331.34 47.647 332.808 44.949C334.275 42.2037 336.334 40.0973 338.985 38.63C341.683 37.1627 344.807 36.429 348.357 36.429C351.907 36.429 355.007 37.1627 357.658 38.63C360.356 40.0973 362.415 42.2037 363.835 44.949C365.302 47.647 366.036 50.8183 366.036 54.463C366.036 58.1077 365.302 61.3027 363.835 64.048C362.415 66.7933 360.356 68.8997 357.658 70.367C355.007 71.8343 351.907 72.568 348.357 72.568ZM348.286 65.681C351.173 65.681 353.374 64.7343 354.889 62.841C356.403 60.9477 357.161 58.155 357.161 54.463C357.161 50.8183 356.403 48.0493 354.889 46.156C353.374 44.2153 351.197 43.245 348.357 43.245C345.517 43.245 343.316 44.2153 341.754 46.156C340.239 48.0493 339.482 50.8183 339.482 54.463C339.482 58.155 340.239 60.9477 341.754 62.841C343.268 64.7343 345.446 65.681 348.286 65.681ZM400.769 36.571C402.141 36.571 403.23 36.9497 404.035 37.707C404.839 38.4643 405.242 39.482 405.242 40.76V68.308C405.242 69.5387 404.816 70.5327 403.964 71.29C403.159 72.0473 402.094 72.426 400.769 72.426C399.491 72.426 398.473 72.071 397.716 71.361C396.958 70.651 396.58 69.6807 396.58 68.45V66.675C395.491 68.5683 394.024 70.0357 392.178 71.077C390.332 72.071 388.249 72.568 385.93 72.568C377.41 72.568 373.15 67.7873 373.15 58.226V40.76C373.15 39.482 373.552 38.4643 374.357 37.707C375.161 36.9497 376.226 36.571 377.552 36.571C378.924 36.571 380.013 36.9497 380.818 37.707C381.622 38.4643 382.025 39.482 382.025 40.76V58.297C382.025 60.7583 382.522 62.5807 383.516 63.764C384.51 64.9473 386.072 65.539 388.202 65.539C390.663 65.539 392.627 64.7343 394.095 63.125C395.609 61.4683 396.367 59.291 396.367 56.593V40.76C396.367 39.482 396.769 38.4643 397.574 37.707C398.378 36.9497 399.443 36.571 400.769 36.571ZM433.862 36.571C435.092 36.4763 436.063 36.7367 436.773 37.352C437.483 37.9673 437.838 38.8903 437.838 40.121C437.838 41.399 437.53 42.3457 436.915 42.961C436.299 43.5763 435.187 43.9787 433.578 44.168L431.448 44.381C428.655 44.665 426.596 45.6117 425.271 47.221C423.993 48.8303 423.354 50.842 423.354 53.256V68.166C423.354 69.5387 422.928 70.6037 422.076 71.361C421.224 72.071 420.159 72.426 418.881 72.426C417.603 72.426 416.538 72.071 415.686 71.361C414.881 70.6037 414.479 69.5387 414.479 68.166V40.689C414.479 39.3637 414.881 38.346 415.686 37.636C416.538 36.926 417.579 36.571 418.81 36.571C420.04 36.571 421.034 36.926 421.792 37.636C422.549 38.2987 422.928 39.269 422.928 40.547V43.387C423.827 41.3043 425.152 39.695 426.904 38.559C428.702 37.423 430.69 36.784 432.868 36.642L433.862 36.571ZM479.039 72.639C475.394 72.639 471.939 72.1657 468.673 71.219C465.454 70.225 462.827 68.8997 460.792 67.243C459.703 66.4383 459.159 65.3023 459.159 63.835C459.159 62.841 459.443 61.989 460.011 61.279C460.626 60.5217 461.336 60.143 462.141 60.143C462.993 60.143 463.963 60.4743 465.052 61.137C467.087 62.6043 469.217 63.6693 471.442 64.332C473.667 64.9947 476.128 65.326 478.826 65.326C482.281 65.326 484.932 64.7343 486.778 63.551C488.624 62.3203 489.547 60.5453 489.547 58.226C489.547 56.4273 488.671 55.0547 486.92 54.108C485.216 53.114 482.352 52.1673 478.329 51.268C474.164 50.3687 470.779 49.3273 468.176 48.144C465.573 46.9607 463.608 45.446 462.283 43.6C460.958 41.754 460.295 39.411 460.295 36.571C460.295 33.6363 461.123 31.0093 462.78 28.69C464.437 26.3707 466.732 24.572 469.667 23.294C472.649 21.9687 475.986 21.306 479.678 21.306C486.447 21.306 491.961 23.1047 496.221 26.702C496.836 27.2227 497.262 27.7433 497.499 28.264C497.783 28.7373 497.925 29.3527 497.925 30.11C497.925 31.104 497.617 31.9797 497.002 32.737C496.434 33.447 495.748 33.802 494.943 33.802C494.47 33.802 494.02 33.731 493.594 33.589C493.215 33.447 492.695 33.1867 492.032 32.808C490.091 31.388 488.198 30.3467 486.352 29.684C484.553 28.974 482.329 28.619 479.678 28.619C476.459 28.619 473.903 29.2817 472.01 30.607C470.164 31.885 469.241 33.6837 469.241 36.003C469.241 37.9437 470.069 39.4347 471.726 40.476C473.383 41.5173 476.199 42.4877 480.175 43.387C484.388 44.3337 487.796 45.3987 490.399 46.582C493.05 47.718 495.061 49.1853 496.434 50.984C497.854 52.7827 498.564 55.031 498.564 57.729C498.564 60.6637 497.736 63.267 496.079 65.539C494.47 67.7637 492.174 69.515 489.192 70.793C486.257 72.0237 482.873 72.639 479.039 72.639ZM533.687 62.486C534.492 62.486 535.131 62.7937 535.604 63.409C536.125 64.0243 536.385 64.8527 536.385 65.894C536.385 67.3613 535.51 68.592 533.758 69.586C532.149 70.4853 530.327 71.219 528.291 71.787C526.256 72.3077 524.315 72.568 522.469 72.568C516.884 72.568 512.458 70.9587 509.192 67.74C505.926 64.5213 504.293 60.1193 504.293 54.534C504.293 50.984 505.003 47.8363 506.423 45.091C507.843 42.3457 509.831 40.2157 512.387 38.701C514.991 37.1863 517.925 36.429 521.191 36.429C524.315 36.429 527.037 37.1153 529.356 38.488C531.676 39.8607 533.474 41.8013 534.752 44.31C536.03 46.8187 536.669 49.777 536.669 53.185C536.669 55.2203 535.77 56.238 533.971 56.238H513.026C513.31 59.504 514.233 61.918 515.795 63.48C517.357 64.9947 519.629 65.752 522.611 65.752C524.126 65.752 525.451 65.5627 526.587 65.184C527.771 64.8053 529.096 64.2847 530.563 63.622C531.983 62.8647 533.025 62.486 533.687 62.486ZM521.404 42.677C518.99 42.677 517.05 43.4343 515.582 44.949C514.162 46.4637 513.31 48.641 513.026 51.481H529.072C528.978 48.5937 528.268 46.4163 526.942 44.949C525.617 43.4343 523.771 42.677 521.404 42.677ZM563.312 36.571C564.543 36.4763 565.513 36.7367 566.223 37.352C566.933 37.9673 567.288 38.8903 567.288 40.121C567.288 41.399 566.98 42.3457 566.365 42.961C565.75 43.5763 564.637 43.9787 563.028 44.168L560.898 44.381C558.105 44.665 556.046 45.6117 554.721 47.221C553.443 48.8303 552.804 50.842 552.804 53.256V68.166C552.804 69.5387 552.378 70.6037 551.526 71.361C550.674 72.071 549.609 72.426 548.331 72.426C547.053 72.426 545.988 72.071 545.136 71.361C544.331 70.6037 543.929 69.5387 543.929 68.166V40.689C543.929 39.3637 544.331 38.346 545.136 37.636C545.988 36.926 547.029 36.571 548.26 36.571C549.491 36.571 550.485 36.926 551.242 37.636C551.999 38.2987 552.378 39.269 552.378 40.547V43.387C553.277 41.3043 554.603 39.695 556.354 38.559C558.153 37.423 560.141 36.784 562.318 36.642L563.312 36.571ZM597.469 39.127C597.848 38.275 598.345 37.636 598.96 37.21C599.623 36.784 600.333 36.571 601.09 36.571C602.179 36.571 603.149 36.9497 604.001 37.707C604.9 38.417 605.35 39.3163 605.35 40.405C605.35 40.973 605.208 41.541 604.924 42.109L591.789 69.586C591.363 70.4853 590.748 71.1717 589.943 71.645C589.186 72.1183 588.334 72.355 587.387 72.355C586.488 72.355 585.612 72.1183 584.76 71.645C583.955 71.1717 583.34 70.4853 582.914 69.586L569.708 42.109C569.471 41.6357 569.353 41.0913 569.353 40.476C569.353 39.3873 569.803 38.4643 570.702 37.707C571.649 36.9497 572.714 36.571 573.897 36.571C575.601 36.571 576.855 37.3993 577.66 39.056L587.6 60.995L597.469 39.127ZM616.211 72.426C614.933 72.426 613.868 72.071 613.016 71.361C612.211 70.6037 611.809 69.5387 611.809 68.166V40.76C611.809 39.3873 612.211 38.346 613.016 37.636C613.868 36.926 614.933 36.571 616.211 36.571C617.489 36.571 618.554 36.926 619.406 37.636C620.258 38.346 620.684 39.3873 620.684 40.76V68.166C620.684 69.5387 620.258 70.6037 619.406 71.361C618.554 72.071 617.489 72.426 616.211 72.426ZM616.211 30.252C614.602 30.252 613.324 29.826 612.377 28.974C611.43 28.0747 610.957 26.915 610.957 25.495C610.957 24.075 611.43 22.939 612.377 22.087C613.324 21.235 614.602 20.809 616.211 20.809C617.773 20.809 619.027 21.235 619.974 22.087C620.968 22.939 621.465 24.075 621.465 25.495C621.465 26.915 620.992 28.0747 620.045 28.974C619.098 29.826 617.82 30.252 616.211 30.252ZM645.243 72.568C641.788 72.568 638.735 71.8343 636.084 70.367C633.481 68.8997 631.469 66.817 630.049 64.119C628.629 61.421 627.919 58.2733 627.919 54.676C627.919 51.0787 628.653 47.9073 630.12 45.162C631.635 42.3693 633.741 40.2157 636.439 38.701C639.137 37.1863 642.238 36.429 645.74 36.429C647.586 36.429 649.432 36.6893 651.278 37.21C653.172 37.7307 654.828 38.4407 656.248 39.34C657.763 40.334 658.52 41.5883 658.52 43.103C658.52 44.1443 658.26 44.9963 657.739 45.659C657.266 46.2743 656.627 46.582 655.822 46.582C655.302 46.582 654.757 46.4637 654.189 46.227C653.621 45.9903 653.053 45.7063 652.485 45.375C651.444 44.7597 650.45 44.2863 649.503 43.955C648.557 43.5763 647.468 43.387 646.237 43.387C643.303 43.387 641.031 44.3573 639.421 46.298C637.859 48.1913 637.078 50.9367 637.078 54.534C637.078 58.084 637.859 60.8293 639.421 62.77C641.031 64.6633 643.303 65.61 646.237 65.61C647.421 65.61 648.462 65.4443 649.361 65.113C650.308 64.7343 651.349 64.2373 652.485 63.622C653.195 63.196 653.811 62.8883 654.331 62.699C654.852 62.4623 655.373 62.344 655.893 62.344C656.651 62.344 657.29 62.6753 657.81 63.338C658.331 64.0007 658.591 64.829 658.591 65.823C658.591 66.6277 658.402 67.3377 658.023 67.953C657.692 68.521 657.124 69.0417 656.319 69.515C654.852 70.4617 653.148 71.219 651.207 71.787C649.267 72.3077 647.279 72.568 645.243 72.568ZM691.981 62.486C692.786 62.486 693.425 62.7937 693.898 63.409C694.419 64.0243 694.679 64.8527 694.679 65.894C694.679 67.3613 693.803 68.592 692.052 69.586C690.443 70.4853 688.62 71.219 686.585 71.787C684.55 72.3077 682.609 72.568 680.763 72.568C675.178 72.568 670.752 70.9587 667.486 67.74C664.22 64.5213 662.587 60.1193 662.587 54.534C662.587 50.984 663.297 47.8363 664.717 45.091C666.137 42.3457 668.125 40.2157 670.681 38.701C673.284 37.1863 676.219 36.429 679.485 36.429C682.609 36.429 685.331 37.1153 687.65 38.488C689.969 39.8607 691.768 41.8013 693.046 44.31C694.324 46.8187 694.963 49.777 694.963 53.185C694.963 55.2203 694.064 56.238 692.265 56.238H671.32C671.604 59.504 672.527 61.918 674.089 63.48C675.651 64.9947 677.923 65.752 680.905 65.752C682.42 65.752 683.745 65.5627 684.881 65.184C686.064 64.8053 687.39 64.2847 688.857 63.622C690.277 62.8647 691.318 62.486 691.981 62.486ZM679.698 42.677C677.284 42.677 675.343 43.4343 673.876 44.949C672.456 46.4637 671.604 48.641 671.32 51.481H687.366C687.271 48.5937 686.561 46.4163 685.236 44.949C683.911 43.4343 682.065 42.677 679.698 42.677ZM714.79 72.568C709.631 72.568 705.465 71.5503 702.294 69.515C700.779 68.6157 700.022 67.3377 700.022 65.681C700.022 64.7343 700.282 63.977 700.803 63.409C701.324 62.7937 701.963 62.486 702.72 62.486C703.525 62.486 704.637 62.8647 706.057 63.622C707.572 64.332 708.944 64.8763 710.175 65.255C711.453 65.6337 713.062 65.823 715.003 65.823C716.991 65.823 718.529 65.4917 719.618 64.829C720.754 64.1663 721.322 63.2433 721.322 62.06C721.322 61.2553 721.085 60.6163 720.612 60.143C720.186 59.6697 719.381 59.2437 718.198 58.865C717.062 58.439 715.311 57.9657 712.944 57.445C708.731 56.593 705.702 55.386 703.856 53.824C702.057 52.262 701.158 50.1083 701.158 47.363C701.158 45.2803 701.773 43.4107 703.004 41.754C704.235 40.05 705.915 38.7483 708.045 37.849C710.222 36.9023 712.684 36.429 715.429 36.429C717.417 36.429 719.334 36.6893 721.18 37.21C723.026 37.6833 724.683 38.3933 726.15 39.34C727.665 40.2867 728.422 41.541 728.422 43.103C728.422 44.0497 728.162 44.8543 727.641 45.517C727.12 46.1323 726.481 46.44 725.724 46.44C725.203 46.44 724.683 46.3453 724.162 46.156C723.689 45.9193 723.073 45.588 722.316 45.162C720.943 44.452 719.76 43.9313 718.766 43.6C717.772 43.2213 716.541 43.032 715.074 43.032C713.323 43.032 711.926 43.387 710.885 44.097C709.891 44.807 709.394 45.7773 709.394 47.008C709.394 48.1913 709.915 49.0907 710.956 49.706C711.997 50.3213 714.009 50.9367 716.991 51.552C720.162 52.2147 722.647 52.972 724.446 53.824C726.245 54.676 727.523 55.741 728.28 57.019C729.085 58.297 729.487 59.93 729.487 61.918C729.487 65.1367 728.138 67.7163 725.44 69.657C722.789 71.5977 719.239 72.568 714.79 72.568ZM771.01 36.429C775.838 36.429 779.412 37.636 781.731 40.05C784.098 42.4167 785.281 46.0377 785.281 50.913V68.237C785.281 69.515 784.903 70.5327 784.145 71.29C783.388 72 782.347 72.355 781.021 72.355C779.791 72.355 778.773 71.9763 777.968 71.219C777.211 70.4617 776.832 69.4677 776.832 68.237V66.675C776.028 68.521 774.75 69.9647 772.998 71.006C771.294 72.0473 769.306 72.568 767.034 72.568C764.715 72.568 762.609 72.0947 760.715 71.148C758.822 70.2013 757.331 68.8997 756.242 67.243C755.154 65.5863 754.609 63.7403 754.609 61.705C754.609 59.149 755.248 57.1373 756.526 55.67C757.852 54.2027 759.982 53.1377 762.916 52.475C765.851 51.8123 769.898 51.481 775.057 51.481H776.832V49.848C776.832 47.5287 776.335 45.8483 775.341 44.807C774.347 43.7183 772.738 43.174 770.513 43.174C769.141 43.174 767.744 43.387 766.324 43.813C764.904 44.1917 763.224 44.7597 761.283 45.517C760.053 46.1323 759.153 46.44 758.585 46.44C757.733 46.44 757.023 46.1323 756.455 45.517C755.935 44.9017 755.674 44.097 755.674 43.103C755.674 42.2983 755.864 41.612 756.242 41.044C756.668 40.4287 757.355 39.8607 758.301 39.34C759.958 38.4407 761.922 37.7307 764.194 37.21C766.514 36.6893 768.786 36.429 771.01 36.429ZM768.809 66.178C771.176 66.178 773.093 65.397 774.56 63.835C776.075 62.2257 776.832 60.1667 776.832 57.658V56.167H775.554C772.383 56.167 769.922 56.309 768.17 56.593C766.419 56.877 765.165 57.374 764.407 58.084C763.65 58.794 763.271 59.7643 763.271 60.995C763.271 62.5097 763.792 63.764 764.833 64.758C765.922 65.7047 767.247 66.178 768.809 66.178ZM806.868 72.568C801.709 72.568 797.543 71.5503 794.372 69.515C792.857 68.6157 792.1 67.3377 792.1 65.681C792.1 64.7343 792.36 63.977 792.881 63.409C793.402 62.7937 794.041 62.486 794.798 62.486C795.603 62.486 796.715 62.8647 798.135 63.622C799.65 64.332 801.022 64.8763 802.253 65.255C803.531 65.6337 805.14 65.823 807.081 65.823C809.069 65.823 810.607 65.4917 811.696 64.829C812.832 64.1663 813.4 63.2433 813.4 62.06C813.4 61.2553 813.163 60.6163 812.69 60.143C812.264 59.6697 811.459 59.2437 810.276 58.865C809.14 58.439 807.389 57.9657 805.022 57.445C800.809 56.593 797.78 55.386 795.934 53.824C794.135 52.262 793.236 50.1083 793.236 47.363C793.236 45.2803 793.851 43.4107 795.082 41.754C796.313 40.05 797.993 38.7483 800.123 37.849C802.3 36.9023 804.762 36.429 807.507 36.429C809.495 36.429 811.412 36.6893 813.258 37.21C815.104 37.6833 816.761 38.3933 818.228 39.34C819.743 40.2867 820.5 41.541 820.5 43.103C820.5 44.0497 820.24 44.8543 819.719 45.517C819.198 46.1323 818.559 46.44 817.802 46.44C817.281 46.44 816.761 46.3453 816.24 46.156C815.767 45.9193 815.151 45.588 814.394 45.162C813.021 44.452 811.838 43.9313 810.844 43.6C809.85 43.2213 808.619 43.032 807.152 43.032C805.401 43.032 804.004 43.387 802.963 44.097C801.969 44.807 801.472 45.7773 801.472 47.008C801.472 48.1913 801.993 49.0907 803.034 49.706C804.075 50.3213 806.087 50.9367 809.069 51.552C812.24 52.2147 814.725 52.972 816.524 53.824C818.323 54.676 819.601 55.741 820.358 57.019C821.163 58.297 821.565 59.93 821.565 61.918C821.565 65.1367 820.216 67.7163 817.518 69.657C814.867 71.5977 811.317 72.568 806.868 72.568Z" fill="white"/>
<line x1="121.007" y1="91.5" x2="847.007" y2="93.5" stroke="#68CA44" stroke-width="5"/>
</svg>
