<svg width="958" height="991" viewBox="0 0 958 991" fill="none" xmlns="http://www.w3.org/2000/svg">
<g filter="url(#filter0_i)">
<path fill-rule="evenodd" clip-rule="evenodd" d="M5.07871 297.779C-9.42547 199.741 3.68441 81.0465 89.9507 14.9138C176.717 -51.6013 318.711 14.4739 425.234 -24.3171C558.552 -72.8651 631.834 -223.532 775.217 -234.628C926.891 -246.365 1084.68 -181.715 1183.69 -83.0086C1283.51 16.5264 1345.93 163.712 1303.5 292.114C1261.68 418.683 1033.8 433.479 973.09 554.397C906.582 686.858 1103.67 903.279 959.872 976.532C814.727 1050.46 687.518 818.867 526.662 781.796C420.997 757.439 287.653 863.412 204.495 802.428C118.542 739.397 200.67 608.506 164.065 515.879C131.171 432.633 18.0287 385.315 5.07871 297.779Z" fill="url(#paint0_linear)"/>
</g>
<defs>
<filter id="filter0_i" x="0" y="-236" width="1317" height="1231" filterUnits="userSpaceOnUse" color-interpolation-filters="sRGB">
<feFlood flood-opacity="0" result="BackgroundImageFix"/>
<feBlend mode="normal" in="SourceGraphic" in2="BackgroundImageFix" result="shape"/>
<feColorMatrix in="SourceAlpha" type="matrix" values="0 0 0 0 0 0 0 0 0 0 0 0 0 0 0 0 0 0 127 0" result="hardAlpha"/>
<feOffset dy="4"/>
<feGaussianBlur stdDeviation="2"/>
<feComposite in2="hardAlpha" operator="arithmetic" k2="-1" k3="1"/>
<feColorMatrix type="matrix" values="0 0 0 0 0 0 0 0 0 0 0 0 0 0 0 0 0 0 0.25 0"/>
<feBlend mode="normal" in2="shape" result="effect1_innerShadow"/>
</filter>
<linearGradient id="paint0_linear" x1="-12.8219" y1="252.423" x2="1259.05" y2="515.539" gradientUnits="userSpaceOnUse">
<stop offset="0.0135415" stop-color="white"/>
<stop offset="0.763542" stop-color="#C1E8FF"/>
<stop offset="0.9998" stop-color="#D6F0FF" stop-opacity="0.34"/>
<stop offset="0.9999" stop-color="#C1E8FF" stop-opacity="0.45"/>
</linearGradient>
</defs>
</svg>
