<svg width="179" height="135" viewBox="0 0 179 135" fill="none" xmlns="http://www.w3.org/2000/svg">
<g clip-path="url(#clip0)">
<path opacity="0.1" d="M59.5101 134.924C68.2273 134.924 75.2939 133.716 75.2939 132.225C75.2939 130.734 68.2273 129.526 59.5101 129.526C50.7929 129.526 43.7263 130.734 43.7263 132.225C43.7263 133.716 50.7929 134.924 59.5101 134.924Z" fill="#6C63FF"/>
<path opacity="0.1" d="M145.309 135C156.186 135 165.005 133.792 165.005 132.301C165.005 130.81 156.186 129.602 145.309 129.602C134.431 129.602 125.613 130.81 125.613 132.301C125.613 133.792 134.431 135 145.309 135Z" fill="#6C63FF"/>
<path opacity="0.1" d="M2.2419 58.3297H18.6818V82.1876H3.44545C3.40495 82.4325 3.36607 82.6792 3.32396 82.9258H18.6818V102.167C18.6542 102.158 18.6299 102.148 18.604 102.137C18.1699 101.955 17.739 101.761 17.3081 101.554L17.0328 101.422C16.6008 101.204 16.1688 100.974 15.7369 100.732C15.5862 100.647 15.4356 100.559 15.2866 100.47C12.8885 99.0393 10.71 97.2269 8.82659 95.0954C8.77152 95.0385 8.71968 94.9781 8.66461 94.9229C8.40219 94.6193 8.14463 94.3124 7.89518 93.9985L7.6198 93.6535C7.32499 93.2689 7.03989 92.8739 6.7629 92.4738C6.7224 92.4152 6.68353 92.3565 6.64141 92.3013C5.51488 90.6382 4.5795 88.8375 3.85527 86.9375C3.83259 86.8806 3.81315 86.8185 3.79209 86.765C3.56964 86.1556 3.37255 85.5405 3.20085 84.9196C3.12634 84.6591 3.05506 84.4022 2.99351 84.1314C2.97083 84.052 2.95139 83.9744 2.93357 83.8968C2.0135 80.0731 1.90497 76.1011 1.90497 72.1567C1.90497 71.6962 1.90497 71.234 1.90497 70.7769C1.90497 69.1816 1.92279 67.5759 1.9487 65.9719C1.9487 65.5563 1.9649 65.1423 1.973 64.7249C1.99568 63.666 2.02808 62.607 2.07019 61.548C2.07991 61.2531 2.09287 60.9599 2.10745 60.6667C2.10745 60.4977 2.11555 60.3287 2.13175 60.1596C2.17062 59.5456 2.20302 58.9368 2.2419 58.3297Z" fill="#6C63FF"/>
<path opacity="0.1" d="M18.6818 31.7657H9.66406C11.1299 29.3228 12.7316 26.9753 14.4604 24.7358C15.8001 22.9835 17.2142 21.276 18.6818 19.6306V31.7657Z" fill="#6C63FF"/>
<path opacity="0.1" d="M18.6817 32.5039V57.5915H2.2937C2.2937 57.5191 2.30504 57.4449 2.3099 57.3725C2.32448 57.1742 2.33906 56.9758 2.35526 56.7792C2.37307 56.5481 2.39251 56.3153 2.41357 56.0893C2.43463 55.8634 2.45731 55.5874 2.4816 55.3373C2.5059 55.0873 2.52858 54.8337 2.55612 54.5836C2.58365 54.3336 2.60795 54.0835 2.63711 53.8351C2.66627 53.5868 2.69218 53.335 2.72296 53.0866C2.74726 52.8796 2.77318 52.6744 2.79909 52.4674C2.83635 52.176 2.87523 51.8827 2.91734 51.593C2.91734 51.5499 2.92868 51.505 2.93516 51.4636C3.23082 49.3425 3.63366 47.2399 4.14195 45.165C4.67401 42.9884 5.35342 40.8557 6.17486 38.7836C7.04791 36.6159 8.07011 34.5199 9.23314 32.5125L18.6817 32.5039Z" fill="#6C63FF"/>
<path opacity="0.1" d="M22.6066 58.3279V82.1876H57.7201V58.3279H22.6066ZM22.6066 82.924V103.414C22.8075 103.458 23.0067 103.502 23.2044 103.538C23.4732 103.593 23.7405 103.643 24.0143 103.686C24.0661 103.695 24.1196 103.703 24.1763 103.709C24.2832 103.727 24.3933 103.743 24.5002 103.759C24.7707 103.798 25.0396 103.831 25.3102 103.857C25.4381 103.871 25.5677 103.883 25.6973 103.893L26.0099 103.919C26.18 103.933 26.3485 103.943 26.5153 103.948C26.619 103.948 26.7227 103.959 26.8296 103.962C26.9106 103.962 26.9916 103.962 27.0758 103.962C27.16 103.962 27.2799 103.962 27.3819 103.962C27.5213 103.962 27.6606 103.962 27.7983 103.962H27.9845C28.1238 103.962 28.2631 103.962 28.4008 103.948H28.4106C28.5061 103.948 28.6033 103.948 28.7005 103.934C28.7275 103.936 28.7545 103.936 28.7815 103.934C28.8625 103.934 28.9435 103.934 29.0212 103.922H29.0779L29.6206 103.878C29.7988 103.86 29.9786 103.838 30.16 103.817L30.5293 103.771C32.0319 103.546 33.5177 103.21 34.9758 102.763C38.2511 101.791 41.4552 100.43 44.7289 99.433C48.9616 98.1481 53.6381 97.5168 57.7282 99.088V82.924H22.6066ZM57.7201 31.7657V0.0016609C53.8758 -0.0426855 50.0419 0.43606 46.3115 1.42627C37.4202 3.80465 29.4424 8.96326 22.6066 15.5517V31.7639H24.369V32.5004H22.6066V57.5915H57.7201V32.5021H31.6049V31.7657H57.7201ZM102.822 21.0362C100.622 20.9534 98.4351 20.2118 96.4573 19.0666C92.6749 16.8762 89.6539 13.4941 86.2781 10.6397C79.2642 4.6946 70.5656 1.1072 61.6418 0.21725V31.7657H111.768L111.893 31.626L102.822 21.0362ZM107.388 20.1739L112.23 25.8309V18.6906C110.608 18.9045 109.188 19.4133 107.394 20.167L107.388 20.1739ZM112.23 108.501V82.924H101.913C101.885 82.8154 101.858 82.705 101.825 82.5946C101.856 82.705 101.882 82.8154 101.911 82.924H61.6483V101.422C62.0306 101.723 62.408 102.041 62.7822 102.363C63.1855 102.708 63.584 103.072 63.9841 103.429L64.3874 103.784C64.5802 103.957 64.7746 104.129 64.9706 104.291C65.3593 104.627 65.7519 104.958 66.1482 105.285C66.3442 105.457 66.5451 105.613 66.7443 105.775C69.9074 108.35 73.2441 110.673 76.7275 112.727C77.5082 113.187 78.296 113.636 79.0908 114.074C79.6205 114.362 80.1535 114.648 80.688 114.926C81.4914 115.343 82.3014 115.746 83.1178 116.133C90.6446 119.731 98.6037 122.199 106.768 123.469C108.581 123.754 110.401 123.978 112.228 124.141V108.5H112.39L112.23 108.501ZM61.6483 32.5021V57.5915H112.236V32.5021H61.6483ZM61.6483 58.3279V82.1876H112.236V58.3279H61.6483ZM116.163 18.6596V26.6243L122.342 19.4047C120.295 19.0528 118.235 18.8016 116.163 18.651V18.6596ZM116.163 58.3366V82.1876H165.366V58.3279L116.163 58.3366ZM165.186 110.395L165.359 82.924H116.163V124.415C119.332 124.557 122.506 124.517 125.671 124.295H125.726C127.238 124.193 128.743 124.046 130.241 123.853H130.275C138.266 122.863 146.079 120.643 153.471 117.263L165.186 110.395ZM174.853 62.2568C174.669 61.7929 174.476 61.3324 174.28 60.8771C173.914 60.0147 173.527 59.1765 173.128 58.3383H169.289V82.1876H178.995C178.99 75.4336 177.385 68.5348 174.858 62.2482L174.853 62.2568ZM169.289 82.9326V106.561C172.023 103.771 174.333 100.578 175.997 96.9287C177.997 92.5341 178.913 87.7756 178.987 82.9292L169.289 82.9326ZM169.289 51.3842V57.5932H172.768C171.716 55.4558 170.556 53.3803 169.294 51.3756L169.289 51.3842ZM135.92 23.3404C135.664 23.237 135.408 23.1318 135.151 23.03C132.434 21.9619 129.659 21.0737 126.839 20.3705L117.382 31.4207L117.201 31.626L117.323 31.7674H150.98C146.292 28.3318 141.239 25.5002 135.925 23.3318L135.92 23.3404ZM151.966 32.5107H116.853L116.163 33.1834V57.5915H122.211H122.221H165.372V45.7686C161.469 40.7421 156.963 36.2819 151.971 32.5021L151.966 32.5107Z" fill="#6C63FF"/>
<path opacity="0.1" d="M18.6817 45.1581V57.5915H2.2937C2.2937 57.5191 2.30504 57.4449 2.3099 57.3725C2.32448 57.1741 2.33906 56.9758 2.35526 56.7792C2.37307 56.5481 2.39251 56.3152 2.41357 56.0893C2.43463 55.8634 2.45731 55.5874 2.4816 55.3373C2.5059 55.0872 2.52858 54.8337 2.55612 54.5836C2.58365 54.3335 2.60795 54.0835 2.63711 53.8351C2.66627 53.5867 2.69218 53.3349 2.72296 53.0866C2.74726 52.8796 2.77318 52.6744 2.79909 52.4674C2.83635 52.1759 2.87523 51.8827 2.91734 51.593C2.91734 51.5499 2.92868 51.505 2.93516 51.4636C3.23082 49.3425 3.63366 47.2399 4.14195 45.165L18.6817 45.1581Z" fill="#6C63FF"/>
<path opacity="0.1" d="M2.2419 58.3297H18.6818V82.1876H3.44545C3.40495 82.4325 3.36607 82.6792 3.32396 82.9258H18.6818V102.167C18.6542 102.158 18.6299 102.148 18.604 102.137C18.1699 101.955 17.739 101.761 17.3081 101.554L17.0328 101.422C16.6008 101.204 16.1688 100.974 15.7369 100.732C15.5862 100.647 15.4356 100.559 15.2866 100.47C12.8885 99.0393 10.71 97.2269 8.82659 95.0954C8.77152 95.0385 8.71968 94.9781 8.66461 94.9229C8.40219 94.6193 8.14463 94.3124 7.89518 93.9985L7.6198 93.6535C7.32499 93.2689 7.03989 92.8739 6.7629 92.4738C6.7224 92.4152 6.68353 92.3565 6.64141 92.3013C5.51488 90.6382 4.5795 88.8375 3.85527 86.9375C3.83259 86.8806 3.81315 86.8185 3.79209 86.765C3.56964 86.1556 3.37255 85.5405 3.20085 84.9196C3.12634 84.6591 3.05506 84.4022 2.99351 84.1314C2.97083 84.052 2.95139 83.9744 2.93357 83.8968C2.0135 80.0731 1.90497 76.1011 1.90497 72.1567C1.90497 71.6962 1.90497 71.234 1.90497 70.7769C1.90497 69.1816 1.92279 67.5759 1.9487 65.9719C1.9487 65.5563 1.9649 65.1423 1.973 64.7249C1.99568 63.666 2.02808 62.607 2.07019 61.548C2.07991 61.2531 2.09287 60.9599 2.10745 60.6667C2.10745 60.4977 2.11555 60.3287 2.13175 60.1596C2.17062 59.5456 2.20302 58.9368 2.2419 58.3297Z" fill="#6C63FF"/>
<path opacity="0.1" d="M34.9677 36.0947V57.5915H22.6066V36.0947H24.369V28.8165H31.6033V36.0947H34.9677Z" fill="#6C63FF"/>
<path opacity="0.1" d="M34.9677 58.328H22.6083V82.1859H34.9677V58.328Z" fill="#6C63FF"/>
<path opacity="0.1" d="M22.6066 82.9258H34.9677V102.76C33.5096 103.206 32.0237 103.542 30.5212 103.765L30.1519 103.814C29.9705 103.836 29.7907 103.855 29.6125 103.874C29.4343 103.893 29.2496 103.907 29.0698 103.919H29.0131C28.9354 103.919 28.8512 103.929 28.775 103.931H28.6924C28.5952 103.931 28.498 103.941 28.4008 103.945C28.2631 103.953 28.1255 103.955 27.9845 103.957C27.9246 103.957 27.8679 103.957 27.808 103.957C27.6687 103.957 27.531 103.957 27.3917 103.957H27.0855C27.0029 103.957 26.9235 103.957 26.8377 103.957L26.525 103.945C26.3631 103.945 26.1881 103.926 26.0197 103.914L25.7086 103.89L25.3215 103.852C25.0494 103.826 24.7788 103.793 24.5116 103.753L24.1876 103.705L24.0256 103.681C23.7551 103.636 23.4878 103.588 23.2157 103.533C23.0164 103.496 22.8188 103.452 22.618 103.408L22.6066 82.9258Z" fill="#6C63FF"/>
<path opacity="0.1" d="M112.236 33.556H102.044V57.5898H112.236V33.556Z" fill="#6C63FF"/>
<path opacity="0.1" d="M112.238 58.328V82.1877H61.6483V71.8963H88.5945V77.9673H102.044V58.328H112.238Z" fill="#6C63FF"/>
<path opacity="0.1" d="M112.398 108.507H112.236V124.158C110.411 123.994 108.592 123.77 106.777 123.488C98.6095 122.214 90.647 119.74 83.1178 116.137C80.944 115.095 78.8144 113.958 76.7291 112.725C73.2459 110.671 69.9087 108.347 66.7444 105.773C65.9496 105.125 65.165 104.461 64.3907 103.783C63.8546 103.312 63.3216 102.829 62.7822 102.36C62.408 102.037 62.0306 101.72 61.6483 101.416V82.9258H101.91C101.882 82.8154 101.855 82.705 101.825 82.5964C101.856 82.705 101.885 82.8154 101.913 82.9258H112.236V108.496C112.291 108.498 112.345 108.503 112.398 108.507Z" fill="#6C63FF"/>
<path opacity="0.1" d="M138.818 31.7658H132.177V29.5685H135.154V23.0232C135.412 23.1232 135.669 23.2261 135.925 23.3319V29.5685H138.818V31.7658Z" fill="#6C63FF"/>
<path opacity="0.1" d="M154.819 57.5916H122.214C122.214 57.5916 122.214 57.5916 122.226 57.6002L122.211 57.5916H116.163V33.5577H117.877V51.3222H125.709V40.8015H132.178V32.5039H138.82V40.8084H145.289V51.3291H154.819V57.5916Z" fill="#6C63FF"/>
<path opacity="0.1" d="M116.163 58.328V82.1876H154.819V58.328H116.163ZM165.312 110.273L165.366 91.3873H154.819V82.9362H116.163V124.415C119.332 124.557 122.506 124.517 125.671 124.295H125.726C127.238 124.194 128.743 124.046 130.241 123.853H130.275C138.266 122.863 146.079 120.643 153.471 117.263" fill="#6C63FF"/>
<path opacity="0.1" d="M169.976 82.9258H178.993C178.914 87.7705 178.001 92.529 176.002 96.9235C174.338 100.575 172.027 103.767 169.295 106.556V91.3786H169.976V82.9258Z" fill="#6C63FF"/>
<path opacity="0.1" d="M178.998 82.1876H169.976V62.2482H174.858C177.385 68.5348 178.99 75.4336 178.998 82.1876Z" fill="#6C63FF"/>
<path opacity="0.1" d="M112.238 40.2375H106.777V47.7728H112.238V40.2375Z" fill="#6C63FF"/>
<path opacity="0.1" d="M112.238 55.8564H106.777V57.5915H112.238V55.8564Z" fill="#6C63FF"/>
<path opacity="0.1" d="M112.238 58.328H106.777V63.39H112.238V58.328Z" fill="#6C63FF"/>
<path opacity="0.1" d="M112.238 71.4755H106.777V79.0107H112.238V71.4755Z" fill="#6C63FF"/>
<path opacity="0.1" d="M112.238 87.0944H106.777V94.6297H112.238V87.0944Z" fill="#6C63FF"/>
<path opacity="0.1" d="M112.236 108.496C112.291 108.496 112.345 108.496 112.398 108.507H112.236V110.257H106.777V102.713H112.236V108.496Z" fill="#6C63FF"/>
<path opacity="0.1" d="M112.236 118.329V124.15C110.411 123.985 108.592 123.762 106.777 123.479V118.329H112.236Z" fill="#6C63FF"/>
<path opacity="0.1" d="M85.0502 81.634H61.6483V82.1876H85.0502V81.634Z" fill="#6C63FF"/>
<path opacity="0.1" d="M85.0502 82.9241H61.6483V85.0455H85.0502V82.9241Z" fill="#6C63FF"/>
<path opacity="0.1" d="M85.0502 91.9995H61.6483V95.411H85.0502V91.9995Z" fill="#6C63FF"/>
<path opacity="0.1" d="M85.0486 102.365V105.776H66.7443C65.9495 105.13 65.1644 104.467 64.389 103.786C63.8529 103.315 63.3215 102.832 62.7805 102.365H85.0486Z" fill="#6C63FF"/>
<path opacity="0.1" d="M85.0487 112.729V116.137H83.1162C80.9445 115.094 78.8155 113.956 76.7291 112.724L85.0487 112.729Z" fill="#6C63FF"/>
<path opacity="0.1" d="M130.28 60.6408H125.673V65.5459H130.28V60.6408Z" fill="#6C63FF"/>
<path opacity="0.1" d="M30.5326 37.7867H25.9257V42.6918H30.5326V37.7867Z" fill="#6C63FF"/>
<path opacity="0.1" d="M30.5326 49.1801H25.9257V54.0852H30.5326V49.1801Z" fill="#6C63FF"/>
<path opacity="0.1" d="M30.5326 60.5735H25.9257V65.4786H30.5326V60.5735Z" fill="#6C63FF"/>
<path opacity="0.1" d="M30.5326 71.9653H25.9257V76.8703H30.5326V71.9653Z" fill="#6C63FF"/>
<path opacity="0.1" d="M30.5326 83.3587H25.9257V88.2638H30.5326V83.3587Z" fill="#6C63FF"/>
<path opacity="0.1" d="M30.5326 94.7521H25.9257V99.6572H30.5326V94.7521Z" fill="#6C63FF"/>
<path opacity="0.1" d="M147.866 60.6408H143.26V65.5459H147.866V60.6408Z" fill="#6C63FF"/>
<path opacity="0.1" d="M130.28 72.7397H125.673V77.6447H130.28V72.7397Z" fill="#6C63FF"/>
<path opacity="0.1" d="M147.866 72.7397H143.26V77.6447H147.866V72.7397Z" fill="#6C63FF"/>
<path opacity="0.1" d="M130.28 84.8368H125.673V89.7419H130.28V84.8368Z" fill="#6C63FF"/>
<path opacity="0.1" d="M147.866 84.8368H143.26V89.7419H147.866V84.8368Z" fill="#6C63FF"/>
<path opacity="0.1" d="M130.28 96.9356H125.673V101.841H130.28V96.9356Z" fill="#6C63FF"/>
<path opacity="0.1" d="M147.866 96.9356H143.26V101.841H147.866V96.9356Z" fill="#6C63FF"/>
<path opacity="0.1" d="M130.28 109.034H125.673V113.94H130.28V109.034Z" fill="#6C63FF"/>
<path opacity="0.1" d="M147.866 109.034H143.26V113.94H147.866V109.034Z" fill="#6C63FF"/>
<path opacity="0.1" d="M125.673 124.295V121.132H130.278V123.845L125.673 124.295Z" fill="#6C63FF"/>
<path opacity="0.1" d="M2.91571 51.4602V54.2663H18.6817V51.4602H2.91571ZM4.48697 54.0904H3.2008V51.6327H4.49668L4.48697 54.0904ZM6.0566 54.0904H4.76072V51.6327H6.0566V54.0904ZM7.623 54.0904H6.32712V51.6327H7.623V54.0904ZM9.19263 54.0904H7.89837V51.6327H9.19425L9.19263 54.0904ZM10.7606 54.0904H9.46477V51.6327H10.7606V54.0904ZM12.3303 54.0904H11.0344V51.6327H12.3303V54.0904ZM13.8999 54.0904H12.604V51.6327H13.8999V54.0904ZM15.4679 54.0904H14.172V51.6327H15.4679V54.0904ZM17.0359 54.0904H15.7401V51.6327H17.0359V54.0904ZM18.604 54.0904H17.3081V51.6327H18.604V54.0904Z" fill="#6C63FF"/>
<path opacity="0.1" d="M2.91571 59.6249V62.431H18.6817V59.6249H2.91571ZM4.48697 62.2534H3.2008V59.8026H4.49668L4.48697 62.2534ZM6.0566 62.2534H4.76072V59.8026H6.0566V62.2534ZM7.623 62.2534H6.32712V59.8026H7.623V62.2534ZM9.19263 62.2534H7.89837V59.8026H9.19425L9.19263 62.2534ZM10.7606 62.2534H9.46477V59.8026H10.7606V62.2534ZM12.3303 62.2534H11.0344V59.8026H12.3303V62.2534ZM13.8999 62.2534H12.604V59.8026H13.8999V62.2534ZM15.4679 62.2534H14.172V59.8026H15.4679V62.2534ZM17.0359 62.2534H15.7401V59.8026H17.0359V62.2534ZM18.604 62.2534H17.3081V59.8026H18.604V62.2534Z" fill="#6C63FF"/>
<path opacity="0.1" d="M2.91571 67.7932V70.6045H18.6817V67.7932H2.91571ZM4.48697 70.4217H3.2008V67.9691H4.49668L4.48697 70.4217ZM6.0566 70.4217H4.76072V67.9691H6.0566V70.4217ZM7.623 70.4217H6.32712V67.9691H7.623V70.4217ZM9.19263 70.4217H7.89837V67.9691H9.19425L9.19263 70.4217ZM10.7606 70.4217H9.46477V67.9691H10.7606V70.4217ZM12.3303 70.4217H11.0344V67.9691H12.3303V70.4217ZM13.8999 70.4217H12.604V67.9691H13.8999V70.4217ZM15.4679 70.4217H14.172V67.9691H15.4679V70.4217ZM17.0359 70.4217H15.7401V67.9691H17.0359V70.4217ZM18.604 70.4217H17.3081V67.9691H18.604V70.4217Z" fill="#6C63FF"/>
<path opacity="0.1" d="M2.91571 75.9614V78.7641H18.6817V75.9614H2.91571ZM4.48697 78.5899H3.2008V76.1356H4.49668L4.48697 78.5899ZM6.0566 78.5899H4.76072V76.1356H6.0566V78.5899ZM7.623 78.5899H6.32712V76.1356H7.623V78.5899ZM9.19263 78.5899H7.89837V76.1356H9.19425L9.19263 78.5899ZM10.7606 78.5899H9.46477V76.1356H10.7606V78.5899ZM12.3303 78.5899H11.0344V76.1356H12.3303V78.5899ZM13.8999 78.5899H12.604V76.1356H13.8999V78.5899ZM15.4679 78.5899H14.172V76.1356H15.4679V78.5899ZM17.0359 78.5899H15.7401V76.1356H17.0359V78.5899ZM18.604 78.5899H17.3081V76.1356H18.604V78.5899Z" fill="#6C63FF"/>
<path opacity="0.1" d="M2.98376 84.1279C3.04694 84.3918 3.11821 84.6557 3.19272 84.9161V84.3039H4.48861V86.7564H3.79531C3.81637 86.8133 3.83743 86.8754 3.85848 86.9289H18.6817V84.1279H2.98376ZM6.06148 86.7564H4.7656V84.3039H6.06148V86.7564ZM7.62788 86.7564H6.332V84.3039H7.62788V86.7564ZM9.19751 86.7564H7.89839V84.3039H9.19427L9.19751 86.7564ZM10.7655 86.7564H9.46965V84.3039H10.7655V86.7564ZM12.3352 86.7564H11.0393V84.3039H12.3352V86.7564ZM13.9048 86.7564H12.6089V84.3039H13.9048V86.7564ZM15.4728 86.7564H14.1769V84.3039H15.4728V86.7564ZM17.0408 86.7564H15.745V84.3039H17.0408V86.7564ZM18.6088 86.7564H17.313V84.3039H18.6088V86.7564Z" fill="#6C63FF"/>
<path opacity="0.1" d="M6.64459 92.2961C6.68509 92.3513 6.72396 92.4134 6.76608 92.4686H7.62298V93.6466C7.71531 93.7639 7.80603 93.8811 7.89998 93.9915V92.4617H9.19586V94.9229H8.67103C8.72286 94.9798 8.77308 95.0402 8.83301 95.0953H18.6866V92.2961H6.64459ZM10.7606 94.9229H9.46475V92.4721H10.7606V94.9229ZM12.3303 94.9229H11.0344V92.4721H12.3303V94.9229ZM13.8999 94.9229H12.604V92.4721H13.8999V94.9229ZM15.4679 94.9229H14.172V92.4721H15.4679V94.9229ZM17.0359 94.9229H15.7401V92.4721H17.0359V94.9229ZM18.604 94.9229H17.3081V92.4721H18.604V94.9229Z" fill="#6C63FF"/>
<path opacity="0.1" d="M15.293 100.463C15.4404 100.552 15.5911 100.635 15.7433 100.725V100.639H17.0392V101.415L17.3146 101.551V100.639H18.6105V102.13C18.6353 102.144 18.6614 102.154 18.6882 102.161V100.463H15.293Z" fill="#6C63FF"/>
<path opacity="0.1" d="M122.215 57.5916H122.224H122.215ZM112.236 108.495H112.398H112.236ZM101.825 82.5947C101.856 82.7051 101.882 82.8154 101.911 82.9241C101.885 82.8154 101.858 82.7051 101.825 82.5947ZM122.215 57.5864H122.224H122.215ZM24.3755 31.7606V32.497H31.6114V31.7606H24.3755ZM112.236 108.495H112.398H112.236ZM101.825 82.5947C101.856 82.7051 101.882 82.8154 101.911 82.9241C101.885 82.8154 101.858 82.7051 101.825 82.5947ZM122.215 57.5864H122.224H122.215ZM112.236 108.489H112.398H112.236ZM101.825 82.5947C101.856 82.7051 101.882 82.8154 101.911 82.9241C101.885 82.8154 101.858 82.7051 101.825 82.5947Z" fill="#6C63FF"/>
<path d="M74.7723 65.4821C74.7723 65.4821 74.1341 65.3872 74.1341 64.3972C74.1341 63.4072 73.6773 61.5584 73.6773 61.5584C73.6773 61.5497 73.282 58.3383 72.7361 57.8278C72.1902 57.3173 71.4889 54.3197 71.4889 54.3197C71.4889 54.3197 71.369 52.6933 71.1244 52.3432C70.8798 51.9931 70.5493 51.1359 70.0618 49.9131C69.5742 48.6903 67.5413 47.8435 67.5413 47.8435C67.5413 47.8435 63.8658 45.5737 62.8243 44.8338C62.7296 44.773 62.6411 44.702 62.5602 44.6217C62.3788 44.3682 61.5883 44.363 61.5883 44.363C61.5057 43.8076 61.4263 43.1695 61.4004 42.5917C61.4004 42.5296 61.4004 42.4675 61.3923 42.4054C62.5537 41.6745 63.4285 40.522 63.8561 39.1595C63.8756 39.094 63.8918 39.025 63.9096 38.9595C63.9792 38.9351 64.0432 38.8955 64.0976 38.8432C64.152 38.7909 64.1955 38.7271 64.2254 38.6559C64.3194 38.4334 64.321 38.173 64.4376 37.966C64.5737 37.7211 64.8329 37.5901 65.037 37.4055C65.5521 36.9398 65.6849 36.1551 65.6606 35.4411C65.6444 34.8633 65.557 34.2803 65.591 33.706L65.6007 33.5611C65.6104 33.4749 65.6218 33.3887 65.6363 33.3059C65.7157 32.8781 65.889 32.4746 65.9862 32.0503C66.0834 31.626 66.0931 31.1483 65.8663 30.7826C65.5343 30.2462 64.8426 30.1393 64.2352 30.0841C63.5467 30.022 62.9312 30.1031 62.4906 29.4943C62.2844 29.1761 62.0524 28.8777 61.7973 28.6026C61.7066 28.5129 60.8254 27.9403 60.8254 27.9024C59.9653 27.4782 58.9905 27.3986 58.0797 27.6781C57.6229 27.8196 57.1921 28.0507 56.7288 28.1662C55.7293 28.418 54.5792 28.1455 53.7304 28.7544C53.2574 29.0993 52.974 29.6478 52.7083 30.1824C52.4923 30.6228 52.2731 31.0626 52.0506 31.5018C51.6927 32.2245 51.3282 32.9592 51.1775 33.7595C51.1459 33.9336 51.1264 34.11 51.1192 34.2872V34.2959C51.1192 34.3597 51.1192 34.4235 51.1192 34.4873V34.5684C51.1192 34.6287 51.1192 34.6874 51.1289 34.7408C51.1387 34.7943 51.137 34.8115 51.1419 34.8478C51.1468 34.884 51.1549 34.965 51.1646 35.0202C51.1743 35.0754 51.1937 35.172 51.2132 35.2479C51.2213 35.2807 51.2326 35.3117 51.2423 35.3428C51.2585 35.4014 51.278 35.4583 51.299 35.5152C51.3104 35.5445 51.3217 35.5756 51.3347 35.6049C51.359 35.6653 51.3881 35.7239 51.4173 35.7774C51.4302 35.8015 51.44 35.8239 51.4529 35.8464C51.4981 35.9266 51.5479 36.0038 51.6019 36.0775C51.9486 36.538 52.4588 36.8312 52.8363 37.2624C52.8363 37.2796 52.8363 37.2968 52.8363 37.3124C52.8363 37.3607 52.8363 37.4072 52.8363 37.4555C52.8563 38.4171 53.0967 39.359 53.5365 40.1991C53.9764 41.0393 54.6023 41.7523 55.36 42.2761C55.36 42.3416 55.3681 42.4089 55.3713 42.4744C55.4029 42.9864 55.397 43.5002 55.3535 44.0111C55.2876 43.9284 55.205 43.8625 55.1119 43.8184C55.0188 43.7742 54.9176 43.7528 54.8157 43.7559C54.7461 43.7523 54.6764 43.7587 54.6084 43.7749L54.5938 43.7628V43.7783C54.2374 43.8714 53.7985 44.2664 53.3789 45.3892C53.3789 45.3892 52.1025 46.9207 51.1306 46.8569C50.1587 46.7931 47.6981 48.4506 47.6981 48.4506C47.6981 48.4506 45.2975 50.1097 44.7824 51.7999C44.4944 52.7584 44.1493 53.6962 43.7489 54.6078L40.7813 61.1186L40.2338 66.2841C40.2338 66.2841 40.5367 68.5814 40.4768 68.9315C40.4169 69.2816 41.7225 72.4396 41.7225 72.4396C41.7225 72.4396 46.0361 80.5095 47.7985 80.9234L47.9249 80.8286C48.0003 80.8705 48.0803 80.9023 48.163 80.9234L48.5258 80.6509C48.5476 80.9546 48.5384 81.26 48.4983 81.5616C48.2553 82.3584 48.589 87.5584 49.0134 88.5777C49.4378 89.597 49.2872 102.962 49.2872 102.962L49.2272 104.141C49.2272 104.141 49.2272 104.179 49.2418 104.245L49.2272 104.524L49.271 104.548C49.3164 104.923 49.3016 105.302 49.2272 105.671C49.075 106.189 49.0134 107.651 49.0134 107.651C49.0134 107.651 47.8002 115.909 48.3752 117.568C48.9502 119.228 49.4394 121.045 49.4394 121.045C49.4394 121.045 50.0469 123.115 49.4686 123.469C48.8903 123.822 47.2462 124.415 47.5847 125.278C47.8925 126.075 49.0604 128.21 49.2337 128.522L49.2191 128.686L48.981 131.433C49.0196 131.796 49.112 132.15 49.2548 132.482C49.5156 133.08 50.0226 133.701 50.9864 133.634C51.1484 133.622 51.3363 133.601 51.5177 133.575C53.2817 133.324 55.4539 132.485 55.4539 132.485C55.3412 132.409 55.2378 132.318 55.1462 132.215C55.0595 132.125 54.9908 132.018 54.9443 131.899C54.8978 131.781 54.8744 131.653 54.8757 131.525C54.9016 131.025 54.022 128.641 53.8033 128.055C53.7693 127.97 53.7515 127.922 53.7515 127.922C53.7515 127.922 55.7569 125.69 55.4232 123.712C55.4232 123.712 53.204 122.332 53.9345 121.575C54.6651 120.818 55.9707 118.643 55.9707 118.643C55.9707 118.643 56.0306 110.511 55.9707 109.297C55.9082 108.454 55.9457 107.606 56.0824 106.773C56.1067 106.647 56.1359 106.525 56.1667 106.404C57.177 106.565 58.197 106.647 59.2185 106.651C59.591 106.651 59.9701 106.651 60.3524 106.627C60.3524 106.742 60.3572 106.866 60.367 106.999C60.4512 109.014 60.6083 112.546 60.7363 113.858C60.9177 115.74 61.9204 120.811 61.9204 120.811C61.9204 120.811 60.0073 122.118 62.2541 125.34C62.2541 125.34 62.2541 126.508 62.1051 126.677C61.946 127.229 61.8178 127.791 61.7211 128.36C61.6272 128.967 61.5883 129.581 61.7406 129.9C62.1051 130.662 64.2919 130.6 64.2919 130.6L64.3453 130.59C64.7582 130.544 65.1754 130.587 65.5727 130.714C65.9701 130.842 66.3397 131.052 66.6601 131.333C67.4911 132.044 70.6449 131.732 72.3522 131.506C73.0212 131.416 73.4683 131.333 73.4683 131.333C73.49 131.253 73.4977 131.168 73.491 131.085C73.4732 130.638 73.1443 129.659 70.9154 128.784C70.9154 128.784 68.8193 127.284 68.8485 125.976H68.8048H68.5618C68.7383 125.966 68.8517 125.976 68.8517 125.976C68.8517 125.976 68.0305 122.786 68.3658 122.527C68.7011 122.268 67.6968 118.733 67.6968 118.733C67.6968 118.733 67.1217 112.8 67.091 112.384C67.0922 112.027 67.143 111.673 67.2416 111.332L67.091 108.079C67.091 108.079 67.0618 106.998 67.091 106.646C67.0861 106.34 67.0628 106.036 67.0213 105.733C67.0067 105.613 66.9921 105.487 66.9759 105.363C67.7616 105.15 68.2718 104.954 68.2718 104.954L68.1811 93.6311C68.8485 92.2513 68.9716 89.2244 68.9684 87.0772C68.9684 85.6974 68.91 84.6764 68.91 84.6764L69.822 83.0914C69.822 83.0914 70.0326 81.1942 69.6989 80.7785C69.5515 80.5905 69.6179 80.3956 69.7394 80.2353C69.8025 80.182 69.8691 80.1336 69.9387 80.0904C69.9387 80.0904 69.9289 80.0749 69.9176 80.0524C69.9813 79.9958 70.049 79.9445 70.1201 79.8989C70.1201 79.8989 69.7961 79.3643 70.0861 79.1383C70.3582 79.3349 70.6012 79.4833 70.7858 79.604C70.7729 79.7299 70.7599 79.8023 70.7599 79.8023L70.8377 79.6299C71.0159 79.7368 71.1244 79.8023 71.1244 79.8023C71.1244 79.8023 72.5531 76.772 72.5223 76.3253C72.4915 75.8786 73.4942 73.997 73.4942 73.997C73.4942 73.997 73.6157 73.0087 74.1632 72.5948C74.7107 72.1808 74.5876 69.1816 74.5876 69.1816C74.5876 69.1816 74.7399 67.619 75.1044 66.9808C75.4688 66.3427 74.7723 65.4821 74.7723 65.4821ZM47.4357 64.1523L47.4632 64.875C47.3012 64.5973 47.1846 64.3972 47.1846 64.3972L47.4357 64.1523Z" fill="url(#paint0_linear)"/>
<path d="M71.2022 78.4933L70.8523 80.08C70.8523 80.08 68.05 78.5571 67.5446 76.622C67.0392 74.6869 68.3901 73.9521 68.3901 73.9521L71.0013 75.1301L71.2022 78.4933Z" fill="white"/>
<path opacity="0.1" d="M71.2022 78.4933L70.8523 80.08C70.8523 80.08 68.05 78.5571 67.5446 76.622C67.0392 74.6869 68.3901 73.9521 68.3901 73.9521L71.0013 75.1301L71.2022 78.4933Z" fill="black"/>
<path d="M55.475 132.496C55.475 132.496 52.8833 133.51 51.1014 133.637C50.1555 133.705 49.6582 133.087 49.4022 132.492C49.2624 132.161 49.1722 131.809 49.1349 131.449L49.3666 128.715L49.4897 127.259L53.2753 126.213L53.8115 127.958L53.8617 128.091C54.0771 128.674 54.9405 131.045 54.9146 131.54C54.9135 131.667 54.9365 131.793 54.9822 131.91C55.0278 132.027 55.0952 132.133 55.1802 132.221C55.2672 132.326 55.3662 132.418 55.475 132.496Z" fill="white"/>
<path d="M73.1784 131.106C73.1849 131.189 73.1772 131.272 73.1557 131.352C73.1557 131.352 67.6126 132.337 66.4787 131.352C66.159 131.065 65.7863 130.851 65.3846 130.726C64.9829 130.6 64.5611 130.566 64.1461 130.624C64.1461 130.624 62.0014 130.686 61.6434 129.935C61.4944 129.619 61.5333 129.007 61.6256 128.403C61.7198 127.837 61.8453 127.278 62.0014 126.728L62.0873 126.656L62.5975 126.219L68.5715 126.031H68.6169C68.5877 127.332 70.6449 128.824 70.6449 128.824C72.8301 129.686 73.1525 130.661 73.1784 131.106Z" fill="white"/>
<path opacity="0.1" d="M73.1784 131.106C73.184 131.189 73.1758 131.272 73.1541 131.352C73.1541 131.352 67.6126 132.337 66.4787 131.352C66.1592 131.065 65.7868 130.852 65.3854 130.726C64.984 130.601 64.5624 130.566 64.1477 130.624C64.1477 130.624 62.0014 130.686 61.645 129.934C61.496 129.617 61.5333 129.007 61.6256 128.403C62.4517 128.491 63.7557 128.71 64.2676 129.233C65.0419 130.028 66.3539 130.821 67.159 130.883C67.7891 130.926 71.5585 131.054 73.1784 131.106Z" fill="black"/>
<path opacity="0.1" d="M55.475 132.496C55.475 132.496 52.8832 133.51 51.1014 133.637C50.1554 133.705 49.6581 133.087 49.4038 132.491C50.0631 132.727 50.9783 132.975 51.4594 132.748C52.0296 132.478 54.0512 132.304 55.1851 132.23C55.2714 132.331 55.3687 132.42 55.475 132.496Z" fill="black"/>
<path d="M59.3206 50.7703C57.1824 49.8855 54.4318 46.9622 55.1187 45.5962C55.2712 45.2515 55.3618 44.8795 55.3859 44.4993C55.4301 43.9832 55.4366 43.4642 55.4054 42.947C55.3572 42.1 55.2615 41.2569 55.1187 40.4221C55.1187 40.4221 61.7941 40.5825 61.4053 41.6294C61.2919 41.9364 61.2741 42.4693 61.3049 43.066C61.3357 43.6628 61.4167 44.3372 61.5009 44.908C61.6175 45.691 61.7341 46.2878 61.7341 46.2878C61.7341 46.2878 61.3259 46.8966 61.0862 46.9294C60.8465 46.9622 62.3886 52.0311 59.3206 50.7703Z" fill="#CF6F80"/>
<path opacity="0.1" d="M53.8568 128.091L53.8066 128.149C51.811 125.58 49.3974 128.782 49.3974 128.782L49.3618 128.715L49.4849 127.259L53.2705 126.213L53.8066 127.958L53.8568 128.091Z" fill="black"/>
<path opacity="0.1" d="M68.6185 126.213C68.6185 126.213 67.1606 126.18 66.3831 126.911C65.6055 127.642 61.8475 127.07 62.0095 126.911C62.0575 126.832 62.0864 126.742 62.0937 126.649L62.604 126.213L68.578 126.025C68.6006 126.14 68.6185 126.213 68.6185 126.213Z" fill="black"/>
<path d="M56.34 106.032C56.2314 106.318 56.149 106.614 56.0938 106.917C55.9587 107.745 55.9212 108.589 55.982 109.428C56.042 110.635 55.982 118.726 55.982 118.726C55.982 118.726 54.7007 120.883 53.9864 121.644C53.272 122.404 55.4442 123.77 55.4442 123.77C55.7682 125.737 53.805 127.958 53.805 127.958C51.8093 125.388 49.3957 128.593 49.3957 128.593C49.3957 128.593 48.0836 126.178 47.7564 125.316C47.4292 124.453 49.0377 123.857 49.6031 123.507C50.1684 123.156 49.5755 121.092 49.5755 121.092C49.5755 121.092 49.0977 119.283 48.5307 117.632C47.9638 115.982 49.156 107.765 49.156 107.765C49.156 107.765 49.2175 106.306 49.3649 105.797C49.4393 105.43 49.4541 105.052 49.4087 104.68C49.399 104.554 49.3876 104.448 49.3795 104.378C49.3714 104.307 49.3649 104.274 49.3649 104.274L49.3876 104.233L50.1976 102.625C50.1976 102.625 56.7288 105.019 56.34 106.032Z" fill="#6C63FF"/>
<path d="M68.6185 126.023C68.6185 126.023 67.1606 125.99 66.3831 126.713C65.6056 127.435 61.8475 126.871 62.0095 126.713C62.1715 126.554 62.1585 125.38 62.1585 125.38C59.9539 122.175 61.8346 120.875 61.8346 120.875C61.8346 120.875 60.8497 115.83 60.6715 113.959C60.5468 112.651 60.3929 109.138 60.3103 107.132C60.2747 106.27 60.2536 105.676 60.2536 105.676L62.0549 105.29L62.2865 105.24L66.6309 104.312C66.6309 104.312 66.7508 105.175 66.8318 105.88C66.8722 106.181 66.8949 106.485 66.8998 106.789C66.8707 107.134 66.8998 108.214 66.8998 108.214L67.0472 111.451C66.9509 111.79 66.9013 112.143 66.8998 112.498C66.929 112.91 67.4943 118.812 67.4943 118.812C67.4943 118.812 68.4776 122.334 68.1423 122.587C67.8069 122.841 68.6185 126.023 68.6185 126.023Z" fill="#6C63FF"/>
<path opacity="0.1" d="M61.4053 41.6294C61.2919 41.9364 61.2741 42.4693 61.3049 43.066C60.4107 43.6393 59.3828 43.9324 58.3393 43.9117C57.2957 43.8909 56.2788 43.5572 55.4054 42.9488C55.3573 42.1012 55.2615 41.2574 55.1187 40.4221C55.1187 40.4221 61.7941 40.579 61.4053 41.6294Z" fill="black"/>
<path d="M63.9857 37.8177C63.987 38.4392 63.8952 39.057 63.7136 39.6476C63.3078 40.9711 62.4756 42.0992 61.3641 42.8326C60.2526 43.566 58.9335 43.8574 57.6397 43.6553C56.346 43.4533 55.161 42.7707 54.2941 41.7284C53.4273 40.686 52.9345 39.351 52.9027 37.9592C52.9027 37.9109 52.9027 37.866 52.9027 37.8177C52.8901 37.0343 53.0242 36.256 53.2971 35.5284C53.57 34.8007 53.9762 34.1381 54.4921 33.5793C55.008 33.0206 55.6232 32.5768 56.3019 32.2738C56.9806 31.9709 57.7091 31.8149 58.445 31.8149C59.181 31.8149 59.9095 31.9709 60.5882 32.2738C61.2669 32.5768 61.8821 33.0206 62.398 33.5793C62.9139 34.1381 63.3201 34.8007 63.593 35.5284C63.8659 36.256 63.9999 37.0343 63.9874 37.8177H63.9857Z" fill="#CF6F80"/>
<path opacity="0.1" d="M59.3206 50.7703C57.1824 49.8855 54.4318 46.9622 55.1187 45.5962C55.2712 45.2515 55.3618 44.8795 55.3859 44.4993L58.313 47.0605L60.124 48.642L61.5009 44.9097C61.6175 45.6928 61.7341 46.2895 61.7341 46.2895C61.7341 46.2895 61.3259 46.8983 61.0862 46.9311C60.8465 46.9639 62.3886 52.0311 59.3206 50.7703Z" fill="black"/>
<path d="M66.8901 62.0896L64.4457 105.811L61.2579 106.033L53.0031 80.682L54.3573 50.584L54.6424 44.225L58.313 47.4347L60.1256 49.0163L61.543 45.1753L64.1784 47.621L66.8901 62.0896Z" fill="#6C63FF"/>
<path opacity="0.1" d="M56.34 106.032C56.2315 106.318 56.149 106.614 56.0938 106.917C53.7742 106.535 51.5213 105.786 49.4103 104.693L49.3666 104.669L49.3812 104.392L49.3893 104.247L50.1992 102.639C50.1992 102.639 56.7288 105.019 56.34 106.032Z" fill="black"/>
<path opacity="0.1" d="M62.0921 106.923C61.4992 107.031 60.9011 107.103 60.3006 107.141C60.265 106.278 60.2439 105.685 60.2439 105.685L62.0452 105.299L62.0921 106.923Z" fill="black"/>
<path opacity="0.1" d="M66.8221 105.889C65.6704 106.208 63.8918 106.566 62.2995 106.342L62.2768 105.249L66.6212 104.321C66.6212 104.321 66.7411 105.175 66.8221 105.889Z" fill="black"/>
<path opacity="0.1" d="M62.2703 106.542C55.6289 107.75 49.5464 104.288 49.5464 104.288L49.6047 103.115C49.6047 103.115 49.7554 89.8194 49.3374 88.8001C48.9195 87.7808 48.5939 82.6119 48.8304 81.8185C49.0669 81.0252 47.967 69.1281 47.967 69.1281L47.7889 64.2989L41.2673 61.4859L44.1831 55.0148C44.5769 54.1075 44.9156 53.1743 45.1971 52.2208C45.7041 50.5409 48.0578 48.8904 48.0578 48.8904C48.0578 48.8904 50.4713 47.2415 51.4254 47.3036C52.3795 47.3657 53.63 45.8445 53.63 45.8445C54.5534 43.3385 55.3892 44.4734 55.3892 44.4734C55.3892 44.5924 55.3892 44.4734 55.3438 44.8442C55.0199 47.5951 60.5824 56.2876 60.6618 56.4411L61.1915 70.1802L61.7277 87.567L62.2703 106.542Z" fill="black"/>
<path d="M62.0921 106.542C55.4507 107.749 49.3666 104.288 49.3666 104.288L49.4265 103.115C49.4265 103.115 49.5772 89.8194 49.1576 88.8001C48.7381 87.7808 48.4141 82.6119 48.6522 81.8185C48.8904 81.0251 47.7889 69.1281 47.7889 69.1281L47.609 64.2989L41.0843 61.4755L44 55.0044C44.393 54.0968 44.7317 53.1636 45.014 52.2104C45.5194 50.5305 47.8747 48.88 47.8747 48.88C47.8747 48.88 50.2883 47.2312 51.2408 47.2932C52.1932 47.3553 53.4454 45.8341 53.4454 45.8341C54.3703 43.3281 55.3892 44.463 55.3892 44.463C55.3892 44.582 55.292 44.6355 55.3438 44.8338C56.0566 47.5019 60.4043 56.2773 60.4836 56.4308L61.0198 70.1698L61.556 87.5566L62.0921 106.542Z" fill="white"/>
<path opacity="0.1" d="M60.3022 56.8223C59.5879 56.505 55.8039 51.9052 55.8039 51.9052V50.8583C55.6662 50.5133 54.8482 50.7237 54.184 50.9652L54.4691 44.6062L54.7931 44.8925C55.5026 47.5589 60.2196 56.6688 60.3022 56.8223Z" fill="black"/>
<path d="M60.482 56.4412C59.766 56.1238 55.982 51.524 55.982 51.524V50.4771C55.8443 50.1322 55.0263 50.3426 54.3622 50.584L54.6489 44.225L54.9729 44.5113C55.684 47.1777 60.4026 56.2894 60.482 56.4412Z" fill="white"/>
<path opacity="0.1" d="M49.5464 79.3816C49.6354 79.3816 54.1645 78.8745 54.1645 78.8745C54.1645 78.8745 56.9069 84.6161 56.7271 86.0131C56.5473 87.4101 56.2217 88.6467 55.1186 88.4277C54.0155 88.2086 49.1819 88.6002 49.1819 88.6002L49.5464 79.3816Z" fill="black"/>
<path d="M49.3665 79.0004C49.4556 79.0004 53.9847 78.4933 53.9847 78.4933C53.9847 78.4933 56.7255 84.2366 56.5473 85.6319C56.3692 87.0272 56.0403 88.2655 54.9388 88.0465C53.8373 87.8274 49.0021 88.2189 49.0021 88.2189L49.3665 79.0004Z" fill="white"/>
<path d="M52.7796 76.3046C52.7796 76.3046 56.9361 78.683 57.0252 79.4091C57.1143 80.1352 54.9097 79.0917 54.4335 78.9658C54.12 78.8854 53.8009 78.8324 53.4794 78.8072L50.3029 78.8986L52.7796 76.3046Z" fill="#CF6F80"/>
<path opacity="0.1" d="M59.1424 57.119C59.3839 57.119 59.5797 56.9105 59.5797 56.6533C59.5797 56.3961 59.3839 56.1876 59.1424 56.1876C58.9008 56.1876 58.705 56.3961 58.705 56.6533C58.705 56.9105 58.9008 57.119 59.1424 57.119Z" fill="black"/>
<path d="M59.1424 56.9293C59.3839 56.9293 59.5797 56.7208 59.5797 56.4636C59.5797 56.2064 59.3839 55.9979 59.1424 55.9979C58.9008 55.9979 58.705 56.2064 58.705 56.4636C58.705 56.7208 58.9008 56.9293 59.1424 56.9293Z" fill="#3F3D56"/>
<path opacity="0.1" d="M59.9474 77.2774C60.189 77.2774 60.3848 77.0689 60.3848 76.8117C60.3848 76.5546 60.189 76.3461 59.9474 76.3461C59.7059 76.3461 59.5101 76.5546 59.5101 76.8117C59.5101 77.0689 59.7059 77.2774 59.9474 77.2774Z" fill="black"/>
<path d="M59.9474 77.086C60.189 77.086 60.3848 76.8775 60.3848 76.6203C60.3848 76.3631 60.189 76.1546 59.9474 76.1546C59.7059 76.1546 59.5101 76.3631 59.5101 76.6203C59.5101 76.8775 59.7059 77.086 59.9474 77.086Z" fill="#3F3D56"/>
<path opacity="0.1" d="M59.5781 67.1982C59.8197 67.1982 60.0155 66.9897 60.0155 66.7325C60.0155 66.4753 59.8197 66.2668 59.5781 66.2668C59.3366 66.2668 59.1407 66.4753 59.1407 66.7325C59.1407 66.9897 59.3366 67.1982 59.5781 67.1982Z" fill="black"/>
<path d="M59.5781 67.0085C59.8197 67.0085 60.0155 66.8 60.0155 66.5428C60.0155 66.2856 59.8197 66.0771 59.5781 66.0771C59.3366 66.0771 59.1407 66.2856 59.1407 66.5428C59.1407 66.8 59.3366 67.0085 59.5781 67.0085Z" fill="#3F3D56"/>
<path d="M69.6601 78.7106C69.6601 78.7106 69.9581 79.1866 69.6601 79.4091C69.362 79.6316 69.6892 80.1697 69.6892 80.1697C69.6892 80.1697 68.9457 80.6337 69.2729 81.0511C69.6001 81.4684 69.3928 83.3535 69.3928 83.3535L68.4986 84.9299C68.4986 84.9299 68.5521 85.9458 68.5553 87.3186C68.5553 89.4607 68.4371 92.4721 67.7827 93.845L67.8734 105.109C67.8734 105.109 64.7422 106.327 62.1213 105.956L61.7325 87.8809C61.7325 87.8809 62.2995 77.631 62.5084 75.6648C62.6307 74.644 62.6805 73.6149 62.6575 72.5862C62.6575 72.5862 62.5684 69.5093 62.2687 68.0812C62.2687 68.0812 61.9447 61.8947 61.9123 60.1821C61.8978 59.3628 61.9383 56.9724 61.9836 54.6992C62.0338 52.2139 62.0905 49.87 62.0905 49.87L61.4993 44.8891C61.4993 44.8891 62.0905 44.8252 62.2687 45.0788C62.3485 45.1582 62.4353 45.2292 62.5279 45.2909C63.5484 46.0256 67.1542 48.285 67.1542 48.285C67.1542 48.285 69.1498 49.1301 69.6277 50.3409C70.1055 51.5516 70.4376 52.4105 70.6692 52.7555C70.9009 53.1004 71.0272 54.7216 71.0272 54.7216C71.0272 54.7216 71.714 57.7054 72.2502 58.2107C72.7864 58.7161 73.1784 61.9309 73.1784 61.9309L68.4403 65.8977C68.4403 65.8977 68.024 72.4965 67.9349 72.7518C67.8458 73.007 69.6601 78.7106 69.6601 78.7106Z" fill="white"/>
<path d="M69.8399 78.7106C69.8399 78.7106 70.1363 79.1866 69.8399 79.4091C69.5434 79.6316 69.8674 80.1697 69.8674 80.1697C69.8674 80.1697 69.1288 80.6388 69.4527 81.0562C69.7767 81.4736 69.5726 83.3587 69.5726 83.3587L68.6784 84.9351C68.6784 84.9351 68.7319 85.951 68.7368 87.3238C68.7368 89.4659 68.6185 92.4773 67.9641 93.8501L68.0532 105.114C68.0532 105.114 64.9171 106.332 62.2995 105.961L61.9123 87.8861C61.9123 87.8861 62.4793 77.6361 62.6882 75.67C62.8107 74.6492 62.8599 73.62 62.8356 72.5913C62.8356 72.5913 62.7465 69.5145 62.4485 68.0864C62.4485 68.0864 62.1245 61.8999 62.0905 60.1872C62.0759 59.368 62.118 56.9775 62.1618 54.7044C62.212 52.2191 62.2687 49.8752 62.2687 49.8752L61.4879 44.827C61.4879 44.827 62.2687 44.827 62.4485 45.0839C62.5276 45.1643 62.6144 45.2354 62.7077 45.2961C63.7282 46.0308 67.3356 48.2902 67.3356 48.2902C67.3356 48.2902 69.3296 49.1353 69.8075 50.346C70.2853 51.5568 70.6174 52.4157 70.8507 52.7606C71.0839 53.1056 71.207 54.7268 71.207 54.7268C71.207 54.7268 71.8938 57.7106 72.43 58.2159C72.9662 58.7212 73.3533 61.9292 73.3533 61.9292L68.6153 65.896C68.6153 65.896 68.199 72.4948 68.1083 72.75C68.0175 73.0053 69.8399 78.7106 69.8399 78.7106Z" fill="white"/>
<path opacity="0.1" d="M64.1655 51.3394L64.5932 52.6675L62.3416 55.0821C62.3918 52.5985 62.4485 50.2529 62.4485 50.2529L61.6677 45.2047C61.6677 45.2047 62.4485 45.2046 62.6283 45.4616C62.7071 45.5417 62.7941 45.6123 62.8875 45.672L64.8021 51.5533L64.1655 51.3394Z" fill="black"/>
<path d="M63.9857 50.9583L64.415 52.2863L62.1634 54.7009C62.2136 52.2156 62.2703 49.8717 62.2703 49.8717L61.4879 44.8235C61.4879 44.8235 62.2703 44.8235 62.4485 45.0805C62.5279 45.1603 62.6148 45.2314 62.7077 45.2926L64.624 51.1721L63.9857 50.9583Z" fill="white"/>
<path opacity="0.1" d="M63.9857 37.8177C63.987 38.4392 63.8952 39.057 63.7136 39.6476C63.683 39.6527 63.6518 39.6512 63.6217 39.6432C63.5917 39.6352 63.5634 39.6209 63.5387 39.6011C63.4965 38.0488 62.779 36.5915 61.8961 35.3514C61.6483 34.977 61.3478 34.6454 61.0052 34.3683C60.6589 34.0913 60.2281 33.9616 59.7968 34.0044C59.3109 34.0751 58.8816 34.4269 58.3908 34.4718C57.7428 34.5287 57.1629 34.051 56.5199 34.0268C56.2584 34.0295 56.0005 34.0914 55.7634 34.2086C55.5262 34.3258 55.3153 34.4955 55.1446 34.7063C54.8068 35.1319 54.5558 35.6276 54.4076 36.162C54.1529 36.9723 54.0142 37.8189 53.9961 38.6732C53.988 39.1561 53.9443 39.7615 53.5231 39.9374C53.5548 39.5822 53.5169 39.2239 53.4118 38.8852C53.3067 38.5465 53.1366 38.2346 52.9125 37.9695L52.9027 37.9592C52.9027 37.9109 52.9027 37.866 52.9027 37.8177C52.8901 37.0343 53.0242 36.256 53.2971 35.5284C53.57 34.8007 53.9762 34.1381 54.4921 33.5793C55.008 33.0206 55.6232 32.5768 56.3019 32.2738C56.9806 31.9709 57.7091 31.8149 58.445 31.8149C59.181 31.8149 59.9095 31.9709 60.5882 32.2738C61.2669 32.5768 61.8821 33.0206 62.398 33.5793C62.9139 34.1381 63.3201 34.8007 63.593 35.5284C63.8659 36.256 63.9999 37.0343 63.9874 37.8177H63.9857Z" fill="black"/>
<path d="M60.7395 28.4473C59.8978 28.0258 58.9404 27.946 58.0473 28.2231C57.5986 28.3646 57.1759 28.5939 56.7207 28.7095C55.7488 28.9596 54.6149 28.6888 53.7807 29.2942C53.3174 29.6391 53.0388 30.1841 52.7796 30.7136L52.1317 32.0278C51.7785 32.747 51.4222 33.4783 51.2747 34.27C51.1273 35.0616 51.2164 35.9481 51.6878 36.5845C52.0312 37.0485 52.5382 37.3399 52.9108 37.7763C53.134 38.0417 53.3033 38.3533 53.4081 38.6917C53.5129 39.03 53.551 39.3877 53.5199 39.7425C53.9426 39.57 53.9831 38.9629 53.9929 38.48C54.0109 37.6257 54.1496 36.7791 54.4043 35.9688C54.5521 35.4343 54.8032 34.9385 55.1413 34.5131C55.3121 34.3024 55.5231 34.1329 55.7602 34.0157C55.9974 33.8986 56.2552 33.8365 56.5166 33.8336C57.1645 33.8578 57.7461 34.3338 58.3875 34.2769C58.8735 34.2337 59.3043 33.8802 59.7935 33.8112C60.2249 33.7677 60.6559 33.8975 61.002 34.1751C61.3444 34.4518 61.6444 34.7834 61.8913 35.1582C62.7757 36.3983 63.4933 37.8522 63.5354 39.4079C63.7184 39.551 63.9825 39.3648 64.0732 39.144C64.1639 38.9232 64.1671 38.6645 64.2822 38.4541C64.415 38.2109 64.6693 38.0816 64.8685 37.8988C65.3739 37.4348 65.5003 36.6535 65.4808 35.9447C65.4614 35.2358 65.3318 34.5166 65.4582 33.8198C65.5343 33.3921 65.706 32.992 65.8 32.5694C65.8939 32.1468 65.9052 31.6725 65.6833 31.3086C65.3594 30.774 64.6774 30.6688 64.0829 30.6188C63.4074 30.5567 62.8032 30.636 62.3723 30.0306C62.1701 29.7147 61.9425 29.4181 61.692 29.1441C61.6062 29.0544 60.7395 28.4853 60.7395 28.4473Z" fill="#512E4E"/>
<path opacity="0.1" d="M43.1334 64.818L41.4407 61.4859L40.9045 66.6273C40.9045 66.6273 41.2025 68.9108 41.1426 69.2609C41.0827 69.611 42.364 72.75 42.364 72.75C42.364 72.75 46.5966 80.7768 48.325 81.1907L54.1646 76.7479L52.616 74.6541C52.616 74.6541 52.0798 74.4316 51.9454 74.6541C51.9454 74.6541 49.0701 69.3868 48.7721 69.0056C48.474 68.6245 48.5324 67.8639 48.5324 67.8639C48.5324 67.8639 48.0853 67.3568 48.2343 66.8808C48.3833 66.4048 47.3709 64.7542 47.3709 64.7542L48.2942 63.835L43.1334 64.818Z" fill="black"/>
<path d="M41.5298 61.1065L41.0827 61.4859L40.5465 66.6273C40.5465 66.6273 40.8446 68.9108 40.7846 69.2609C40.7247 69.6111 42.0076 72.75 42.0076 72.75C42.0076 72.75 46.2387 80.7768 47.967 81.1908L53.8082 76.7479L52.258 74.6541C52.258 74.6541 51.7219 74.4316 51.5874 74.6541C51.5874 74.6541 48.7122 69.3869 48.4141 69.0057C48.1161 68.6245 48.176 67.8639 48.176 67.8639C48.176 67.8639 47.7289 67.3569 47.878 66.8808C48.027 66.4048 47.013 64.7543 47.013 64.7543L47.9363 63.835L41.5298 61.1065Z" fill="white"/>
<path opacity="0.1" d="M69.2729 81.2477C69.5969 81.6668 69.3928 83.5484 69.3928 83.5484L68.4986 85.1248C68.4986 85.1248 68.5521 86.1424 68.5553 87.5135L67.0521 88.0137C66.9163 88.0589 66.7722 88.0688 66.632 88.0427C66.4919 88.0165 66.3596 87.9551 66.2462 87.8634C66.1329 87.7718 66.0418 87.6526 65.9805 87.5158C65.9192 87.379 65.8895 87.2287 65.8939 87.0772L66.1531 78.176L69.6601 79.604C69.362 79.8248 69.6892 80.3663 69.6892 80.3663C69.6892 80.3663 68.9457 80.8286 69.2729 81.2477Z" fill="black"/>
<path d="M69.4527 81.0562C69.7767 81.4754 69.5726 83.3587 69.5726 83.3587L68.6784 84.9351C68.6784 84.9351 68.7319 85.951 68.7367 87.3238L67.206 87.8326C67.0729 87.8767 66.9319 87.8862 66.7947 87.8605C66.6575 87.8348 66.528 87.7745 66.4171 87.6847C66.3062 87.595 66.217 87.4783 66.157 87.3444C66.097 87.2106 66.0678 87.0634 66.0721 86.9151L66.3328 77.9863L69.8415 79.4143C69.5418 79.6351 69.869 80.1749 69.869 80.1749C69.869 80.1749 69.1287 80.6389 69.4527 81.0562Z" fill="white"/>
<path d="M70.6142 76.8135C70.6142 76.8135 70.376 78.433 69.7799 78.5278C69.1838 78.6227 68.9166 81.1477 68.3221 81.058C67.7276 80.9683 68.1212 78.7106 68.1423 78.2726C68.1633 77.8345 67.4943 76.0201 67.9949 75.6079C68.4954 75.1957 70.0796 75.6079 70.0796 75.6079L70.6142 76.8135Z" fill="#CF6F80"/>
<path opacity="0.1" d="M71.8825 64.3421L73.0067 61.9275C73.0067 61.9275 73.4538 63.7678 73.4538 64.7508C73.4538 65.7339 74.0791 65.8305 74.0791 65.8305C74.0791 65.8305 74.7643 66.6929 74.403 67.3207C74.0418 67.9485 73.896 69.511 73.896 69.511C73.896 69.511 74.0143 72.4931 73.4781 72.9053C72.9419 73.3175 72.8302 74.3023 72.8302 74.3023C72.8302 74.3023 71.8453 76.1736 71.8761 76.6186C71.9068 77.0635 70.5057 80.0766 70.5057 80.0766C70.5057 80.0766 71.1909 76.3323 67.1979 74.7145C67.1979 74.7145 67.1671 73.4434 67.4652 73.095C67.7633 72.7466 68.2282 72.5879 67.9366 70.827C67.645 69.0661 67.8523 66.9619 67.8523 66.5394C67.8523 66.1168 68.7465 63.4815 68.7465 63.4815L71.8825 64.3421Z" fill="black"/>
<path d="M72.3684 61.5825L73.3501 61.9275C73.3501 61.9275 73.7988 63.7677 73.7988 64.7508C73.7988 65.7339 74.424 65.8305 74.424 65.8305C74.424 65.8305 75.1092 66.6928 74.748 67.3206C74.3868 67.9484 74.2426 69.511 74.2426 69.511C74.2426 69.511 74.3609 72.493 73.8247 72.9052C73.2885 73.3174 73.1687 74.3023 73.1687 74.3023C73.1687 74.3023 72.1854 76.1736 72.2162 76.6185C72.247 77.0635 70.8442 80.0766 70.8442 80.0766C70.8442 80.0766 71.531 76.3322 67.5364 74.7145C67.5364 74.7145 67.5073 73.4434 67.8053 73.095C68.1034 72.7466 68.5683 72.5879 68.2767 70.827C67.9851 69.066 68.1925 66.9619 68.1925 66.5393C68.1925 66.1168 69.0866 63.4814 69.0866 63.4814L72.3684 61.5825Z" fill="white"/>
<path opacity="0.1" d="M50.6868 124.167C50.6868 124.167 52.2515 123.12 53.2785 123.881C54.3055 124.641 50.6868 124.167 50.6868 124.167Z" fill="black"/>
<path opacity="0.1" d="M62.8453 120.93C62.8453 120.93 64.2303 120.74 65.3934 122.073C66.5564 123.406 62.8453 120.93 62.8453 120.93Z" fill="black"/>
<g opacity="0.1">
<path opacity="0.1" d="M64.8718 37.521C64.6726 37.7039 64.4166 37.8349 64.2838 38.0781C64.1704 38.2868 64.1672 38.5438 64.0764 38.768C63.9857 38.9922 63.7217 39.175 63.5387 39.0336C63.4965 37.4814 62.7773 36.024 61.8945 34.7822C61.6477 34.4074 61.3477 34.0758 61.0052 33.7991C60.6585 33.5216 60.227 33.3918 59.7952 33.4352C59.3092 33.5059 58.8816 33.8578 58.3908 33.9009C57.7428 33.9595 57.1613 33.4818 56.5182 33.4576C56.2569 33.4604 55.9991 33.5226 55.7622 33.6401C55.5253 33.7576 55.3147 33.9277 55.1446 34.1389C54.8064 34.5635 54.5554 35.0588 54.4076 35.5928C54.153 36.4032 54.0143 37.2497 53.9961 38.104C53.9864 38.5852 53.9443 39.1854 53.5264 39.3648C53.5361 39.4922 53.5361 39.6202 53.5264 39.7476C53.9475 39.5752 53.9896 38.9681 53.9994 38.4852C54.0174 37.6309 54.1561 36.7843 54.4108 35.974C54.5587 35.4394 54.8097 34.9436 55.1478 34.5183C55.3183 34.3077 55.529 34.1381 55.7659 34.0209C56.0027 33.9038 56.2603 33.8417 56.5215 33.8388C57.1694 33.8629 57.7526 34.339 58.394 34.282C58.88 34.2389 59.3108 33.8854 59.7984 33.8164C60.2303 33.773 60.6618 33.9027 61.0085 34.1803C61.3509 34.457 61.6509 34.7886 61.8977 35.1634C62.7806 36.4034 63.4998 37.8574 63.5419 39.413C63.7249 39.5562 63.989 39.3699 64.0797 39.1492C64.1704 38.9284 64.1736 38.6697 64.287 38.4593C64.4199 38.2161 64.6758 38.0867 64.875 37.9039C65.3804 37.44 65.5068 36.6587 65.4873 35.9498C65.4873 35.9274 65.4873 35.905 65.4873 35.8843C65.4566 36.4983 65.3027 37.1244 64.8718 37.521Z" fill="black"/>
<path opacity="0.1" d="M52.914 37.3986C52.5415 36.9623 52.0328 36.6708 51.691 36.2086C51.4032 35.7994 51.2389 35.3068 51.2197 34.796C51.1687 35.4343 51.3361 36.0707 51.691 36.588C52.0328 37.0519 52.5415 37.3434 52.914 37.7798C53.2717 38.2066 53.4865 38.7476 53.5247 39.3182C53.5495 38.9709 53.5082 38.6219 53.4033 38.2921C53.2983 37.9622 53.1319 37.6583 52.914 37.3986Z" fill="black"/>
<path opacity="0.1" d="M65.8032 32.1917C65.7076 32.6143 65.5375 33.0161 65.4598 33.4421C65.4137 33.7268 65.3969 34.0159 65.4095 34.3045C65.415 34.1401 65.4317 33.9764 65.4598 33.8147C65.5375 33.3869 65.7076 32.9868 65.8032 32.5642C65.8589 32.3312 65.8769 32.0897 65.8566 31.8502C65.8465 31.9653 65.8287 32.0794 65.8032 32.1917Z" fill="black"/>
</g>
<path opacity="0.1" d="M21.5003 131.18C30.2175 131.18 37.2841 129.971 37.2841 128.481C37.2841 126.99 30.2175 125.781 21.5003 125.781C12.7832 125.781 5.71649 126.99 5.71649 128.481C5.71649 129.971 12.7832 131.18 21.5003 131.18Z" fill="#6C63FF"/>
<path d="M22.0089 76.7738H20.9933V101.122H22.0089V76.7738Z" fill="#535461"/>
<path d="M28.3911 101.047L28.3279 102.144L28.2372 103.697L28.2 104.342L28.1109 105.894L28.072 106.539L27.9813 108.091L26.9575 125.695C26.913 126.453 26.5991 127.164 26.0797 127.683C25.5603 128.203 24.8744 128.492 24.1617 128.493H18.8388C18.1262 128.492 17.4406 128.203 16.9214 127.683C16.4023 127.163 16.0887 126.452 16.0446 125.695L15.0257 108.079L14.935 106.527L14.8978 105.882L14.807 104.329L14.7698 103.684L14.6791 102.132L14.6143 101.035C14.603 100.824 14.6324 100.613 14.7006 100.414C14.7688 100.216 14.8744 100.034 15.0109 99.8804C15.1474 99.7268 15.312 99.6045 15.4945 99.5211C15.677 99.4376 15.8735 99.3947 16.0721 99.3951H26.9592C27.157 99.3969 27.3524 99.4419 27.5333 99.5272C27.7142 99.6125 27.8768 99.7365 28.011 99.8913C28.1451 100.046 28.2481 100.229 28.3135 100.427C28.3789 100.626 28.4053 100.837 28.3911 101.047Z" fill="#3F3D56"/>
<path d="M28.328 102.144L28.2372 103.691H14.7633L14.6726 102.144H28.328Z" fill="#9D9CB5"/>
<path d="M28.2 104.336L28.1109 105.885H14.8913L14.8006 104.336H28.2Z" fill="#9D9CB5"/>
<path d="M28.072 106.532L27.9829 108.079H15.0192L14.9285 106.532H28.072Z" fill="#9D9CB5"/>
<path d="M13.1224 85.8992C19.0365 90.4559 21.5052 97.5824 21.5052 97.5824C21.5052 97.5824 14.3778 97.322 8.46213 92.7653C2.54644 88.2086 0.0826416 81.0838 0.0826416 81.0838C0.0826416 81.0838 7.20675 81.3425 13.1224 85.8992Z" fill="#6C63FF"/>
<path d="M0.0777588 81.0838C0.0777588 81.0838 7.47724 85.4559 9.85032 89.0761C12.2234 92.6963 21.5051 97.5824 21.5051 97.5824" stroke="#535461" stroke-width="2" stroke-miterlimit="10"/>
<path d="M16.9404 76.7203C20.1591 79.1987 21.5052 83.0776 21.5052 83.0776C21.5052 83.0776 17.6256 82.9361 14.4053 80.4577C11.1851 77.9793 9.84222 74.0988 9.84222 74.0988C9.84222 74.0988 13.7201 74.2402 16.9404 76.7203Z" fill="#6C63FF"/>
<path d="M9.84222 74.0988C9.84222 74.0988 13.8692 76.4788 15.1602 78.4485C16.4512 80.4181 21.5052 83.0776 21.5052 83.0776" stroke="#535461" stroke-width="2" stroke-miterlimit="10"/>
<path d="M26.1784 82.8809C22.4803 87.2083 21.6979 92.8636 21.6979 92.8636C21.6979 92.8636 26.9122 91.5011 30.6071 87.172C34.3019 82.843 35.0876 77.1894 35.0876 77.1894C35.0876 77.1894 29.8765 78.5536 26.1784 82.8809Z" fill="#6C63FF"/>
<path d="M35.0908 77.1912C35.0908 77.1912 30.2734 81.6271 29.0488 84.6833C27.8242 87.7395 21.6979 92.8636 21.6979 92.8636" stroke="#535461" stroke-width="2" stroke-miterlimit="10"/>
<path d="M161.932 81.3581C161.932 81.3581 159.257 67.1913 160.281 65.4286C160.281 65.4286 160.318 63.7902 160.257 61.7015C160.257 61.6222 160.257 61.5429 160.257 61.4618C160.437 61.5897 160.625 61.7049 160.819 61.8067C161.762 62.3227 162.845 62.4716 163.88 62.2276L163.07 61.2669C162.876 61.0375 162.674 60.7892 162.631 60.4856C162.589 60.1821 162.706 59.9113 162.806 59.6405C163.576 57.5709 163.616 54.9683 162.134 53.3884C160.882 52.0604 160.577 50.346 159.218 49.1336C158.225 48.2454 157.68 46.9432 157.164 45.6842C156.729 44.62 156.29 43.5472 156.04 42.4193C155.846 41.5379 155.768 40.6256 155.501 39.7649C155.234 38.9043 154.733 38.0678 153.951 37.6832C153.672 37.547 153.363 37.4694 153.108 37.2883C152.775 37.0485 152.574 36.6587 152.332 36.3173C151.106 34.5925 147 35.6084 145.056 36.3086C144.528 36.485 144.038 36.7736 143.618 37.1572L143.635 37.1261C143.65 37.1003 143.668 37.0744 143.684 37.0485C143.471 37.2317 143.287 37.4501 143.14 37.6953C142.856 38.173 142.738 38.7301 142.502 39.2475C142.216 39.8598 140.631 41.569 141.313 42.2572C141.36 42.3034 141.415 42.3407 141.475 42.3675C141.731 42.481 142.012 42.511 142.284 42.4538L142.255 42.5279C142.022 43.1351 141.903 43.7848 141.904 44.4406C141.904 47.2743 144.099 49.5717 146.809 49.5717C147.318 49.5722 147.825 49.489 148.31 49.325C148.322 49.3906 148.331 49.4561 148.343 49.5216C148.343 49.5475 148.351 49.5734 148.354 49.5992L148.268 49.7269C148.264 49.719 148.259 49.7115 148.254 49.7045L145.71 53.4885C145.322 53.7799 143.083 55.5047 142.957 56.7982C142.824 58.2142 142.691 59.8716 142.691 59.8716L142.673 60.2269C142.562 60.3258 142.432 60.3978 142.292 60.438C142.152 60.4782 142.006 60.4856 141.863 60.4597C141.07 60.3218 141.07 63.5642 141.07 63.5642C141.07 63.5642 140.541 64.0816 140.179 63.6332C139.816 63.1848 138.857 64.7043 138.857 64.7043L132.847 64.9802L132.71 64.9888L132.386 63.9212C132.351 63.8086 132.275 63.7152 132.176 63.6613C132.077 63.6074 131.962 63.5973 131.856 63.6332C131.831 63.642 131.806 63.653 131.783 63.666L131.76 63.6798L131.718 63.7108L131.697 63.7315C131.685 63.7428 131.675 63.7549 131.665 63.7677L131.645 63.7919L131.636 63.8022C131.598 63.8573 131.573 63.9209 131.563 63.988C131.553 64.0551 131.558 64.1238 131.577 64.1886L131.856 65.1044C130.696 65.3528 129.51 66.053 130.477 67.9812L125.576 67.0171L127.162 68.4348L135.348 70.2337C135.24 70.4407 135.311 70.7408 135.65 71.1633C137.107 72.9863 139.764 73.4813 140.833 73.609C141.115 74.2814 141.468 74.9178 141.884 75.5061L141.792 77.3223C141.792 77.3223 139.085 91.1648 138.59 91.8667C138.84 91.5649 139.069 91.2438 139.275 90.9061C138.489 93.7501 137.391 97.6428 137.103 98.2257C136.639 99.1571 136.21 102.926 136.738 103.167C136.9 103.241 137.363 103.205 138.024 103.152V103.464L137.995 115.293C137.995 115.293 138.128 122.549 137.763 123.241C137.399 123.933 137.302 125.383 137.302 125.383C137.302 125.383 135.844 128.244 134.689 129.395C134.681 129.404 134.672 129.412 134.663 129.419L134.627 129.15C134.627 129.15 133.239 131.016 130.168 130.911C130.168 130.911 128.32 132.19 131.061 132.259C133.801 132.328 137.302 132.156 137.302 132.156C137.302 132.156 139.746 128.189 141.794 128.707V131.713H142.421V128.658C142.711 128.454 142.96 128.19 143.152 127.881C143.344 127.572 143.475 127.224 143.537 126.859C143.59 126.484 143.551 126.099 143.423 125.744C143.294 125.39 143.081 125.077 142.804 124.836C142.68 124.717 142.58 124.571 142.512 124.408C142.443 124.246 142.406 124.07 142.404 123.891L142.382 123.912C142.382 123.852 142.367 123.789 142.361 123.726C142.181 122.173 141.956 118.971 142.751 116.601C143.841 113.351 144.172 108.826 143.378 106.132C143.122 105.271 142.911 104.395 142.748 103.509C142.728 103.396 142.71 103.289 142.694 103.189C143.237 103.268 143.774 103.383 144.303 103.534C146.141 104.074 150.163 104.174 153.597 104.145C153.606 104.245 153.615 104.35 153.627 104.455C153.688 105.187 153.816 105.91 154.009 106.615C154.44 107.995 154.637 114.078 154.637 114.078C154.637 114.078 155.193 119.079 154.89 121.114C154.728 122.246 154.566 123.382 154.474 124.524V124.547C154.474 124.547 153.563 127.306 152.898 128.805C152.882 128.843 152.864 128.881 152.847 128.917C152.67 128.934 152.495 128.975 152.328 129.039C152.328 129.039 151.435 130.937 150.546 131.251C149.656 131.564 149.951 132.598 151.965 132.218C153.978 131.839 157.019 131.528 157.019 131.528L157.15 129.593L157.769 128.769L157.607 130.699L158.266 130.561L158.178 128.213L159.191 126.865C159.191 126.865 160.414 125.706 158.596 123.425V123.476C158.577 123.443 158.559 123.408 158.538 123.375V123.365C158.237 122.868 157.997 121.942 158.436 120.299C159.23 117.329 159.691 114.633 159.691 114.633C159.691 114.633 161.463 107.412 159.333 103.995H159.427C159.209 103.514 159.055 103.003 158.969 102.477C158.958 102.415 158.948 102.351 158.94 102.286C160.516 102.189 162.063 101.886 163.325 101.23C163.32 101.223 162.56 84.0866 161.932 81.3581ZM141.922 69.4058V69.4403L141.598 69.4576L141.922 69.4058ZM140.81 69.5697C140.757 69.5822 140.707 69.6076 140.665 69.6438C140.525 69.8537 140.438 70.0974 140.41 70.3527L139.905 70.232C139.905 70.232 139.55 70.1509 139.04 70.0595L138.799 69.8008C139.463 69.7421 140.153 69.6559 140.81 69.5697Z" fill="url(#paint1_linear)"/>
<path d="M157.532 128.237L157.339 130.681L157.986 130.543L157.888 127.892L157.532 128.237Z" fill="#1D2366"/>
<path d="M142.787 116.634C142.007 118.996 142.228 122.185 142.403 123.734C142.467 124.307 142.527 124.655 142.527 124.655C142.527 124.655 141.363 127.48 141.266 127.587C141.168 127.694 137.838 129.859 137.838 129.859L135.51 131.306C135.51 131.306 133.148 130.204 134.281 129.824C134.512 129.725 134.72 129.574 134.891 129.381C136.025 128.234 137.449 125.383 137.449 125.383C137.449 125.383 137.546 123.936 137.903 123.248C138.259 122.56 138.129 115.328 138.129 115.328L138.157 103.54V102.003L142.587 102.037C142.615 102.559 142.679 103.078 142.778 103.59C142.937 104.473 143.144 105.346 143.396 106.204C144.176 108.893 143.852 113.396 142.787 116.634Z" fill="#FFB0B1"/>
<path opacity="0.1" d="M142.527 124.655C142.527 124.655 141.363 127.48 141.266 127.587C141.168 127.694 137.838 129.859 137.838 129.859L135.51 131.306C135.51 131.306 133.148 130.204 134.281 129.824C134.512 129.725 134.72 129.574 134.891 129.381L134.992 130.135L135.768 130.1L142.409 123.738C142.467 124.307 142.527 124.655 142.527 124.655Z" fill="black"/>
<path d="M142.446 123.898L135.768 130.304L134.992 130.338L134.83 129.131C134.83 129.131 133.472 130.99 130.456 130.887C130.456 130.887 128.645 132.161 131.329 132.23C134.014 132.299 137.441 132.127 137.441 132.127C137.441 132.127 139.835 128.16 141.839 128.677V131.673H142.455V128.65C142.741 128.445 142.985 128.18 143.173 127.872C143.36 127.563 143.487 127.218 143.546 126.856C143.6 126.483 143.562 126.102 143.437 125.749C143.312 125.396 143.103 125.084 142.832 124.841C142.711 124.72 142.614 124.574 142.548 124.412C142.481 124.25 142.447 124.075 142.446 123.898Z" fill="#1D2366"/>
<path d="M158.148 120.318C157.717 121.956 157.952 122.879 158.246 123.374V123.384C158.625 123.995 158.888 124.679 159.021 125.397L159.047 125.552L156.008 130.269L154.359 130.959C154.359 130.959 151.707 129.995 152.191 129.719C152.313 129.652 152.502 129.293 152.72 128.798C153.367 127.306 154.262 124.553 154.262 124.553V124.531C154.356 123.394 154.505 122.261 154.67 121.133C154.966 119.103 154.422 114.121 154.422 114.121C154.422 114.121 154.228 108.062 153.806 106.684C153.616 105.983 153.49 105.265 153.429 104.538C153.342 103.676 153.322 102.965 153.322 102.965C153.322 102.965 155.068 100.378 158.269 103.172C158.525 103.395 158.75 103.655 158.938 103.945C161.149 107.294 159.369 114.673 159.369 114.673C159.369 114.673 158.924 117.356 158.148 120.318Z" fill="#FFB0B1"/>
<path opacity="0.1" d="M159.051 125.552L156.013 130.269L154.364 130.959C154.364 130.959 151.712 129.995 152.196 129.719C152.318 129.652 152.507 129.293 152.724 128.798C153.847 128.788 154.428 129.926 154.428 129.926L155.851 129.684C155.851 129.684 157.726 125.759 158.148 125.519C158.569 125.28 158.212 123.727 158.212 123.727V123.332C158.224 123.346 158.233 123.362 158.246 123.375V123.386C158.625 123.997 158.888 124.681 159.021 125.399L159.051 125.552Z" fill="black"/>
<path d="M154.526 130.028C154.526 130.028 153.716 128.444 152.164 129.029C152.164 129.029 151.291 130.926 150.418 131.233C149.545 131.54 149.836 132.575 151.809 132.197C153.782 131.82 156.756 131.507 156.756 131.507L156.886 129.578L158.891 126.858C158.891 126.858 160.087 125.704 158.308 123.432V123.827C158.308 123.827 158.664 125.38 158.243 125.619C157.822 125.859 155.953 129.786 155.953 129.786L154.526 130.028Z" fill="#1D2366"/>
<path opacity="0.1" d="M142.592 102.034C142.62 102.556 142.684 103.074 142.783 103.586C140.959 103.302 139.267 103.443 138.157 103.536V101.999L142.592 102.034Z" fill="black"/>
<path opacity="0.1" d="M159.118 104.374C159.118 104.374 156.526 104.509 153.436 104.536C153.348 103.674 153.329 102.964 153.329 102.964C153.329 102.964 155.075 100.376 158.276 103.17C158.532 103.393 158.757 103.653 158.945 103.943C158.995 104.09 159.053 104.234 159.118 104.374Z" fill="black"/>
<path d="M159.118 104.064C159.118 104.064 147.766 104.649 144.306 103.615C140.846 102.582 137.417 103.477 136.9 103.238C136.383 102.998 136.803 99.2433 137.256 98.3137C137.71 97.3841 140.198 87.9827 140.198 87.9827L142.592 74.6921L145.114 73.9522L145.292 73.8987L149.687 72.6086L152.907 71.6617C152.907 71.6617 159.311 98.2792 158.762 100.242C158.562 100.993 158.53 101.784 158.668 102.551C158.751 103.075 158.903 103.584 159.118 104.064Z" fill="#1D2366"/>
<path d="M134.247 65.6028C134.247 65.6028 131.979 68.1898 133.696 69.6317C135.413 71.0735 136.542 69.7697 136.542 69.7697L134.247 65.6028Z" fill="#C7DAF5"/>
<path opacity="0.1" d="M134.247 65.6028C134.247 65.6028 131.979 68.1898 133.696 69.6317C135.413 71.0735 136.542 69.7697 136.542 69.7697L134.247 65.6028Z" fill="black"/>
<path d="M152.569 48.5937C152.569 48.5937 152.303 48.8628 151.903 49.2595C151.333 49.8269 150.489 50.6565 149.741 51.3515C148.704 52.3122 147.849 53.0176 148.155 52.4157C148.461 51.8138 148.403 50.7651 148.25 49.7838C148.239 49.7182 148.229 49.6527 148.218 49.5889C148.092 48.8682 147.925 48.1563 147.717 47.4571C147.717 47.4571 149.392 45.1529 150.319 44.244C150.664 43.8991 150.905 43.7576 150.92 43.9974C150.936 44.3199 151.163 45.0322 151.445 45.7876C151.453 45.8118 151.461 45.8342 151.471 45.8583C151.659 46.3758 151.871 46.907 152.057 47.3657C152.342 48.0694 152.569 48.5937 152.569 48.5937Z" fill="#FFB0B1"/>
<path opacity="0.1" d="M151.471 45.8583C151.313 46.7597 150.931 47.5996 150.365 48.2901C149.798 48.9806 149.068 49.4965 148.25 49.7838C148.122 48.9965 147.943 48.2192 147.717 47.4571C147.717 47.4571 150.871 43.1195 150.92 43.9974C150.931 44.3302 151.177 45.0684 151.471 45.8583Z" fill="black"/>
<path opacity="0.1" d="M147.936 50.9428L148.344 50.3305C148.344 50.3305 148.615 52.0863 149.609 51.3119C150.604 50.5375 150.653 57.1397 150.653 57.1397L149.585 74.1332L141.871 73.6417L142.09 65.4303L142.963 61.291L145.122 55.2735L146.407 53.2849L147.936 50.9428Z" fill="black"/>
<path d="M150.653 57.2449L149.681 72.6104L149.579 74.2385L145.278 73.9643L145.116 73.9539L141.876 73.7469L142.095 65.5339L142.968 61.3946L145.127 55.377L146.412 53.3885L147.941 51.0377L148.349 50.4271C148.349 50.4271 148.62 52.1829 149.614 51.4085L149.635 51.393C150.607 50.7376 150.653 57.2449 150.653 57.2449Z" fill="#1D2366"/>
<path d="M143.077 59.9561C143.077 59.9561 142.689 60.8185 141.912 60.6788C141.134 60.5391 141.136 63.7832 141.136 63.7832C141.136 63.7832 140.619 64.3007 140.263 63.8522C139.907 63.4038 138.967 64.9198 138.967 64.9198L133.08 65.1958C133.08 65.1958 135.7 66.4703 135.186 70.3268C135.186 70.3268 144.079 69.7404 144.371 68.8453C144.662 67.9501 143.077 59.9561 143.077 59.9561Z" fill="white"/>
<path opacity="0.03" d="M143.077 59.9561C143.077 59.9561 142.689 60.8185 141.912 60.6788C141.134 60.5391 141.136 63.7832 141.136 63.7832C141.136 63.7832 140.619 64.3007 140.263 63.8522C139.907 63.4038 138.967 64.9198 138.967 64.9198L133.08 65.1958C133.08 65.1958 135.7 66.4703 135.186 70.3268C135.186 70.3268 144.079 69.7404 144.371 68.8453C144.662 67.9501 143.077 59.9561 143.077 59.9561Z" fill="black"/>
<path d="M125.969 67.2224L127.521 68.6332L140.295 71.491L138.711 69.7697L125.969 67.2224Z" fill="white"/>
<path d="M147.96 51.4861C147.748 51.831 147.141 53.5971 146.634 55.139C146.211 56.4239 145.858 57.5536 145.858 57.5536C145.858 57.5536 145.033 63.2693 144.612 64.3024C144.191 65.3355 144.419 69.3644 144.419 69.3644L142.85 79.3143C142.85 79.3143 142.139 84.4453 141.04 87.5101C139.957 90.5266 138.75 91.9409 138.713 91.9857C139.199 91.2855 141.847 77.4982 141.847 77.4982L142.722 60.1096C142.722 60.1096 142.85 58.4574 142.979 57.0448C143.109 55.6323 145.733 53.7041 145.733 53.7041L148.263 49.8735C148.518 50.2357 148.348 50.8669 147.96 51.4861Z" fill="white"/>
<path d="M141.363 73.8331C141.363 73.8331 137.637 73.6606 135.833 71.353C134.028 69.0453 140.004 70.432 140.004 70.432L141.557 70.8114L141.363 73.8331Z" fill="#FFB0B1"/>
<path opacity="0.1" d="M158.762 100.244C158.562 100.995 158.53 101.786 158.668 102.553C154.603 102.86 150.256 101.691 150.256 101.691C149.446 102.484 147.312 103.653 147.312 103.653L146.149 88.3035C145.406 86.2338 145.114 75.3906 145.114 75.3906C145.114 75.3906 145.181 74.8231 145.276 73.9728C145.276 73.9521 145.276 73.9297 145.284 73.909C145.574 71.5341 146.149 67.0757 146.431 66.4738C146.82 65.6459 145.236 63.4435 145.236 63.4435L145.957 56.8982L146.044 56.1083C147.564 55.3856 148.728 53.078 148.728 53.078L149.622 51.4102C150.594 50.7462 150.644 57.2535 150.644 57.2535L149.673 72.6189L152.893 71.6721C152.893 71.6721 159.311 98.2809 158.762 100.244Z" fill="black"/>
<path d="M162.933 101.304C158.502 103.646 150.45 101.477 150.45 101.477C149.64 102.27 147.507 103.44 147.507 103.44L146.342 88.0896C145.6 86.0199 145.309 75.1767 145.309 75.1767C145.309 75.1767 146.245 67.0861 146.634 66.2599C146.747 66.0185 146.692 65.6597 146.558 65.2734C145.897 63.4346 145.654 61.4553 145.848 59.4973L146.159 56.6843L146.245 55.8961C147.766 55.1718 148.931 52.8641 148.931 52.8641L149.741 51.3533L151.231 48.5696L151.937 47.2519L152.057 47.3674L152.972 48.2505C152.972 48.2505 153.361 48.5954 153.944 49.1129C155.212 50.2512 157.404 52.2553 158.535 53.4815C159.529 54.5612 159.844 58.7609 159.934 61.9223C159.994 64.004 159.959 65.6356 159.959 65.6356C158.956 67.3931 161.579 81.5029 161.579 81.5029C162.189 84.2297 162.933 101.304 162.933 101.304Z" fill="white"/>
<path opacity="0.03" d="M154.428 52.8296C154.428 52.8296 151.388 58.992 151.741 61.3342C152.094 63.6763 153.099 66.3272 152.614 66.9464C152.448 67.181 152.233 67.3714 151.986 67.5027C151.739 67.6341 151.466 67.7028 151.19 67.7036C150.704 67.738 149.409 68.7022 149.409 68.8056C149.409 68.9091 148.211 68.9091 147.141 69.392C146.07 69.875 144.489 70.1492 144.489 70.1492C144.489 70.1492 141.411 70.0457 141.125 70.3562C140.838 70.6666 140.543 72.5241 141.157 74.0057C141.771 75.4872 142.453 76.5927 142.968 76.7945C143.483 76.9963 146.752 75.8304 149.404 75.5544C152.055 75.2785 154.934 73.0415 154.934 73.0415C154.934 73.0415 158.104 71.8342 158.66 69.8042C159.215 67.7743 157.981 56.6171 157.981 56.6171C157.981 56.6171 157.048 51.4171 154.428 52.8296Z" fill="black"/>
<path opacity="0.03" d="M154.04 52.3122C154.04 52.3122 150.999 58.4763 151.356 60.8167C151.712 63.1572 152.713 65.8098 152.227 66.4307C152.061 66.6655 151.847 66.8561 151.6 66.9875C151.353 67.1189 151.081 67.1875 150.805 67.1878C150.319 67.2223 149.023 68.1864 149.023 68.2899C149.023 68.3934 147.826 68.3934 146.755 68.8746C145.685 69.3558 144.104 69.6317 144.104 69.6317C144.104 69.6317 141.026 69.5282 140.741 69.8387C140.456 70.1491 140.158 72.0084 140.773 73.4882C141.389 74.968 142.069 76.0753 142.584 76.277C143.099 76.4788 146.368 75.3129 149.02 75.0387C151.671 74.7645 154.55 72.5241 154.55 72.5241C154.55 72.5241 157.718 71.3168 158.268 69.2885C158.817 67.2603 157.589 56.0996 157.589 56.0996C157.589 56.0996 156.659 50.9014 154.04 52.3122Z" fill="black"/>
<path d="M154.333 52.5191C154.333 52.5191 151.292 58.6832 151.649 61.0237C152.005 63.3641 153.006 66.0167 152.522 66.6359C152.356 66.8713 152.141 67.0624 151.894 67.1941C151.647 67.3258 151.374 67.3945 151.098 67.3948C150.612 67.4293 149.316 68.3934 149.316 68.4951C149.316 68.5969 148.121 68.5986 147.048 69.0815C145.976 69.5644 144.397 69.8387 144.397 69.8387C144.397 69.8387 141.319 69.7352 141.032 70.0456C140.746 70.3561 140.451 72.2153 141.065 73.6951C141.679 75.1749 142.361 76.2822 142.876 76.484C143.391 76.6858 146.66 75.5199 149.311 75.2439C151.963 74.968 154.842 72.731 154.842 72.731C154.842 72.731 158.012 71.5237 158.567 69.4937C159.123 67.4637 157.897 56.3066 157.897 56.3066C157.897 56.3066 156.951 51.1152 154.333 52.5191Z" fill="white"/>
<path opacity="0.1" d="M154.266 69.0523C154.266 69.0523 151.837 68.5348 152.682 69.3972C153.528 70.2596 153.523 71.015 154.558 70.9805C155.593 70.946 154.266 69.0523 154.266 69.0523Z" fill="black"/>
<path opacity="0.1" d="M158.373 87.6067C158.373 87.6067 157.275 88.3983 159.376 90.223C161.477 92.0478 158.373 87.6067 158.373 87.6067Z" fill="black"/>
<path opacity="0.1" d="M156.277 94.114C156.277 94.2175 155.888 97.9084 157.343 98.8311C158.797 99.7538 156.277 94.114 156.277 94.114Z" fill="black"/>
<path d="M133.181 65.1871C132.008 65.2303 129.475 65.6114 130.788 68.2209C131.95 70.5303 133.902 68.9867 135 67.8156C134.732 66.7238 134.081 65.783 133.181 65.1871Z" fill="#FFB0B1"/>
<path d="M135.015 67.7958L135.063 67.7415L135.015 67.7958Z" fill="#FFB0B1"/>
<path opacity="0.1" d="M153.944 49.218C152.7 50.1235 151.657 50.8876 151.453 51.0462C150.896 51.486 149.833 54.0679 149.148 55.3856C148.602 56.4463 146.828 56.7188 146.159 56.7861L146.245 55.9979C147.766 55.2735 148.931 52.9658 148.931 52.9658L151.937 47.3536L152.972 48.3557C152.972 48.3557 153.361 48.7006 153.944 49.218Z" fill="black"/>
<path d="M153.944 49.1146C152.7 50.0201 151.657 50.7841 151.453 50.9445C150.896 51.3826 149.833 53.9645 149.148 55.2822C148.602 56.3429 146.828 56.6154 146.159 56.6826L146.245 55.8944C147.766 55.1701 148.931 52.8624 148.931 52.8624L151.937 47.2502L152.972 48.2488C152.972 48.2488 153.361 48.5903 153.944 49.1146Z" fill="#DCE7FF"/>
<path d="M151.55 44.72C151.551 45.7553 151.256 46.7664 150.704 47.6193C150.053 48.6276 149.084 49.354 147.973 49.6666C146.862 49.9793 145.682 49.8575 144.648 49.3233C143.614 48.7891 142.794 47.878 142.337 46.7553C141.88 45.6325 141.816 44.3725 142.157 43.2039C142.498 42.0352 143.221 41.0354 144.195 40.3858C145.169 39.7362 146.329 39.4798 147.466 39.6632C148.602 39.8466 149.639 40.4577 150.388 41.3855C151.138 42.3133 151.55 43.4963 151.55 44.72Z" fill="#FFB0B1"/>
<path opacity="0.1" d="M159.934 61.924C159.277 61.4932 158.741 60.8804 158.384 60.151C158.114 59.5819 157.934 58.9248 157.472 58.5212C157.056 58.159 156.5 58.071 155.982 57.9089C154.278 57.3725 152.849 55.7168 152.796 53.8265C152.77 52.9366 153.031 52.0483 152.912 51.167C152.845 50.6682 152.659 50.1961 152.371 49.7959C152.228 49.6044 152.072 49.4251 151.903 49.2595C151.676 49.0318 151.438 48.8111 151.231 48.5696C151.1 48.4201 150.986 48.2552 150.891 48.0781C150.814 47.9331 150.751 47.7799 150.704 47.621C150.38 46.5655 150.675 45.3133 150.319 44.2457L150.299 44.1871C150.165 43.8077 149.891 43.4282 149.511 43.3989C149.13 43.3696 148.804 43.7059 148.441 43.856C147.682 44.1699 146.862 43.6352 146.229 43.0902C145.595 42.5452 144.881 41.9226 144.076 42.0433C143.543 42.1243 143.122 42.5107 142.631 42.7108C142.52 42.7564 142.406 42.7916 142.289 42.816C142.705 41.713 143.468 40.7985 144.448 40.2296C145.427 39.6607 146.563 39.4728 147.659 39.6983C148.754 39.9238 149.742 40.5486 150.452 41.4653C151.162 42.382 151.551 43.5335 151.55 44.7218C151.551 45.0806 151.515 45.4385 151.445 45.7894C151.453 45.8135 151.461 45.8359 151.471 45.8601C151.659 46.3775 151.871 46.9087 152.057 47.3675L152.972 48.2505C152.972 48.2505 153.361 48.5955 153.944 49.1129C155.212 50.2512 157.404 52.2553 158.535 53.4816C159.529 54.5647 159.84 58.7626 159.934 61.924Z" fill="black"/>
<path d="M142.574 39.5597C142.806 39.0578 142.921 38.4955 143.198 38.0195C143.605 37.3296 144.314 36.8881 145.043 36.6208C146.946 35.9222 150.969 34.9081 152.17 36.6208C152.407 36.9657 152.603 37.3486 152.93 37.5866C153.18 37.7677 153.481 37.8453 153.755 37.9816C154.521 38.3644 155.01 39.1992 155.271 40.0512C155.532 40.9032 155.609 41.8173 155.801 42.6952C156.045 43.8214 156.474 44.889 156.902 45.9497C157.406 47.2019 157.94 48.5006 158.912 49.3853C160.239 50.5926 160.532 52.3018 161.763 53.6264C163.221 55.1993 163.174 57.795 162.422 59.8561C162.324 60.1268 162.212 60.4097 162.251 60.6977C162.29 60.9858 162.491 61.2479 162.68 61.4773L163.477 62.4345C161.591 62.9192 159.458 61.8705 158.58 60.0303C158.31 59.4611 158.13 58.8057 157.667 58.4004C157.252 58.0382 156.695 57.952 156.178 57.7899C154.474 57.2518 153.045 55.5943 152.992 53.704C152.966 52.8158 153.227 51.9276 153.108 51.048C153.043 50.5458 152.856 50.0704 152.566 49.6682C152.12 49.049 151.448 48.6334 151.085 47.9435C150.471 46.7897 150.938 45.2909 150.496 44.0525C150.359 43.6731 150.087 43.2937 149.707 43.2643C149.326 43.235 149 43.5713 148.636 43.7214C147.878 44.0353 147.058 43.5024 146.425 42.9556C145.791 42.4089 145.077 41.788 144.27 41.9104C143.738 41.9898 143.318 42.3761 142.827 42.5779C142.464 42.7262 141.729 42.859 141.411 42.5331C140.741 41.876 142.294 40.1737 142.574 39.5597Z" fill="#591D4B"/>
<path opacity="0.1" d="M159.03 59.4611C158.758 58.892 158.58 58.2366 158.117 57.833C157.702 57.4708 157.145 57.3828 156.627 57.2207C154.924 56.6843 153.495 55.0269 153.44 53.1366C153.414 52.2484 153.675 51.3584 153.559 50.4788C153.491 49.9799 153.304 49.5078 153.016 49.1077C152.569 48.4885 151.897 48.0729 151.535 47.383C150.922 46.2309 151.388 44.7321 150.944 43.492C150.81 43.1143 150.536 42.7349 150.157 42.7038C149.778 42.6728 149.449 43.0126 149.086 43.1626C148.328 43.4765 147.507 42.9419 146.875 42.3968C146.243 41.8518 145.526 41.2292 144.721 41.3499C144.188 41.431 143.767 41.8173 143.277 42.0174C142.915 42.1657 142.178 42.3003 141.86 41.9743C141.193 41.2844 142.746 39.5856 143.025 38.975C143.256 38.4714 143.371 37.9109 143.65 37.4348C143.665 37.409 143.681 37.3831 143.697 37.3572C143.489 37.5411 143.309 37.7588 143.164 38.0023C142.887 38.4783 142.772 39.0371 142.54 39.5424C142.26 40.153 140.707 41.857 141.376 42.5417C141.7 42.8694 142.429 42.7349 142.791 42.5866C143.277 42.3848 143.702 41.9984 144.235 41.9191C145.045 41.7966 145.757 42.4193 146.389 42.9643C147.021 43.5093 147.847 44.0439 148.602 43.73C148.965 43.58 149.282 43.2419 149.671 43.273C150.06 43.304 150.319 43.6818 150.46 44.0612C150.902 45.2995 150.436 46.7983 151.049 47.9521C151.412 48.6299 152.085 49.0542 152.53 49.6768C152.82 50.0791 153.007 50.5545 153.073 51.0566C153.191 51.9362 152.93 52.8244 152.956 53.7127C153.009 55.6098 154.438 57.2604 156.142 57.7985C156.656 57.9606 157.216 58.0469 157.631 58.409C158.096 58.8144 158.279 59.4697 158.545 60.0389C159.422 61.8792 161.556 62.9278 163.441 62.4431L163.066 61.9913C161.431 62.0171 159.777 61.0272 159.03 59.4611Z" fill="black"/>
<path opacity="0.1" d="M147.863 51.5896C147.651 51.9345 147.044 53.7006 146.537 55.2425C146.062 55.0459 145.631 53.792 145.631 53.792L148.161 49.9597C148.42 50.3392 148.25 50.9687 147.863 51.5896Z" fill="black"/>
<path d="M147.96 51.4861C147.748 51.831 147.141 53.5971 146.634 55.139C146.159 54.9441 145.728 53.6886 145.728 53.6886L148.258 49.858C148.518 50.2357 148.348 50.8669 147.96 51.4861Z" fill="#DCE7FF"/>
<path d="M133.249 69.1057L131.846 64.3955C131.83 64.3404 131.823 64.2823 131.828 64.2246C131.832 64.1669 131.848 64.1107 131.873 64.0592C131.898 64.0078 131.932 63.9621 131.973 63.9248C132.015 63.8875 132.063 63.8593 132.115 63.8419C132.219 63.8072 132.332 63.8178 132.43 63.8714C132.527 63.9251 132.6 64.0173 132.633 64.1282L134.036 68.8332L133.897 69.818L133.249 69.1057Z" fill="#BE8B87"/>
<path opacity="0.1" d="M131.979 63.9816C132.084 63.9464 132.197 63.9567 132.295 64.0104C132.392 64.064 132.465 64.1566 132.499 64.2679L133.902 68.9729L133.796 69.7111L133.898 69.8249L134.038 68.8401L132.627 64.1351C132.593 64.0242 132.52 63.932 132.423 63.8783C132.326 63.8247 132.213 63.8141 132.109 63.8488C132.021 63.8791 131.945 63.9398 131.893 64.0213C131.921 64.0055 131.949 63.9923 131.979 63.9816Z" fill="white"/>
<path d="M133.249 69.1057L134.036 68.8401L133.921 69.6473L133.897 69.8249L133.667 69.5696L133.249 69.1057Z" fill="#EFC8C4"/>
<path d="M133.667 69.5696C133.681 69.5512 133.698 69.5359 133.717 69.5248C133.728 69.5171 133.742 69.5131 133.755 69.5131C133.769 69.5131 133.782 69.5171 133.793 69.5248C133.804 69.539 133.814 69.5546 133.821 69.5714C133.831 69.5904 133.846 69.6066 133.863 69.6189C133.881 69.6311 133.901 69.639 133.921 69.6421L133.897 69.8145L133.667 69.5696Z" fill="#727A9C"/>
<path d="M131.838 66.0685C131.838 66.0685 134.652 66.0512 133.989 67.3258C133.327 68.6003 132.292 68.7538 132.292 68.7538L131.838 66.0685Z" fill="#FFB0B1"/>
<path d="M114.339 8.86847H114.217C109.384 8.86847 105.109 11.5918 102.65 15.6104C100.191 11.5918 95.9163 8.86847 91.0826 8.86847H90.9611C87.3336 8.90528 83.8663 10.4649 81.3127 13.2083C78.7591 15.9518 77.3256 19.6574 77.3236 23.5199C77.3236 28.3163 79.2966 35.122 83.1437 40.7222C90.4736 51.3929 102.65 60.7288 102.65 60.7288C102.65 60.7288 114.826 51.3947 122.155 40.7222C126.003 35.122 127.975 28.3163 127.975 23.5199C127.973 19.6577 126.539 15.9523 123.986 13.2089C121.433 10.4655 117.966 8.90573 114.339 8.86847ZM112.601 41.5431C112.05 41.5409 111.513 41.3615 111.06 41.0284C110.607 40.6954 110.259 40.2243 110.062 39.677H107.173C106.982 39.6757 106.797 39.6112 106.643 39.4925C106.489 39.3738 106.373 39.2067 106.312 39.0147L105.425 36.1672L102.616 46.6172C102.561 46.8184 102.447 46.9952 102.29 47.1212C102.132 47.2471 101.941 47.3154 101.744 47.3157H101.688C101.483 47.3052 101.287 47.2199 101.134 47.0743C100.98 46.9286 100.879 46.7314 100.845 46.5155L97.9508 27.9783L95.8353 38.9474C95.7867 39.1558 95.6741 39.3409 95.5152 39.4731C95.3564 39.6053 95.1605 39.6771 94.9589 39.677H90.8882C90.7662 39.6825 90.6444 39.6616 90.5301 39.6157C90.4159 39.5698 90.3115 39.4997 90.2233 39.4097C90.1352 39.3197 90.065 39.2117 90.0171 39.0921C89.9692 38.9725 89.9444 38.8438 89.9444 38.7137C89.9444 38.5837 89.9692 38.455 90.0171 38.3354C90.065 38.2158 90.1352 38.1077 90.2233 38.0177C90.3115 37.9277 90.4159 37.8577 90.5301 37.8118C90.6444 37.7658 90.7662 37.745 90.8882 37.7505H94.2462L97.2429 23.0025C97.2921 22.7844 97.4109 22.5913 97.579 22.4562C97.7471 22.3211 97.954 22.2524 98.1645 22.2618C98.3749 22.2711 98.5757 22.358 98.7327 22.5076C98.8896 22.6572 98.9928 22.8602 99.0247 23.0818L101.981 41.9915L104.498 32.6419C104.551 32.445 104.661 32.2714 104.814 32.1471C104.967 32.0227 105.153 31.9543 105.345 31.952H105.363C105.554 31.9521 105.739 32.0161 105.893 32.1351C106.047 32.254 106.162 32.4217 106.222 32.6143L107.827 37.7557H110.027C110.183 37.2497 110.468 36.7997 110.849 36.4551C111.231 36.1105 111.694 35.8849 112.189 35.8031C112.683 35.7213 113.189 35.7865 113.65 35.9915C114.112 36.1965 114.512 36.5333 114.805 36.9648C115.098 37.3963 115.274 37.9057 115.312 38.4367C115.351 38.9678 115.251 39.4998 115.023 39.9741C114.796 40.4485 114.45 40.8467 114.023 41.1248C113.596 41.4028 113.106 41.55 112.606 41.55L112.601 41.5431Z" fill="#6C63FF"/>
</g>
<defs>
<linearGradient id="paint0_linear" x1="57.7201" y1="133.643" x2="57.7201" y2="27.5143" gradientUnits="userSpaceOnUse">
<stop stop-color="#808080" stop-opacity="0.25"/>
<stop offset="0.54" stop-color="#808080" stop-opacity="0.12"/>
<stop offset="1" stop-color="#808080" stop-opacity="0.1"/>
</linearGradient>
<linearGradient id="paint1_linear" x1="36157.6" y1="80075.2" x2="36157.6" y2="25598.7" gradientUnits="userSpaceOnUse">
<stop stop-color="#808080" stop-opacity="0.25"/>
<stop offset="0.54" stop-color="#808080" stop-opacity="0.12"/>
<stop offset="1" stop-color="#808080" stop-opacity="0.1"/>
</linearGradient>
<clipPath id="clip0">
<rect width="179" height="135" fill="white"/>
</clipPath>
</defs>
</svg>
