<svg width="1099" height="1248" viewBox="0 0 1099 1248" fill="none" xmlns="http://www.w3.org/2000/svg">
<g filter="url(#filter0_d)">
<path fill-rule="evenodd" clip-rule="evenodd" d="M146.055 352.028C131.45 232.809 144.651 88.4702 231.517 8.04934C318.887 -72.8373 461.867 7.51446 569.132 -39.6576C703.376 -98.6947 777.168 -281.914 921.547 -295.407C1074.27 -309.68 1233.17 -231.063 1332.85 -111.03C1433.38 10.0103 1496.23 188.996 1453.51 345.14C1411.4 499.054 1181.93 517.047 1120.79 664.087C1053.82 825.169 1252.29 1088.35 1107.48 1177.43C961.332 1267.33 833.238 985.701 671.265 940.617C564.865 911.001 430.594 1039.87 346.858 965.712C260.307 889.057 343.006 729.894 306.147 617.246C273.024 516.019 159.095 458.477 146.055 352.028Z" fill="url(#paint0_linear)"/>
</g>
<defs>
<filter id="filter0_d" x="0.545197" y="-424" width="1552.43" height="1672" filterUnits="userSpaceOnUse" color-interpolation-filters="sRGB">
<feFlood flood-opacity="0" result="BackgroundImageFix"/>
<feColorMatrix in="SourceAlpha" type="matrix" values="0 0 0 0 0 0 0 0 0 0 0 0 0 0 0 0 0 0 127 0"/>
<feOffset dy="4"/>
<feGaussianBlur stdDeviation="2"/>
<feColorMatrix type="matrix" values="0 0 0 0 0 0 0 0 0 0 0 0 0 0 0 0 0 0 0.25 0"/>
<feBlend mode="normal" in2="BackgroundImageFix" result="effect1_dropShadow"/>
<feBlend mode="normal" in="SourceGraphic" in2="effect1_dropShadow" result="shape"/>
</filter>
<linearGradient id="paint0_linear" x1="128.03" y1="296.873" x2="1425.49" y2="519.127" gradientUnits="userSpaceOnUse">
<stop offset="0.0135415" stop-color="white"/>
<stop offset="0.763542" stop-color="#C1E8FF"/>
<stop offset="0.9998" stop-color="#D6F0FF" stop-opacity="0.34"/>
<stop offset="0.9999" stop-color="#C1E8FF" stop-opacity="0.45"/>
</linearGradient>
</defs>
</svg>
