<svg width="793" height="48" viewBox="0 0 793 48" fill="none" xmlns="http://www.w3.org/2000/svg">
<g filter="url(#filter0_d)">
<path d="M37.9115 8.12C38.4528 8.12 38.8821 8.288 39.1995 8.624C39.5168 8.94133 39.6755 9.37067 39.6755 9.912V26.348C39.6755 26.8893 39.5075 27.328 39.1715 27.664C38.8541 28 38.4341 28.168 37.9115 28.168C37.3701 28.168 36.9408 28 36.6235 27.664C36.3061 27.328 36.1475 26.8893 36.1475 26.348V19.432H26.0395V26.348C26.0395 26.8893 25.8715 27.328 25.5355 27.664C25.2181 28 24.7888 28.168 24.2475 28.168C23.7248 28.168 23.2955 28 22.9595 27.664C22.6421 27.328 22.4835 26.8893 22.4835 26.348V9.912C22.4835 9.37067 22.6421 8.94133 22.9595 8.624C23.2768 8.288 23.7061 8.12 24.2475 8.12C24.7888 8.12 25.2181 8.288 25.5355 8.624C25.8715 8.94133 26.0395 9.37067 26.0395 9.912V16.52H36.1475V9.912C36.1475 9.37067 36.3061 8.94133 36.6235 8.624C36.9408 8.288 37.3701 8.12 37.9115 8.12ZM52.713 28.252C50.7903 28.252 49.1196 27.8413 47.701 27.02C46.301 26.1987 45.2183 25.0227 44.453 23.492C43.6876 21.9613 43.305 20.1693 43.305 18.116C43.305 16.0627 43.6783 14.28 44.425 12.768C45.1903 11.2373 46.2823 10.0613 47.701 9.24C49.1196 8.41867 50.7903 8.008 52.713 8.008C54.6356 8.008 56.297 8.41867 57.697 9.24C59.1156 10.0613 60.1983 11.2373 60.945 12.768C61.7103 14.28 62.093 16.0627 62.093 18.116C62.093 20.1693 61.7103 21.9613 60.945 23.492C60.1796 25.0227 59.0876 26.1987 57.669 27.02C56.269 27.8413 54.617 28.252 52.713 28.252ZM52.713 25.368C54.5236 25.368 55.933 24.7427 56.941 23.492C57.9676 22.2413 58.481 20.4493 58.481 18.116C58.481 15.7827 57.9676 14 56.941 12.768C55.933 11.5173 54.5236 10.892 52.713 10.892C50.8836 10.892 49.4556 11.5173 48.429 12.768C47.421 14 46.917 15.7827 46.917 18.116C46.917 20.4493 47.421 22.2413 48.429 23.492C49.4556 24.7427 50.8836 25.368 52.713 25.368ZM83.2693 8.12C83.7919 8.12 84.2119 8.288 84.5293 8.624C84.8466 8.94133 85.0053 9.37067 85.0053 9.912V26.488C85.0053 27.0107 84.8559 27.4213 84.5573 27.72C84.2586 28.0187 83.8666 28.168 83.3813 28.168C82.8959 28.168 82.5133 28.0187 82.2333 27.72C81.9533 27.4213 81.8133 27.0107 81.8133 26.488V14.952L77.0533 23.968C76.8293 24.3787 76.5866 24.6867 76.3253 24.892C76.0639 25.0787 75.7559 25.172 75.4013 25.172C75.0466 25.172 74.7386 25.0787 74.4773 24.892C74.2159 24.7053 73.9733 24.3973 73.7493 23.968L68.9613 15.092V26.488C68.9613 26.992 68.8119 27.4027 68.5133 27.72C68.2333 28.0187 67.8506 28.168 67.3653 28.168C66.8799 28.168 66.4973 28.0187 66.2173 27.72C65.9373 27.4213 65.7973 27.0107 65.7973 26.488V9.912C65.7973 9.37067 65.9466 8.94133 66.2453 8.624C66.5626 8.288 66.9826 8.12 67.5053 8.12C68.2333 8.12 68.8026 8.52133 69.2133 9.324L75.4293 21.168L81.6173 9.324C82.0279 8.52133 82.5786 8.12 83.2693 8.12ZM91.0203 28C90.4789 28 90.0496 27.8507 89.7323 27.552C89.4336 27.2533 89.2843 26.8333 89.2843 26.292V9.968C89.2843 9.42667 89.4336 9.00667 89.7323 8.708C90.0496 8.40933 90.4789 8.26 91.0203 8.26H101.128C101.67 8.26 102.09 8.38133 102.388 8.624C102.687 8.86667 102.836 9.212 102.836 9.66C102.836 10.1267 102.687 10.4907 102.388 10.752C102.09 10.9947 101.67 11.116 101.128 11.116H92.8123V16.548H100.568C101.11 16.548 101.53 16.6693 101.828 16.912C102.127 17.1547 102.276 17.5093 102.276 17.976C102.276 18.424 102.127 18.7693 101.828 19.012C101.53 19.2547 101.11 19.376 100.568 19.376H92.8123V25.144H101.128C101.67 25.144 102.09 25.2747 102.388 25.536C102.687 25.7787 102.836 26.1333 102.836 26.6C102.836 27.048 102.687 27.3933 102.388 27.636C102.09 27.8787 101.67 28 101.128 28H91.0203Z" fill="#12232E"/>
</g>
<g filter="url(#filter1_d)">
<path d="M184.055 29C183.514 29 183.085 28.8507 182.767 28.552C182.469 28.2533 182.319 27.8333 182.319 27.292V10.968C182.319 10.4267 182.469 10.0067 182.767 9.708C183.085 9.40933 183.514 9.26 184.055 9.26H194.163C194.705 9.26 195.125 9.38133 195.423 9.624C195.722 9.86667 195.871 10.212 195.871 10.66C195.871 11.1267 195.722 11.4907 195.423 11.752C195.125 11.9947 194.705 12.116 194.163 12.116H185.847V17.548H193.603C194.145 17.548 194.565 17.6693 194.863 17.912C195.162 18.1547 195.311 18.5093 195.311 18.976C195.311 19.424 195.162 19.7693 194.863 20.012C194.565 20.2547 194.145 20.376 193.603 20.376H185.847V26.144H194.163C194.705 26.144 195.125 26.2747 195.423 26.536C195.722 26.7787 195.871 27.1333 195.871 27.6C195.871 28.048 195.722 28.3933 195.423 28.636C195.125 28.8787 194.705 29 194.163 29H184.055ZM213.96 26.424C214.259 26.7787 214.408 27.1333 214.408 27.488C214.408 27.936 214.231 28.328 213.876 28.664C213.54 29 213.148 29.168 212.7 29.168C212.234 29.168 211.823 28.9627 211.468 28.552L205.784 21.496L200.072 28.552C199.736 28.944 199.335 29.14 198.868 29.14C198.42 29.14 198.019 28.9813 197.664 28.664C197.328 28.328 197.16 27.936 197.16 27.488C197.16 27.1147 197.3 26.76 197.58 26.424L203.684 18.976L197.832 11.836C197.552 11.5373 197.412 11.1827 197.412 10.772C197.412 10.324 197.58 9.94133 197.916 9.624C198.252 9.288 198.644 9.12 199.092 9.12C199.559 9.12 199.97 9.32533 200.324 9.736L205.784 16.484L211.244 9.736C211.58 9.32533 211.982 9.12 212.448 9.12C212.896 9.12 213.288 9.288 213.624 9.624C213.979 9.94133 214.156 10.324 214.156 10.772C214.156 11.1827 214.016 11.5373 213.736 11.836L207.884 18.976L213.96 26.424ZM219.002 29.168C218.461 29.168 218.022 29.0093 217.686 28.692C217.369 28.356 217.21 27.908 217.21 27.348V10.968C217.21 10.4267 217.359 10.0067 217.658 9.708C217.975 9.40933 218.405 9.26 218.946 9.26H225.834C227.943 9.26 229.586 9.792 230.762 10.856C231.938 11.9013 232.526 13.376 232.526 15.28C232.526 17.184 231.938 18.668 230.762 19.732C229.586 20.796 227.943 21.328 225.834 21.328H220.822V27.348C220.822 27.908 220.654 28.356 220.318 28.692C220.001 29.0093 219.562 29.168 219.002 29.168ZM225.386 18.556C227.869 18.556 229.11 17.4733 229.11 15.308C229.11 13.1427 227.869 12.06 225.386 12.06H220.822V18.556H225.386ZM237.402 29C236.861 29 236.441 28.8507 236.142 28.552C235.844 28.2533 235.694 27.8427 235.694 27.32V10.912C235.694 10.3707 235.853 9.94133 236.17 9.624C236.506 9.288 236.945 9.12 237.486 9.12C238.046 9.12 238.485 9.288 238.802 9.624C239.138 9.94133 239.306 10.3707 239.306 10.912V26.032H247.174C248.294 26.032 248.854 26.5267 248.854 27.516C248.854 28.5053 248.294 29 247.174 29H237.402ZM258.951 29.252C257.029 29.252 255.358 28.8413 253.939 28.02C252.539 27.1987 251.457 26.0227 250.691 24.492C249.926 22.9613 249.543 21.1693 249.543 19.116C249.543 17.0627 249.917 15.28 250.663 13.768C251.429 12.2373 252.521 11.0613 253.939 10.24C255.358 9.41867 257.029 9.008 258.951 9.008C260.874 9.008 262.535 9.41867 263.935 10.24C265.354 11.0613 266.437 12.2373 267.183 13.768C267.949 15.28 268.331 17.0627 268.331 19.116C268.331 21.1693 267.949 22.9613 267.183 24.492C266.418 26.0227 265.326 27.1987 263.907 28.02C262.507 28.8413 260.855 29.252 258.951 29.252ZM258.951 26.368C260.762 26.368 262.171 25.7427 263.179 24.492C264.206 23.2413 264.719 21.4493 264.719 19.116C264.719 16.7827 264.206 15 263.179 13.768C262.171 12.5173 260.762 11.892 258.951 11.892C257.122 11.892 255.694 12.5173 254.667 13.768C253.659 15 253.155 16.7827 253.155 19.116C253.155 21.4493 253.659 23.2413 254.667 24.492C255.694 25.7427 257.122 26.368 258.951 26.368ZM287.772 26.732C287.996 27.068 288.108 27.3947 288.108 27.712C288.108 28.1413 287.93 28.496 287.576 28.776C287.24 29.056 286.838 29.196 286.372 29.196C286.073 29.196 285.784 29.1307 285.504 29C285.242 28.8507 285.018 28.636 284.832 28.356L281.108 22.7C280.734 22.1027 280.333 21.6827 279.904 21.44C279.493 21.1973 278.952 21.076 278.28 21.076H275.536V27.348C275.536 27.908 275.377 28.356 275.06 28.692C274.742 29.0093 274.313 29.168 273.772 29.168C273.23 29.168 272.792 29.0093 272.456 28.692C272.138 28.356 271.98 27.908 271.98 27.348V10.968C271.98 10.4267 272.129 10.0067 272.428 9.708C272.745 9.40933 273.174 9.26 273.716 9.26H280.716C282.956 9.26 284.654 9.764 285.812 10.772C286.988 11.7613 287.576 13.1987 287.576 15.084C287.576 16.6147 287.137 17.8747 286.26 18.864C285.401 19.8347 284.178 20.46 282.592 20.74C283.133 20.8707 283.609 21.104 284.02 21.44C284.43 21.776 284.832 22.2427 285.224 22.84L287.772 26.732ZM280.212 18.304C281.574 18.304 282.573 18.052 283.208 17.548C283.842 17.0253 284.16 16.232 284.16 15.168C284.16 14.0853 283.842 13.3013 283.208 12.816C282.573 12.312 281.574 12.06 280.212 12.06H275.508V18.304H280.212ZM293.184 29C292.643 29 292.214 28.8507 291.896 28.552C291.598 28.2533 291.448 27.8333 291.448 27.292V10.968C291.448 10.4267 291.598 10.0067 291.896 9.708C292.214 9.40933 292.643 9.26 293.184 9.26H303.292C303.834 9.26 304.254 9.38133 304.552 9.624C304.851 9.86667 305 10.212 305 10.66C305 11.1267 304.851 11.4907 304.552 11.752C304.254 11.9947 303.834 12.116 303.292 12.116H294.976V17.548H302.732C303.274 17.548 303.694 17.6693 303.992 17.912C304.291 18.1547 304.44 18.5093 304.44 18.976C304.44 19.424 304.291 19.7693 303.992 20.012C303.694 20.2547 303.274 20.376 302.732 20.376H294.976V26.144H303.292C303.834 26.144 304.254 26.2747 304.552 26.536C304.851 26.7787 305 27.1333 305 27.6C305 28.048 304.851 28.3933 304.552 28.636C304.254 28.8787 303.834 29 303.292 29H293.184Z" fill="#12232E"/>
</g>
<g filter="url(#filter2_d)">
<path d="M353.936 28C353.395 28 352.966 27.8507 352.648 27.552C352.35 27.2533 352.2 26.8333 352.2 26.292V9.968C352.2 9.42667 352.35 9.00667 352.648 8.708C352.966 8.40933 353.395 8.26 353.936 8.26H359.48C362.71 8.26 365.211 9.128 366.984 10.864C368.776 12.5813 369.672 14.9987 369.672 18.116C369.672 21.252 368.776 23.688 366.984 25.424C365.211 27.1413 362.71 28 359.48 28H353.936ZM359.256 25.06C363.792 25.06 366.06 22.7453 366.06 18.116C366.06 13.5053 363.792 11.2 359.256 11.2H355.812V25.06H359.256ZM382.102 28.252C380.179 28.252 378.508 27.8413 377.09 27.02C375.69 26.1987 374.607 25.0227 373.842 23.492C373.076 21.9613 372.694 20.1693 372.694 18.116C372.694 16.0627 373.067 14.28 373.814 12.768C374.579 11.2373 375.671 10.0613 377.09 9.24C378.508 8.41867 380.179 8.008 382.102 8.008C384.024 8.008 385.686 8.41867 387.086 9.24C388.504 10.0613 389.587 11.2373 390.334 12.768C391.099 14.28 391.482 16.0627 391.482 18.116C391.482 20.1693 391.099 21.9613 390.334 23.492C389.568 25.0227 388.476 26.1987 387.058 27.02C385.658 27.8413 384.006 28.252 382.102 28.252ZM382.102 25.368C383.912 25.368 385.322 24.7427 386.33 23.492C387.356 22.2413 387.87 20.4493 387.87 18.116C387.87 15.7827 387.356 14 386.33 12.768C385.322 11.5173 383.912 10.892 382.102 10.892C380.272 10.892 378.844 11.5173 377.818 12.768C376.81 14 376.306 15.7827 376.306 18.116C376.306 20.4493 376.81 22.2413 377.818 23.492C378.844 24.7427 380.272 25.368 382.102 25.368ZM410.082 8.12C410.605 8.12 411.015 8.288 411.314 8.624C411.631 8.94133 411.79 9.37067 411.79 9.912V26.348C411.79 26.8893 411.631 27.328 411.314 27.664C410.997 28 410.586 28.168 410.082 28.168C409.485 28.168 409.027 27.9533 408.71 27.524L398.49 14.224V26.348C398.49 26.8893 398.341 27.328 398.042 27.664C397.743 28 397.333 28.168 396.81 28.168C396.287 28.168 395.877 28 395.578 27.664C395.279 27.328 395.13 26.8893 395.13 26.348V9.912C395.13 9.37067 395.289 8.94133 395.606 8.624C395.923 8.288 396.343 8.12 396.866 8.12C397.445 8.12 397.893 8.33467 398.21 8.764L408.402 22.008V9.912C408.402 9.37067 408.551 8.94133 408.85 8.624C409.167 8.288 409.578 8.12 410.082 8.12ZM433.94 25.844C434.052 26.0867 434.108 26.3293 434.108 26.572C434.108 27.0013 433.931 27.3653 433.576 27.664C433.24 27.9627 432.848 28.112 432.4 28.112C432.101 28.112 431.821 28.0373 431.56 27.888C431.299 27.72 431.093 27.468 430.944 27.132L429.264 23.38H419.408L417.728 27.132C417.579 27.468 417.373 27.72 417.112 27.888C416.851 28.0373 416.561 28.112 416.244 28.112C415.815 28.112 415.423 27.9627 415.068 27.664C414.713 27.3653 414.536 27.0013 414.536 26.572C414.536 26.3293 414.592 26.0867 414.704 25.844L422.432 9.24C422.6 8.86667 422.852 8.58667 423.188 8.4C423.543 8.19467 423.916 8.092 424.308 8.092C424.7 8.092 425.064 8.19467 425.4 8.4C425.755 8.58667 426.016 8.86667 426.184 9.24L433.94 25.844ZM420.64 20.58H428.032L424.336 12.264L420.64 20.58ZM440.864 28.14C440.304 28.14 439.856 27.9813 439.52 27.664C439.202 27.328 439.044 26.8893 439.044 26.348V11.228H433.948C432.828 11.228 432.268 10.7333 432.268 9.744C432.268 8.75467 432.828 8.26 433.948 8.26H447.752C448.872 8.26 449.432 8.75467 449.432 9.744C449.432 10.7333 448.872 11.228 447.752 11.228H442.656V26.348C442.656 26.8893 442.488 27.328 442.152 27.664C441.834 27.9813 441.405 28.14 440.864 28.14ZM453.303 28C452.762 28 452.333 27.8507 452.015 27.552C451.717 27.2533 451.567 26.8333 451.567 26.292V9.968C451.567 9.42667 451.717 9.00667 452.015 8.708C452.333 8.40933 452.762 8.26 453.303 8.26H463.411C463.953 8.26 464.373 8.38133 464.671 8.624C464.97 8.86667 465.119 9.212 465.119 9.66C465.119 10.1267 464.97 10.4907 464.671 10.752C464.373 10.9947 463.953 11.116 463.411 11.116H455.095V16.548H462.851C463.393 16.548 463.813 16.6693 464.111 16.912C464.41 17.1547 464.559 17.5093 464.559 17.976C464.559 18.424 464.41 18.7693 464.111 19.012C463.813 19.2547 463.393 19.376 462.851 19.376H455.095V25.144H463.411C463.953 25.144 464.373 25.2747 464.671 25.536C464.97 25.7787 465.119 26.1333 465.119 26.6C465.119 27.048 464.97 27.3933 464.671 27.636C464.373 27.8787 463.953 28 463.411 28H453.303Z" fill="#12232E"/>
</g>
<g filter="url(#filter3_d)">
<path d="M528.375 25.732C528.599 26.068 528.711 26.3947 528.711 26.712C528.711 27.1413 528.534 27.496 528.179 27.776C527.843 28.056 527.442 28.196 526.975 28.196C526.676 28.196 526.387 28.1307 526.107 28C525.846 27.8507 525.622 27.636 525.435 27.356L521.711 21.7C521.338 21.1027 520.936 20.6827 520.507 20.44C520.096 20.1973 519.555 20.076 518.883 20.076H516.139V26.348C516.139 26.908 515.98 27.356 515.663 27.692C515.346 28.0093 514.916 28.168 514.375 28.168C513.834 28.168 513.395 28.0093 513.059 27.692C512.742 27.356 512.583 26.908 512.583 26.348V9.968C512.583 9.42667 512.732 9.00667 513.031 8.708C513.348 8.40933 513.778 8.26 514.319 8.26H521.319C523.559 8.26 525.258 8.764 526.415 9.772C527.591 10.7613 528.179 12.1987 528.179 14.084C528.179 15.6147 527.74 16.8747 526.863 17.864C526.004 18.8347 524.782 19.46 523.195 19.74C523.736 19.8707 524.212 20.104 524.623 20.44C525.034 20.776 525.435 21.2427 525.827 21.84L528.375 25.732ZM520.815 17.304C522.178 17.304 523.176 17.052 523.811 16.548C524.446 16.0253 524.763 15.232 524.763 14.168C524.763 13.0853 524.446 12.3013 523.811 11.816C523.176 11.312 522.178 11.06 520.815 11.06H516.111V17.304H520.815ZM533.788 28C533.246 28 532.817 27.8507 532.5 27.552C532.201 27.2533 532.052 26.8333 532.052 26.292V9.968C532.052 9.42667 532.201 9.00667 532.5 8.708C532.817 8.40933 533.246 8.26 533.788 8.26H543.896C544.437 8.26 544.857 8.38133 545.156 8.624C545.454 8.86667 545.604 9.212 545.604 9.66C545.604 10.1267 545.454 10.4907 545.156 10.752C544.857 10.9947 544.437 11.116 543.896 11.116H535.58V16.548H543.336C543.877 16.548 544.297 16.6693 544.596 16.912C544.894 17.1547 545.044 17.5093 545.044 17.976C545.044 18.424 544.894 18.7693 544.596 19.012C544.297 19.2547 543.877 19.376 543.336 19.376H535.58V25.144H543.896C544.437 25.144 544.857 25.2747 545.156 25.536C545.454 25.7787 545.604 26.1333 545.604 26.6C545.604 27.048 545.454 27.3933 545.156 27.636C544.857 27.8787 544.437 28 543.896 28H533.788ZM564.641 30.744C564.847 31.08 564.949 31.4067 564.949 31.724C564.949 32.1533 564.781 32.4987 564.445 32.76C564.109 33.04 563.717 33.18 563.269 33.18C562.933 33.18 562.616 33.096 562.317 32.928C562.019 32.7787 561.776 32.5453 561.589 32.228L559.937 29.512C559.676 29.0827 559.331 28.7653 558.901 28.56C558.491 28.3547 557.949 28.252 557.277 28.252C555.355 28.252 553.684 27.8413 552.265 27.02C550.865 26.1987 549.783 25.0227 549.017 23.492C548.252 21.9613 547.869 20.1693 547.869 18.116C547.869 16.0627 548.252 14.28 549.017 12.768C549.783 11.2373 550.865 10.0613 552.265 9.24C553.684 8.41867 555.355 8.008 557.277 8.008C559.181 8.008 560.833 8.41867 562.233 9.24C563.652 10.0613 564.744 11.2373 565.509 12.768C566.275 14.28 566.657 16.0627 566.657 18.116C566.657 20.3373 566.209 22.2507 565.313 23.856C564.436 25.4427 563.176 26.6 561.533 27.328C562.392 27.6267 563.101 28.2427 563.661 29.176L564.641 30.744ZM557.277 25.368C559.088 25.368 560.497 24.7427 561.505 23.492C562.532 22.2413 563.045 20.4493 563.045 18.116C563.045 15.7827 562.532 14 561.505 12.768C560.497 11.5173 559.088 10.892 557.277 10.892C555.448 10.892 554.02 11.5173 552.993 12.768C551.985 14 551.481 15.7827 551.481 18.116C551.481 20.4493 551.985 22.2413 552.993 23.492C554.02 24.7427 555.448 25.368 557.277 25.368ZM578.454 28.252C575.747 28.252 573.694 27.552 572.294 26.152C570.894 24.752 570.194 22.708 570.194 20.02V9.912C570.194 9.37067 570.352 8.94133 570.67 8.624C570.987 8.288 571.416 8.12 571.958 8.12C572.499 8.12 572.928 8.288 573.246 8.624C573.563 8.94133 573.722 9.37067 573.722 9.912V20.216C573.722 21.9147 574.123 23.2027 574.926 24.08C575.728 24.9387 576.904 25.368 578.454 25.368C579.984 25.368 581.151 24.9293 581.954 24.052C582.756 23.1747 583.158 21.896 583.158 20.216V9.912C583.158 9.37067 583.316 8.94133 583.634 8.624C583.951 8.288 584.38 8.12 584.922 8.12C585.463 8.12 585.892 8.288 586.21 8.624C586.527 8.94133 586.686 9.37067 586.686 9.912V20.02C586.686 22.6893 585.986 24.7333 584.586 26.152C583.186 27.552 581.142 28.252 578.454 28.252ZM592.577 28C592.036 28 591.606 27.8507 591.289 27.552C590.99 27.2533 590.841 26.8333 590.841 26.292V9.968C590.841 9.42667 590.99 9.00667 591.289 8.708C591.606 8.40933 592.036 8.26 592.577 8.26H602.685C603.226 8.26 603.646 8.38133 603.945 8.624C604.244 8.86667 604.393 9.212 604.393 9.66C604.393 10.1267 604.244 10.4907 603.945 10.752C603.646 10.9947 603.226 11.116 602.685 11.116H594.369V16.548H602.125C602.666 16.548 603.086 16.6693 603.385 16.912C603.684 17.1547 603.833 17.5093 603.833 17.976C603.833 18.424 603.684 18.7693 603.385 19.012C603.086 19.2547 602.666 19.376 602.125 19.376H594.369V25.144H602.685C603.226 25.144 603.646 25.2747 603.945 25.536C604.244 25.7787 604.393 26.1333 604.393 26.6C604.393 27.048 604.244 27.3933 603.945 27.636C603.646 27.8787 603.226 28 602.685 28H592.577ZM613.888 28.252C612.45 28.252 611.088 28.0653 609.8 27.692C608.53 27.3 607.494 26.7773 606.692 26.124C606.262 25.8067 606.048 25.3587 606.048 24.78C606.048 24.388 606.16 24.052 606.384 23.772C606.626 23.4733 606.906 23.324 607.224 23.324C607.56 23.324 607.942 23.4547 608.372 23.716C609.174 24.2947 610.014 24.7147 610.892 24.976C611.769 25.2373 612.74 25.368 613.804 25.368C615.166 25.368 616.212 25.1347 616.94 24.668C617.668 24.1827 618.032 23.4827 618.032 22.568C618.032 21.8587 617.686 21.3173 616.996 20.944C616.324 20.552 615.194 20.1787 613.608 19.824C611.965 19.4693 610.63 19.0587 609.604 18.592C608.577 18.1253 607.802 17.528 607.28 16.8C606.757 16.072 606.496 15.148 606.496 14.028C606.496 12.8707 606.822 11.8347 607.476 10.92C608.129 10.0053 609.034 9.296 610.192 8.792C611.368 8.26933 612.684 8.008 614.14 8.008C616.809 8.008 618.984 8.71733 620.664 10.136C620.906 10.3413 621.074 10.5467 621.168 10.752C621.28 10.9387 621.336 11.1813 621.336 11.48C621.336 11.872 621.214 12.2173 620.972 12.516C620.748 12.796 620.477 12.936 620.16 12.936C619.973 12.936 619.796 12.908 619.628 12.852C619.478 12.796 619.273 12.6933 619.012 12.544C618.246 11.984 617.5 11.5733 616.772 11.312C616.062 11.032 615.185 10.892 614.14 10.892C612.87 10.892 611.862 11.1533 611.116 11.676C610.388 12.18 610.024 12.8893 610.024 13.804C610.024 14.5693 610.35 15.1573 611.004 15.568C611.657 15.9787 612.768 16.3613 614.336 16.716C615.997 17.0893 617.341 17.5093 618.368 17.976C619.413 18.424 620.206 19.0027 620.748 19.712C621.308 20.4213 621.588 21.308 621.588 22.372C621.588 23.5293 621.261 24.556 620.608 25.452C619.973 26.3293 619.068 27.02 617.892 27.524C616.734 28.0093 615.4 28.252 613.888 28.252ZM630.969 28.14C630.409 28.14 629.961 27.9813 629.625 27.664C629.308 27.328 629.149 26.8893 629.149 26.348V11.228H624.053C622.933 11.228 622.373 10.7333 622.373 9.744C622.373 8.75467 622.933 8.26 624.053 8.26H637.857C638.977 8.26 639.537 8.75467 639.537 9.744C639.537 10.7333 638.977 11.228 637.857 11.228H632.761V26.348C632.761 26.8893 632.593 27.328 632.257 27.664C631.94 27.9813 631.51 28.14 630.969 28.14Z" fill="#12232E"/>
</g>
<g filter="url(#filter4_d)">
<path d="M681.029 29C680.488 29 680.068 28.8507 679.769 28.552C679.471 28.2533 679.321 27.8427 679.321 27.32V10.912C679.321 10.3707 679.48 9.94133 679.797 9.624C680.133 9.288 680.572 9.12 681.113 9.12C681.673 9.12 682.112 9.288 682.429 9.624C682.765 9.94133 682.933 10.3707 682.933 10.912V26.032H690.801C691.921 26.032 692.481 26.5267 692.481 27.516C692.481 28.5053 691.921 29 690.801 29H681.029ZM702.578 29.252C700.656 29.252 698.985 28.8413 697.566 28.02C696.166 27.1987 695.084 26.0227 694.318 24.492C693.553 22.9613 693.17 21.1693 693.17 19.116C693.17 17.0627 693.544 15.28 694.29 13.768C695.056 12.2373 696.148 11.0613 697.566 10.24C698.985 9.41867 700.656 9.008 702.578 9.008C704.501 9.008 706.162 9.41867 707.562 10.24C708.981 11.0613 710.064 12.2373 710.81 13.768C711.576 15.28 711.958 17.0627 711.958 19.116C711.958 21.1693 711.576 22.9613 710.81 24.492C710.045 26.0227 708.953 27.1987 707.534 28.02C706.134 28.8413 704.482 29.252 702.578 29.252ZM702.578 26.368C704.389 26.368 705.798 25.7427 706.806 24.492C707.833 23.2413 708.346 21.4493 708.346 19.116C708.346 16.7827 707.833 15 706.806 13.768C705.798 12.5173 704.389 11.892 702.578 11.892C700.749 11.892 699.321 12.5173 698.294 13.768C697.286 15 696.782 16.7827 696.782 19.116C696.782 21.4493 697.286 23.2413 698.294 24.492C699.321 25.7427 700.749 26.368 702.578 26.368ZM730.643 18.332C731.072 18.332 731.417 18.4627 731.679 18.724C731.94 18.9667 732.071 19.2933 732.071 19.704V25.724C732.071 26.5827 731.959 27.1893 731.735 27.544C731.511 27.8987 731.053 28.188 730.363 28.412C729.616 28.6733 728.748 28.8787 727.759 29.028C726.769 29.1773 725.817 29.252 724.903 29.252C722.868 29.252 721.104 28.8507 719.611 28.048C718.117 27.2453 716.969 26.088 716.167 24.576C715.383 23.0453 714.991 21.2253 714.991 19.116C714.991 17.044 715.383 15.252 716.167 13.74C716.969 12.2093 718.099 11.0427 719.555 10.24C721.011 9.41867 722.728 9.008 724.707 9.008C727.339 9.008 729.495 9.71733 731.175 11.136C731.399 11.3413 731.557 11.5467 731.651 11.752C731.763 11.9573 731.819 12.2 731.819 12.48C731.819 12.8907 731.707 13.236 731.483 13.516C731.259 13.796 730.988 13.936 730.671 13.936C730.465 13.936 730.279 13.908 730.111 13.852C729.943 13.7773 729.747 13.6653 729.523 13.516C728.701 12.9373 727.936 12.536 727.227 12.312C726.517 12.0693 725.715 11.948 724.819 11.948C722.784 11.948 721.244 12.5547 720.199 13.768C719.172 14.9627 718.659 16.7453 718.659 19.116C718.659 23.9693 720.787 26.396 725.043 26.396C726.312 26.396 727.581 26.2187 728.851 25.864V20.908H725.687C725.239 20.908 724.884 20.796 724.623 20.572C724.38 20.348 724.259 20.0307 724.259 19.62C724.259 19.2093 724.38 18.892 724.623 18.668C724.884 18.444 725.239 18.332 725.687 18.332H730.643ZM737.934 29.168C737.392 29.168 736.954 29 736.618 28.664C736.3 28.328 736.142 27.8893 736.142 27.348V10.912C736.142 10.3707 736.3 9.94133 736.618 9.624C736.954 9.288 737.392 9.12 737.934 9.12C738.494 9.12 738.932 9.288 739.25 9.624C739.586 9.94133 739.754 10.3707 739.754 10.912V27.348C739.754 27.8893 739.586 28.328 739.25 28.664C738.932 29 738.494 29.168 737.934 29.168ZM758.969 9.12C759.491 9.12 759.902 9.288 760.201 9.624C760.518 9.94133 760.677 10.3707 760.677 10.912V27.348C760.677 27.8893 760.518 28.328 760.201 28.664C759.883 29 759.473 29.168 758.969 29.168C758.371 29.168 757.914 28.9533 757.597 28.524L747.377 15.224V27.348C747.377 27.8893 747.227 28.328 746.929 28.664C746.63 29 746.219 29.168 745.697 29.168C745.174 29.168 744.763 29 744.465 28.664C744.166 28.328 744.017 27.8893 744.017 27.348V10.912C744.017 10.3707 744.175 9.94133 744.493 9.624C744.81 9.288 745.23 9.12 745.753 9.12C746.331 9.12 746.779 9.33467 747.097 9.764L757.289 23.008V10.912C757.289 10.3707 757.438 9.94133 757.737 9.624C758.054 9.288 758.465 9.12 758.969 9.12Z" fill="#12232E"/>
</g>
<defs>
<filter id="filter0_d" x="18.4835" y="8.00806" width="88.3528" height="28.244" filterUnits="userSpaceOnUse" color-interpolation-filters="sRGB">
<feFlood flood-opacity="0" result="BackgroundImageFix"/>
<feColorMatrix in="SourceAlpha" type="matrix" values="0 0 0 0 0 0 0 0 0 0 0 0 0 0 0 0 0 0 127 0"/>
<feOffset dy="4"/>
<feGaussianBlur stdDeviation="2"/>
<feColorMatrix type="matrix" values="0 0 0 0 0 0 0 0 0 0 0 0 0 0 0 0 0 0 0.25 0"/>
<feBlend mode="normal" in2="BackgroundImageFix" result="effect1_dropShadow"/>
<feBlend mode="normal" in="SourceGraphic" in2="effect1_dropShadow" result="shape"/>
</filter>
<filter id="filter1_d" x="181.319" y="9.00806" width="130.681" height="31.244" filterUnits="userSpaceOnUse" color-interpolation-filters="sRGB">
<feFlood flood-opacity="0" result="BackgroundImageFix"/>
<feColorMatrix in="SourceAlpha" type="matrix" values="0 0 0 0 0 0 0 0 0 0 0 0 0 0 0 0 0 0 127 0"/>
<feOffset dx="3" dy="7"/>
<feGaussianBlur stdDeviation="2"/>
<feColorMatrix type="matrix" values="0 0 0 0 0 0 0 0 0 0 0 0 0 0 0 0 0 0 0.25 0"/>
<feBlend mode="normal" in2="BackgroundImageFix" result="effect1_dropShadow"/>
<feBlend mode="normal" in="SourceGraphic" in2="effect1_dropShadow" result="shape"/>
</filter>
<filter id="filter2_d" x="351.2" y="8.00806" width="120.919" height="31.244" filterUnits="userSpaceOnUse" color-interpolation-filters="sRGB">
<feFlood flood-opacity="0" result="BackgroundImageFix"/>
<feColorMatrix in="SourceAlpha" type="matrix" values="0 0 0 0 0 0 0 0 0 0 0 0 0 0 0 0 0 0 127 0"/>
<feOffset dx="3" dy="7"/>
<feGaussianBlur stdDeviation="2"/>
<feColorMatrix type="matrix" values="0 0 0 0 0 0 0 0 0 0 0 0 0 0 0 0 0 0 0.25 0"/>
<feBlend mode="normal" in2="BackgroundImageFix" result="effect1_dropShadow"/>
<feBlend mode="normal" in="SourceGraphic" in2="effect1_dropShadow" result="shape"/>
</filter>
<filter id="filter3_d" x="511.583" y="8.00806" width="134.954" height="36.172" filterUnits="userSpaceOnUse" color-interpolation-filters="sRGB">
<feFlood flood-opacity="0" result="BackgroundImageFix"/>
<feColorMatrix in="SourceAlpha" type="matrix" values="0 0 0 0 0 0 0 0 0 0 0 0 0 0 0 0 0 0 127 0"/>
<feOffset dx="3" dy="7"/>
<feGaussianBlur stdDeviation="2"/>
<feColorMatrix type="matrix" values="0 0 0 0 0 0 0 0 0 0 0 0 0 0 0 0 0 0 0.25 0"/>
<feBlend mode="normal" in2="BackgroundImageFix" result="effect1_dropShadow"/>
<feBlend mode="normal" in="SourceGraphic" in2="effect1_dropShadow" result="shape"/>
</filter>
<filter id="filter4_d" x="678.321" y="9.00806" width="89.3553" height="31.244" filterUnits="userSpaceOnUse" color-interpolation-filters="sRGB">
<feFlood flood-opacity="0" result="BackgroundImageFix"/>
<feColorMatrix in="SourceAlpha" type="matrix" values="0 0 0 0 0 0 0 0 0 0 0 0 0 0 0 0 0 0 127 0"/>
<feOffset dx="3" dy="7"/>
<feGaussianBlur stdDeviation="2"/>
<feColorMatrix type="matrix" values="0 0 0 0 0 0 0 0 0 0 0 0 0 0 0 0 0 0 0.25 0"/>
<feBlend mode="normal" in2="BackgroundImageFix" result="effect1_dropShadow"/>
<feBlend mode="normal" in="SourceGraphic" in2="effect1_dropShadow" result="shape"/>
</filter>
</defs>
</svg>
