<svg width="274" height="95" viewBox="0 0 274 95" fill="none" xmlns="http://www.w3.org/2000/svg">
<g clip-path="url(#clip0)">
<path opacity="0.1" d="M34.9082 91.9483C40.0216 91.9483 44.1669 91.1247 44.1669 90.1089C44.1669 89.093 40.0216 88.2694 34.9082 88.2694C29.7948 88.2694 25.6495 89.093 25.6495 90.1089C25.6495 91.1247 29.7948 91.9483 34.9082 91.9483Z" fill="#6C63FF"/>
<path opacity="0.1" d="M85.237 92C91.6177 92 96.7904 91.1765 96.7904 90.1606C96.7904 89.1447 91.6177 88.3212 85.237 88.3212C78.8562 88.3212 73.6836 89.1447 73.6836 90.1606C73.6836 91.1765 78.8562 92 85.237 92Z" fill="#6C63FF"/>
<path opacity="0.1" d="M1.31507 39.7506H10.9586V56.0093H2.02106C1.99731 56.1762 1.9745 56.3443 1.9498 56.5124H10.9586V69.6247C10.9424 69.6188 10.9282 69.6118 10.913 69.6047C10.6583 69.4801 10.4056 69.3485 10.1528 69.2074L9.99127 69.1169C9.73789 68.9688 9.4845 68.8121 9.23112 68.6468C9.14275 68.5892 9.05438 68.5293 8.96697 68.4681C7.56029 67.4934 6.28239 66.2584 5.1776 64.8057C5.14529 64.7669 5.11489 64.7258 5.08258 64.6882C4.92865 64.4813 4.77757 64.2721 4.63124 64.0582L4.46971 63.8231C4.29677 63.561 4.12954 63.2919 3.96706 63.0192C3.9433 62.9792 3.9205 62.9392 3.89579 62.9016C3.23498 61.7683 2.68629 60.5411 2.26146 59.2463C2.24816 59.2075 2.23676 59.1652 2.22441 59.1287C2.09391 58.7134 1.97831 58.2942 1.87759 57.8711C1.83388 57.6936 1.79207 57.5185 1.75596 57.334C1.74266 57.2799 1.73126 57.227 1.7208 57.1741C1.18109 54.5684 1.11743 51.8615 1.11743 49.1735C1.11743 48.8596 1.11743 48.5446 1.11743 48.2332C1.11743 47.146 1.12788 46.0517 1.14309 44.9586C1.14309 44.6754 1.15259 44.3933 1.15734 44.1088C1.17064 43.3872 1.18965 42.6655 1.21435 41.9438C1.22005 41.7428 1.22765 41.543 1.23621 41.3432C1.23621 41.228 1.24096 41.1129 1.25046 40.9977C1.27326 40.5792 1.29227 40.1643 1.31507 39.7506Z" fill="#6C63FF"/>
<path opacity="0.1" d="M10.9585 21.6477H5.66882C6.5287 19.9829 7.46821 18.3832 8.48234 16.857C9.26815 15.6628 10.0977 14.4992 10.9585 13.3779V21.6477Z" fill="#6C63FF"/>
<path opacity="0.1" d="M10.9586 22.1508V39.2475H1.34546C1.34546 39.1982 1.35211 39.1476 1.35496 39.0982C1.36351 38.9631 1.37206 38.8279 1.38157 38.6939C1.39202 38.5364 1.40342 38.3778 1.41577 38.2238C1.42813 38.0698 1.44143 37.8818 1.45568 37.7113C1.46993 37.5409 1.48324 37.3681 1.49939 37.1977C1.51554 37.0273 1.5298 36.8568 1.5469 36.6876C1.564 36.5183 1.57921 36.3467 1.59726 36.1775C1.61151 36.0364 1.62672 35.8966 1.64192 35.7555C1.66377 35.5569 1.68658 35.3571 1.71128 35.1596C1.71128 35.1302 1.71793 35.0997 1.72173 35.0715C1.89516 33.626 2.13147 32.1931 2.42963 30.7791C2.74173 29.2957 3.14027 27.8423 3.62212 26.4302C4.13424 24.953 4.73386 23.5246 5.41608 22.1566L10.9586 22.1508Z" fill="#6C63FF"/>
<path opacity="0.1" d="M13.2609 39.7495V56.0094H33.8582V39.7495H13.2609ZM13.2609 56.5112V70.4745C13.3787 70.5051 13.4956 70.5344 13.6115 70.5591C13.7692 70.5967 13.926 70.6308 14.0866 70.6602C14.117 70.6661 14.1483 70.672 14.1816 70.6755C14.2443 70.6884 14.3089 70.699 14.3716 70.7096C14.5303 70.7366 14.6881 70.7589 14.8467 70.7766C14.9218 70.786 14.9978 70.7942 15.0738 70.8013L15.2572 70.8189C15.357 70.8283 15.4558 70.8353 15.5537 70.8389C15.6145 70.8389 15.6753 70.8459 15.738 70.8483C15.7855 70.8483 15.833 70.8483 15.8824 70.8483C15.9319 70.8483 16.0022 70.8483 16.062 70.8483C16.1437 70.8483 16.2255 70.8483 16.3062 70.8483H16.4155C16.4972 70.8483 16.5789 70.8483 16.6597 70.8389H16.6654C16.7215 70.8389 16.7785 70.8389 16.8355 70.8295C16.8513 70.8306 16.8672 70.8306 16.883 70.8295C16.9305 70.8295 16.978 70.8295 17.0236 70.8212H17.0569L17.3752 70.7907C17.4797 70.7789 17.5852 70.7636 17.6916 70.7495L17.9083 70.7178C18.7896 70.565 19.6612 70.3357 20.5165 70.0314C22.4378 69.3685 24.3173 68.4411 26.2376 67.7618C28.7205 66.8861 31.4637 66.456 33.8629 67.5267V56.5112H13.2609ZM33.8582 21.6478V0.00118974C31.6031 -0.0290315 29.3542 0.297225 27.166 0.972036C21.9504 2.59286 17.2707 6.10835 13.2609 10.5982V21.6466H14.2947V22.1485H13.2609V39.2476H33.8582V22.1496H18.5392V21.6478H33.8582ZM60.3144 14.3359C59.024 14.2794 57.7412 13.774 56.5811 12.9936C54.3624 11.5009 52.5903 9.19602 50.6101 7.2508C46.4957 3.19934 41.3932 0.754595 36.1586 0.14811V21.6478H65.5623L65.6354 21.5526L60.3144 14.3359ZM62.993 13.7482L65.8331 17.6034V12.7374C64.8819 12.8831 64.0486 13.2298 62.9968 13.7435L62.993 13.7482ZM65.8331 73.9418V56.5112H59.7813C59.7652 56.4372 59.749 56.362 59.73 56.2868C59.748 56.362 59.7633 56.4372 59.7804 56.5112H36.1624V69.117C36.3866 69.3227 36.608 69.5389 36.8275 69.7587C37.0641 69.9938 37.2979 70.2418 37.5326 70.4851L37.7692 70.7272C37.8822 70.8447 37.9963 70.9623 38.1112 71.0728C38.3393 71.3016 38.5695 71.5272 38.802 71.7498C38.917 71.8673 39.0348 71.9731 39.1517 72.0836C41.0071 73.8383 42.9644 75.4219 45.0077 76.8214C45.4657 77.1349 45.9278 77.4408 46.3941 77.7394C46.7048 77.9357 47.0174 78.1308 47.3309 78.32C47.8022 78.6045 48.2773 78.8787 48.7562 79.1428C53.1714 81.5944 57.8402 83.2767 62.629 84.1416C63.6926 84.3359 64.7603 84.4887 65.8321 84.6V73.9406H65.9272L65.8331 73.9418ZM36.1624 22.1496V39.2476H65.8369V22.1496H36.1624ZM36.1624 39.7495V56.0094H65.8369V39.7495H36.1624ZM68.1401 12.7162V18.144L71.7651 13.224C70.5641 12.9842 69.3558 12.813 68.1401 12.7103V12.7162ZM68.1401 39.7553V56.0094H97.0022V39.7495L68.1401 39.7553ZM96.8968 75.2324L96.9984 56.5112H68.1401V84.7868C69.9992 84.8835 71.8611 84.856 73.7178 84.7046H73.7501C74.6369 84.6356 75.5197 84.5353 76.3983 84.4037H76.4182C81.1056 83.7289 85.6889 82.2161 90.025 79.9126L96.8968 75.2324ZM102.568 42.4269C102.459 42.1108 102.346 41.7969 102.231 41.4866C102.016 40.899 101.789 40.3277 101.556 39.7565H99.3036V56.0094H104.997C104.994 51.4067 104.053 46.7052 102.57 42.421L102.568 42.4269ZM99.3036 56.5171V72.6195C100.908 70.7178 102.262 68.5422 103.238 66.0552C104.412 63.0603 104.949 59.8175 104.992 56.5148L99.3036 56.5171ZM99.3036 35.0175V39.2488H101.345C100.727 37.7922 100.047 36.3777 99.3064 35.0116L99.3036 35.0175ZM79.7296 15.9061C79.5795 15.8356 79.4294 15.7639 79.2783 15.6946C77.6849 14.9667 76.0567 14.3614 74.4029 13.8822L68.8556 21.4127L68.7492 21.5526L68.8205 21.6489H88.5636C85.8139 19.3077 82.8495 17.378 79.7325 15.9003L79.7296 15.9061ZM89.1422 22.1555H68.5449L68.1401 22.6139V39.2476H71.6882H71.6939H97.006V31.1905C94.7163 27.765 92.0735 24.7255 89.1451 22.1496L89.1422 22.1555Z" fill="#6C63FF"/>
<path opacity="0.1" d="M10.9586 30.7744V39.2476H1.34546C1.34546 39.1982 1.35211 39.1477 1.35496 39.0983C1.36351 38.9631 1.37206 38.828 1.38157 38.694C1.39202 38.5365 1.40342 38.3778 1.41577 38.2238C1.42813 38.0699 1.44143 37.8818 1.45568 37.7114C1.46993 37.541 1.48324 37.3682 1.49939 37.1977C1.51554 37.0273 1.5298 36.8569 1.5469 36.6876C1.564 36.5184 1.57921 36.3468 1.59726 36.1775C1.61151 36.0365 1.62672 35.8966 1.64192 35.7556C1.66377 35.557 1.68658 35.3571 1.71128 35.1597C1.71128 35.1303 1.71793 35.0997 1.72173 35.0715C1.89516 33.626 2.13147 32.1931 2.42963 30.7791L10.9586 30.7744Z" fill="#6C63FF"/>
<path opacity="0.1" d="M1.31507 39.7506H10.9586V56.0093H2.02106C1.99731 56.1762 1.9745 56.3443 1.9498 56.5124H10.9586V69.6247C10.9424 69.6188 10.9282 69.6118 10.913 69.6047C10.6583 69.4801 10.4056 69.3485 10.1528 69.2074L9.99127 69.1169C9.73789 68.9688 9.4845 68.8121 9.23112 68.6468C9.14275 68.5892 9.05438 68.5293 8.96697 68.4681C7.56029 67.4934 6.28239 66.2584 5.1776 64.8057C5.14529 64.7669 5.11489 64.7258 5.08258 64.6882C4.92865 64.4813 4.77757 64.2721 4.63124 64.0582L4.46971 63.8231C4.29677 63.561 4.12954 63.2919 3.96706 63.0192C3.9433 62.9792 3.9205 62.9392 3.89579 62.9016C3.23498 61.7683 2.68629 60.5411 2.26146 59.2463C2.24816 59.2075 2.23676 59.1652 2.22441 59.1287C2.09391 58.7134 1.97831 58.2942 1.87759 57.8711C1.83388 57.6936 1.79207 57.5185 1.75596 57.334C1.74266 57.2799 1.73126 57.227 1.7208 57.1741C1.18109 54.5684 1.11743 51.8615 1.11743 49.1735C1.11743 48.8596 1.11743 48.5446 1.11743 48.2332C1.11743 47.146 1.12788 46.0517 1.14309 44.9586C1.14309 44.6754 1.15259 44.3933 1.15734 44.1088C1.17064 43.3872 1.18965 42.6655 1.21435 41.9438C1.22005 41.7428 1.22765 41.543 1.23621 41.3432C1.23621 41.228 1.24096 41.1129 1.25046 40.9977C1.27326 40.5792 1.29227 40.1643 1.31507 39.7506Z" fill="#6C63FF"/>
<path opacity="0.1" d="M20.5118 24.598V39.2476H13.2609V24.598H14.2947V19.6379H18.5382V24.598H20.5118Z" fill="#6C63FF"/>
<path opacity="0.1" d="M20.5118 39.7494H13.2618V56.0081H20.5118V39.7494Z" fill="#6C63FF"/>
<path opacity="0.1" d="M13.2609 56.5125H20.5118V70.0291C19.6565 70.3331 18.7849 70.5621 17.9035 70.7143L17.6869 70.7472C17.5804 70.7625 17.475 70.7754 17.3704 70.7884C17.2659 70.8013 17.1576 70.8107 17.0521 70.8189H17.0189C16.9733 70.8189 16.9239 70.826 16.8792 70.8271H16.8307C16.7737 70.8271 16.7167 70.8342 16.6597 70.8366C16.5789 70.8424 16.4982 70.8436 16.4155 70.8448C16.3803 70.8448 16.3471 70.8448 16.3119 70.8448C16.2302 70.8448 16.1494 70.8448 16.0677 70.8448H15.8881C15.8397 70.8448 15.7931 70.8448 15.7428 70.8448L15.5594 70.8366C15.4644 70.8366 15.3617 70.8236 15.2629 70.8154L15.0805 70.7989L14.8534 70.7731C14.6938 70.7555 14.5351 70.7331 14.3783 70.7061L14.1883 70.6732L14.0932 70.6567C13.9345 70.6262 13.7778 70.5933 13.6181 70.5556C13.5013 70.531 13.3853 70.5004 13.2675 70.471L13.2609 56.5125Z" fill="#6C63FF"/>
<path opacity="0.1" d="M65.8369 22.8678H59.8583V39.2464H65.8369V22.8678Z" fill="#6C63FF"/>
<path opacity="0.1" d="M65.8378 39.7494V56.0093H36.1624V48.9959H51.9688V53.1332H59.8582V39.7494H65.8378Z" fill="#6C63FF"/>
<path opacity="0.1" d="M65.9319 73.9454H65.8368V84.6117C64.7663 84.4997 63.6989 84.3473 62.6347 84.1545C57.8435 83.2868 53.1728 81.601 48.7562 79.1451C47.481 78.4352 46.2318 77.6603 45.0086 76.8203C42.9654 75.4201 41.0078 73.8365 39.1517 72.0824C38.6854 71.6405 38.2252 71.1884 37.771 70.7261C37.4565 70.4052 37.1439 70.0761 36.8275 69.7564C36.608 69.5366 36.3866 69.3203 36.1624 69.1135V56.5125H59.7794C59.7632 56.4372 59.7471 56.362 59.73 56.288C59.748 56.362 59.7651 56.4372 59.7813 56.5125H65.8368V73.9383C65.8691 73.9395 65.9005 73.943 65.9319 73.9454Z" fill="#6C63FF"/>
<path opacity="0.1" d="M81.4295 21.6477H77.5337V20.1503H79.2801V15.6898C79.4315 15.758 79.5823 15.8281 79.7324 15.9002V20.1503H81.4295V21.6477Z" fill="#6C63FF"/>
<path opacity="0.1" d="M90.8155 39.2475H71.6901C71.6901 39.2475 71.6901 39.2475 71.6967 39.2534L71.6882 39.2475H68.1401V22.8689H69.1454V34.9751H73.7396V27.8054H77.5347V22.1508H81.4305V27.8101H85.2255V34.9798H90.8155V39.2475Z" fill="#6C63FF"/>
<path opacity="0.1" d="M68.1401 39.7494V56.0093H90.8155V39.7494H68.1401ZM96.9709 75.1488L97.0022 62.2787H90.8155V56.5194H68.1401V84.7868C69.9992 84.8834 71.8611 84.8559 73.7178 84.7045H73.7501C74.6369 84.6355 75.5196 84.5352 76.3983 84.4036H76.4182C81.1056 83.7288 85.6889 82.216 90.0249 79.9126" fill="#6C63FF"/>
<path opacity="0.1" d="M99.7064 56.5125H104.996C104.95 59.814 104.414 63.0568 103.241 66.0517C102.265 68.5399 100.909 70.7155 99.3074 72.6161V62.2729H99.7064V56.5125Z" fill="#6C63FF"/>
<path opacity="0.1" d="M104.999 56.0093H99.7064V42.421H102.57C104.053 46.7052 104.994 51.4066 104.999 56.0093Z" fill="#6C63FF"/>
<path opacity="0.1" d="M65.8379 27.4211H62.6348V32.5563H65.8379V27.4211Z" fill="#6C63FF"/>
<path opacity="0.1" d="M65.8379 38.0652H62.6348V39.2476H65.8379V38.0652Z" fill="#6C63FF"/>
<path opacity="0.1" d="M65.8379 39.7494H62.6348V43.1991H65.8379V39.7494Z" fill="#6C63FF"/>
<path opacity="0.1" d="M65.8379 48.7092H62.6348V53.8444H65.8379V48.7092Z" fill="#6C63FF"/>
<path opacity="0.1" d="M65.8379 59.3533H62.6348V64.4884H65.8379V59.3533Z" fill="#6C63FF"/>
<path opacity="0.1" d="M65.8369 73.9383C65.8692 73.9383 65.9006 73.9383 65.9319 73.9453H65.8369V75.1383H62.6348V69.9973H65.8369V73.9383Z" fill="#6C63FF"/>
<path opacity="0.1" d="M65.8369 80.639V84.6059C64.7664 84.4938 63.699 84.3414 62.6348 84.1487V80.639H65.8369Z" fill="#6C63FF"/>
<path opacity="0.1" d="M49.8898 55.6321H36.1624V56.0094H49.8898V55.6321Z" fill="#6C63FF"/>
<path opacity="0.1" d="M49.8898 56.5112H36.1624V57.9569H49.8898V56.5112Z" fill="#6C63FF"/>
<path opacity="0.1" d="M49.8898 62.6959H36.1624V65.0208H49.8898V62.6959Z" fill="#6C63FF"/>
<path opacity="0.1" d="M49.8888 69.7599V72.0847H39.1517C38.6854 71.6444 38.2249 71.1923 37.7701 70.7284C37.4556 70.4075 37.1439 70.0784 36.8265 69.7599H49.8888Z" fill="#6C63FF"/>
<path opacity="0.1" d="M49.8889 76.8226V79.1451H48.7553C47.4814 78.4344 46.2325 77.6591 45.0087 76.8191L49.8889 76.8226Z" fill="#6C63FF"/>
<path opacity="0.1" d="M76.4211 41.3256H73.7188V44.6683H76.4211V41.3256Z" fill="#6C63FF"/>
<path opacity="0.1" d="M17.9101 25.751H15.2078V29.0937H17.9101V25.751Z" fill="#6C63FF"/>
<path opacity="0.1" d="M17.9101 33.5154H15.2078V36.8581H17.9101V33.5154Z" fill="#6C63FF"/>
<path opacity="0.1" d="M17.9101 41.2798H15.2078V44.6225H17.9101V41.2798Z" fill="#6C63FF"/>
<path opacity="0.1" d="M17.9101 49.043H15.2078V52.3857H17.9101V49.043Z" fill="#6C63FF"/>
<path opacity="0.1" d="M17.9101 56.8074H15.2078V60.1501H17.9101V56.8074Z" fill="#6C63FF"/>
<path opacity="0.1" d="M17.9101 64.5718H15.2078V67.9145H17.9101V64.5718Z" fill="#6C63FF"/>
<path opacity="0.1" d="M86.7373 41.3256H84.0349V44.6683H86.7373V41.3256Z" fill="#6C63FF"/>
<path opacity="0.1" d="M76.4211 49.5708H73.7188V52.9135H76.4211V49.5708Z" fill="#6C63FF"/>
<path opacity="0.1" d="M86.7373 49.5708H84.0349V52.9135H86.7373V49.5708Z" fill="#6C63FF"/>
<path opacity="0.1" d="M76.4211 57.8147H73.7188V61.1574H76.4211V57.8147Z" fill="#6C63FF"/>
<path opacity="0.1" d="M86.7373 57.8147H84.0349V61.1574H86.7373V57.8147Z" fill="#6C63FF"/>
<path opacity="0.1" d="M76.4211 66.0598H73.7188V69.4025H76.4211V66.0598Z" fill="#6C63FF"/>
<path opacity="0.1" d="M86.7373 66.0598H84.0349V69.4025H86.7373V66.0598Z" fill="#6C63FF"/>
<path opacity="0.1" d="M76.4211 74.3049H73.7188V77.6476H76.4211V74.3049Z" fill="#6C63FF"/>
<path opacity="0.1" d="M86.7373 74.3049H84.0349V77.6476H86.7373V74.3049Z" fill="#6C63FF"/>
<path opacity="0.1" d="M73.7188 84.7046V82.549H76.4202V84.3978L73.7188 84.7046Z" fill="#6C63FF"/>
<path opacity="0.1" d="M1.71033 35.0692V36.9815H10.9585V35.0692H1.71033ZM2.63201 36.8616H1.87756V35.1867H2.63771L2.63201 36.8616ZM3.55275 36.8616H2.7926V35.1867H3.55275V36.8616ZM4.47158 36.8616H3.71143V35.1867H4.47158V36.8616ZM5.39232 36.8616H4.63312V35.1867H5.39327L5.39232 36.8616ZM6.3121 36.8616H5.55195V35.1867H6.3121V36.8616ZM7.23284 36.8616H6.47269V35.1867H7.23284V36.8616ZM8.15357 36.8616H7.39342V35.1867H8.15357V36.8616ZM9.07336 36.8616H8.31321V35.1867H9.07336V36.8616ZM9.99314 36.8616H9.23299V35.1867H9.99314V36.8616ZM10.9129 36.8616H10.1528V35.1867H10.9129V36.8616Z" fill="#6C63FF"/>
<path opacity="0.1" d="M1.71033 40.6333V42.5456H10.9585V40.6333H1.71033ZM2.63201 42.4245H1.87756V40.7544H2.63771L2.63201 42.4245ZM3.55275 42.4245H2.7926V40.7544H3.55275V42.4245ZM4.47158 42.4245H3.71143V40.7544H4.47158V42.4245ZM5.39232 42.4245H4.63312V40.7544H5.39327L5.39232 42.4245ZM6.3121 42.4245H5.55195V40.7544H6.3121V42.4245ZM7.23284 42.4245H6.47269V40.7544H7.23284V42.4245ZM8.15357 42.4245H7.39342V40.7544H8.15357V42.4245ZM9.07336 42.4245H8.31321V40.7544H9.07336V42.4245ZM9.99314 42.4245H9.23299V40.7544H9.99314V42.4245ZM10.9129 42.4245H10.1528V40.7544H10.9129V42.4245Z" fill="#6C63FF"/>
<path opacity="0.1" d="M1.71033 46.1998V48.1157H10.9585V46.1998H1.71033ZM2.63201 47.9911H1.87756V46.3197H2.63771L2.63201 47.9911ZM3.55275 47.9911H2.7926V46.3197H3.55275V47.9911ZM4.47158 47.9911H3.71143V46.3197H4.47158V47.9911ZM5.39232 47.9911H4.63312V46.3197H5.39327L5.39232 47.9911ZM6.3121 47.9911H5.55195V46.3197H6.3121V47.9911ZM7.23284 47.9911H6.47269V46.3197H7.23284V47.9911ZM8.15357 47.9911H7.39342V46.3197H8.15357V47.9911ZM9.07336 47.9911H8.31321V46.3197H9.07336V47.9911ZM9.99314 47.9911H9.23299V46.3197H9.99314V47.9911ZM10.9129 47.9911H10.1528V46.3197H10.9129V47.9911Z" fill="#6C63FF"/>
<path opacity="0.1" d="M1.71033 51.7664V53.6763H10.9585V51.7664H1.71033ZM2.63201 53.5576H1.87756V51.8851H2.63771L2.63201 53.5576ZM3.55275 53.5576H2.7926V51.8851H3.55275V53.5576ZM4.47158 53.5576H3.71143V51.8851H4.47158V53.5576ZM5.39232 53.5576H4.63312V51.8851H5.39327L5.39232 53.5576ZM6.3121 53.5576H5.55195V51.8851H6.3121V53.5576ZM7.23284 53.5576H6.47269V51.8851H7.23284V53.5576ZM8.15357 53.5576H7.39342V51.8851H8.15357V53.5576ZM9.07336 53.5576H8.31321V51.8851H9.07336V53.5576ZM9.99314 53.5576H9.23299V51.8851H9.99314V53.5576ZM10.9129 53.5576H10.1528V51.8851H10.9129V53.5576Z" fill="#6C63FF"/>
<path opacity="0.1" d="M1.75024 57.3317C1.7873 57.5115 1.82911 57.6913 1.87282 57.8688V57.4516H2.63297V59.1229H2.22629C2.23864 59.1617 2.25099 59.204 2.26335 59.2405H10.9586V57.3317H1.75024ZM3.55561 59.1229H2.79546V57.4516H3.55561V59.1229ZM4.47444 59.1229H3.71429V57.4516H4.47444V59.1229ZM5.39518 59.1229H4.63313V57.4516H5.39328L5.39518 59.1229ZM6.31497 59.1229H5.55481V57.4516H6.31497V59.1229ZM7.2357 59.1229H6.47555V57.4516H7.2357V59.1229ZM8.15644 59.1229H7.39628V57.4516H8.15644V59.1229ZM9.07622 59.1229H8.31607V57.4516H9.07622V59.1229ZM9.99601 59.1229H9.23586V57.4516H9.99601V59.1229ZM10.9158 59.1229H10.1556V57.4516H10.9158V59.1229Z" fill="#6C63FF"/>
<path opacity="0.1" d="M3.89771 62.8981C3.92146 62.9357 3.94426 62.978 3.96897 63.0156H4.47162V63.8184C4.52578 63.8983 4.57899 63.9782 4.6341 64.0534V63.0109H5.39426V64.6881H5.08639C5.1168 64.7269 5.14626 64.7681 5.18141 64.8057H10.9614V62.8981H3.89771ZM6.31214 64.6881H5.55199V63.018H6.31214V64.6881ZM7.23288 64.6881H6.47272V63.018H7.23288V64.6881ZM8.15361 64.6881H7.39346V63.018H8.15361V64.6881ZM9.0734 64.6881H8.31325V63.018H9.0734V64.6881ZM9.99319 64.6881H9.23303V63.018H9.99319V64.6881ZM10.913 64.6881H10.1528V63.018H10.913V64.6881Z" fill="#6C63FF"/>
<path opacity="0.1" d="M8.97083 68.4635C9.05729 68.5246 9.14566 68.581 9.23498 68.6422V68.5834H9.99513V69.1123L10.1567 69.2052V68.5834H10.9168V69.6001C10.9314 69.609 10.9467 69.6161 10.9624 69.6212V68.4635H8.97083Z" fill="#6C63FF"/>
<path opacity="0.1" d="M71.69 39.2476H71.6958H71.69ZM65.8369 73.9372H65.9319H65.8369ZM59.73 56.2868C59.748 56.362 59.7632 56.4372 59.7803 56.5113C59.7651 56.4372 59.749 56.362 59.73 56.2868ZM71.69 39.2441H71.6958H71.69ZM14.2985 21.6443V22.1462H18.543V21.6443H14.2985ZM65.8369 73.9372H65.9319H65.8369ZM59.73 56.2868C59.748 56.362 59.7632 56.4372 59.7803 56.5113C59.7651 56.4372 59.749 56.362 59.73 56.2868ZM71.69 39.2441H71.6958H71.69ZM65.8369 73.9336H65.9319H65.8369ZM59.73 56.2868C59.748 56.362 59.7632 56.4372 59.7803 56.5113C59.7651 56.4372 59.749 56.362 59.73 56.2868Z" fill="#6C63FF"/>
<path d="M43.8608 44.6248C43.8608 44.6248 43.4864 44.5602 43.4864 43.8855C43.4864 43.2109 43.2185 41.9509 43.2185 41.9509C43.2185 41.945 42.9866 39.7565 42.6664 39.4086C42.3462 39.0607 41.9348 37.0179 41.9348 37.0179C41.9348 37.0179 41.8645 35.9096 41.721 35.671C41.5775 35.4324 41.3837 34.8482 41.0977 34.0149C40.8117 33.1815 39.6192 32.6044 39.6192 32.6044C39.6192 32.6044 37.4632 31.0577 36.8522 30.5534C36.7967 30.512 36.7448 30.4636 36.6973 30.4089C36.5909 30.2361 36.1272 30.2326 36.1272 30.2326C36.0788 29.8541 36.0322 29.4192 36.017 29.0255C36.017 28.9832 36.017 28.9409 36.0122 28.8985C36.6935 28.4004 37.2067 27.615 37.4575 26.6865C37.4689 26.6419 37.4784 26.5948 37.4888 26.5502C37.5297 26.5335 37.5672 26.5066 37.5991 26.4709C37.631 26.4353 37.6566 26.3918 37.6741 26.3433C37.7292 26.1917 37.7302 26.0142 37.7986 25.8732C37.8784 25.7063 38.0304 25.6169 38.1502 25.4912C38.4523 25.1738 38.5302 24.639 38.516 24.1524C38.5065 23.7587 38.4552 23.3614 38.4751 22.97L38.4808 22.8713C38.4865 22.8125 38.4932 22.7538 38.5017 22.6974C38.5483 22.4059 38.65 22.1308 38.707 21.8417C38.764 21.5526 38.7697 21.227 38.6367 20.9778C38.4419 20.6123 38.0361 20.5394 37.6798 20.5018C37.276 20.4595 36.9149 20.5147 36.6565 20.0998C36.5355 19.883 36.3994 19.6796 36.2498 19.4921C36.1966 19.431 35.6797 19.0408 35.6797 19.015C35.1752 18.7259 34.6033 18.6717 34.0691 18.8622C33.8011 18.9585 33.5484 19.116 33.2766 19.1948C32.6904 19.3664 32.0157 19.1807 31.5178 19.5956C31.2404 19.8307 31.0741 20.2044 30.9183 20.5688C30.7916 20.8689 30.663 21.1686 30.5325 21.4679C30.3225 21.9604 30.1087 22.4611 30.0203 23.0065C30.0017 23.1251 29.9903 23.2454 29.9861 23.3661V23.372C29.9861 23.4155 29.9861 23.459 29.9861 23.5025V23.5577C29.9861 23.5988 29.9861 23.6388 29.9918 23.6752C29.9975 23.7117 29.9966 23.7234 29.9994 23.7481C30.0023 23.7728 30.007 23.828 30.0127 23.8657C30.0184 23.9033 30.0298 23.9691 30.0412 24.0208C30.046 24.0431 30.0526 24.0643 30.0583 24.0854C30.0678 24.1254 30.0792 24.1642 30.0916 24.203C30.0982 24.223 30.1049 24.2441 30.1125 24.2641C30.1267 24.3052 30.1439 24.3452 30.161 24.3816C30.1686 24.3981 30.1743 24.4134 30.1819 24.4287C30.2084 24.4833 30.2376 24.5359 30.2693 24.5862C30.4726 24.9 30.7719 25.0998 30.9933 25.3936C30.9933 25.4054 30.9933 25.4171 30.9933 25.4277C30.9933 25.4606 30.9933 25.4924 30.9933 25.5253C31.0051 26.1806 31.1461 26.8224 31.4041 27.395C31.6621 27.9675 32.0293 28.4534 32.4737 28.8104C32.4737 28.8551 32.4785 28.9009 32.4804 28.9456C32.4989 29.2944 32.4954 29.6446 32.4699 29.9928C32.4312 29.9364 32.3828 29.8915 32.3282 29.8614C32.2736 29.8313 32.2142 29.8168 32.1545 29.8188C32.1136 29.8164 32.0727 29.8207 32.0328 29.8318L32.0243 29.8235V29.8341C31.8152 29.8976 31.5577 30.1668 31.3116 30.9319C31.3116 30.9319 30.5629 31.9756 29.9928 31.9321C29.4227 31.8887 27.9793 33.0182 27.9793 33.0182C27.9793 33.0182 26.5711 34.1489 26.269 35.3007C26.1001 35.9539 25.8976 36.593 25.6627 37.2142L23.922 41.6512L23.6008 45.1714C23.6008 45.1714 23.7785 46.737 23.7434 46.9756C23.7082 47.2142 24.4741 49.3662 24.4741 49.3662C24.4741 49.3662 27.0044 54.8657 28.0382 55.1478L28.1123 55.0832C28.1566 55.1118 28.2035 55.1335 28.252 55.1478L28.4649 54.9621C28.4776 55.1691 28.4722 55.3772 28.4487 55.5827C28.3062 56.1257 28.5019 59.6694 28.7509 60.3641C28.9998 61.0587 28.9115 70.1666 28.9115 70.1666L28.8763 70.9705C28.8763 70.9705 28.8763 70.9964 28.8848 71.041L28.8763 71.2314L28.902 71.2479C28.9286 71.5029 28.9199 71.7616 28.8763 72.013C28.787 72.3657 28.7509 73.3624 28.7509 73.3624C28.7509 73.3624 28.0392 78.99 28.3765 80.1207C28.7138 81.2514 29.0008 82.4902 29.0008 82.4902C29.0008 82.4902 29.3571 83.9006 29.0179 84.1416C28.6787 84.3825 27.7142 84.7868 27.9128 85.3745C28.0933 85.9175 28.7784 87.3726 28.8801 87.5854L28.8715 87.697L28.7319 89.5694C28.7545 89.8166 28.8087 90.0578 28.8924 90.284C29.0454 90.6918 29.3428 91.115 29.9082 91.0691C30.0032 91.0609 30.1134 91.0468 30.2199 91.0292C31.2546 90.8576 32.5288 90.2863 32.5288 90.2863C32.4627 90.2344 32.402 90.1724 32.3483 90.1018C32.2974 90.0409 32.2571 89.9678 32.2299 89.8869C32.2026 89.8061 32.1889 89.7193 32.1896 89.6317C32.2048 89.2908 31.6889 87.6665 31.5606 87.2668C31.5406 87.2093 31.5302 87.1763 31.5302 87.1763C31.5302 87.1763 32.7065 85.6554 32.5108 84.3073C32.5108 84.3073 31.209 83.367 31.6376 82.851C32.0661 82.335 32.8319 80.8529 32.8319 80.8529C32.8319 80.8529 32.8671 75.3111 32.8319 74.4837C32.7953 73.9093 32.8173 73.3316 32.8975 72.7641C32.9118 72.6783 32.9289 72.5948 32.9469 72.5126C33.5396 72.622 34.1379 72.6782 34.7371 72.6806C34.9556 72.6806 35.178 72.6806 35.4022 72.6642C35.4022 72.7425 35.4051 72.8272 35.4108 72.9181C35.4602 74.2909 35.5523 76.698 35.6274 77.5925C35.7338 78.8748 36.322 82.3303 36.322 82.3303C36.322 82.3303 35.1998 83.2213 36.5177 85.4168C36.5177 85.4168 36.5177 86.2125 36.4303 86.3277C36.337 86.7043 36.2618 87.0873 36.2051 87.4749C36.15 87.8886 36.1272 88.307 36.2165 88.5245C36.4303 89.044 37.7131 89.0017 37.7131 89.0017L37.7444 88.9946C37.9866 88.9637 38.2313 88.9925 38.4644 89.0795C38.6975 89.1664 38.9143 89.3098 39.1023 89.5012C39.5897 89.9855 41.4397 89.7727 42.4412 89.6187C42.8337 89.5576 43.0959 89.5012 43.0959 89.5012C43.1086 89.4463 43.1131 89.3889 43.1092 89.3319C43.0988 89.0275 42.9059 88.3599 41.5984 87.764C41.5984 87.764 40.3689 86.7415 40.386 85.8505H40.3603H40.2178C40.3214 85.8435 40.3879 85.8505 40.3879 85.8505C40.3879 85.8505 39.9061 83.6761 40.1028 83.4998C40.2995 83.3235 39.7104 80.914 39.7104 80.914C39.7104 80.914 39.3731 76.8708 39.355 76.5875C39.3558 76.3445 39.3855 76.1029 39.4434 75.8706L39.355 73.6538C39.355 73.6538 39.3379 72.9169 39.355 72.6771C39.3521 72.469 39.3385 72.2613 39.3142 72.0554C39.3056 71.9731 39.297 71.8873 39.2875 71.8027C39.7484 71.6581 40.0477 71.5241 40.0477 71.5241L39.9945 63.8079C40.386 62.8676 40.4582 60.8048 40.4563 59.3415C40.4563 58.4012 40.4221 57.7054 40.4221 57.7054L40.957 56.6253C40.957 56.6253 41.0806 55.3324 40.8848 55.0491C40.7984 54.921 40.8373 54.7882 40.9086 54.6789C40.9456 54.6426 40.9846 54.6096 41.0254 54.5801C41.0254 54.5801 41.0197 54.5695 41.0131 54.5543C41.0504 54.5157 41.0902 54.4807 41.1319 54.4497C41.1319 54.4497 40.9418 54.0853 41.1119 53.9313C41.2715 54.0653 41.4141 54.1664 41.5224 54.2487C41.5148 54.3345 41.5072 54.3838 41.5072 54.3838L41.5528 54.2663C41.6573 54.3392 41.721 54.3838 41.721 54.3838C41.721 54.3838 42.5591 52.3187 42.541 52.0143C42.523 51.7099 43.1111 50.4276 43.1111 50.4276C43.1111 50.4276 43.1824 49.7541 43.5035 49.472C43.8247 49.1899 43.7525 47.146 43.7525 47.146C43.7525 47.146 43.8418 46.0811 44.0556 45.6462C44.2694 45.2113 43.8608 44.6248 43.8608 44.6248ZM27.8254 43.7186L27.8415 44.2111C27.7465 44.0219 27.6781 43.8855 27.6781 43.8855L27.8254 43.7186Z" fill="url(#paint0_linear)"/>
<path d="M41.7666 53.4918L41.5614 54.5731C41.5614 54.5731 39.9175 53.5353 39.6211 52.2165C39.3246 50.8978 40.1171 50.3971 40.1171 50.3971L41.6488 51.1999L41.7666 53.4918Z" fill="white"/>
<path opacity="0.1" d="M41.7666 53.4918L41.5614 54.5731C41.5614 54.5731 39.9175 53.5353 39.6211 52.2165C39.3246 50.8978 40.1171 50.3971 40.1171 50.3971L41.6488 51.1999L41.7666 53.4918Z" fill="black"/>
<path d="M32.5412 90.2934C32.5412 90.2934 31.0209 90.9845 29.9757 91.0715C29.4208 91.1173 29.1291 90.6966 28.9789 90.2911C28.8969 90.0656 28.844 89.8257 28.8221 89.58L28.958 87.717L29.0302 86.725L31.2508 86.0116L31.5653 87.2011L31.5948 87.2916C31.7212 87.6888 32.2276 89.3049 32.2124 89.6423C32.2118 89.7286 32.2253 89.8143 32.2521 89.8941C32.2788 89.9738 32.3184 90.0461 32.3683 90.1065C32.4192 90.1777 32.4774 90.2405 32.5412 90.2934Z" fill="white"/>
<path d="M42.9258 89.3461C42.9296 89.4026 42.9251 89.4596 42.9125 89.5141C42.9125 89.5141 39.661 90.1853 38.9958 89.5141C38.8083 89.3181 38.5897 89.1727 38.3541 89.0873C38.1184 89.0019 37.871 88.9783 37.6275 89.0181C37.6275 89.0181 36.3695 89.0605 36.1595 88.548C36.0721 88.3329 36.0949 87.9157 36.149 87.5043C36.2043 87.1188 36.2779 86.7377 36.3695 86.363L36.4198 86.3137L36.7192 86.0163L40.2235 85.8882H40.2501C40.233 86.7744 41.4397 87.7911 41.4397 87.7911C42.7215 88.3788 42.9106 89.0428 42.9258 89.3461Z" fill="white"/>
<path opacity="0.1" d="M42.9259 89.3461C42.9292 89.4027 42.9244 89.4596 42.9117 89.5141C42.9117 89.5141 39.6611 90.1853 38.9959 89.5141C38.8085 89.3182 38.5901 89.1729 38.3546 89.0875C38.1192 89.0021 37.8719 88.9785 37.6286 89.0181C37.6286 89.0181 36.3696 89.0604 36.1605 88.548C36.0731 88.3317 36.095 87.9156 36.1491 87.5043C36.6337 87.5642 37.3986 87.7135 37.6989 88.0696C38.1531 88.6115 38.9228 89.1521 39.395 89.1944C39.7646 89.2238 41.9757 89.3108 42.9259 89.3461Z" fill="black"/>
<path opacity="0.1" d="M32.5412 90.2934C32.5412 90.2934 31.0209 90.9845 29.9757 91.0715C29.4207 91.1173 29.129 90.6966 28.9799 90.2899C29.3666 90.4509 29.9034 90.6202 30.1857 90.465C30.5201 90.2817 31.706 90.163 32.3711 90.1124C32.4217 90.181 32.4788 90.2417 32.5412 90.2934Z" fill="black"/>
<path d="M34.797 34.599C33.5427 33.9961 31.9293 32.0038 32.3321 31.0729C32.4216 30.838 32.4748 30.5845 32.4889 30.3254C32.5148 29.9737 32.5187 29.62 32.5003 29.2676C32.4721 28.6904 32.4159 28.1158 32.3321 27.5469C32.3321 27.5469 36.2479 27.6562 36.0198 28.3696C35.9533 28.5788 35.9429 28.942 35.9609 29.3487C35.979 29.7554 36.0265 30.2149 36.0759 30.604C36.1443 31.1376 36.2127 31.5443 36.2127 31.5443C36.2127 31.5443 35.9733 31.9592 35.8327 31.9815C35.692 32.0038 36.5966 35.4582 34.797 34.599Z" fill="#CF6F80"/>
<path opacity="0.1" d="M31.592 87.2916L31.5625 87.3315C30.3919 85.5802 28.9761 87.7629 28.9761 87.7629L28.9552 87.717L29.0274 86.725L31.248 86.0116L31.5625 87.2011L31.592 87.2916Z" fill="black"/>
<path opacity="0.1" d="M40.2511 86.0115C40.2511 86.0115 39.3959 85.9892 38.9398 86.4876C38.4837 86.9859 36.2793 86.5957 36.3743 86.4876C36.4025 86.434 36.4194 86.3726 36.4237 86.3089L36.723 86.0115L40.2273 85.8834C40.2406 85.9622 40.2511 86.0115 40.2511 86.0115Z" fill="black"/>
<path d="M33.0486 72.2587C32.9849 72.4535 32.9366 72.6554 32.9042 72.8617C32.8249 73.4265 32.8029 74.0014 32.8386 74.573C32.8738 75.3957 32.8386 80.9094 32.8386 80.9094C32.8386 80.9094 32.087 82.3797 31.668 82.8981C31.2489 83.4164 32.5232 84.3473 32.5232 84.3473C32.7132 85.6872 31.5616 87.2011 31.5616 87.2011C30.3909 85.4498 28.9751 87.6336 28.9751 87.6336C28.9751 87.6336 28.2055 85.9881 28.0135 85.4004C27.8216 84.8127 28.7651 84.406 29.0968 84.1675C29.4284 83.9289 29.0806 82.5219 29.0806 82.5219C29.0806 82.5219 28.8003 81.289 28.4677 80.1642C28.1352 79.0394 28.8345 73.44 28.8345 73.44C28.8345 73.44 28.8706 72.4456 28.9571 72.0989C29.0007 71.8487 29.0094 71.5911 28.9827 71.3372C28.977 71.2514 28.9704 71.1797 28.9656 71.1315C28.9609 71.0834 28.9571 71.061 28.9571 71.061L28.9704 71.0328L29.4455 69.9374C29.4455 69.9374 33.2767 71.5688 33.0486 72.2587Z" fill="#6C63FF"/>
<path d="M40.2511 85.8823C40.2511 85.8823 39.396 85.86 38.9399 86.3525C38.4838 86.8449 36.2793 86.4606 36.3744 86.3525C36.4694 86.2443 36.4618 85.4439 36.4618 85.4439C35.1686 83.2601 36.2717 82.3739 36.2717 82.3739C36.2717 82.3739 35.694 78.936 35.5895 77.6607C35.5163 76.7698 35.4261 74.3756 35.3776 73.0086C35.3567 72.4209 35.3444 72.0166 35.3444 72.0166L36.401 71.7533L36.5368 71.7193L39.0853 71.0869C39.0853 71.0869 39.1556 71.6746 39.2031 72.1553C39.2268 72.3606 39.2401 72.5674 39.243 72.7747C39.2259 73.0098 39.243 73.7456 39.243 73.7456L39.3295 75.9517C39.273 76.1831 39.2438 76.4234 39.243 76.6652C39.2601 76.9461 39.5917 80.9682 39.5917 80.9682C39.5917 80.9682 40.1685 83.3682 39.9718 83.541C39.7751 83.7138 40.2511 85.8823 40.2511 85.8823Z" fill="#6C63FF"/>
<path opacity="0.1" d="M36.0199 28.3696C35.9533 28.5788 35.9429 28.942 35.9609 29.3487C35.4364 29.7394 34.8335 29.9391 34.2213 29.925C33.6092 29.9109 33.0127 29.6834 32.5003 29.2688C32.4721 28.6912 32.416 28.1162 32.3322 27.5469C32.3322 27.5469 36.2479 27.6538 36.0199 28.3696Z" fill="black"/>
<path d="M37.5335 25.7721C37.5343 26.1956 37.4804 26.6166 37.3739 27.0192C37.1359 27.9211 36.6477 28.6899 35.9957 29.1897C35.3437 29.6894 34.5699 29.888 33.811 29.7503C33.0521 29.6126 32.357 29.1475 31.8485 28.4372C31.3401 27.7268 31.051 26.817 31.0323 25.8685C31.0323 25.8356 31.0323 25.805 31.0323 25.7721C31.025 25.2382 31.1036 24.7078 31.2637 24.2119C31.4237 23.716 31.662 23.2645 31.9647 22.8837C32.2673 22.5029 32.6282 22.2005 33.0263 21.994C33.4244 21.7876 33.8517 21.6813 34.2834 21.6813C34.7151 21.6813 35.1425 21.7876 35.5406 21.994C35.9387 22.2005 36.2996 22.5029 36.6022 22.8837C36.9048 23.2645 37.1431 23.716 37.3032 24.2119C37.4632 24.7078 37.5419 25.2382 37.5345 25.7721H37.5335Z" fill="#CF6F80"/>
<path opacity="0.1" d="M34.797 34.5991C33.5427 33.9961 31.9293 32.0039 32.3321 31.073C32.4216 30.8381 32.4748 30.5845 32.4889 30.3254L34.2059 32.0708L35.2682 33.1487L36.0759 30.6052C36.1443 31.1388 36.2127 31.5455 36.2127 31.5455C36.2127 31.5455 35.9733 31.9604 35.8327 31.9827C35.692 32.005 36.5966 35.4582 34.797 34.5991Z" fill="black"/>
<path d="M39.2372 42.3129L37.8033 72.1082L35.9334 72.2599L31.0912 54.9833L31.8855 34.4721L32.0528 30.1385L34.2059 32.3259L35.2692 33.4037L36.1006 30.7862L37.6466 32.4528L39.2372 42.3129Z" fill="#6C63FF"/>
<path opacity="0.1" d="M33.0486 72.2587C32.9849 72.4535 32.9365 72.6554 32.9042 72.8617C31.5435 72.6018 30.222 72.0911 28.9837 71.3466L28.958 71.3302L28.9666 71.1409L28.9713 71.0422L29.4464 69.9468C29.4464 69.9468 33.2766 71.5688 33.0486 72.2587Z" fill="black"/>
<path opacity="0.1" d="M36.4228 72.8663C36.0749 72.9395 35.7241 72.9889 35.3719 73.0144C35.351 72.4268 35.3386 72.0224 35.3386 72.0224L36.3952 71.7592L36.4228 72.8663Z" fill="black"/>
<path opacity="0.1" d="M39.1974 72.1612C38.5218 72.3786 37.4785 72.6231 36.5444 72.4703L36.5311 71.7251L39.0795 71.0928C39.0795 71.0928 39.1499 71.6746 39.1974 72.1612Z" fill="black"/>
<path opacity="0.1" d="M36.5272 72.6065C32.6314 73.4293 29.0635 71.0703 29.0635 71.0703L29.0977 70.2711C29.0977 70.2711 29.186 61.2103 28.9409 60.5156C28.6957 59.821 28.5048 56.2984 28.6435 55.7578C28.7822 55.2171 28.137 47.1095 28.137 47.1095L28.0325 43.8185L24.207 41.9015L25.9174 37.4915C26.1484 36.8732 26.3471 36.2372 26.5122 35.5875C26.8096 34.4427 28.1902 33.3178 28.1902 33.3178C28.1902 33.3178 29.606 32.1942 30.1657 32.2365C30.7253 32.2788 31.4589 31.2422 31.4589 31.2422C32.0005 29.5344 32.4908 30.3077 32.4908 30.3077C32.4908 30.3888 32.4908 30.3077 32.4642 30.5604C32.2742 32.4351 35.5371 38.3589 35.5837 38.4636L35.8944 47.8265L36.2089 59.6752L36.5272 72.6065Z" fill="black"/>
<path d="M36.4228 72.6066C32.527 73.4294 28.9581 71.0704 28.9581 71.0704L28.9932 70.2712C28.9932 70.2712 29.0816 61.2103 28.8355 60.5157C28.5894 59.8211 28.3994 56.2985 28.539 55.7579C28.6787 55.2172 28.0326 47.1096 28.0326 47.1096L27.9271 43.8186L24.0997 41.8945L25.8101 37.4846C26.0406 36.866 26.2393 36.2301 26.4049 35.5805C26.7014 34.4357 28.0829 33.3109 28.0829 33.3109C28.0829 33.3109 29.4987 32.1872 30.0574 32.2295C30.6161 32.2719 31.3506 31.2352 31.3506 31.2352C31.8932 29.5274 32.4909 30.3008 32.4909 30.3008C32.4909 30.3819 32.4339 30.4183 32.4643 30.5535C32.8824 32.3718 35.4327 38.352 35.4792 38.4566L35.7937 47.8195L36.1083 59.6683L36.4228 72.6066Z" fill="white"/>
<path opacity="0.1" d="M35.3728 38.7234C34.9538 38.5071 32.7341 35.3724 32.7341 35.3724V34.659C32.6534 34.4239 32.1735 34.5673 31.7839 34.7319L31.9512 30.3983L32.1412 30.5934C32.5574 32.4105 35.3244 38.6188 35.3728 38.7234Z" fill="black"/>
<path d="M35.4782 38.4636C35.0583 38.2473 32.8386 35.1127 32.8386 35.1127V34.3992C32.7579 34.1642 32.278 34.3075 31.8884 34.4721L32.0566 30.1385L32.2466 30.3337C32.6638 32.1508 35.4317 38.3602 35.4782 38.4636Z" fill="white"/>
<path opacity="0.1" d="M29.0635 54.097C29.1158 54.097 31.7725 53.7515 31.7725 53.7515C31.7725 53.7515 33.3812 57.6642 33.2757 58.6163C33.1703 59.5683 32.9793 60.4111 32.3322 60.2618C31.6851 60.1125 28.8497 60.3793 28.8497 60.3793L29.0635 54.097Z" fill="black"/>
<path d="M28.9581 53.8373C29.0103 53.8373 31.6671 53.4917 31.6671 53.4917C31.6671 53.4917 33.2748 57.4056 33.1703 58.3565C33.0657 59.3074 32.8728 60.1513 32.2267 60.002C31.5806 59.8527 28.7443 60.1196 28.7443 60.1196L28.9581 53.8373Z" fill="white"/>
<path d="M30.96 52.0002C30.96 52.0002 33.3982 53.6211 33.4505 54.1159C33.5028 54.6107 32.2095 53.8996 31.9302 53.8138C31.7463 53.759 31.5591 53.7228 31.3705 53.7057L29.5072 53.768L30.96 52.0002Z" fill="#CF6F80"/>
<path opacity="0.1" d="M34.6925 38.9255C34.8342 38.9255 34.949 38.7834 34.949 38.6081C34.949 38.4329 34.8342 38.2908 34.6925 38.2908C34.5508 38.2908 34.4359 38.4329 34.4359 38.6081C34.4359 38.7834 34.5508 38.9255 34.6925 38.9255Z" fill="black"/>
<path d="M34.6925 38.7962C34.8342 38.7962 34.949 38.6541 34.949 38.4788C34.949 38.3036 34.8342 38.1615 34.6925 38.1615C34.5508 38.1615 34.4359 38.3036 34.4359 38.4788C34.4359 38.6541 34.5508 38.7962 34.6925 38.7962Z" fill="#3F3D56"/>
<path opacity="0.1" d="M35.1648 52.6631C35.3064 52.6631 35.4213 52.5211 35.4213 52.3458C35.4213 52.1705 35.3064 52.0284 35.1648 52.0284C35.0231 52.0284 34.9082 52.1705 34.9082 52.3458C34.9082 52.5211 35.0231 52.6631 35.1648 52.6631Z" fill="black"/>
<path d="M35.1648 52.5326C35.3064 52.5326 35.4213 52.3906 35.4213 52.2153C35.4213 52.04 35.3064 51.8979 35.1648 51.8979C35.0231 51.8979 34.9082 52.04 34.9082 52.2153C34.9082 52.3906 35.0231 52.5326 35.1648 52.5326Z" fill="#3F3D56"/>
<path opacity="0.1" d="M34.9481 45.7944C35.0898 45.7944 35.2046 45.6523 35.2046 45.477C35.2046 45.3018 35.0898 45.1597 34.9481 45.1597C34.8064 45.1597 34.6915 45.3018 34.6915 45.477C34.6915 45.6523 34.8064 45.7944 34.9481 45.7944Z" fill="black"/>
<path d="M34.9481 45.665C35.0898 45.665 35.2046 45.5229 35.2046 45.3476C35.2046 45.1724 35.0898 45.0303 34.9481 45.0303C34.8064 45.0303 34.6915 45.1724 34.6915 45.3476C34.6915 45.5229 34.8064 45.665 34.9481 45.665Z" fill="#3F3D56"/>
<path d="M40.862 53.6398C40.862 53.6398 41.0369 53.9642 40.862 54.1159C40.6872 54.2675 40.8791 54.6342 40.8791 54.6342C40.8791 54.6342 40.443 54.9504 40.6349 55.2348C40.8269 55.5192 40.7052 56.8039 40.7052 56.8039L40.1807 57.8782C40.1807 57.8782 40.2121 58.5705 40.214 59.506C40.214 60.9658 40.1446 63.018 39.7607 63.9536L39.814 71.6299C39.814 71.6299 37.9772 72.4597 36.4398 72.207L36.2118 59.8892C36.2118 59.8892 36.5443 52.9041 36.6669 51.5641C36.7387 50.8685 36.7679 50.1672 36.7543 49.4661C36.7543 49.4661 36.7021 47.3693 36.5263 46.3961C36.5263 46.3961 36.3363 42.1801 36.3173 41.013C36.3087 40.4547 36.3325 38.8256 36.3591 37.2765C36.3885 35.5828 36.4218 33.9855 36.4218 33.9855L36.075 30.5911C36.075 30.5911 36.4218 30.5476 36.5263 30.7203C36.5731 30.7744 36.624 30.8229 36.6783 30.8649C37.2769 31.3656 39.3921 32.9053 39.3921 32.9053C39.3921 32.9053 40.5627 33.4813 40.843 34.3064C41.1233 35.1315 41.3181 35.7168 41.454 35.9519C41.5899 36.1869 41.664 37.2918 41.664 37.2918C41.664 37.2918 42.0669 39.3251 42.3814 39.6695C42.6959 40.0139 42.9258 42.2048 42.9258 42.2048L40.1465 44.9081C40.1465 44.9081 39.9023 49.405 39.8501 49.579C39.7978 49.7529 40.862 53.6398 40.862 53.6398Z" fill="white"/>
<path d="M40.9676 53.6398C40.9676 53.6398 41.1414 53.9642 40.9676 54.1158C40.7937 54.2674 40.9837 54.6341 40.9837 54.6341C40.9837 54.6341 40.5504 54.9538 40.7405 55.2383C40.9305 55.5227 40.8108 56.8074 40.8108 56.8074L40.2863 57.8817C40.2863 57.8817 40.3176 58.5739 40.3205 59.5095C40.3205 60.9693 40.2511 63.0215 39.8672 63.9571L39.9195 71.6334C39.9195 71.6334 38.0799 72.4632 36.5444 72.2104L36.3173 59.8927C36.3173 59.8927 36.6499 52.9075 36.7725 51.5676C36.8443 50.872 36.8732 50.1707 36.8589 49.4696C36.8589 49.4696 36.8067 47.3728 36.6318 46.3996C36.6318 46.3996 36.4418 42.1836 36.4218 41.0164C36.4133 40.4581 36.438 38.8291 36.4636 37.28C36.4931 35.5863 36.5264 33.989 36.5264 33.989L36.0684 30.5487C36.0684 30.5487 36.5264 30.5487 36.6318 30.7238C36.6782 30.7786 36.7292 30.827 36.7839 30.8684C37.3825 31.3691 39.4986 32.9088 39.4986 32.9088C39.4986 32.9088 40.6682 33.4848 40.9485 34.3099C41.2289 35.135 41.4236 35.7203 41.5605 35.9554C41.6973 36.1904 41.7695 37.2953 41.7695 37.2953C41.7695 37.2953 42.1724 39.3286 42.4869 39.673C42.8014 40.0174 43.0285 42.2036 43.0285 42.2036L40.2492 44.9069C40.2492 44.9069 40.005 49.4038 39.9518 49.5778C39.8986 49.7517 40.9676 53.6398 40.9676 53.6398Z" fill="white"/>
<path opacity="0.1" d="M37.639 34.9869L37.8899 35.8919L36.5691 37.5374C36.5986 35.8449 36.6318 34.2464 36.6318 34.2464L36.1738 30.8062C36.1738 30.8062 36.6318 30.8062 36.7373 30.9813C36.7835 31.0359 36.8345 31.084 36.8893 31.1247L38.0124 35.1326L37.639 34.9869Z" fill="black"/>
<path d="M37.5336 34.7271L37.7854 35.6322L36.4646 37.2777C36.494 35.584 36.5273 33.9867 36.5273 33.9867L36.0684 30.5464C36.0684 30.5464 36.5273 30.5464 36.6318 30.7215C36.6784 30.7759 36.7294 30.8244 36.7839 30.8661L37.9079 34.8729L37.5336 34.7271Z" fill="white"/>
<path opacity="0.1" d="M37.5335 25.7721C37.5343 26.1956 37.4804 26.6166 37.3739 27.0192C37.356 27.0226 37.3376 27.0216 37.32 27.0162C37.3024 27.0107 37.2858 27.0009 37.2713 26.9874C37.2466 25.9296 36.8257 24.9364 36.3078 24.0913C36.1624 23.8362 35.9861 23.6102 35.7852 23.4214C35.582 23.2326 35.3293 23.1442 35.0764 23.1734C34.7913 23.2216 34.5395 23.4613 34.2516 23.4919C33.8715 23.5307 33.5313 23.2051 33.1541 23.1887C33.0008 23.1905 32.8495 23.2327 32.7104 23.3126C32.5713 23.3924 32.4475 23.5081 32.3474 23.6518C32.1492 23.9418 32.002 24.2796 31.9151 24.6438C31.7657 25.196 31.6843 25.7729 31.6737 26.3551C31.669 26.6842 31.6433 27.0967 31.3963 27.2166C31.4149 26.9746 31.3926 26.7304 31.331 26.4996C31.2693 26.2687 31.1696 26.0562 31.038 25.8755L31.0323 25.8685C31.0323 25.8356 31.0323 25.805 31.0323 25.7721C31.025 25.2382 31.1036 24.7078 31.2637 24.2119C31.4237 23.716 31.662 23.2645 31.9647 22.8837C32.2673 22.5029 32.6282 22.2005 33.0263 21.994C33.4244 21.7876 33.8517 21.6813 34.2834 21.6813C34.7151 21.6813 35.1425 21.7876 35.5406 21.994C35.9387 22.2005 36.2996 22.5029 36.6022 22.8837C36.9048 23.2645 37.1431 23.716 37.3032 24.2119C37.4632 24.7078 37.5419 25.2382 37.5345 25.7721H37.5335Z" fill="black"/>
<path d="M35.6293 19.3863C35.1355 19.099 34.574 19.0447 34.0501 19.2335C33.7869 19.3299 33.5389 19.4862 33.2719 19.565C32.7018 19.7354 32.0366 19.5509 31.5473 19.9634C31.2755 20.1985 31.1121 20.5699 30.9601 20.9307L30.58 21.8264C30.3728 22.3165 30.1638 22.8148 30.0773 23.3543C29.9909 23.8938 30.0431 24.4979 30.3196 24.9316C30.5211 25.2478 30.8185 25.4465 31.037 25.7438C31.168 25.9247 31.2673 26.1371 31.3287 26.3676C31.3902 26.5982 31.4125 26.842 31.3943 27.0837C31.6423 26.9662 31.6661 26.5525 31.6718 26.2234C31.6823 25.6412 31.7637 25.0643 31.9131 24.512C31.9998 24.1478 32.1471 23.8099 32.3454 23.52C32.4456 23.3765 32.5694 23.2609 32.7085 23.1811C32.8476 23.1012 32.9988 23.0589 33.1522 23.057C33.5322 23.0734 33.8733 23.3978 34.2496 23.359C34.5347 23.3296 34.7874 23.0887 35.0744 23.0417C35.3274 23.0121 35.5802 23.1005 35.7832 23.2897C35.9841 23.4782 36.1601 23.7042 36.3049 23.9596C36.8237 24.8047 37.2446 25.7955 37.2693 26.8557C37.3767 26.9533 37.5316 26.8263 37.5848 26.6759C37.638 26.5254 37.6399 26.3491 37.7074 26.2057C37.7853 26.04 37.9345 25.9519 38.0513 25.8273C38.3478 25.5111 38.4219 24.9787 38.4105 24.4956C38.3991 24.0125 38.3231 23.5224 38.3972 23.0475C38.4419 22.7561 38.5426 22.4834 38.5977 22.1954C38.6528 21.9075 38.6595 21.5842 38.5293 21.3362C38.3393 20.9719 37.9392 20.9002 37.5905 20.8661C37.1943 20.8238 36.8398 20.8778 36.5871 20.4653C36.4685 20.25 36.3349 20.0479 36.188 19.8612C36.1377 19.8 35.6293 19.4122 35.6293 19.3863Z" fill="#512E4E"/>
<path opacity="0.1" d="M25.3017 44.1723L24.3088 41.9015L23.9943 45.4052C23.9943 45.4052 24.1691 46.9614 24.1339 47.2C24.0988 47.4386 24.8504 49.5778 24.8504 49.5778C24.8504 49.5778 27.3332 55.0479 28.3471 55.33L31.7725 52.3022L30.8642 50.8754C30.8642 50.8754 30.5496 50.7237 30.4708 50.8754C30.4708 50.8754 28.7842 47.2858 28.6093 47.0261C28.4345 46.7663 28.4687 46.248 28.4687 46.248C28.4687 46.248 28.2065 45.9024 28.2939 45.578C28.3813 45.2536 27.7874 44.1288 27.7874 44.1288L28.329 43.5023L25.3017 44.1723Z" fill="black"/>
<path d="M24.3611 41.6429L24.0988 41.9015L23.7843 45.4053C23.7843 45.4053 23.9591 46.9614 23.924 47.2C23.8888 47.4386 24.6414 49.5778 24.6414 49.5778C24.6414 49.5778 27.1233 55.0479 28.1371 55.33L31.5635 52.3023L30.6542 50.8754C30.6542 50.8754 30.3397 50.7238 30.2608 50.8754C30.2608 50.8754 28.5742 47.2858 28.3994 47.0261C28.2245 46.7663 28.2597 46.248 28.2597 46.248C28.2597 46.248 27.9975 45.9024 28.0849 45.578C28.1723 45.2536 27.5775 44.1288 27.5775 44.1288L28.1191 43.5024L24.3611 41.6429Z" fill="white"/>
<path opacity="0.1" d="M40.6349 55.3688C40.825 55.6544 40.7052 56.9368 40.7052 56.9368L40.1807 58.011C40.1807 58.011 40.2121 58.7045 40.214 59.6389L39.3322 59.9798C39.2525 60.0105 39.168 60.0173 39.0858 59.9995C39.0036 59.9817 38.926 59.9398 38.8595 59.8773C38.793 59.8149 38.7396 59.7337 38.7036 59.6404C38.6677 59.5472 38.6503 59.4448 38.6528 59.3415L38.8049 53.2755L40.862 54.2487C40.6872 54.3992 40.8791 54.7682 40.8791 54.7682C40.8791 54.7682 40.443 55.0832 40.6349 55.3688Z" fill="black"/>
<path d="M40.7405 55.2384C40.9305 55.524 40.8108 56.8075 40.8108 56.8075L40.2863 57.8818C40.2863 57.8818 40.3177 58.574 40.3205 59.5096L39.4226 59.8564C39.3445 59.8864 39.2618 59.8929 39.1813 59.8753C39.1008 59.8578 39.0249 59.8167 38.9598 59.7556C38.8948 59.6944 38.8425 59.6149 38.8072 59.5237C38.772 59.4324 38.755 59.3321 38.7574 59.2311L38.9104 53.1462L40.9685 54.1194C40.7928 54.2699 40.9847 54.6378 40.9847 54.6378C40.9847 54.6378 40.5505 54.9539 40.7405 55.2384Z" fill="white"/>
<path d="M41.4217 52.3469C41.4217 52.3469 41.282 53.4506 40.9324 53.5152C40.5827 53.5799 40.4259 55.3006 40.0772 55.2395C39.7285 55.1784 39.9594 53.6398 39.9717 53.3413C39.9841 53.0428 39.5917 51.8063 39.8853 51.5254C40.1789 51.2445 41.1082 51.5254 41.1082 51.5254L41.4217 52.3469Z" fill="#CF6F80"/>
<path opacity="0.1" d="M42.1657 43.8479L42.8252 42.2024C42.8252 42.2024 43.0874 43.4565 43.0874 44.1265C43.0874 44.7964 43.4542 44.8622 43.4542 44.8622C43.4542 44.8622 43.8561 45.4499 43.6442 45.8777C43.4323 46.3056 43.3468 47.3704 43.3468 47.3704C43.3468 47.3704 43.4162 49.4026 43.1017 49.6835C42.7872 49.9645 42.7216 50.6356 42.7216 50.6356C42.7216 50.6356 42.1439 51.9108 42.1619 52.2141C42.18 52.5173 41.3581 54.5707 41.3581 54.5707C41.3581 54.5707 41.76 52.019 39.4178 50.9165C39.4178 50.9165 39.3997 50.0503 39.5745 49.8128C39.7494 49.5754 40.0221 49.4673 39.8511 48.2672C39.68 47.0672 39.8016 45.6333 39.8016 45.3453C39.8016 45.0573 40.3262 43.2614 40.3262 43.2614L42.1657 43.8479Z" fill="black"/>
<path d="M42.4507 41.9674L43.0265 42.2025C43.0265 42.2025 43.2897 43.4566 43.2897 44.1265C43.2897 44.7965 43.6565 44.8623 43.6565 44.8623C43.6565 44.8623 44.0585 45.45 43.8466 45.8778C43.6347 46.3057 43.5501 47.3705 43.5501 47.3705C43.5501 47.3705 43.6195 49.4027 43.3049 49.6836C42.9904 49.9645 42.9201 50.6357 42.9201 50.6357C42.9201 50.6357 42.3434 51.9109 42.3614 52.2142C42.3795 52.5174 41.5566 54.5708 41.5566 54.5708C41.5566 54.5708 41.9595 52.0191 39.6163 50.9166C39.6163 50.9166 39.5992 50.0503 39.774 49.8129C39.9489 49.5755 40.2216 49.4674 40.0505 48.2673C39.8795 47.0673 40.0011 45.6333 40.0011 45.3454C40.0011 45.0574 40.5256 43.2615 40.5256 43.2615L42.4507 41.9674Z" fill="white"/>
<path opacity="0.1" d="M29.7324 84.6175C29.7324 84.6175 30.6503 83.9041 31.2527 84.4224C31.8552 84.9407 29.7324 84.6175 29.7324 84.6175Z" fill="black"/>
<path opacity="0.1" d="M36.8646 82.4114C36.8646 82.4114 37.677 82.2821 38.3593 83.1906C39.0415 84.0992 36.8646 82.4114 36.8646 82.4114Z" fill="black"/>
<g opacity="0.1">
<path opacity="0.1" d="M38.0532 25.5699C37.9363 25.6945 37.7862 25.7838 37.7083 25.9496C37.6418 26.0918 37.6399 26.2669 37.5867 26.4197C37.5335 26.5725 37.3786 26.6971 37.2712 26.6007C37.2465 25.5429 36.8246 24.5497 36.3068 23.7035C36.162 23.4481 35.986 23.222 35.7851 23.0335C35.5817 22.8444 35.3286 22.7559 35.0753 22.7855C34.7903 22.8337 34.5394 23.0735 34.2515 23.1028C33.8714 23.1428 33.5303 22.8172 33.1531 22.8008C32.9998 22.8027 32.8486 22.8451 32.7096 22.9251C32.5706 23.0052 32.4471 23.1211 32.3473 23.265C32.149 23.5544 32.0017 23.8919 31.915 24.2559C31.7657 24.8081 31.6843 25.385 31.6736 25.9672C31.6679 26.2951 31.6432 26.7041 31.3981 26.8264C31.4038 26.9132 31.4038 27.0005 31.3981 27.0873C31.6451 26.9698 31.6698 26.556 31.6755 26.2269C31.6861 25.6448 31.7675 25.0679 31.9169 24.5156C32.0036 24.1513 32.1509 23.8135 32.3492 23.5236C32.4492 23.3801 32.5728 23.2645 32.7117 23.1847C32.8507 23.1048 33.0018 23.0625 33.155 23.0605C33.5351 23.077 33.8771 23.4014 34.2534 23.3626C34.5385 23.3332 34.7912 23.0923 35.0772 23.0453C35.3305 23.0157 35.5836 23.1041 35.787 23.2933C35.9879 23.4818 36.1639 23.7078 36.3087 23.9632C36.8265 24.8083 37.2484 25.7991 37.2731 26.8593C37.3805 26.9568 37.5354 26.8299 37.5886 26.6795C37.6418 26.529 37.6437 26.3527 37.7102 26.2093C37.7881 26.0436 37.9382 25.9554 38.0551 25.8308C38.3516 25.5147 38.4257 24.9822 38.4143 24.4992C38.4143 24.4839 38.4143 24.4686 38.4143 24.4545C38.3962 24.8729 38.306 25.2996 38.0532 25.5699Z" fill="black"/>
<path opacity="0.1" d="M31.039 25.4865C30.8204 25.1891 30.5221 24.9905 30.3216 24.6755C30.1527 24.3967 30.0563 24.061 30.0451 23.7129C30.0152 24.1479 30.1134 24.5816 30.3216 24.9341C30.5221 25.2503 30.8204 25.4489 31.039 25.7463C31.2488 26.0371 31.3748 26.4058 31.3972 26.7947C31.4117 26.558 31.3875 26.3202 31.3259 26.0954C31.2644 25.8706 31.1668 25.6635 31.039 25.4865Z" fill="black"/>
<path opacity="0.1" d="M38.5996 21.938C38.5436 22.226 38.4438 22.4999 38.3982 22.7902C38.3712 22.9842 38.3613 23.1812 38.3687 23.3778C38.3719 23.2658 38.3818 23.1543 38.3982 23.044C38.4438 22.7526 38.5436 22.4799 38.5996 22.1919C38.6323 22.0331 38.6429 21.8685 38.631 21.7053C38.6251 21.7837 38.6146 21.8615 38.5996 21.938Z" fill="black"/>
</g>
<path opacity="0.1" d="M12.6119 89.3966C17.7254 89.3966 21.8706 88.5731 21.8706 87.5572C21.8706 86.5413 17.7254 85.7178 12.6119 85.7178C7.49852 85.7178 3.35327 86.5413 3.35327 87.5572C3.35327 88.5731 7.49852 89.3966 12.6119 89.3966Z" fill="#6C63FF"/>
<path d="M12.9102 52.3199H12.3145V68.9125H12.9102V52.3199Z" fill="#535461"/>
<path d="M16.654 68.8618L16.617 69.6094L16.5638 70.6672L16.5419 71.1068L16.4897 72.1646L16.4669 72.6042L16.4136 73.662L15.8131 85.6589C15.787 86.175 15.6029 86.6595 15.2982 87.0137C14.9935 87.3679 14.5912 87.5651 14.1731 87.5653H11.0508C10.6328 87.5651 10.2305 87.3678 9.926 87.0136C9.62148 86.6594 9.43755 86.1749 9.41168 85.6589L8.81401 73.6538L8.7608 72.5959L8.73895 72.1564L8.68573 71.0985L8.66388 70.659L8.61067 69.6011L8.57266 68.8536C8.56606 68.7097 8.58329 68.5657 8.6233 68.4304C8.66332 68.295 8.72526 68.1712 8.80534 68.0666C8.88541 67.9619 8.98194 67.8786 9.08898 67.8217C9.19603 67.7648 9.31134 67.7356 9.42784 67.7358H15.8141C15.9301 67.7371 16.0448 67.7677 16.1509 67.8259C16.257 67.884 16.3523 67.9685 16.431 68.074C16.5098 68.1795 16.5701 68.3038 16.6085 68.4393C16.6469 68.5749 16.6624 68.7186 16.654 68.8618Z" fill="#3F3D56"/>
<path d="M16.6169 69.6094L16.5637 70.6637H8.66002L8.60681 69.6094H16.6169Z" fill="#9D9CB5"/>
<path d="M16.5419 71.1033L16.4896 72.1587H8.7351L8.68188 71.1033H16.5419Z" fill="#9D9CB5"/>
<path d="M16.4668 72.5995L16.4146 73.6538H8.81017L8.75696 72.5995H16.4668Z" fill="#9D9CB5"/>
<path d="M7.69714 58.5387C11.1663 61.644 12.6144 66.5005 12.6144 66.5005C12.6144 66.5005 8.43354 66.3231 4.96344 63.2178C1.49334 60.1125 0.0480957 55.2571 0.0480957 55.2571C0.0480957 55.2571 4.22704 55.4334 7.69714 58.5387Z" fill="#6C63FF"/>
<path d="M0.0452881 55.2571C0.0452881 55.2571 4.38576 58.2366 5.7778 60.7037C7.16983 63.1708 12.6144 66.5005 12.6144 66.5005" stroke="#535461" stroke-width="2" stroke-miterlimit="10"/>
<path d="M9.93706 52.2835C11.8251 53.9725 12.6147 56.6159 12.6147 56.6159C12.6147 56.6159 10.339 56.5195 8.45001 54.8305C6.56102 53.1415 5.77332 50.4969 5.77332 50.4969C5.77332 50.4969 8.04808 50.5933 9.93706 52.2835Z" fill="#6C63FF"/>
<path d="M5.77332 50.4969C5.77332 50.4969 8.13549 52.1189 8.8928 53.4612C9.6501 54.8034 12.6147 56.6159 12.6147 56.6159" stroke="#535461" stroke-width="2" stroke-miterlimit="10"/>
<path d="M15.356 56.4818C13.1867 59.4308 12.7278 63.2848 12.7278 63.2848C12.7278 63.2848 15.7865 62.3563 17.9538 59.4061C20.1212 56.456 20.5821 52.6031 20.5821 52.6031C20.5821 52.6031 17.5253 53.5329 15.356 56.4818Z" fill="#6C63FF"/>
<path d="M20.584 52.6044C20.584 52.6044 17.7581 55.6274 17.0398 57.7101C16.3214 59.7929 12.7278 63.2849 12.7278 63.2849" stroke="#535461" stroke-width="2" stroke-miterlimit="10"/>
<path d="M94.9878 55.4441C94.9878 55.4441 93.4191 45.7897 94.0196 44.5885C94.0196 44.5885 94.0414 43.4719 94.0053 42.0485C94.0053 41.9944 94.0053 41.9404 94.0053 41.8851C94.111 41.9723 94.2211 42.0508 94.3351 42.1202C94.8884 42.4718 95.5236 42.5733 96.1309 42.407L95.6558 41.7523C95.5418 41.596 95.423 41.4267 95.3983 41.2199C95.3736 41.013 95.442 40.8285 95.501 40.6439C95.9523 39.2335 95.976 37.4599 95.1066 36.3833C94.3721 35.4783 94.1935 34.3099 93.3963 33.4837C92.8138 32.8784 92.4936 31.991 92.1914 31.133C91.9358 30.4078 91.6783 29.6767 91.532 28.908C91.418 28.3074 91.3724 27.6856 91.2156 27.0991C91.0588 26.5126 90.7652 25.9426 90.3063 25.6805C90.1428 25.5876 89.9613 25.5347 89.8122 25.4113C89.6164 25.2479 89.4986 24.9823 89.357 24.7496C88.6377 23.5742 86.229 24.2665 85.0887 24.7437C84.7788 24.8639 84.4917 25.0606 84.245 25.322L84.2554 25.3008C84.264 25.2832 84.2744 25.2656 84.2839 25.2479C84.1591 25.3728 84.0513 25.5216 83.9647 25.6887C83.7984 26.0143 83.729 26.3939 83.5903 26.7465C83.4231 27.1638 82.4928 28.3285 82.8929 28.7975C82.9209 28.829 82.953 28.8544 82.9879 28.8727C83.1381 28.95 83.3034 28.9705 83.463 28.9315L83.4459 28.982C83.3092 29.3958 83.2392 29.8386 83.2397 30.2855C83.2397 32.2166 84.5272 33.7822 86.1169 33.7822C86.4157 33.7826 86.7128 33.7259 86.9977 33.6141C87.0043 33.6588 87.01 33.7035 87.0167 33.7481C87.0167 33.7658 87.0214 33.7834 87.0233 33.801L86.973 33.888C86.9705 33.8826 86.9676 33.8775 86.9644 33.8727L85.4726 36.4514C85.2446 36.6501 83.9314 37.8254 83.8573 38.707C83.7794 39.6719 83.7015 40.8014 83.7015 40.8014L83.691 41.0436C83.6258 41.111 83.5496 41.16 83.4676 41.1874C83.3855 41.2148 83.2997 41.2199 83.2159 41.2022C82.7503 41.1082 82.7503 43.3179 82.7503 43.3179C82.7503 43.3179 82.4406 43.6705 82.2277 43.3649C82.0149 43.0593 81.4524 44.0948 81.4524 44.0948L77.9272 44.2829L77.8464 44.2887L77.6564 43.5612C77.6359 43.4844 77.5918 43.4208 77.5336 43.384C77.4754 43.3473 77.4079 43.3404 77.3456 43.3649C77.3309 43.3709 77.3166 43.3784 77.3029 43.3872L77.2896 43.3966L77.2649 43.4178L77.2525 43.4319C77.2457 43.4395 77.2394 43.4478 77.2335 43.4566L77.2221 43.473L77.2164 43.4801C77.1945 43.5176 77.1799 43.561 77.174 43.6067C77.1681 43.6524 77.1709 43.6992 77.1822 43.7434L77.3456 44.3675C76.6653 44.5367 75.9698 45.0139 76.537 46.328L73.6617 45.671L74.592 46.6371L79.3943 47.863C79.3306 48.004 79.3724 48.2086 79.571 48.4965C80.4262 49.7389 81.9845 50.0762 82.6116 50.1632C82.7772 50.6214 82.9841 51.0552 83.2283 51.4561L83.1741 52.6937C83.1741 52.6937 81.5863 62.1272 81.2956 62.6055C81.4424 62.3998 81.5767 62.181 81.6975 61.9509C81.2367 63.889 80.5924 66.5418 80.4233 66.9391C80.1516 67.5738 79.8998 70.1419 80.2095 70.3065C80.3045 70.357 80.5763 70.3323 80.964 70.2959V70.5086L80.9469 78.5704C80.9469 78.5704 81.0248 83.5151 80.811 83.9865C80.5972 84.4578 80.5402 85.4463 80.5402 85.4463C80.5402 85.4463 79.685 87.3962 79.0075 88.1801C79.0029 88.1862 78.9978 88.1918 78.9923 88.1966L78.9714 88.0132C78.9714 88.0132 78.1571 89.285 76.3555 89.2133C76.3555 89.2133 75.2714 90.0854 76.8791 90.1324C78.4868 90.1794 80.5402 90.0619 80.5402 90.0619C80.5402 90.0619 81.974 87.3586 83.1751 87.7112V89.7598H83.5428V87.6783C83.7133 87.5394 83.8593 87.3591 83.9718 87.1484C84.0844 86.9377 84.1611 86.7009 84.1975 86.4524C84.2289 86.1962 84.2059 85.9343 84.1306 85.6926C84.0553 85.4508 83.9303 85.2375 83.768 85.0737C83.6951 84.9921 83.6366 84.8928 83.5962 84.782C83.5558 84.6711 83.5344 84.5512 83.5333 84.4296L83.52 84.4437C83.52 84.4025 83.5114 84.3602 83.5076 84.3167C83.4022 83.2589 83.2701 81.0763 83.7366 79.4613C84.3761 77.247 84.5699 74.1628 84.1044 72.3269C83.9541 71.7401 83.8307 71.1432 83.7347 70.5392C83.7233 70.4628 83.7129 70.3899 83.7034 70.3218C84.0216 70.375 84.3368 70.4535 84.6469 70.5568C85.7254 70.9247 88.0847 70.9929 90.0991 70.9729C90.1039 71.0411 90.1096 71.1128 90.1162 71.1845C90.1521 71.6828 90.2272 72.1757 90.3405 72.656C90.5932 73.5963 90.7091 77.7418 90.7091 77.7418C90.7091 77.7418 91.035 81.1503 90.8574 82.5372C90.7623 83.3083 90.6673 84.0828 90.6132 84.8609V84.8762C90.6132 84.8762 90.0792 86.7568 89.6886 87.7782C89.6791 87.804 89.6687 87.8299 89.6592 87.8546C89.5551 87.8663 89.4526 87.8943 89.3542 87.938C89.3542 87.938 88.8306 89.2309 88.3089 89.4448C87.7873 89.6587 87.9602 90.3628 89.1413 90.1042C90.3224 89.8456 92.1059 89.6341 92.1059 89.6341L92.1829 88.3153L92.5459 87.7535L92.4508 89.0687L92.8376 88.9747L92.7863 87.375L93.3801 86.4559C93.3801 86.4559 94.0975 85.6661 93.0314 84.1122V84.1463C93.02 84.124 93.0095 84.1005 92.9972 84.0781V84.0711C92.8205 83.7326 92.6798 83.1014 92.9373 81.9813C93.4029 79.9573 93.6737 78.1203 93.6737 78.1203C93.6737 78.1203 94.7132 73.199 93.4637 70.8706H93.5188C93.3908 70.543 93.3003 70.1949 93.2499 69.8363C93.2436 69.794 93.2379 69.7505 93.2328 69.7059C94.1574 69.64 95.0648 69.4332 95.805 68.9865C95.8022 68.9818 95.3565 57.3035 94.9878 55.4441ZM83.2501 47.2988V47.3223L83.0601 47.3341L83.2501 47.2988ZM82.5983 47.4105C82.5671 47.4191 82.5378 47.4363 82.5128 47.461C82.4311 47.604 82.3798 47.7701 82.3636 47.9441L82.0671 47.8618C82.0671 47.8618 81.8591 47.8066 81.5597 47.7443L81.4182 47.568C81.8077 47.528 82.2125 47.4693 82.5983 47.4105Z" fill="url(#paint1_linear)"/>
<path d="M92.4071 87.3914L92.2941 89.0569L92.6732 88.9629L92.6162 87.1564L92.4071 87.3914Z" fill="#1D2366"/>
<path d="M83.7575 79.4836C83.3005 81.0939 83.4297 83.2671 83.5324 84.3226C83.5704 84.7128 83.6055 84.9502 83.6055 84.9502C83.6055 84.9502 82.9223 86.8755 82.8653 86.9483C82.8083 87.0212 80.8547 88.4963 80.8547 88.4963L79.4893 89.4824C79.4893 89.4824 78.1039 88.7314 78.7681 88.4728C78.9038 88.4054 79.026 88.3023 79.1263 88.1707C79.7915 87.3891 80.6267 85.4462 80.6267 85.4462C80.6267 85.4462 80.6837 84.4601 80.8927 83.9911C81.1018 83.5222 81.0258 78.5939 81.0258 78.5939L81.0419 70.5603V69.5131L83.6407 69.5366C83.6571 69.8921 83.6945 70.2457 83.7528 70.5944C83.8461 71.1963 83.9669 71.7913 84.1148 72.3762C84.5728 74.2086 84.3828 77.2775 83.7575 79.4836Z" fill="#FFB0B1"/>
<path opacity="0.1" d="M83.6055 84.9502C83.6055 84.9502 82.9223 86.8755 82.8653 86.9483C82.8083 87.0212 80.8547 88.4963 80.8547 88.4963L79.4893 89.4824C79.4893 89.4824 78.1039 88.7314 78.7681 88.4728C78.9038 88.4054 79.026 88.3023 79.1263 88.1707L79.1852 88.6843L79.6404 88.6608L83.5362 84.325C83.5704 84.7128 83.6055 84.9502 83.6055 84.9502Z" fill="black"/>
<path d="M83.558 84.4342L79.6403 88.7995L79.1852 88.823L79.0902 88.0003C79.0902 88.0003 78.2939 89.2673 76.5246 89.1968C76.5246 89.1968 75.4623 90.0654 77.0368 90.1124C78.6113 90.1594 80.6219 90.0419 80.6219 90.0419C80.6219 90.0419 82.0263 87.3385 83.2016 87.6911V89.7327H83.5627V87.6723C83.7306 87.5325 83.8739 87.3522 83.9839 87.1421C84.094 86.932 84.1686 86.6966 84.2031 86.45C84.2344 86.1959 84.2123 85.9361 84.1389 85.6957C84.0655 85.4553 83.9433 85.2422 83.7841 85.0771C83.713 84.9947 83.6563 84.8951 83.6174 84.7845C83.5785 84.674 83.5583 84.5548 83.558 84.4342Z" fill="#1D2366"/>
<path d="M92.7681 81.9942C92.5154 83.1108 92.6532 83.7396 92.8261 84.0769V84.084C93.0479 84.5005 93.2021 84.9663 93.2803 85.4556L93.2955 85.5614L91.5129 88.776L90.5456 89.2462C90.5456 89.2462 88.9902 88.5891 89.2743 88.4011C89.3456 88.3552 89.4567 88.1108 89.584 87.7734C89.9641 86.7568 90.4886 84.8809 90.4886 84.8809V84.8656C90.5437 84.091 90.6312 83.3188 90.7281 82.5502C90.902 81.1668 90.5827 77.7711 90.5827 77.7711C90.5827 77.7711 90.4687 73.6421 90.2216 72.703C90.1101 72.2255 90.036 71.7359 90.0002 71.2409C89.9489 70.6532 89.9375 70.1689 89.9375 70.1689C89.9375 70.1689 90.9618 68.4059 92.8394 70.31C92.9895 70.4618 93.1217 70.6391 93.2318 70.8365C94.5288 73.1191 93.4846 78.1473 93.4846 78.1473C93.4846 78.1473 93.2233 79.9761 92.7681 81.9942Z" fill="#FFB0B1"/>
<path opacity="0.1" d="M93.2984 85.5614L91.5159 88.776L90.5486 89.2461C90.5486 89.2461 88.9931 88.5891 89.2772 88.4011C89.3485 88.3552 89.4597 88.1107 89.587 87.7734C90.2455 87.7664 90.5866 88.5421 90.5866 88.5421L91.4208 88.3775C91.4208 88.3775 92.5212 85.7024 92.7682 85.5391C93.0153 85.3757 92.8062 84.3179 92.8062 84.3179V84.0487C92.8129 84.0581 92.8186 84.0687 92.8262 84.0781V84.0851C93.048 84.5016 93.2022 84.9675 93.2803 85.4568L93.2984 85.5614Z" fill="black"/>
<path d="M90.6436 88.6114C90.6436 88.6114 90.1685 87.5324 89.2582 87.9309C89.2582 87.9309 88.7461 89.2238 88.2339 89.433C87.7218 89.6422 87.8928 90.3474 89.0501 90.09C90.2075 89.8326 91.952 89.6199 91.952 89.6199L92.028 88.3046L93.2044 86.4511C93.2044 86.4511 93.9056 85.6648 92.8623 84.1168V84.386C92.8623 84.386 93.0713 85.4438 92.8243 85.6072C92.5772 85.7706 91.4807 88.4469 91.4807 88.4469L90.6436 88.6114Z" fill="#1D2366"/>
<path opacity="0.1" d="M83.6435 69.5342C83.6599 69.8898 83.6974 70.2433 83.7556 70.5921C82.6857 70.3981 81.6928 70.4945 81.0419 70.558V69.5107L83.6435 69.5342Z" fill="black"/>
<path opacity="0.1" d="M93.3374 71.1291C93.3374 71.1291 91.8171 71.2208 90.0041 71.2396C89.9528 70.6519 89.9414 70.1677 89.9414 70.1677C89.9414 70.1677 90.9657 68.4047 92.8433 70.3087C92.9934 70.4606 93.1255 70.6379 93.2357 70.8353C93.2652 70.9355 93.2991 71.0336 93.3374 71.1291Z" fill="black"/>
<path d="M93.3373 70.9176C93.3373 70.9176 86.6784 71.3161 84.6487 70.6121C82.6191 69.908 80.6076 70.518 80.3045 70.3546C80.0014 70.1913 80.2475 67.6325 80.5135 66.999C80.7796 66.3655 82.2391 59.9586 82.2391 59.9586L83.6434 50.9013L85.1229 50.3971L85.2274 50.3606L87.8053 49.4815L89.6943 48.8362C89.6943 48.8362 93.4504 66.9755 93.1283 68.313C93.0113 68.8252 92.9924 69.3641 93.0731 69.8869C93.1224 70.2439 93.2113 70.5908 93.3373 70.9176Z" fill="#1D2366"/>
<path d="M78.7481 44.7072C78.7481 44.7072 77.4178 46.4702 78.425 47.4528C79.4322 48.4354 80.0945 47.5468 80.0945 47.5468L78.7481 44.7072Z" fill="#C7DAF5"/>
<path opacity="0.1" d="M78.7481 44.7072C78.7481 44.7072 77.4178 46.4702 78.425 47.4528C79.4322 48.4354 80.0945 47.5468 80.0945 47.5468L78.7481 44.7072Z" fill="black"/>
<path d="M89.4957 33.1157C89.4957 33.1157 89.3399 33.2991 89.1052 33.5694C88.7707 33.9561 88.2757 34.5215 87.8367 34.9951C87.2286 35.6498 86.7269 36.1305 86.9065 35.7203C87.086 35.3101 87.0518 34.5955 86.9625 33.9267C86.9559 33.8821 86.9502 33.8374 86.9435 33.7939C86.8696 33.3028 86.7715 32.8176 86.6499 32.3412C86.6499 32.3412 87.6324 30.7709 88.1759 30.1515C88.3783 29.9164 88.5199 29.82 88.5284 29.9834C88.5379 30.2032 88.671 30.6886 88.8363 31.2034C88.8411 31.2199 88.8458 31.2352 88.8515 31.2516C88.9617 31.6042 89.0862 31.9662 89.1955 32.2789C89.3627 32.7584 89.4957 33.1157 89.4957 33.1157Z" fill="#FFB0B1"/>
<path opacity="0.1" d="M88.8515 31.2516C88.7592 31.8659 88.5351 32.4382 88.2029 32.9088C87.8706 33.3794 87.4422 33.7309 86.9625 33.9267C86.887 33.3902 86.7825 32.8605 86.6499 32.3411C86.6499 32.3411 88.4999 29.3851 88.5284 29.9834C88.5351 30.2102 88.6795 30.7133 88.8515 31.2516Z" fill="black"/>
<path opacity="0.1" d="M86.7782 34.7166L87.0177 34.2993C87.0177 34.2993 87.1763 35.4958 87.7598 34.9681C88.3432 34.4404 88.3717 38.9396 88.3717 38.9396L87.7455 50.5204L83.2207 50.1855L83.349 44.5896L83.8611 41.7687L85.1277 37.6679L85.8812 36.3127L86.7782 34.7166Z" fill="black"/>
<path d="M88.3717 39.0113L87.8015 49.4826L87.7417 50.5921L85.2189 50.4052L85.1239 50.3982L83.2235 50.2571L83.3518 44.6601L83.8639 41.8392L85.1305 37.7384L85.884 36.3832L86.781 34.7812L87.0205 34.3651C87.0205 34.3651 87.1792 35.5616 87.7626 35.0339L87.7749 35.0233C88.3451 34.5767 88.3717 39.0113 88.3717 39.0113Z" fill="#1D2366"/>
<path d="M83.9276 40.859C83.9276 40.859 83.7005 41.4467 83.2444 41.3515C82.7883 41.2563 82.7893 43.4671 82.7893 43.4671C82.7893 43.4671 82.4862 43.8197 82.2771 43.5141C82.0681 43.2086 81.517 44.2417 81.517 44.2417L78.064 44.4298C78.064 44.4298 79.6004 45.2983 79.2992 47.9264C79.2992 47.9264 84.5158 47.5268 84.6868 46.9168C84.8578 46.3068 83.9276 40.859 83.9276 40.859Z" fill="white"/>
<path opacity="0.03" d="M83.9276 40.859C83.9276 40.859 83.7005 41.4467 83.2444 41.3515C82.7883 41.2563 82.7893 43.4671 82.7893 43.4671C82.7893 43.4671 82.4862 43.8197 82.2771 43.5141C82.0681 43.2086 81.517 44.2417 81.517 44.2417L78.064 44.4298C78.064 44.4298 79.6004 45.2983 79.2992 47.9264C79.2992 47.9264 84.5158 47.5268 84.6868 46.9168C84.8578 46.3068 83.9276 40.859 83.9276 40.859Z" fill="black"/>
<path d="M73.8926 45.8108L74.8029 46.7722L82.2961 48.7198L81.3668 47.5468L73.8926 45.8108Z" fill="white"/>
<path d="M86.7924 35.0868C86.668 35.3218 86.3116 36.5254 86.0142 37.5762C85.7662 38.4518 85.5591 39.2217 85.5591 39.2217C85.5591 39.2217 85.0754 43.1168 84.8284 43.8208C84.5813 44.5249 84.7153 47.2705 84.7153 47.2705L83.7946 54.0512C83.7946 54.0512 83.3774 57.5479 82.7332 59.6365C82.0975 61.6922 81.3897 62.656 81.3678 62.6865C81.6529 62.2093 83.2064 52.8135 83.2064 52.8135L83.7195 40.9635C83.7195 40.9635 83.7946 39.8376 83.8706 38.8749C83.9466 37.9123 85.4859 36.5983 85.4859 36.5983L86.9701 33.9878C87.1193 34.2346 87.0195 34.6648 86.7924 35.0868Z" fill="white"/>
<path d="M82.9223 50.3159C82.9223 50.3159 80.7368 50.1984 79.6783 48.6257C78.6198 47.0531 82.125 47.9981 82.125 47.9981L83.0363 48.2567L82.9223 50.3159Z" fill="#FFB0B1"/>
<path opacity="0.1" d="M93.1283 68.3142C93.0113 68.8264 92.9924 69.3652 93.0732 69.888C90.6891 70.0972 88.1388 69.3003 88.1388 69.3003C87.6637 69.841 86.4123 70.6379 86.4123 70.6379L85.7301 60.1772C85.294 58.7668 85.1229 51.3773 85.1229 51.3773C85.1229 51.3773 85.1619 50.9906 85.2179 50.4111C85.2179 50.397 85.2179 50.3818 85.2227 50.3677C85.3928 48.7492 85.7301 45.7109 85.8954 45.3007C86.1235 44.7365 85.1942 43.2356 85.1942 43.2356L85.617 38.7751L85.6683 38.2368C86.5596 37.7443 87.2428 36.1717 87.2428 36.1717L87.7673 35.0351C88.3374 34.5826 88.3669 39.0172 88.3669 39.0172L87.7968 49.4885L89.6857 48.8432C89.6857 48.8432 93.4504 66.9766 93.1283 68.3142Z" fill="black"/>
<path d="M95.575 69.037C92.9763 70.6332 88.2529 69.1546 88.2529 69.1546C87.7778 69.6952 86.5263 70.4921 86.5263 70.4921L85.8432 60.0314C85.408 58.621 85.2369 51.2315 85.2369 51.2315C85.2369 51.2315 85.7861 45.7179 86.0142 45.1549C86.0807 44.9904 86.0484 44.7459 85.9695 44.4826C85.5818 43.2295 85.4392 41.8807 85.5534 40.5463L85.7358 38.6293L85.7862 38.0922C86.6784 37.5985 87.3616 36.0259 87.3616 36.0259L87.8367 34.9963L88.7108 33.0993L89.1251 32.2013L89.1954 32.28L89.7323 32.8818C89.7323 32.8818 89.9603 33.1169 90.3024 33.4695C91.0464 34.2452 92.332 35.611 92.9953 36.4467C93.5787 37.1825 93.763 40.0445 93.8162 42.1989C93.8514 43.6176 93.8305 44.7294 93.8305 44.7294C93.2423 45.9271 94.7807 55.5427 94.7807 55.5427C95.1389 57.401 95.575 69.037 95.575 69.037Z" fill="white"/>
<path opacity="0.03" d="M90.5865 36.0025C90.5865 36.0025 88.803 40.202 89.0101 41.7981C89.2173 43.3943 89.8064 45.2008 89.5223 45.6228C89.4247 45.7826 89.2985 45.9124 89.1536 46.0019C89.0087 46.0914 88.849 46.1383 88.6871 46.1388C88.402 46.1623 87.6419 46.8193 87.6419 46.8898C87.6419 46.9603 86.9397 46.9603 86.3116 47.2894C85.6835 47.6185 84.7561 47.8054 84.7561 47.8054C84.7561 47.8054 82.9508 47.7349 82.7826 47.9465C82.6144 48.158 82.4415 49.4239 82.8016 50.4335C83.1617 51.4431 83.5618 52.1966 83.8639 52.3341C84.1661 52.4716 86.0836 51.677 87.639 51.489C89.1945 51.3009 90.883 49.7765 90.883 49.7765C90.883 49.7765 92.7425 48.9537 93.0684 47.5703C93.3943 46.1869 92.6703 38.5835 92.6703 38.5835C92.6703 38.5835 92.123 35.0398 90.5865 36.0025Z" fill="black"/>
<path opacity="0.03" d="M90.3586 35.6498C90.3586 35.6498 88.575 39.8506 88.7841 41.4455C88.9931 43.0405 89.5803 44.8482 89.2953 45.2713C89.198 45.4313 89.072 45.5613 88.9273 45.6508C88.7825 45.7403 88.6229 45.7871 88.461 45.7873C88.176 45.8108 87.4158 46.4678 87.4158 46.5383C87.4158 46.6089 86.7136 46.6089 86.0855 46.9368C85.4575 47.2647 84.5301 47.4528 84.5301 47.4528C84.5301 47.4528 82.7247 47.3823 82.5575 47.5938C82.3902 47.8054 82.2154 49.0724 82.5765 50.0809C82.9375 51.0893 83.3366 51.8439 83.6388 51.9814C83.9409 52.119 85.8584 51.3244 87.4139 51.1375C88.9694 50.9506 90.6579 49.4239 90.6579 49.4239C90.6579 49.4239 92.5164 48.6011 92.8386 47.2189C93.1607 45.8367 92.4404 38.2309 92.4404 38.2309C92.4404 38.2309 91.895 34.6884 90.3586 35.6498Z" fill="black"/>
<path d="M90.5305 35.7909C90.5305 35.7909 88.747 39.9916 88.9561 41.5866C89.1651 43.1815 89.7523 44.9892 89.4682 45.4112C89.371 45.5716 89.2449 45.7018 89.0999 45.7916C88.955 45.8813 88.7951 45.9281 88.633 45.9283C88.348 45.9518 87.5878 46.6089 87.5878 46.6782C87.5878 46.7475 86.8866 46.7487 86.2575 47.0778C85.6285 47.4069 84.7021 47.5938 84.7021 47.5938C84.7021 47.5938 82.8967 47.5233 82.7285 47.7348C82.5603 47.9464 82.3874 49.2135 82.7475 50.2219C83.1076 51.2304 83.5077 51.9849 83.8098 52.1225C84.112 52.26 86.0295 51.4654 87.5849 51.2774C89.1404 51.0893 90.8289 49.5649 90.8289 49.5649C90.8289 49.5649 92.6884 48.7421 93.0143 47.3587C93.3403 45.9753 92.621 38.3719 92.621 38.3719C92.621 38.3719 92.0661 34.8341 90.5305 35.7909Z" fill="white"/>
<path opacity="0.1" d="M90.4915 47.0578C90.4915 47.0578 89.0662 46.7052 89.5622 47.2929C90.0582 47.8805 90.0554 48.3953 90.6626 48.3718C91.2697 48.3483 90.4915 47.0578 90.4915 47.0578Z" fill="black"/>
<path opacity="0.1" d="M92.9002 59.7024C92.9002 59.7024 92.256 60.2419 93.4884 61.4854C94.7208 62.7289 92.9002 59.7024 92.9002 59.7024Z" fill="black"/>
<path opacity="0.1" d="M91.6707 64.137C91.6707 64.2075 91.4427 66.7227 92.296 67.3515C93.1492 67.9804 91.6707 64.137 91.6707 64.137Z" fill="black"/>
<path d="M78.1229 44.4238C77.435 44.4532 75.9489 44.713 76.7195 46.4913C77.4007 48.0651 78.5457 47.0131 79.19 46.2151C79.0328 45.471 78.6509 44.8299 78.1229 44.4238Z" fill="#FFB0B1"/>
<path d="M79.1985 46.2024L79.2273 46.1646L79.1985 46.2024Z" fill="#FFB0B1"/>
<path opacity="0.1" d="M90.3025 33.5412C89.5727 34.1583 88.9608 34.6789 88.8411 34.7871C88.5142 35.0868 87.8909 36.8463 87.4889 37.7443C87.1687 38.4671 86.1283 38.6528 85.7358 38.6987L85.7862 38.1615C86.6784 37.6679 87.3616 36.0952 87.3616 36.0952L89.1252 32.2706L89.7324 32.9535C89.7324 32.9535 89.9604 33.1886 90.3025 33.5412Z" fill="black"/>
<path d="M90.3025 33.4706C89.5727 34.0877 88.9608 34.6084 88.8411 34.7177C88.5142 35.0162 87.8909 36.7757 87.4889 37.6737C87.1687 38.3966 86.1283 38.5823 85.7358 38.6281L85.7862 38.091C86.6784 37.5973 87.3616 36.0247 87.3616 36.0247L89.1252 32.2001L89.7324 32.8806C89.7324 32.8806 89.9604 33.1133 90.3025 33.4706Z" fill="#DCE7FF"/>
<path d="M88.898 30.4759C88.8984 31.1814 88.7254 31.8705 88.402 32.4516C88.02 33.1388 87.4516 33.6338 86.7998 33.8469C86.148 34.0599 85.4561 33.9769 84.8495 33.6129C84.243 33.2489 83.762 32.628 83.4939 31.8629C83.2258 31.0977 83.1883 30.239 83.3883 29.4426C83.5882 28.6462 84.0123 27.9649 84.5836 27.5222C85.1549 27.0795 85.8356 26.9048 86.5022 27.0297C87.1687 27.1547 87.777 27.5712 88.2165 28.2034C88.6561 28.8357 88.8979 29.6419 88.898 30.4759Z" fill="#FFB0B1"/>
<path opacity="0.1" d="M93.8163 42.2001C93.4304 41.9065 93.1161 41.4889 92.9069 40.9918C92.7483 40.604 92.6428 40.1561 92.372 39.8811C92.1278 39.6343 91.8019 39.5743 91.4978 39.4639C90.4982 39.0983 89.6601 37.97 89.6288 36.6818C89.6136 36.0753 89.7665 35.47 89.6972 34.8694C89.6577 34.5295 89.5485 34.2077 89.3798 33.935C89.2961 33.8045 89.2043 33.6823 89.1052 33.5694C88.9722 33.4143 88.8325 33.2638 88.7109 33.0993C88.6343 32.9974 88.5673 32.885 88.5113 32.7643C88.4662 32.6655 88.4295 32.5611 88.4021 32.4528C88.212 31.7335 88.385 30.8802 88.1759 30.1527L88.1645 30.1127C88.0857 29.8541 87.9251 29.5955 87.7018 29.5756C87.4785 29.5556 87.2875 29.7848 87.0746 29.887C86.629 30.1009 86.1482 29.7366 85.7767 29.3652C85.4052 28.9938 84.9861 28.5695 84.5139 28.6517C84.2013 28.707 83.9542 28.9702 83.6663 29.1066C83.6013 29.1377 83.5342 29.1617 83.4658 29.1783C83.7095 28.4267 84.1571 27.8035 84.7319 27.4157C85.3066 27.028 85.9726 26.9 86.6154 27.0537C87.2582 27.2074 87.8376 27.6331 88.2542 28.2579C88.6707 28.8826 88.8984 29.6673 88.8981 30.4771C88.8984 30.7216 88.8777 30.9655 88.8363 31.2046C88.8411 31.2211 88.8458 31.2363 88.8515 31.2528C88.9617 31.6054 89.0862 31.9674 89.1955 32.2801L89.7323 32.8818C89.7323 32.8818 89.9604 33.1169 90.3025 33.4695C91.0465 34.2453 92.3321 35.611 92.9953 36.4467C93.5787 37.1848 93.7612 40.0457 93.8163 42.2001Z" fill="black"/>
<path d="M83.633 26.9592C83.7689 26.6171 83.8364 26.234 83.9989 25.9096C84.2374 25.4394 84.6536 25.1385 85.0811 24.9563C86.1976 24.4803 88.5569 23.7892 89.262 24.9563C89.4007 25.1914 89.5157 25.4523 89.7076 25.6145C89.8539 25.738 90.0307 25.7909 90.1913 25.8837C90.6407 26.1446 90.9277 26.7135 91.0806 27.2941C91.2336 27.8748 91.2792 28.4977 91.3914 29.096C91.5348 29.8635 91.7866 30.591 92.0375 31.3139C92.333 32.1672 92.6466 33.0522 93.2167 33.6552C93.9949 34.4779 94.1669 35.6427 94.889 36.5454C95.7442 37.6173 95.7166 39.3862 95.2757 40.7908C95.2178 40.9753 95.1522 41.1681 95.175 41.3644C95.1978 41.5606 95.3156 41.7393 95.4268 41.8956L95.8943 42.5479C94.7883 42.8782 93.5369 42.1636 93.0219 40.9095C92.8632 40.5216 92.7577 40.075 92.486 39.7988C92.2427 39.5519 91.9159 39.4932 91.6127 39.3827C90.6131 39.016 89.7751 37.8865 89.7437 36.5983C89.7285 35.993 89.8815 35.3877 89.8121 34.7882C89.7735 34.446 89.6639 34.122 89.4938 33.8479C89.2325 33.426 88.8382 33.1427 88.6253 32.6726C88.2652 31.8863 88.5389 30.8649 88.2795 30.021C88.1997 29.7624 88.04 29.5038 87.8167 29.4838C87.5934 29.4638 87.4025 29.693 87.1887 29.7953C86.744 30.0092 86.2632 29.646 85.8916 29.2734C85.5201 28.9009 85.1011 28.4777 84.6279 28.5612C84.3153 28.6152 84.0692 28.8785 83.7813 29.016C83.5684 29.1171 83.137 29.2076 82.9508 28.9855C82.5574 28.5377 83.4687 27.3776 83.633 26.9592Z" fill="#591D4B"/>
<path opacity="0.1" d="M93.286 40.5216C93.1264 40.1338 93.0219 39.6871 92.7501 39.4121C92.5069 39.1653 92.18 39.1053 91.8759 38.9948C90.8773 38.6293 90.0392 37.4998 90.0069 36.2116C89.9917 35.6063 90.1447 34.9998 90.0763 34.4004C90.0365 34.0604 89.9269 33.7387 89.758 33.466C89.4957 33.044 89.1014 32.7607 88.8895 32.2906C88.5294 31.5055 88.803 30.4841 88.5427 29.639C88.4638 29.3816 88.3032 29.123 88.0809 29.1019C87.8585 29.0807 87.6656 29.3123 87.4528 29.4145C87.0081 29.6284 86.5264 29.2641 86.1558 28.8926C85.7852 28.5212 85.3643 28.0969 84.892 28.1792C84.5794 28.2344 84.3324 28.4977 84.0454 28.6341C83.8326 28.7351 83.4002 28.8268 83.214 28.6047C82.8225 28.1345 83.7337 26.9768 83.8972 26.5607C84.0331 26.2175 84.1005 25.8355 84.264 25.5111C84.2725 25.4935 84.282 25.4759 84.2915 25.4583C84.1693 25.5835 84.0638 25.7319 83.9789 25.8978C83.8164 26.2222 83.7489 26.603 83.6131 26.9474C83.4487 27.3635 82.5375 28.5248 82.9299 28.9914C83.1199 29.2147 83.5475 29.123 83.7603 29.0219C84.0454 28.8844 84.2944 28.6211 84.607 28.5671C85.0821 28.4836 85.5002 28.9079 85.8707 29.2793C86.2413 29.6508 86.7259 30.0151 87.1687 29.8012C87.3815 29.6989 87.5678 29.4686 87.7958 29.4897C88.0239 29.5109 88.1759 29.7683 88.2586 30.0269C88.518 30.8708 88.2443 31.8922 88.6044 32.6785C88.8173 33.1404 89.2116 33.4295 89.4729 33.8538C89.6429 34.1279 89.7526 34.4519 89.7912 34.7941C89.8606 35.3935 89.7076 35.9989 89.7228 36.6042C89.7542 37.8971 90.5922 39.0219 91.5918 39.3886C91.893 39.4991 92.2218 39.5578 92.4651 39.8047C92.7378 40.0809 92.8451 40.5275 93.001 40.9154C93.516 42.1695 94.7674 42.8841 95.8734 42.5538L95.653 42.2459C94.6942 42.2635 93.7241 41.5889 93.286 40.5216Z" fill="black"/>
<path opacity="0.1" d="M86.7354 35.1573C86.6109 35.3924 86.2546 36.596 85.9572 37.6467C85.6788 37.5128 85.426 36.6583 85.426 36.6583L86.9102 34.0466C87.0622 34.3052 86.9625 34.7342 86.7354 35.1573Z" fill="black"/>
<path d="M86.7924 35.0868C86.6679 35.3219 86.3116 36.5255 86.0142 37.5762C85.7358 37.4434 85.483 36.5878 85.483 36.5878L86.9672 33.9773C87.1192 34.2347 87.0195 34.6649 86.7924 35.0868Z" fill="#DCE7FF"/>
<path d="M78.1628 47.0943L77.3399 43.8844C77.3302 43.8468 77.3266 43.8072 77.3292 43.7679C77.3319 43.7285 77.3408 43.6903 77.3554 43.6552C77.3701 43.6201 77.3902 43.589 77.4146 43.5636C77.439 43.5382 77.4672 43.519 77.4977 43.5071C77.5589 43.4834 77.6252 43.4907 77.6822 43.5272C77.7391 43.5637 77.7821 43.6266 77.8017 43.7022L78.6246 46.9086L78.5429 47.5797L78.1628 47.0943Z" fill="#BE8B87"/>
<path opacity="0.1" d="M77.4178 43.6022C77.4792 43.5782 77.5457 43.5853 77.6029 43.6218C77.6601 43.6584 77.7032 43.7215 77.7228 43.7973L78.5457 47.0037L78.4839 47.5068L78.5438 47.5843L78.6255 46.9132L77.7979 43.7068C77.7782 43.6313 77.7353 43.5684 77.6783 43.5318C77.6214 43.4953 77.555 43.4881 77.4938 43.5117C77.4423 43.5324 77.3978 43.5738 77.3674 43.6293C77.3836 43.6185 77.4004 43.6095 77.4178 43.6022Z" fill="white"/>
<path d="M78.1628 47.0942L78.6246 46.9132L78.5572 47.4633L78.5429 47.5843L78.408 47.4104L78.1628 47.0942Z" fill="#EFC8C4"/>
<path d="M78.408 47.4104C78.416 47.3978 78.426 47.3874 78.4374 47.3798C78.4441 47.3746 78.4518 47.3718 78.4597 47.3718C78.4677 47.3718 78.4754 47.3746 78.4821 47.3798C78.4885 47.3895 78.494 47.4002 78.4982 47.4116C78.5045 47.4245 78.5131 47.4356 78.5233 47.4439C78.5335 47.4523 78.545 47.4577 78.5571 47.4597L78.5429 47.5773L78.408 47.4104Z" fill="#727A9C"/>
<path d="M77.3352 45.0244C77.3352 45.0244 78.9857 45.0127 78.597 45.8812C78.2084 46.7498 77.6013 46.8544 77.6013 46.8544L77.3352 45.0244Z" fill="#FFB0B1"/>
<path d="M67.0703 6.0437H66.999C64.1636 6.0437 61.6561 7.89959 60.2137 10.6382C58.7713 7.89959 56.2637 6.0437 53.4284 6.0437H53.3571C51.2292 6.06878 49.1953 7.13161 47.6974 9.00122C46.1995 10.8708 45.3586 13.3961 45.3574 16.0284C45.3574 19.297 46.5148 23.935 48.7715 27.7514C53.0711 35.0233 60.2137 41.3856 60.2137 41.3856C60.2137 41.3856 67.3563 35.0245 71.6549 27.7514C73.9126 23.935 75.069 19.297 75.069 16.0284C75.0678 13.3963 74.227 10.8712 72.7293 9.00164C71.2316 7.13206 69.198 6.06909 67.0703 6.0437ZM66.0507 28.3109C65.7278 28.3093 65.4128 28.1871 65.1471 27.9601C64.8813 27.7332 64.6773 27.4121 64.5617 27.0391H62.8666C62.755 27.0383 62.6464 26.9943 62.5559 26.9134C62.4654 26.8325 62.3977 26.7187 62.3621 26.5878L61.8413 24.6473L60.1937 31.7688C60.1616 31.9059 60.0945 32.0264 60.0023 32.1122C59.9101 32.1981 59.7979 32.2446 59.6825 32.2448H59.6493C59.5289 32.2376 59.4141 32.1795 59.3242 32.0803C59.2343 31.981 59.1746 31.8466 59.1552 31.6994L57.4572 19.0667L56.2162 26.542C56.1878 26.684 56.1217 26.8101 56.0285 26.9002C55.9353 26.9903 55.8204 27.0392 55.7022 27.0391H53.3143C53.2427 27.0429 53.1713 27.0287 53.1043 26.9974C53.0372 26.9661 52.976 26.9183 52.9243 26.857C52.8726 26.7957 52.8314 26.722 52.8033 26.6405C52.7752 26.559 52.7607 26.4713 52.7607 26.3827C52.7607 26.2941 52.7752 26.2064 52.8033 26.1249C52.8314 26.0433 52.8726 25.9697 52.9243 25.9084C52.976 25.8471 53.0372 25.7993 53.1043 25.768C53.1713 25.7367 53.2427 25.7225 53.3143 25.7263H55.2841L57.0419 15.6758C57.0708 15.5272 57.1405 15.3956 57.2391 15.3035C57.3377 15.2114 57.4591 15.1646 57.5825 15.171C57.7059 15.1774 57.8238 15.2366 57.9158 15.3385C58.0078 15.4405 58.0684 15.5788 58.0871 15.7298L59.8212 28.6165L61.2978 22.2448C61.3286 22.1107 61.3936 21.9924 61.4832 21.9076C61.5727 21.8229 61.682 21.7763 61.7948 21.7747H61.8052C61.9169 21.7747 62.0257 21.8184 62.1162 21.8994C62.2066 21.9805 62.274 22.0948 62.3088 22.226L63.2505 25.7298H64.5408C64.6326 25.385 64.7996 25.0783 65.0233 24.8435C65.2471 24.6087 65.519 24.4549 65.8089 24.3991C66.0989 24.3434 66.3956 24.3878 66.6665 24.5275C66.9373 24.6672 67.1717 24.8968 67.3437 25.1908C67.5157 25.4849 67.6187 25.832 67.6413 26.1939C67.6639 26.5558 67.6053 26.9184 67.4718 27.2416C67.3383 27.5649 67.1353 27.8363 66.885 28.0258C66.6347 28.2153 66.347 28.3156 66.0536 28.3156L66.0507 28.3109Z" fill="#6C63FF"/>
</g>
<path d="M124.813 14.4453C126.075 14.4453 127.401 14.4901 128.793 14.5796C130.185 14.6691 131.649 14.8441 133.188 15.1045V18.2051C132.642 18.0505 132.02 17.904 131.32 17.7656C130.718 17.6517 129.993 17.5418 129.147 17.436C128.301 17.3302 127.344 17.2611 126.278 17.2285V33.0244H123.373V17.2285C122.307 17.2611 121.351 17.3302 120.504 17.436C119.658 17.5418 118.934 17.6517 118.332 17.7656C117.632 17.904 117.009 18.0505 116.464 18.2051V15.1045C117.986 14.8441 119.451 14.6691 120.858 14.5796C122.266 14.4901 123.585 14.4453 124.813 14.4453ZM141.024 22.2822H149.228V14.6162C149.927 14.6406 150.587 14.6813 151.205 14.7383C151.824 14.7952 152.373 14.8563 152.853 14.9214C153.406 14.9946 153.923 15.0719 154.403 15.1533V18.2783C154.086 18.1807 153.736 18.0911 153.354 18.0098C152.971 17.9202 152.572 17.8389 152.157 17.7656V29.8506C153.052 29.7041 153.801 29.5332 154.403 29.3379V32.4385C153.817 32.5361 153.28 32.6175 152.792 32.6826C152.304 32.7477 151.852 32.8006 151.437 32.8413C151.022 32.882 150.631 32.9146 150.265 32.939C149.907 32.9634 149.561 32.9837 149.228 33V25.2363H141.024V33C140.691 32.9837 140.341 32.9634 139.975 32.939C139.617 32.9146 139.23 32.882 138.815 32.8413C138.4 32.8006 137.948 32.7477 137.46 32.6826C136.972 32.6175 136.435 32.5361 135.849 32.4385V29.3379C136.166 29.4355 136.508 29.5291 136.874 29.6187C137.248 29.7 137.655 29.7773 138.095 29.8506V17.7656C137.248 17.9121 136.5 18.083 135.849 18.2783V15.1533C136.312 15.0719 136.825 14.9946 137.387 14.9214C137.859 14.8563 138.408 14.7952 139.035 14.7383C139.661 14.6813 140.325 14.6406 141.024 14.6162V22.2822ZM167.05 14.4209C168.303 14.4209 169.63 14.4657 171.029 14.5552C172.437 14.6447 173.902 14.8197 175.424 15.0801V18.1807C174.74 17.9854 174.049 17.8267 173.349 17.7046C172.649 17.5744 171.945 17.4727 171.237 17.3994C170.537 17.3262 169.837 17.2733 169.137 17.2407C168.437 17.2082 167.742 17.1878 167.05 17.1797C166.716 17.1797 166.346 17.1878 165.939 17.2041C165.54 17.2122 165.113 17.2285 164.657 17.2529C164.21 17.2773 163.738 17.314 163.241 17.3628C162.745 17.4116 162.24 17.4727 161.728 17.5459V21.9893H172.396V24.9922H161.728V29.8994C162.517 30.0133 163.339 30.0988 164.193 30.1558C165.048 30.2127 166 30.2412 167.05 30.2412C168.466 30.2412 169.874 30.172 171.273 30.0337C172.673 29.8953 174.057 29.6309 175.424 29.2402V32.3408C173.902 32.6012 172.441 32.7762 171.042 32.8657C169.642 32.9552 168.327 33 167.099 33C165.845 33 164.515 32.9552 163.107 32.8657C161.707 32.7762 160.238 32.6012 158.7 32.3408V15.0801C160.238 14.8197 161.707 14.6447 163.107 14.5552C164.507 14.4657 165.821 14.4209 167.05 14.4209ZM126.181 45.0791C127.41 45.0791 128.573 45.189 129.672 45.4087C130.771 45.6203 131.727 45.9214 132.541 46.312C133.362 46.7026 134.014 47.1706 134.494 47.7158C134.974 48.2529 135.214 48.847 135.214 49.498V51.6465H131.991V50.4502C131.991 50.1003 131.857 49.7666 131.588 49.4492C131.32 49.1237 130.933 48.8429 130.429 48.6069C129.932 48.3628 129.326 48.1715 128.61 48.0332C127.894 47.8867 127.084 47.8135 126.181 47.8135C125.31 47.8135 124.516 47.8826 123.8 48.021C123.084 48.1512 122.47 48.3343 121.957 48.5703C121.444 48.8063 121.046 49.0871 120.761 49.4126C120.484 49.73 120.346 50.0758 120.346 50.4502V59.0684C120.346 59.4264 120.484 59.7642 120.761 60.0815C121.046 60.3989 121.444 60.6756 121.957 60.9116C122.47 61.1395 123.084 61.3226 123.8 61.4609C124.516 61.5911 125.31 61.6562 126.181 61.6562C127.084 61.6562 127.894 61.5871 128.61 61.4487C129.326 61.3022 129.932 61.111 130.429 60.875C130.933 60.639 131.32 60.3664 131.588 60.0571C131.857 59.7397 131.991 59.4102 131.991 59.0684V57.8477H135.214V59.9961C135.214 60.4274 135.104 60.8384 134.884 61.229C134.665 61.6115 134.355 61.9655 133.957 62.291C133.566 62.6165 133.094 62.9095 132.541 63.1699C131.995 63.4222 131.385 63.6419 130.709 63.8291C130.042 64.0081 129.326 64.1465 128.561 64.2441C127.796 64.3418 127.003 64.3906 126.181 64.3906C125.359 64.3906 124.565 64.3418 123.8 64.2441C123.035 64.1465 122.315 64.0081 121.64 63.8291C120.972 63.6419 120.362 63.4222 119.809 63.1699C119.263 62.9095 118.791 62.6165 118.393 62.291C118.002 61.9655 117.697 61.6115 117.477 61.229C117.257 60.8384 117.147 60.4274 117.147 59.9961V49.498C117.147 49.0667 117.257 48.6558 117.477 48.2651C117.697 47.8745 118.002 47.5164 118.393 47.1909C118.791 46.8654 119.263 46.5724 119.809 46.312C120.362 46.0516 120.972 45.8319 121.64 45.6528C122.315 45.4657 123.035 45.3232 123.8 45.2256C124.565 45.1279 125.359 45.0791 126.181 45.0791ZM145.102 45.3477C145.915 45.3477 146.745 45.3883 147.592 45.4697C148.446 45.543 149.276 45.6772 150.082 45.8726C150.888 46.0597 151.645 46.3242 152.353 46.666C153.061 46.9997 153.679 47.4269 154.208 47.9478C154.745 48.4604 155.168 49.0789 155.478 49.8032C155.787 50.5194 155.941 51.3617 155.941 52.3301C155.941 53.6647 155.701 54.7918 155.221 55.7114C154.741 56.6229 154.086 57.3594 153.256 57.9209C153.606 58.458 153.907 59.0195 154.159 59.6055C154.411 60.1914 154.615 60.7611 154.77 61.3145C154.932 61.8597 155.05 62.3683 155.124 62.8403C155.197 63.3123 155.233 63.707 155.233 64.0244H152.108C152.108 63.528 152.068 63.0601 151.986 62.6206C151.905 62.173 151.791 61.7498 151.645 61.3511C151.498 60.9442 151.327 60.5617 151.132 60.2036C150.945 59.8455 150.741 59.4997 150.521 59.166C149.748 59.3857 148.931 59.5444 148.068 59.6421C147.205 59.7316 146.306 59.7764 145.37 59.7764C144.809 59.7764 144.239 59.7601 143.661 59.7275C143.083 59.695 142.514 59.6543 141.952 59.6055V63.9756H138.925V46.0557C139.104 45.9987 139.389 45.9295 139.779 45.8481C140.178 45.7668 140.646 45.6895 141.183 45.6162C141.728 45.543 142.335 45.4819 143.002 45.4331C143.669 45.3761 144.369 45.3477 145.102 45.3477ZM145.98 48.0332C145.443 48.0332 144.931 48.0576 144.442 48.1064C143.954 48.1471 143.527 48.196 143.161 48.2529C142.721 48.318 142.318 48.3913 141.952 48.4727V56.8223C142.213 56.8792 142.501 56.9281 142.819 56.9688C143.087 57.0094 143.401 57.0461 143.759 57.0786C144.117 57.103 144.499 57.1152 144.906 57.1152C145.435 57.1152 145.993 57.103 146.579 57.0786C147.173 57.0461 147.759 56.9769 148.336 56.8711C148.922 56.7653 149.476 56.6107 149.997 56.4072C150.526 56.1956 150.989 55.9189 151.388 55.5771C151.795 55.2272 152.117 54.7959 152.353 54.2832C152.597 53.7705 152.719 53.152 152.719 52.4277C152.719 51.8255 152.621 51.2965 152.426 50.8408C152.23 50.3851 151.966 49.9945 151.632 49.6689C151.299 49.3434 150.908 49.0749 150.46 48.8633C150.021 48.6517 149.549 48.4849 149.044 48.3628C148.548 48.2407 148.035 48.1553 147.506 48.1064C146.986 48.0576 146.477 48.0332 145.98 48.0332ZM163.412 59.0195C163.412 59.3776 163.546 59.7113 163.815 60.0205C164.092 60.3298 164.478 60.6024 164.975 60.8384C165.479 61.0662 166.081 61.2493 166.781 61.3877C167.489 61.5179 168.279 61.583 169.149 61.583C170.036 61.583 170.834 61.5138 171.542 61.3755C172.25 61.229 172.848 61.0378 173.336 60.8018C173.833 60.5658 174.211 60.2931 174.472 59.9839C174.732 59.6746 174.862 59.3532 174.862 59.0195V45.6895C175.562 45.722 176.221 45.7708 176.84 45.8359C177.458 45.8929 178.008 45.9539 178.488 46.019C179.041 46.0923 179.558 46.1696 180.038 46.251V49.376C179.843 49.3109 179.562 49.2336 179.196 49.144C178.83 49.0464 178.427 48.9609 177.987 48.8877V59.9229C177.987 60.5658 177.751 61.1517 177.279 61.6807C176.815 62.2096 176.181 62.6654 175.375 63.0479C174.577 63.4222 173.642 63.7152 172.567 63.9268C171.493 64.1383 170.354 64.2441 169.149 64.2441C167.937 64.2441 166.793 64.1383 165.719 63.9268C164.645 63.7152 163.705 63.4222 162.899 63.0479C162.094 62.6654 161.455 62.2096 160.983 61.6807C160.519 61.1517 160.287 60.5658 160.287 59.9229V48.8877C159.848 48.9772 159.441 49.0667 159.066 49.1562C158.7 49.2376 158.424 49.3109 158.236 49.376V46.251C158.7 46.1696 159.213 46.0923 159.774 46.019C160.246 45.9539 160.796 45.8929 161.422 45.8359C162.049 45.7708 162.712 45.722 163.412 45.6895V59.0195ZM190.17 45.4453C191.431 45.4453 192.758 45.4901 194.149 45.5796C195.541 45.6691 197.006 45.8441 198.544 46.1045V49.2051C197.999 49.0505 197.376 48.904 196.676 48.7656C196.074 48.6517 195.35 48.5418 194.503 48.436C193.657 48.3302 192.701 48.2611 191.635 48.2285V64.0244H188.729V48.2285C187.663 48.2611 186.707 48.3302 185.861 48.436C185.014 48.5418 184.29 48.6517 183.688 48.7656C182.988 48.904 182.366 49.0505 181.82 49.2051V46.1045C183.342 45.8441 184.807 45.6691 186.215 45.5796C187.623 45.4901 188.941 45.4453 190.17 45.4453ZM209.188 45.0791C210.417 45.0791 211.581 45.189 212.68 45.4087C213.778 45.6203 214.735 45.9214 215.548 46.312C216.37 46.7026 217.021 47.1706 217.501 47.7158C217.982 48.2529 218.222 48.847 218.222 49.498V51.6465H214.999V50.4502C214.999 50.1003 214.865 49.7666 214.596 49.4492C214.328 49.1237 213.941 48.8429 213.437 48.6069C212.94 48.3628 212.334 48.1715 211.618 48.0332C210.902 47.8867 210.092 47.8135 209.188 47.8135C208.318 47.8135 207.524 47.8826 206.808 48.021C206.092 48.1512 205.478 48.3343 204.965 48.5703C204.452 48.8063 204.053 49.0871 203.769 49.4126C203.492 49.73 203.354 50.0758 203.354 50.4502V59.0684C203.354 59.4264 203.492 59.7642 203.769 60.0815C204.053 60.3989 204.452 60.6756 204.965 60.9116C205.478 61.1395 206.092 61.3226 206.808 61.4609C207.524 61.5911 208.318 61.6562 209.188 61.6562C210.092 61.6562 210.902 61.5871 211.618 61.4487C212.334 61.3022 212.94 61.111 213.437 60.875C213.941 60.639 214.328 60.3664 214.596 60.0571C214.865 59.7397 214.999 59.4102 214.999 59.0684V57.8477H218.222V59.9961C218.222 60.4274 218.112 60.8384 217.892 61.229C217.672 61.6115 217.363 61.9655 216.964 62.291C216.574 62.6165 216.102 62.9095 215.548 63.1699C215.003 63.4222 214.393 63.6419 213.717 63.8291C213.05 64.0081 212.334 64.1465 211.569 64.2441C210.804 64.3418 210.01 64.3906 209.188 64.3906C208.367 64.3906 207.573 64.3418 206.808 64.2441C206.043 64.1465 205.323 64.0081 204.647 63.8291C203.98 63.6419 203.37 63.4222 202.816 63.1699C202.271 62.9095 201.799 62.6165 201.4 62.291C201.01 61.9655 200.705 61.6115 200.485 61.229C200.265 60.8384 200.155 60.4274 200.155 59.9961V49.498C200.155 49.0667 200.265 48.6558 200.485 48.2651C200.705 47.8745 201.01 47.5164 201.4 47.1909C201.799 46.8654 202.271 46.5724 202.816 46.312C203.37 46.0516 203.98 45.8319 204.647 45.6528C205.323 45.4657 206.043 45.3232 206.808 45.2256C207.573 45.1279 208.367 45.0791 209.188 45.0791ZM226.718 53.2822H234.921V45.6162C235.621 45.6406 236.28 45.6813 236.898 45.7383C237.517 45.7952 238.066 45.8563 238.546 45.9214C239.1 45.9946 239.617 46.0719 240.097 46.1533V49.2783C239.779 49.1807 239.429 49.0911 239.047 49.0098C238.664 48.9202 238.266 48.8389 237.851 48.7656V60.8506C238.746 60.7041 239.494 60.5332 240.097 60.3379V63.4385C239.511 63.5361 238.974 63.6175 238.485 63.6826C237.997 63.7477 237.545 63.8006 237.13 63.8413C236.715 63.882 236.325 63.9146 235.958 63.939C235.6 63.9634 235.255 63.9837 234.921 64V56.2363H226.718V64C226.384 63.9837 226.034 63.9634 225.668 63.939C225.31 63.9146 224.923 63.882 224.508 63.8413C224.093 63.8006 223.642 63.7477 223.153 63.6826C222.665 63.6175 222.128 63.5361 221.542 63.4385V60.3379C221.859 60.4355 222.201 60.5291 222.567 60.6187C222.942 60.7 223.349 60.7773 223.788 60.8506V48.7656C222.942 48.9121 222.193 49.083 221.542 49.2783V46.1533C222.006 46.0719 222.519 45.9946 223.08 45.9214C223.552 45.8563 224.101 45.7952 224.728 45.7383C225.355 45.6813 226.018 45.6406 226.718 45.6162V53.2822Z" fill="#F2F2F2"/>
<defs>
<linearGradient id="paint0_linear" x1="33.8582" y1="91.075" x2="33.8582" y2="18.7505" gradientUnits="userSpaceOnUse">
<stop stop-color="#808080" stop-opacity="0.25"/>
<stop offset="0.54" stop-color="#808080" stop-opacity="0.12"/>
<stop offset="1" stop-color="#808080" stop-opacity="0.1"/>
</linearGradient>
<linearGradient id="paint1_linear" x1="21209.7" y1="54569.8" x2="21209.7" y2="17445" gradientUnits="userSpaceOnUse">
<stop stop-color="#808080" stop-opacity="0.25"/>
<stop offset="0.54" stop-color="#808080" stop-opacity="0.12"/>
<stop offset="1" stop-color="#808080" stop-opacity="0.1"/>
</linearGradient>
<clipPath id="clip0">
<rect width="105" height="92" fill="white"/>
</clipPath>
</defs>
</svg>
