<svg width="504" height="474" viewBox="0 0 504 474" fill="none" xmlns="http://www.w3.org/2000/svg">
<path d="M458.5 233.5C458.5 332.755 365.464 414.5 249 414.5C132.536 414.5 39.5 332.755 39.5 233.5C39.5 134.245 132.536 52.5 249 52.5C365.464 52.5 458.5 134.245 458.5 233.5Z" stroke="#00FF3B" stroke-opacity="0.11" stroke-width="11"/>
<path d="M415.9 247.6V269.254C415.9 270.009 416.506 270.62 417.253 270.62H420.073C420.821 270.62 421.426 270.009 421.426 269.254V247.6H415.9Z" fill="#AA493F"/>
<path d="M484.67 247.6V269.254C484.67 270.009 485.277 270.62 486.024 270.62H488.844C489.591 270.62 490.196 270.009 490.196 269.254V247.6H484.67Z" fill="#AA493F"/>
<path d="M419.649 269.254V247.6H415.9V269.254C415.9 270.009 416.506 270.62 417.253 270.62H420.073C420.236 270.62 420.393 270.59 420.537 270.536C420.019 270.345 419.649 269.843 419.649 269.254Z" fill="#993B36"/>
<path d="M488.42 269.254V247.6H484.671V269.254C484.671 270.009 485.277 270.62 486.024 270.62H488.844C489.007 270.62 489.163 270.59 489.308 270.536C488.79 270.345 488.42 269.843 488.42 269.254Z" fill="#993B36"/>
<path d="M456.954 179.724C455.878 182.209 456.55 185.119 458.712 186.648C460.873 188.176 463.812 187.819 465.756 185.948L456.954 179.724Z" fill="#FEC13B"/>
<path d="M468.383 187.805C467.306 190.291 467.979 193.201 470.141 194.729C472.302 196.258 475.24 195.9 477.185 194.029L468.383 187.805Z" fill="#FEC13B"/>
<path d="M479.812 195.887C478.736 198.372 479.408 201.282 481.57 202.811C483.732 204.338 486.67 203.982 488.614 202.11L479.812 195.887Z" fill="#FEC13B"/>
<path d="M462.956 186.648C461.541 185.647 460.769 184.053 460.703 182.375L456.954 179.724C455.878 182.209 456.55 185.119 458.712 186.648C460.256 187.739 462.194 187.864 463.885 187.168C463.564 187.028 463.252 186.858 462.956 186.648Z" fill="#F9A332"/>
<path d="M474.385 194.729C472.97 193.728 472.198 192.134 472.132 190.456L468.383 187.805C467.306 190.291 467.979 193.201 470.141 194.729C471.685 195.821 473.623 195.946 475.314 195.249C474.993 195.11 474.681 194.938 474.385 194.729Z" fill="#F9A332"/>
<path d="M485.814 202.811C484.399 201.809 483.627 200.216 483.561 198.537L479.812 195.887C478.736 198.372 479.408 201.281 481.57 202.81C483.114 203.901 485.052 204.027 486.743 203.33C486.423 203.19 486.111 203.02 485.814 202.811Z" fill="#F9A332"/>
<path d="M499.829 234.77H406.268C404.769 234.77 403.542 236.009 403.542 237.522V240.274C403.542 241.788 404.769 243.025 406.268 243.025H499.829C501.328 243.025 502.554 241.788 502.554 240.274V237.522C502.554 236.009 501.328 234.77 499.829 234.77Z" fill="#B9E1FB"/>
<path d="M410.516 240.274V237.522C410.516 236.009 411.742 234.77 413.241 234.77H406.268C404.769 234.77 403.542 236.009 403.542 237.522V240.274C403.542 241.788 404.769 243.025 406.268 243.025H413.241C411.742 243.026 410.516 241.788 410.516 240.274Z" fill="#9AD3F6"/>
<path d="M431.248 232.018V229.267C431.248 227.754 430.021 226.515 428.523 226.515H406.268C404.769 226.515 403.542 227.754 403.542 229.267V232.018C403.542 233.532 404.769 234.77 406.268 234.77H428.523C430.021 234.77 431.248 233.532 431.248 232.018Z" fill="#9AD3F6"/>
<path d="M410.516 232.018V229.267C410.516 227.754 411.742 226.515 413.241 226.515H406.268C404.769 226.515 403.542 227.754 403.542 229.267V232.018C403.542 233.532 404.769 234.77 406.268 234.77H413.241C411.742 234.77 410.516 233.532 410.516 232.018Z" fill="#78CBF4"/>
<path d="M407.555 243.026V245.854C407.555 247.368 408.78 248.606 410.279 248.606H495.817C497.316 248.606 498.542 247.368 498.542 245.854V243.026H407.555Z" fill="#B7594A"/>
<path d="M414.527 245.854V243.026H407.555V245.854C407.555 247.368 408.78 248.606 410.279 248.606H417.253C415.754 248.606 414.527 247.368 414.527 245.854Z" fill="#AA493F"/>
<path d="M492.621 196.53C492.476 192.403 490.617 188.509 487.207 186.098L472.201 175.487C468.791 173.076 464.532 172.644 460.642 173.918L492.621 196.53Z" fill="#CCD7F2"/>
<path d="M468.976 175.691C468.295 175.209 468.269 174.328 468.699 173.77C466.097 172.975 463.284 173.052 460.642 173.918L492.622 196.53C492.563 194.847 492.213 193.205 491.596 191.684L468.976 175.691Z" fill="#BCCCED"/>
<path d="M443.261 211.684H407.944C405.517 211.684 403.542 209.69 403.542 207.24V183.647C403.542 181.196 405.517 179.203 407.944 179.203H443.261C445.688 179.203 447.662 181.196 447.662 183.647V207.24C447.662 209.691 445.688 211.684 443.261 211.684Z" fill="#DDE4F7"/>
<path d="M410.516 207.24V183.647C410.516 181.196 412.49 179.203 414.917 179.203H407.944C405.517 179.203 403.542 181.196 403.542 183.647V207.24C403.542 209.69 405.517 211.683 407.944 211.683H414.917C412.49 211.684 410.516 209.691 410.516 207.24Z" fill="#CCD7F2"/>
<path d="M441.652 184.689H409.552C409.234 184.689 408.976 184.95 408.976 185.272V205.615C408.976 205.937 409.234 206.198 409.552 206.198H441.652C441.971 206.198 442.228 205.937 442.228 205.615V185.272C442.228 184.95 441.971 184.689 441.652 184.689Z" fill="#63A1FC"/>
<path d="M415.949 205.615V185.272C415.949 184.95 416.207 184.689 416.526 184.689H409.552C409.234 184.689 408.976 184.95 408.976 185.272V205.615C408.976 205.937 409.234 206.198 409.552 206.198H416.526C416.207 206.198 415.949 205.937 415.949 205.615Z" fill="#4188FF"/>
<path d="M419.947 192.149C419.724 192.403 419.439 192.365 419.26 192.141C417.912 189.743 414.264 190.709 414.264 193.47C414.264 197.227 418.176 199.461 419.375 200.056C419.521 200.129 419.693 200.128 419.839 200.056C421.038 199.458 424.95 197.218 424.95 193.47C424.951 190.721 421.313 189.731 419.947 192.149Z" fill="#FF5155"/>
<path d="M419.769 192.439C419.769 192.386 419.772 192.336 419.775 192.285C419.591 192.373 419.395 192.31 419.26 192.141C417.913 189.743 414.264 190.709 414.264 193.47C414.264 197.227 418.176 199.461 419.375 200.056C419.521 200.129 419.693 200.128 419.839 200.055C420.458 199.747 421.798 199 422.951 197.836C421.454 196.715 419.769 194.905 419.769 192.439Z" fill="#F24049"/>
<path d="M493.56 202.578L494.75 200.863C495.609 199.623 495.308 197.898 494.08 197.03L459.812 172.799C458.584 171.932 456.875 172.236 456.016 173.475L454.827 175.19C453.967 176.43 454.268 178.155 455.496 179.023L489.765 203.254C490.993 204.121 492.701 203.817 493.56 202.578Z" fill="#DDE4F7"/>
<path d="M462.262 179.023C461.034 178.155 460.733 176.43 461.593 175.19L462.119 174.431L459.811 172.799C458.584 171.932 456.875 172.236 456.016 173.475L454.826 175.19C453.967 176.43 454.268 178.155 455.496 179.023L489.765 203.254C490.993 204.121 492.701 203.818 493.56 202.578L494.223 201.623L462.262 179.023Z" fill="#CCD7F2"/>
<path d="M462.382 205.859C463.058 206.337 463.99 206.171 464.463 205.489L467.641 200.904C468.115 200.221 467.951 199.281 467.275 198.803C466.598 198.325 465.667 198.491 465.194 199.174L462.015 203.758C461.542 204.44 461.706 205.381 462.382 205.859Z" fill="black"/>
<path d="M470.067 202.184L468.988 207.673C468.805 208.607 469.513 209.476 470.456 209.476C471.155 209.476 471.779 208.979 471.92 208.261L472.998 202.771C473.159 201.954 472.633 201.16 471.824 200.998C471.014 200.836 470.228 201.366 470.067 202.184Z" fill="black"/>
<path d="M463.676 195.237C463.249 194.524 462.33 194.297 461.624 194.728L456.885 197.63C456.179 198.062 455.954 198.99 456.381 199.703C456.81 200.415 457.729 200.642 458.434 200.21L463.173 197.31C463.879 196.878 464.104 195.95 463.676 195.237Z" fill="black"/>
<path d="M418.665 201.419C419.215 201.692 419.883 201.702 420.452 201.419C421.846 200.724 426.396 198.098 426.396 193.48C426.396 189.818 422.169 188.035 419.56 190.246C418.552 189.389 417.181 189.061 415.824 189.423C413.968 189.918 412.722 191.548 412.722 193.48C412.722 198.11 417.273 200.728 418.665 201.419ZM417.913 192.896C418.191 193.393 418.803 193.826 419.511 193.844C420.225 193.866 420.9 193.432 421.197 192.908C421.805 191.83 423.407 192.275 423.407 193.481C423.407 196.034 420.739 197.819 419.558 198.485C418.376 197.822 415.71 196.042 415.71 193.481C415.71 192.265 417.321 191.844 417.913 192.896Z" fill="black"/>
<path d="M430.118 191.65H436.022C436.848 191.65 437.516 190.975 437.516 190.141C437.516 189.308 436.848 188.632 436.022 188.632H430.118C429.292 188.632 428.624 189.308 428.624 190.141C428.624 190.975 429.292 191.65 430.118 191.65Z" fill="black"/>
<path d="M430.118 196.963H436.022C436.848 196.963 437.516 196.287 437.516 195.454C437.516 194.62 436.848 193.945 436.022 193.945H430.118C429.292 193.945 428.624 194.62 428.624 195.454C428.624 196.287 429.292 196.963 430.118 196.963Z" fill="black"/>
<path d="M430.118 202.276H436.022C436.848 202.276 437.516 201.6 437.516 200.767C437.516 199.933 436.848 199.258 436.022 199.258H430.118C429.292 199.258 428.624 199.933 428.624 200.767C428.624 201.6 429.292 202.276 430.118 202.276Z" fill="black"/>
<path d="M500.767 173.824C501.592 173.824 502.261 173.149 502.261 172.315C502.261 171.481 501.592 170.806 500.767 170.806H486.082C486.059 170.806 486.036 170.809 486.013 170.809C485.515 170.783 485.017 171.007 484.71 171.45L479.552 178.888L473.01 174.262C469.549 171.814 465.26 170.985 461.138 171.94L460.62 171.574C458.71 170.224 456.075 170.699 454.743 172.62L453.554 174.335C452.22 176.258 452.685 178.922 454.591 180.268L454.998 180.557C453.632 186.716 460.35 191.437 465.593 188.048L466.428 188.638C465.063 194.788 471.768 199.525 477.021 196.13L477.857 196.72C476.491 202.879 483.209 207.599 488.451 204.21L488.86 204.5C490.766 205.847 493.403 205.378 494.736 203.453L495.925 201.739C497.259 199.815 496.795 197.152 494.89 195.805L494.238 195.344C493.717 191.106 491.477 187.32 488.017 184.872L482 180.619L486.712 173.824H500.767ZM457.844 182.569L462.749 186.038C460.398 186.6 458.122 184.985 457.844 182.569ZM469.272 190.65L474.178 194.119C471.833 194.681 469.552 193.071 469.272 190.65ZM480.702 198.731C483.673 200.833 482.649 200.108 485.607 202.2C483.262 202.763 480.981 201.151 480.702 198.731ZM493.477 200.008L492.288 201.722C491.899 202.283 491.13 202.421 490.574 202.028C490.094 201.689 456.735 178.1 456.304 177.797C455.753 177.406 455.616 176.624 456.002 176.066L457.191 174.351C457.58 173.792 458.356 173.657 458.906 174.046L493.175 198.276C493.728 198.667 493.864 199.45 493.477 200.008ZM490.508 192.707C488.936 191.595 465.597 175.093 464.867 174.577C467.152 174.647 469.383 175.381 471.296 176.734L486.302 187.344C488.214 188.696 489.661 190.563 490.508 192.707Z" fill="black"/>
<path d="M499.781 233.272H456.486C455.661 233.272 454.992 233.948 454.992 234.781C454.992 235.614 455.661 236.29 456.486 236.29H499.781C500.459 236.29 501.012 236.847 501.012 237.532V240.284C501.012 240.97 500.459 241.528 499.781 241.528C499.094 241.528 407.421 241.528 406.219 241.528C405.541 241.528 404.988 240.97 404.988 240.284V237.532C404.988 236.847 405.541 236.29 406.219 236.29H449.514C450.339 236.29 451.008 235.614 451.008 234.781C451.008 233.948 450.339 233.272 449.514 233.272H432.509C432.628 232.879 432.694 232.462 432.694 232.029V229.277C432.694 226.928 430.801 225.017 428.474 225.017H406.219C403.893 225.017 402 226.928 402 229.277V232.029C402 233.078 402.379 234.038 403.004 234.781C402.379 235.524 402 236.484 402 237.532V240.284C402 242.563 403.782 244.424 406.012 244.535V245.865C406.012 248.214 407.905 250.125 410.231 250.125H414.358V269.265C414.358 270.85 415.635 272.14 417.205 272.14H420.025C421.594 272.14 422.872 270.85 422.872 269.265V250.125H483.128V269.265C483.128 270.85 484.405 272.14 485.975 272.14H488.795C490.365 272.14 491.642 270.85 491.642 269.265V250.125H495.768C498.095 250.125 499.988 248.214 499.988 245.865V244.535C502.218 244.424 504 242.563 504 240.284V237.532C504 235.184 502.107 233.272 499.781 233.272ZM404.988 229.277C404.988 228.592 405.541 228.034 406.219 228.034H428.474C429.153 228.034 429.705 228.592 429.705 229.277V232.029C429.705 232.715 429.153 233.273 428.474 233.273H406.219C405.541 233.273 404.988 232.715 404.988 232.029V229.277ZM419.883 269.122H417.346V250.125H419.883V269.122ZM488.654 269.122H486.116V250.125H488.654V269.122ZM496.999 245.865C496.999 246.55 496.448 247.108 495.768 247.108C493.036 247.108 413.085 247.108 410.231 247.108C409.552 247.108 409 246.55 409 245.865V244.545H496.999V245.865Z" fill="black"/>
<path d="M447.613 193.442C448.439 193.442 449.107 192.766 449.107 191.933V183.658C449.107 180.375 446.463 177.704 443.213 177.704H407.895C404.644 177.704 402 180.374 402 183.658V207.251C402 210.533 404.644 213.203 407.895 213.203H443.213C446.463 213.203 449.108 210.533 449.108 207.251V198.974C449.108 198.141 448.439 197.465 447.613 197.465C446.788 197.465 446.119 198.141 446.119 198.974V207.251C446.119 208.869 444.815 210.186 443.213 210.186H407.895C406.293 210.186 404.988 208.869 404.988 207.251V183.658C404.988 182.039 406.293 180.722 407.895 180.722H443.213C444.815 180.722 446.119 182.039 446.119 183.658V191.933C446.119 192.766 446.788 193.442 447.613 193.442Z" fill="black"/>
<path d="M408.927 183.191C408.102 183.191 407.433 183.867 407.433 184.7V206.208C407.433 207.042 408.102 207.717 408.927 207.717H442.18C443.006 207.717 443.674 207.042 443.674 206.208V184.7C443.674 183.867 443.006 183.191 442.18 183.191H408.927ZM440.686 204.699H410.422V186.208H440.686V204.699Z" fill="black"/>
<path d="M308.445 234.235L299.048 230.231C297.799 229.699 296.995 228.512 296.995 227.202V221.07H283.168V227.202C283.168 228.512 282.363 229.699 281.115 230.231L271.717 234.235C269.221 235.299 267.612 237.673 267.612 240.293V262.219H312.551V240.293C312.55 237.673 310.941 235.299 308.445 234.235Z" fill="#FAD7A5"/>
<path d="M290.362 225.199H289.8C283.851 225.199 279.029 220.34 279.029 214.346V204.517H301.133V214.346C301.133 220.34 296.311 225.199 290.362 225.199Z" fill="#FFE1B4"/>
<path d="M285.344 214.063V204.517H279.029V214.063C279.029 220.213 283.977 225.2 290.081 225.2C291.179 225.2 292.238 225.033 293.239 224.732C288.674 223.362 285.344 219.107 285.344 214.063Z" fill="#FAD7A5"/>
<path d="M291.66 196.562H288.502C282.398 196.562 277.45 201.548 277.45 207.699V210.244C277.45 211.423 278.691 212.224 279.726 211.674C281.328 210.822 283.207 209.234 284.469 207.521C284.979 206.829 285.96 206.726 286.645 207.242C291.655 211.009 298.634 210.143 301.455 209.582C302.19 209.436 302.712 208.779 302.712 208.024V207.699C302.712 201.548 297.764 196.562 291.66 196.562Z" fill="#D59F63"/>
<path d="M279.726 211.673C281.328 210.822 283.207 209.234 284.469 207.521C284.663 207.258 284.932 207.109 285.219 207.017C282.987 203.886 282.834 200.396 283.112 197.981C279.736 199.887 277.45 203.522 277.45 207.699V210.244C277.45 211.423 278.691 212.224 279.726 211.673Z" fill="#CD915A"/>
<path d="M308.445 234.235L299.048 230.231C298.29 229.908 297.727 229.33 297.377 228.644L290.03 235.406L282.754 228.708C282.4 229.365 281.848 229.918 281.114 230.231L271.717 234.235C269.22 235.299 267.612 237.673 267.612 240.293V262.219H312.551V240.293C312.55 237.673 310.941 235.299 308.445 234.235Z" fill="#DBD9DC"/>
<path d="M218.942 238.71L211.642 235.952C210.255 235.428 209.335 234.091 209.335 232.598V228.002H198.67V232.598C198.67 234.091 197.751 235.428 196.364 235.952L189.064 238.71C186.289 239.759 184.45 242.432 184.45 245.419V262.219H223.556V245.419C223.556 242.432 221.717 239.759 218.942 238.71Z" fill="#E6AF78"/>
<path d="M184.45 262.219H223.556V245.419C223.556 242.432 221.717 239.759 218.942 238.71L211.921 236.057L206.517 241.503C205.129 242.902 202.878 242.902 201.489 241.503L196.085 236.057L189.063 238.71C186.288 239.759 184.45 242.432 184.45 245.419L184.45 262.219Z" fill="#DBD9DC"/>
<path d="M204.072 229.793H203.934C197.1 229.793 191.56 224.211 191.56 217.324V211.813C191.56 204.926 197.1 199.344 203.934 199.344H204.072C210.906 199.344 216.446 204.926 216.446 211.813V217.324C216.446 224.211 210.906 229.793 204.072 229.793Z" fill="#F0C087"/>
<path d="M198.67 217.255V211.882C198.67 206.203 202.42 201.412 207.558 199.87C206.431 199.532 205.239 199.344 204.003 199.344C197.131 199.344 191.56 204.957 191.56 211.882V217.255C191.56 224.18 197.131 229.793 204.003 229.793C205.239 229.793 206.431 229.606 207.558 229.267C202.42 227.725 198.67 222.934 198.67 217.255Z" fill="#E6AF78"/>
<path d="M204.004 206.508C207.93 206.508 211.114 203.3 211.114 199.343C211.114 195.387 207.93 192.179 204.004 192.179C200.077 192.179 196.893 195.387 196.893 199.343C196.893 203.3 200.077 206.508 204.004 206.508Z" fill="#6E4B53"/>
<path d="M191.56 211.882V215.901C193.529 214.961 195.941 213.479 197.786 211.275C198.325 210.631 199.247 210.498 199.976 210.911C202.319 212.237 207.815 214.764 216.446 215.335V211.882C216.446 204.958 210.875 199.344 204.003 199.344C197.131 199.344 191.56 204.957 191.56 211.882Z" fill="#5C414B"/>
<path d="M197.21 201.385C193.811 203.623 191.56 207.485 191.56 211.882V215.901C193.529 214.962 195.941 213.48 197.786 211.275C198.068 210.937 198.457 210.749 198.867 210.697C197.551 208.175 196.522 204.887 197.21 201.385Z" fill="#503441"/>
<path d="M192.033 248.031L185.595 241.545C184.871 242.677 184.45 244.009 184.45 245.419V262.219H193.831V252.407C193.831 250.766 193.184 249.192 192.033 248.031Z" fill="#EDEBED"/>
<path d="M270.844 227.724L259.715 222.532C258.237 221.843 257.284 220.304 257.284 218.606V210.656L240.91 210.656V218.606C240.91 220.304 239.957 221.843 238.479 222.532L227.35 227.724C224.393 229.103 222.488 232.181 222.488 235.577V262.219H275.707L275.706 235.577C275.706 232.181 273.801 229.103 270.844 227.724Z" fill="#B48764"/>
<path d="M222.488 262.219H275.706L275.706 235.577C275.706 232.181 273.801 229.103 270.844 227.724L259.791 222.568L251.992 230.427C250.393 232.038 247.801 232.038 246.202 230.427L238.403 222.568L227.35 227.724C224.393 229.103 222.488 232.181 222.488 235.577V262.219H222.488Z" fill="#5D5360"/>
<path d="M249.097 218.906C241.184 218.906 234.769 212.442 234.769 204.469V192.094H263.425V204.469C263.425 212.442 257.01 218.906 249.097 218.906Z" fill="#C39772"/>
<path d="M242.956 204.469V192.094H234.769V204.469C234.769 212.442 241.184 218.906 249.097 218.906C250.521 218.906 251.893 218.69 253.191 218.3C247.274 216.524 242.956 211.008 242.956 204.469Z" fill="#B48764"/>
<path d="M251.144 181.781H247.05C239.137 181.781 232.722 188.245 232.722 196.219V199.518C232.722 201.047 234.331 202.084 235.673 201.371C237.75 200.267 240.185 198.209 241.822 195.988C242.483 195.091 243.754 194.958 244.643 195.626C251.138 200.51 260.184 199.387 263.841 198.659C264.795 198.47 265.472 197.618 265.472 196.64V196.219C265.472 188.245 259.057 181.781 251.144 181.781Z" fill="#5C414B"/>
<path d="M235.673 201.371C237.75 200.268 240.185 198.209 241.822 195.988C242.073 195.648 242.422 195.454 242.794 195.335C239.9 191.276 239.702 186.752 240.062 183.621C235.685 186.091 232.722 190.804 232.722 196.219V199.518C232.722 201.046 234.331 202.084 235.673 201.371Z" fill="#503441"/>
<path d="M232.722 244.157C232.722 242.516 232.075 240.942 230.924 239.781L223.225 232.024C222.75 233.119 222.488 234.326 222.488 235.577V262.219H232.722L232.722 244.157Z" fill="#6F6571"/>
<path d="M265.472 244.157C265.472 242.516 266.119 240.942 267.27 239.781L274.969 232.024C275.443 233.119 275.706 234.326 275.706 235.577L275.706 262.219H265.472V244.157Z" fill="#6F6571"/>
<path d="M312.55 262.219V240.293C312.55 238.947 312.12 237.67 311.368 236.598L306.161 241.844C305.01 243.004 304.363 244.578 304.363 246.219V262.219H312.55Z" fill="#EDEBED"/>
<path d="M271.071 227.351L259.92 222.357C259.132 222.005 258.623 221.215 258.623 220.347V217.262C262.369 214.254 264.777 209.623 264.777 204.433V200.09C266.011 199.403 266.828 198.075 266.828 196.588V196.166C266.828 187.123 259.526 179.766 250.552 179.766H246.45C237.475 179.766 230.174 187.123 230.174 196.166V199.991C230.174 201.298 230.732 202.482 231.705 203.24C231.87 203.368 232.044 203.481 232.225 203.579V204.433C232.225 209.623 234.632 214.254 238.378 217.261V220.347C238.378 221.215 237.869 222.004 237.081 222.357L225.93 227.351C222.278 228.986 219.919 232.645 219.919 236.672V262.299C219.919 263.367 220.778 264.233 221.837 264.233C222.897 264.233 223.756 263.367 223.756 262.299V236.672C223.756 236.448 223.772 236.227 223.795 236.007L228.934 241.184C229.733 241.99 230.174 243.061 230.174 244.201V262.3C230.174 263.368 231.033 264.233 232.093 264.233C233.152 264.233 234.012 263.368 234.012 262.3V244.201C234.012 242.029 233.172 239.986 231.647 238.45L225.522 232.277C226.074 231.7 226.736 231.222 227.489 230.885L238.452 225.975L246.582 234.167V262.299C246.582 263.367 247.441 264.233 248.501 264.233C249.561 264.233 250.42 263.367 250.42 262.299V234.167L258.55 225.975L269.512 230.885C270.266 231.222 270.928 231.7 271.48 232.278L265.354 238.45C263.829 239.986 262.99 242.029 262.99 244.201V262.3C262.99 263.368 263.849 264.233 264.909 264.233C265.969 264.233 266.828 263.368 266.828 262.3V244.201C266.828 243.062 267.268 241.99 268.068 241.184L273.206 236.007C273.229 236.227 273.245 236.448 273.245 236.672V262.299C273.245 263.367 274.104 264.233 275.164 264.233C276.224 264.233 277.083 263.367 277.083 262.299V236.672C277.082 232.645 274.722 228.986 271.071 227.351ZM236.062 204.433V203.564C237.26 203.085 238.428 202.324 239.547 201.284C240.326 200.56 240.375 199.337 239.656 198.552C238.937 197.767 237.723 197.718 236.944 198.442C235.985 199.335 235.026 199.912 234.095 200.157C234.072 200.163 234.056 200.165 234.044 200.166C234.03 200.139 234.011 200.082 234.011 199.991V196.167C234.011 189.256 239.591 183.634 246.449 183.634H250.551C257.41 183.634 262.989 189.256 262.989 196.167V196.588C262.989 196.651 262.952 196.705 262.903 196.715C251.412 199.002 245.649 194.692 243.704 192.733C242.955 191.978 241.74 191.978 240.99 192.733C240.241 193.488 240.241 194.712 240.99 195.467C246.949 201.472 255.645 201.58 260.939 200.939V204.433C260.939 211.344 255.359 216.966 248.5 216.966C241.642 216.966 236.062 211.344 236.062 204.433ZM248.5 220.834C250.727 220.834 252.85 220.38 254.785 219.56V220.347C254.785 221.46 255.091 222.524 255.634 223.444L248.5 230.632L241.367 223.444C241.909 222.524 242.215 221.46 242.215 220.347V219.56C244.15 220.38 246.274 220.834 248.5 220.834Z" fill="black"/>
<path d="M217.603 212.7C217.603 207.655 215.001 203.215 211.081 200.659C211.323 199.877 211.45 199.057 211.45 198.233C211.45 193.748 207.829 190.1 203.378 190.1C198.927 190.1 195.306 193.748 195.306 198.233C195.306 199.068 195.431 199.879 195.674 200.66C191.754 203.215 189.153 207.656 189.153 212.7V216.833C189.153 221.718 191.592 226.037 195.306 228.626V232.878C195.306 233.717 194.843 234.471 194.099 234.846L187.462 238.19C184.71 239.577 183 242.364 183 245.465V262.3C183 263.368 183.859 264.233 184.919 264.233C185.979 264.233 186.838 263.368 186.838 262.3V246.301L189.964 249.451C190.764 250.257 191.204 251.328 191.204 252.468V262.3C191.204 263.368 192.063 264.233 193.123 264.233C194.183 264.233 195.042 263.368 195.042 262.3V252.468C195.042 250.296 194.202 248.253 192.678 246.717L188.327 242.333C188.306 242.312 188.284 242.293 188.262 242.273C188.535 242.031 188.841 241.819 189.179 241.649L195.816 238.305C196.156 238.134 196.472 237.931 196.767 237.707L201.459 242.434V262.3C201.459 263.368 202.318 264.234 203.378 264.234C204.438 264.234 205.297 263.368 205.297 262.3V242.434L209.989 237.706C210.284 237.931 210.6 238.134 210.94 238.305L212.771 239.227C213.046 239.366 213.339 239.432 213.627 239.432C214.331 239.432 215.009 239.04 215.345 238.363C215.819 237.408 215.435 236.246 214.487 235.769L212.657 234.846C211.912 234.471 211.45 233.717 211.45 232.879V228.627C215.164 226.038 217.603 221.718 217.603 216.834V212.7ZM199.144 198.233C199.144 195.881 201.043 193.967 203.378 193.967C205.713 193.967 207.612 195.881 207.612 198.233C207.612 198.492 207.589 198.746 207.545 198.995C206.226 198.587 204.827 198.366 203.378 198.366C201.931 198.366 200.534 198.586 199.217 198.993C199.173 198.744 199.144 198.492 199.144 198.233ZM203.378 202.234C209.105 202.234 213.765 206.929 213.765 212.7V213.401C205.776 215.865 201.015 209.742 200.811 209.473C200.477 209.025 199.967 208.744 199.412 208.705C198.857 208.665 198.312 208.87 197.919 209.266C196.087 211.112 194.293 212.002 192.998 212.432C193.14 206.784 197.74 202.234 203.378 202.234ZM207.812 234.43L203.378 238.898L198.944 234.43C199.073 233.932 199.144 233.412 199.144 232.879V230.518C200.482 230.94 201.904 231.167 203.378 231.167C204.852 231.167 206.274 230.94 207.612 230.518V232.879C207.612 233.412 207.683 233.932 207.812 234.43ZM203.378 227.299C197.651 227.299 192.991 222.604 192.991 216.833V216.432C194.521 216.078 196.79 215.255 199.157 213.337C199.994 214.133 201.191 215.11 202.716 215.947C204.518 216.938 207.008 217.854 210.049 217.854C211.205 217.854 212.442 217.719 213.749 217.408C213.451 222.913 208.914 227.299 203.378 227.299Z" fill="black"/>
<path d="M309.538 234.057L298.799 228.646C298.055 228.271 297.592 227.517 297.592 226.679V223.938C300.106 221.689 301.694 218.412 301.694 214.767V212.566C301.739 212.566 301.782 212.567 301.826 212.567C302.886 212.567 303.745 211.701 303.745 210.633V206.5C303.745 199.736 298.284 194.233 291.571 194.233H287.469C280.757 194.233 275.295 199.736 275.295 206.5V210.633C275.295 211.701 276.154 212.567 277.214 212.567C277.23 212.567 277.276 212.566 277.346 212.564V214.767C277.346 218.412 278.935 221.69 281.448 223.939V226.679C281.448 227.518 280.986 228.271 280.242 228.646C279.294 229.124 278.909 230.285 279.383 231.24C279.72 231.918 280.397 232.31 281.101 232.31C281.39 232.31 281.682 232.244 281.958 232.105C282.298 231.934 282.614 231.732 282.909 231.507L287.601 236.235V262.3C287.601 263.368 288.461 264.234 289.52 264.234C290.58 264.234 291.439 263.368 291.439 262.3V236.234L296.131 231.506C296.426 231.731 296.743 231.934 297.083 232.105L307.474 237.341L304.322 240.517C302.798 242.053 301.958 244.095 301.958 246.268V262.3C301.958 263.368 302.817 264.233 303.877 264.233C304.937 264.233 305.796 263.368 305.796 262.3V246.268C305.796 245.128 306.236 244.057 307.036 243.251L310.022 240.242C310.112 240.592 310.162 240.957 310.162 241.331V262.3C310.162 263.368 311.021 264.233 312.081 264.233C313.141 264.233 314 263.368 314 262.3V241.331C314 238.231 312.291 235.444 309.538 234.057ZM279.133 206.5C279.133 201.868 282.873 198.1 287.469 198.1H291.571C296.168 198.1 299.908 201.868 299.908 206.5V208.648C291.566 208.194 286.532 204.923 286.483 204.891C286.158 204.673 285.788 204.566 285.419 204.566C284.924 204.566 284.432 204.759 284.061 205.133C282.225 206.983 280.426 207.873 279.133 208.302L279.133 206.5ZM281.184 211.649C282.528 211.108 284.094 210.248 285.688 208.88C287.703 209.937 291.919 211.763 297.857 212.366V214.767C297.857 219.398 294.117 223.166 289.52 223.166C284.924 223.166 281.184 219.399 281.184 214.767V211.649ZM289.52 227.033C291.009 227.033 292.435 226.762 293.754 226.267V226.679C293.754 227.212 293.825 227.732 293.955 228.23L289.52 232.699L285.086 228.23C285.216 227.732 285.286 227.212 285.286 226.679V226.267C286.606 226.762 288.032 227.033 289.52 227.033Z" fill="black"/>
<g clip-path="url(#clip0)">
<path fill-rule="evenodd" clip-rule="evenodd" d="M230.607 13.7225C223.17 4.10954 213.837 9.48205 200.075 4.48518C198.233 3.81616 197.62 3.69774 197.57 5.52468C197.448 9.80627 199.583 12.6006 203.564 14.1857C202.756 19.0385 204.636 22.121 208.667 23.7884C207.512 30.715 214.865 34.3225 220.052 34.7908C220.19 34.8011 220.417 34.8217 220.726 34.8422C221.152 33.988 228.469 34.8422 234.732 34.204C234.771 34.2 234.693 34.2657 234.671 34.3019C236.971 34.0188 239.498 33.6277 242.224 33.0926L244.983 26.593L242.224 20.0523C234.632 19.3267 231.154 14.4224 230.607 13.7225Z" fill="#EDF4FF"/>
<path fill-rule="evenodd" clip-rule="evenodd" d="M260.393 13.7225C259.851 14.4224 256.368 19.3267 248.776 20.0523L247.001 25.6873L248.776 33.0926C251.502 33.6277 254.029 34.0188 256.329 34.3019C256.307 34.2659 256.229 34.1978 256.268 34.204C266.312 35.8008 266.312 35.8008 270.274 34.8422C270.58 34.7682 270.81 34.8011 270.948 34.7908C276.135 34.3225 283.489 30.715 282.333 23.7884C286.364 22.121 288.244 19.0385 287.437 14.1857C291.418 12.6008 293.557 9.80627 293.43 5.52468C293.381 3.69774 292.772 3.81616 290.931 4.48518C277.163 9.48205 267.83 4.10954 260.393 13.7225Z" fill="#EDF4FF"/>
<path fill-rule="evenodd" clip-rule="evenodd" d="M242.224 20.0523C234.632 19.3267 231.154 14.4224 230.607 13.7225C227.594 9.82686 224.27 8.39116 220.472 7.73242C223.386 11.7774 225.183 17.294 225.183 23.3715C225.183 25.7336 224.912 28.0133 224.409 30.1542C225.863 28.9089 227.577 27.8796 229.341 27.2415C231.624 26.418 234.002 26.2585 235.141 27.4884C236.496 28.95 235.816 32.3617 234.732 34.2041C234.71 34.2349 234.693 34.2658 234.671 34.3019C236.971 34.0188 239.498 33.6278 242.224 33.0926V20.0523H242.224Z" fill="#DBEAFF"/>
<path fill-rule="evenodd" clip-rule="evenodd" d="M248.776 33.0925V18.215V12.0911C247.797 12.5646 246.68 12.832 245.503 12.832C244.32 12.832 243.203 12.5644 242.224 12.0911V18.215V33.0925V50.0953L245.503 51.4334L248.776 50.0953V33.0925Z" fill="#F9F7F8"/>
<path fill-rule="evenodd" clip-rule="evenodd" d="M248.776 75.4453L245.503 74.5397L242.224 75.4453V89.5714C242.224 91.2491 243.7 92.6231 245.503 92.6231C247.305 92.6231 248.776 91.2491 248.776 89.5714V75.4453Z" fill="#F9F7F8"/>
<path fill-rule="evenodd" clip-rule="evenodd" d="M252.641 8.02066C252.641 4.35154 249.445 1.37695 245.503 1.37695C241.555 1.37695 238.359 4.35136 238.359 8.02066C238.359 10.5937 239.929 12.822 242.224 13.9283C243.202 14.4018 244.319 14.6693 245.503 14.6693C246.68 14.6693 247.797 14.4016 248.776 13.9283C251.076 12.822 252.641 10.5937 252.641 8.02066Z" fill="#FFE58A"/>
<path fill-rule="evenodd" clip-rule="evenodd" d="M248.776 48.2582V33.0926V20.0523V13.9283C247.797 14.4018 246.68 14.6693 245.503 14.6693V19.1464V32.1867V49.596L248.776 48.2582Z" fill="#F0F0F0"/>
<path fill-rule="evenodd" clip-rule="evenodd" d="M248.776 55.8178L245.503 54.4954L242.224 55.8178V71.349L245.503 72.2444L248.776 71.349V55.8178Z" fill="#F9F7F8"/>
<path fill-rule="evenodd" clip-rule="evenodd" d="M248.776 89.5713V77.2823L245.503 76.3766V88.6657C245.503 90.0705 244.463 91.2645 243.07 91.6144C243.673 92.232 244.541 92.623 245.503 92.623C247.305 92.623 248.776 91.249 248.776 89.5713Z" fill="#F0F0F0"/>
<path fill-rule="evenodd" clip-rule="evenodd" d="M252.641 8.02066C252.641 4.35154 249.445 1.37695 245.503 1.37695C244.618 1.37695 243.778 1.52107 242.998 1.79371C245.707 2.73536 247.643 5.16963 247.643 8.02048C247.643 10.5935 246.072 12.8218 243.778 13.9282C243.524 14.0517 243.264 14.1597 242.998 14.2524C243.778 14.5201 244.618 14.6691 245.503 14.6691C246.681 14.6691 247.798 14.4015 248.776 13.9282C251.076 12.822 252.641 10.5937 252.641 8.02066Z" fill="#FFD772"/>
<path fill-rule="evenodd" clip-rule="evenodd" d="M248.776 69.5118V57.6551L245.503 56.3273L244.983 56.5385L245.503 56.7494V70.4071L248.776 69.5118Z" fill="#F0F0F0"/>
<path fill-rule="evenodd" clip-rule="evenodd" d="M268.797 32.4749C267.089 30.221 264.44 28.2448 261.665 27.2412C259.375 26.4178 257.003 26.2583 255.859 27.4882C254.504 28.9498 255.184 32.3615 256.268 34.2038L256.329 34.3017C256.998 35.3823 258.176 36.4116 259.994 36.9829C266.878 39.1443 262.886 42.5047 257.788 44.5837L248.776 48.2579L245.502 49.596L247.139 52.2772L253.791 52.9822L264.213 48.7725C272.551 45.4069 272.524 39.3551 270.273 34.842C269.848 33.9879 269.345 33.1902 268.797 32.4749Z" fill="#B3E59F"/>
<path fill-rule="evenodd" clip-rule="evenodd" d="M233.996 73.5515C222.192 76.773 223.181 86.88 229.352 89.7051C233.858 91.7687 238.077 91.2387 234.577 86.705C232.819 84.4356 230.607 80.4834 237.148 78.6822L242.224 77.2825L245.503 76.3768L241.947 73.2634C241.638 72.9854 235.069 73.4898 234.677 73.3613L233.996 73.5515Z" fill="#95D6A4"/>
<path fill-rule="evenodd" clip-rule="evenodd" d="M234.577 86.7051C232.819 84.4357 230.607 80.4834 237.148 78.6822L242.224 77.2825L245.503 76.3768L240.692 75.0491L237.414 75.9547L233.742 77.3545C227.434 79.7628 229.308 83.7408 231.066 86.0102C233.295 88.892 231.099 89.5249 228.998 89.5302C229.115 89.5919 229.231 89.6538 229.352 89.7052C233.858 91.7688 238.077 91.2387 234.577 86.7051Z" fill="#78C2A4"/>
<path fill-rule="evenodd" clip-rule="evenodd" d="M268.797 32.475C267.089 30.221 264.44 28.2448 261.665 27.2413C259.774 26.562 257.827 26.3356 256.567 26.9684C268.244 31.3787 273.901 43.0347 259.392 48.0367L249.804 51.3405C251.137 51.8808 252.469 52.4211 253.791 52.9822L264.213 48.7726C272.551 45.4069 272.524 39.3551 270.273 34.842C269.848 33.988 269.345 33.1903 268.797 32.475Z" fill="#95D6A4"/>
<path fill-rule="evenodd" clip-rule="evenodd" d="M256.318 73.3611C269.09 69.2699 269.19 59.5129 253.791 52.9824C253.592 52.9002 253.393 52.8177 253.188 52.7355L248.776 50.9344L245.503 49.5964L242.224 48.2584L233.212 44.5841C228.119 42.5051 224.127 39.1446 231.005 36.9833C232.825 36.4122 234.002 35.3829 234.671 34.3021L234.732 34.2043C235.816 32.3619 236.496 28.95 235.141 27.4886C234.002 26.2587 231.624 26.4182 229.341 27.2417C226.56 28.2452 223.911 30.2212 222.203 32.4754C221.655 33.1906 221.152 33.9884 220.726 34.8426C218.476 39.3557 218.448 45.4077 226.792 48.7732L237.441 53.0753L239.238 55.5146L245.503 56.3277L248.776 57.6554L251.928 58.9265C262.118 63.0382 258.762 66.7846 251.806 68.6835L248.776 69.5121L245.503 70.4075L248.776 73.1761L256.318 73.3611Z" fill="#95D6A4"/>
<path fill-rule="evenodd" clip-rule="evenodd" d="M235.141 27.4884C234.002 26.2585 231.624 26.4181 229.341 27.2415C231.066 32.2435 227.411 33.9109 227.124 34.163C222.966 36.6949 223.773 39.9164 224.309 41.7946C225.183 44.836 230.408 46.3798 234.671 48.1243L237.95 49.4624L241.228 50.8004L245.641 52.5963C245.84 52.6786 246.044 52.761 246.238 52.8484C253.055 55.7354 260.846 59.6362 261.836 63.0171C264.213 66.3466 257.302 71.4259 251.684 72.0949L256.317 73.3608C269.09 69.2696 269.189 59.5125 253.791 52.9821C253.592 52.8998 253.393 52.8174 253.188 52.7351L248.776 50.9341L245.503 49.596L242.224 48.258L233.211 44.5837C228.119 42.5047 224.127 39.1442 231.005 36.983C232.824 36.4118 234.002 35.3826 234.671 34.3018L234.731 34.2039C235.816 32.3619 236.496 28.95 235.141 27.4884Z" fill="#78C2A4"/>
<path fill-rule="evenodd" clip-rule="evenodd" d="M239.194 68.6832C232.238 66.7843 228.882 63.0379 239.072 58.9261L242.224 57.6551L245.503 56.3273L237.441 53.075C221.439 59.6054 221.727 69.2389 234.676 73.361C235.069 73.4897 235.467 73.6079 235.882 73.7212L245.502 76.3765L248.776 77.2822L253.857 78.6819C260.393 80.4831 258.181 84.4353 256.423 86.7047C252.922 91.2384 257.141 91.7684 261.648 89.7048C267.818 86.8797 268.808 76.7727 257.003 73.5512L256.317 73.3608L245.502 70.4069L242.224 69.5115L239.194 68.6832Z" fill="#B3E59F"/>
<path fill-rule="evenodd" clip-rule="evenodd" d="M235.406 57.2537C225.509 61.952 228.688 68.9765 235.644 70.8754L238.668 71.704L241.947 72.5994L252.768 75.5532L253.448 75.7436C264.518 77.5087 263.81 85.83 259.138 90.5954C259.928 90.405 260.78 90.1013 261.648 89.7052C267.818 86.88 268.808 76.773 257.003 73.5515L256.317 73.3611L245.502 70.4072L242.224 69.5119L239.194 68.6833C232.238 66.7844 228.882 63.038 239.072 58.9262L242.224 57.6552L245.502 56.3274L241.355 54.6549L238.082 55.9827L235.406 57.2537Z" fill="#95D6A4"/>
<path fill-rule="evenodd" clip-rule="evenodd" d="M290.931 4.48518C280.613 8.22646 272.784 6.14744 266.381 8.92118C267.343 11.7568 267.874 14.9113 267.874 18.2305C267.874 22.3011 267.072 26.1195 265.662 29.413C266.873 30.3084 267.951 31.3582 268.797 32.475C269.345 33.1902 269.848 33.988 270.274 34.8422C270.589 34.8217 270.81 34.8011 270.948 34.7908C276.135 34.3225 283.488 30.715 282.333 23.7884C286.364 22.121 288.244 19.0385 287.436 14.1857C291.417 12.6008 293.557 9.80628 293.43 5.52469C293.38 3.69793 292.772 3.81617 290.931 4.48518Z" fill="#DBEAFF"/>
<path d="M294.909 5.48982C294.884 4.57057 294.735 3.55438 293.818 2.98707C292.77 2.33935 291.562 2.77741 290.393 3.20224C287.587 4.22119 284.746 4.88341 281.454 5.28658C280.644 5.38572 280.074 6.07732 280.18 6.83134C280.287 7.58518 281.03 8.1165 281.84 8.0168C285.375 7.58426 288.434 6.86953 291.469 5.76778C291.577 5.72849 291.761 5.66185 291.952 5.59667C292.01 7.87801 291.365 9.64381 289.979 10.994C287.742 13.1725 283.456 14.3321 277.24 14.4402C276.424 14.4545 275.774 15.0824 275.789 15.8429C275.804 16.5945 276.463 17.1939 277.268 17.1939C277.277 17.1939 277.287 17.1939 277.296 17.1937C280.778 17.1332 283.713 16.7661 286.139 16.0856C286.18 17.9527 285.686 19.4404 284.638 20.5992C283.932 21.3806 282.953 22.0276 281.711 22.5396C281.699 22.5446 281.687 22.549 281.676 22.5543C279.518 23.4356 276.568 23.9124 272.851 23.9757C272.034 23.9896 271.384 24.6174 271.399 25.3778C271.414 26.1296 272.073 26.7294 272.878 26.7294C272.887 26.7294 272.896 26.7294 272.906 26.7292C276.065 26.6754 278.737 26.3444 280.952 25.7303C280.847 27.05 280.343 28.26 279.44 29.3421C277.466 31.7096 273.917 33.0544 271.143 33.3819C270.807 32.8036 270.428 32.2348 270.007 31.6809C268.11 29.1784 265.192 27.0388 262.199 25.9567C258.927 24.7795 256.209 25.0095 254.739 26.5884C253.374 28.0614 253.436 30.5287 254.025 32.5949C252.787 32.4111 251.527 32.2001 250.256 31.965V21.2486C254.851 20.4957 258.82 18.1686 261.534 14.6053L261.594 14.5265C265.33 9.69944 269.516 9.0273 275.024 8.60486C275.838 8.54243 276.444 7.87727 276.377 7.1194C276.309 6.36152 275.597 5.79642 274.781 5.86031C268.89 6.31214 263.652 7.15502 259.193 12.9169L259.12 13.0128C256.967 15.8397 253.861 17.7308 250.256 18.4429V14.711C252.583 13.2724 254.121 10.8111 254.121 8.02066C254.121 3.59807 250.254 0 245.503 0C240.748 0 236.879 3.59807 236.879 8.02066C236.879 10.81 238.417 13.2705 240.744 14.7093V18.4431C237.153 17.7317 234.05 15.8438 231.887 13.0214L231.808 12.918C226.939 6.62461 221.276 6.22052 214.718 5.75254C210.587 5.45769 205.903 5.12337 200.613 3.20243C199.443 2.77759 198.234 2.33825 197.184 2.98762C196.265 3.55566 196.116 4.57112 196.091 5.48762C196.004 8.51508 196.943 11.0077 198.882 12.8964C199.729 13.7216 200.757 14.4248 201.968 15.0101C201.679 18.0093 202.393 20.4843 204.102 22.3746C204.896 23.2525 205.889 23.9952 207.087 24.6052C206.938 26.9824 207.678 29.2033 209.255 31.08C211.699 33.9883 215.593 35.4925 218.653 36.0022C217.871 38.2753 217.748 40.5726 218.357 42.5987C219.328 45.8248 221.967 48.3272 226.202 50.0357L233.891 53.1412C231.523 54.3111 229.53 55.5854 227.949 56.9477C227.349 57.4641 227.312 58.3354 227.868 58.8936C228.159 59.187 228.556 59.3353 228.954 59.3353C229.313 59.3353 229.674 59.2141 229.958 58.969C231.804 57.3793 234.323 55.9041 237.45 54.5791L241.783 56.3291L238.483 57.6626C233.397 59.715 231.003 61.9008 231.166 64.345C231.325 66.7312 233.957 68.6881 238.777 70.0039L241.777 70.824C241.783 70.8259 241.79 70.8277 241.797 70.8296L256.587 74.8725C261.387 76.1824 264.32 78.8653 264.631 82.2331C264.874 84.8559 263.413 87.3622 260.994 88.4694C258.583 89.5739 257.025 89.5579 256.609 89.4131C256.623 89.2238 256.747 88.6442 257.623 87.5101C259.535 85.0415 260.141 82.9572 259.473 81.1383C258.838 79.4074 257.09 78.1368 254.278 77.3618L236.302 72.4009C235.938 72.3001 235.131 72.0492 235.076 72.0348C229.292 70.176 226.189 67.1694 226.723 63.8649C226.844 63.1127 226.288 62.4116 225.48 62.2985C224.668 62.1867 223.918 62.7037 223.797 63.4555C223.166 67.3631 225.676 70.8556 230.654 73.2673C226.406 75.1622 223.763 78.2926 223.42 81.9966C223.073 85.7416 225.194 89.336 228.698 90.9404C230.314 91.6803 232.186 92.239 233.791 92.239C234.972 92.2388 236.01 91.9368 236.696 91.1822C237.476 90.3252 237.949 88.7134 235.777 85.8993C234.484 84.2315 233.997 82.9295 234.327 82.0299C234.71 80.986 236.301 80.3509 237.568 80.0019L240.744 79.1256V89.571C240.744 92.013 242.879 93.9996 245.503 93.9996C248.123 93.9996 250.255 92.013 250.255 89.571V79.1239L253.437 80.0021C254.702 80.3505 256.29 80.985 256.673 82.0282C257.003 82.9284 256.515 84.2308 255.221 85.9013C253.05 88.7134 253.524 90.3254 254.304 91.1824C254.99 91.937 256.027 92.2392 257.208 92.2392C258.814 92.2392 260.685 91.6805 262.301 90.9406C265.805 89.3363 267.927 85.7421 267.58 81.9968C267.236 78.2842 264.581 75.1475 260.316 73.2541C264.535 71.165 266.965 68.2225 267.111 64.8905C267.299 60.6214 263.756 56.4209 257.274 53.0766L264.802 50.0359C269.035 48.3272 271.673 45.8254 272.643 42.5998C273.253 40.5711 273.128 38.2709 272.345 35.9958C275.429 35.4681 279.349 33.9432 281.778 31.031C283.331 29.1681 284.059 26.9646 283.913 24.6065C285.113 23.9957 286.107 23.2518 286.902 22.3722C288.611 20.4817 289.323 18.0074 289.032 15.0099C290.244 14.4248 291.271 13.7216 292.118 12.8965C294.057 11.0079 294.996 8.51526 294.909 5.48982ZM236.728 77.3618C233.913 78.1371 232.163 79.4081 231.527 81.1398C230.86 82.9585 231.465 85.0425 233.376 87.5083C234.252 88.6442 234.376 89.224 234.391 89.4133C233.975 89.5579 232.417 89.5739 230.005 88.4696C227.587 87.3624 226.126 84.8561 226.368 82.2333C226.68 78.8654 229.612 76.1826 234.42 74.8706L234.652 74.8062C234.918 74.8866 240.299 76.3763 240.299 76.3763L236.728 77.3618ZM247.296 89.5714C247.296 90.4948 246.492 91.2461 245.503 91.2461C244.511 91.2461 243.703 90.4948 243.703 89.5714V78.3095L245.503 77.8129L247.296 78.3079V89.5714ZM255.458 35.5792C256.219 36.5592 257.476 37.6455 259.522 38.2877C261.603 38.9413 262.176 39.5854 262.187 39.8349C262.215 40.4264 260.685 41.8994 257.195 43.3228L250.255 46.1538V34.7747C252.022 35.0921 253.763 35.3602 255.458 35.5792ZM245.503 2.75391C248.623 2.75391 251.162 5.11657 251.162 8.02066C251.162 10.9275 248.623 13.2926 245.503 13.2926C242.379 13.2926 239.838 10.9275 239.838 8.02066C239.838 5.11657 242.379 2.75391 245.503 2.75391ZM245.503 16.0463C246.118 16.0463 246.718 15.9848 247.296 15.8702V20.0494V20.0547V33.0821V33.0913V47.3611L245.499 48.0944L243.703 47.3617V33.0891C243.703 33.0863 243.703 33.0836 243.703 33.0808V20.0547C243.703 20.0528 243.703 20.0512 243.703 20.0494V15.8693C244.284 15.9844 244.886 16.0463 245.503 16.0463ZM235.542 35.5788C237.256 35.3576 238.998 35.0905 240.744 34.776V46.1544L233.805 43.3232C230.318 41.8992 228.788 40.4257 228.816 39.8342C228.828 39.585 229.4 38.9412 231.477 38.2883C233.521 37.6485 234.778 36.5621 235.542 35.5788ZM211.586 29.3836C210.667 28.2892 210.154 27.0652 210.048 25.7301C212.263 26.3446 214.936 26.6756 218.095 26.7296C218.105 26.7298 218.114 26.7298 218.123 26.7298C218.928 26.7298 219.587 26.1296 219.602 25.3782C219.617 24.6177 218.967 23.99 218.15 23.9761C212.266 23.8758 208.301 22.7405 206.367 20.6014C205.318 19.4422 204.823 17.9542 204.863 16.0861C207.288 16.7665 210.224 17.1332 213.705 17.1939C213.714 17.1941 213.723 17.1941 213.733 17.1941C214.537 17.1941 215.196 16.5943 215.212 15.843C215.227 15.0826 214.577 14.4547 213.76 14.4404C207.544 14.3322 203.259 13.1729 201.022 10.9941C199.636 9.644 198.99 7.87801 199.049 5.59502C199.242 5.66056 199.428 5.72831 199.538 5.76796C205.238 7.83798 210.154 8.18883 214.492 8.49837C220.791 8.94781 225.341 9.27258 229.411 14.5329L229.478 14.6203C232.202 18.1756 236.167 20.4973 240.744 21.249V31.9664C239.483 32.2003 238.225 32.4109 236.976 32.5958C237.565 30.5311 237.627 28.0629 236.261 26.5895C234.796 25.0077 232.079 24.7774 228.806 25.9576C225.812 27.038 222.891 29.1778 220.993 31.6815C220.572 32.2361 220.192 32.8058 219.856 33.3849C217.11 33.0797 213.579 31.7546 211.586 29.3836ZM247.296 58.5565V68.4814L245.502 68.9723L243.703 68.4808V58.5559L245.499 57.8304L247.296 58.5565ZM251.339 60.1896C255.508 61.8718 256.935 63.3516 256.88 64.1752C256.823 65.0309 255.103 66.3482 251.389 67.3622L250.255 67.6721V59.7517L251.339 60.1896ZM234.119 64.1752C234.065 63.3514 235.492 61.8718 239.662 60.1894L240.744 59.7517V67.6719L239.61 67.362C235.896 66.348 234.176 65.0307 234.119 64.1752ZM264.155 64.7785C264.028 67.6692 261.164 70.2556 256.275 71.9144L250.754 70.4062L252.223 70.0045C257.043 68.6885 259.675 66.7316 259.834 64.3454C259.996 61.9012 257.603 59.7151 252.517 57.6631L227.38 47.5093C224.002 46.1467 221.925 44.2448 221.207 41.8566C220.439 39.3034 221.263 36.0936 223.41 33.2705C223.411 33.2699 223.411 33.2692 223.412 33.2687C224.987 31.1906 227.403 29.4172 229.876 28.5251C231.762 27.8451 233.466 27.7884 234.021 28.3878C234.734 29.1571 234.427 31.8552 233.437 33.5376C233.027 34.2277 232.191 35.1591 230.532 35.6783C227.514 36.6266 225.942 37.9843 225.86 39.713C225.731 42.4482 229.463 44.5573 232.617 45.8448L252.594 53.9962C259.997 57.0152 264.319 61.0458 264.155 64.7785ZM269.793 41.8579C269.076 44.2457 267 46.147 263.625 47.5097L253.795 51.4797C253.791 51.4779 253.787 51.476 253.782 51.4742L249.184 49.5979L258.382 45.845C261.538 44.5582 265.272 42.45 265.143 39.7141C265.062 37.9846 263.489 36.627 260.467 35.6783C258.808 35.1575 257.972 34.2268 257.566 33.5429C256.573 31.8552 256.266 29.1571 256.977 28.39C257.544 27.7814 259.213 27.8357 261.129 28.525C263.599 29.4178 266.014 31.1913 267.59 33.2707C269.737 36.0942 270.561 39.3043 269.793 41.8579Z" fill="black"/>
</g>
<g clip-path="url(#clip1)">
<path d="M40 212.552C49.618 212.552 57.415 204.852 57.415 195.355C57.415 185.857 49.618 178.157 40 178.157C30.382 178.157 22.585 185.857 22.585 195.355C22.585 204.852 30.382 212.552 40 212.552Z" fill="#DD636E"/>
<path d="M40 178.157C39.2053 178.157 38.4231 178.211 37.6562 178.314C46.1544 179.448 52.7275 186.657 52.7275 195.355C52.7275 204.052 46.1544 211.261 37.6562 212.395C38.4231 212.498 39.2053 212.552 40 212.552C49.6027 212.552 57.415 204.837 57.415 195.354C57.415 185.872 49.6027 178.157 40 178.157Z" fill="#DA4A54"/>
<path d="M50.3309 192.44H43.542C43.2159 192.44 42.9517 192.179 42.9517 191.857V185.153C42.9517 184.509 42.4231 183.987 41.7711 183.987H38.229C37.577 183.987 37.0484 184.509 37.0484 185.153V191.857C37.0484 192.179 36.784 192.44 36.4581 192.44H29.6692C29.0172 192.44 28.4886 192.962 28.4886 193.606V197.103C28.4886 197.747 29.0172 198.269 29.6692 198.269H36.4581C36.7842 198.269 37.0484 198.53 37.0484 198.852V205.556C37.0484 206.2 37.577 206.722 38.229 206.722H41.7711C42.4231 206.722 42.9517 206.2 42.9517 205.556V198.852C42.9517 198.53 43.2161 198.269 43.542 198.269H50.3309C50.9829 198.269 51.5115 197.747 51.5115 197.103V193.606C51.5115 192.962 50.9829 192.44 50.3309 192.44Z" fill="white"/>
<path d="M74.7294 193.518C72.6744 193.518 70.9372 195.02 70.6664 197.032L68.8011 210.888C68.6556 211.969 68.1481 212.97 67.3594 213.732L61.8067 219.1C63.385 217.574 63.3922 215.068 61.8228 213.533C60.2659 212.011 57.7527 212.029 56.218 213.573L45.375 224.481C43.7206 226.145 42.7938 228.384 42.7938 230.716V254.457C42.7938 255.309 43.4933 256 44.3563 256H53.1094H56.9538H58.5367C59.3997 256 60.0992 255.309 60.0992 254.457V243.656C60.0992 242.457 60.5302 241.297 61.3153 240.383L77.1717 221.923C78.2411 220.678 78.8281 219.098 78.8281 217.466V197.565C78.8281 195.33 76.993 193.518 74.7294 193.518Z" fill="#E2A770"/>
<path d="M74.7293 193.518C73.8628 193.518 73.0532 193.786 72.3857 194.246C73.4462 194.977 74.1406 196.191 74.1406 197.565V217.466C74.1406 219.099 73.5536 220.678 72.4842 221.923L56.6276 240.383C55.8425 241.297 55.4115 242.457 55.4115 243.656V254.457C55.4115 255.309 54.712 256 53.849 256H58.5365C59.3995 256 60.099 255.309 60.099 254.457V243.656C60.099 242.457 60.53 241.297 61.3151 240.383L77.1715 221.923C78.2409 220.678 78.8279 219.098 78.8279 217.466V197.565C78.8281 195.33 76.9929 193.518 74.7293 193.518Z" fill="#D5985C"/>
<path d="M61.8225 213.533C60.4184 212.161 58.2367 212.041 56.6961 213.163C56.849 213.274 56.9959 213.398 57.1348 213.533C58.7042 215.068 58.697 217.574 57.1187 219.1L54.7345 221.404C53.6847 222.419 54.4123 224.18 55.8814 224.18C56.3101 224.18 56.7218 224.014 57.0282 223.718L61.8062 219.1C63.3847 217.574 63.3918 215.068 61.8225 213.533Z" fill="#D5985C"/>
<path d="M34.6258 224.482L23.783 213.574C22.2483 212.03 19.7351 212.012 18.1782 213.534C16.6088 215.069 16.616 217.575 18.1943 219.101L12.6416 213.733C11.8529 212.971 11.3454 211.97 11.1999 210.889L9.33459 197.033C9.06381 195.021 7.32647 193.519 5.27163 193.519C3.00787 193.519 1.17287 195.331 1.17287 197.566V217.467C1.17287 219.099 1.75991 220.679 2.82928 221.924L18.6857 240.384C19.4708 241.298 19.9018 242.458 19.9018 243.656V254.458C19.9018 255.31 20.6013 256.001 21.4643 256.001H23.0472H26.8915H35.6448C36.5077 256.001 37.2073 255.31 37.2073 254.458V230.717C37.2073 228.385 36.2804 226.146 34.6258 224.482Z" fill="#E2A770"/>
<path d="M5.27062 193.518C6.13719 193.518 6.94672 193.786 7.61422 194.246C6.55375 194.977 5.85938 196.191 5.85938 197.565V217.466C5.85938 219.099 6.44641 220.678 7.51578 221.923L23.3722 240.383C24.1573 241.298 24.5883 242.457 24.5883 243.656V254.457C24.5883 255.309 25.2878 256 26.1508 256H21.4633C20.6003 256 19.9008 255.309 19.9008 254.457V243.656C19.9008 242.457 19.4698 241.297 18.6847 240.383L2.82828 221.923C1.75891 220.678 1.17188 219.098 1.17188 217.466V197.565C1.17188 195.33 3.00703 193.518 5.27062 193.518Z" fill="#D5985C"/>
<path d="M18.1775 213.533C19.5816 212.161 21.7633 212.041 23.3039 213.163C23.1509 213.274 23.0041 213.398 22.8652 213.533C21.2958 215.068 21.303 217.574 22.8813 219.1L25.2655 221.404C26.3153 222.419 25.5877 224.18 24.1186 224.18C23.6898 224.18 23.2781 224.014 22.9717 223.718L18.1938 219.1C16.6153 217.574 16.6081 215.068 18.1775 213.533Z" fill="#D5985C"/>
<path d="M24.6187 212.762C22.6609 210.775 19.3436 210.765 17.3531 212.711C16.62 213.428 16.1341 214.322 15.9352 215.297L13.4606 212.905C12.8617 212.327 12.4713 211.556 12.3608 210.736L10.4953 196.879C10.1486 194.303 7.9025 192.361 5.27062 192.361C2.36437 192.361 0 194.695 0 197.565V217.466C0 219.37 0.687031 221.219 1.93469 222.672L8.54078 230.363C8.96125 230.852 9.70125 230.908 10.1925 230.497C10.6859 230.083 10.7469 229.353 10.3281 228.866L3.72203 221.174C2.83328 220.14 2.34375 218.823 2.34375 217.466V197.565C2.34375 195.972 3.65672 194.675 5.27062 194.675C6.73219 194.675 7.97937 195.754 8.17188 197.184L10.0372 211.041C10.2162 212.371 10.8497 213.621 11.8209 214.56L17.3734 219.927L17.3736 219.927L22.6297 225.007C23.0789 225.443 23.8278 225.453 24.2867 224.99C24.7394 224.533 24.7316 223.801 24.2691 223.354L19.013 218.273C18.4759 217.754 18.1791 217.059 18.1769 216.317C18.1747 215.574 18.4677 214.878 19.0017 214.356C20.0812 213.301 21.8836 213.305 22.9458 214.384L33.7886 225.292C35.2369 226.749 36.0344 228.675 36.0344 230.717V254.843C36.0344 255.482 36.5589 256 37.2062 256C37.8536 256 38.3781 255.482 38.3781 254.843V230.716C38.3781 228.065 37.3422 225.562 35.4613 223.67L24.6187 212.762ZM13.9256 233.053C13.5072 232.566 12.7678 232.506 12.2739 232.92C11.7805 233.333 11.7195 234.063 12.1383 234.551L17.7913 241.132C18.3959 241.836 18.7291 242.732 18.7291 243.655V254.843C18.7291 255.482 19.2536 256 19.9009 256C20.5483 256 21.0728 255.482 21.0728 254.843V243.655C21.0728 242.185 20.5422 240.757 19.5788 239.635L13.9256 233.053ZM38.2291 207.879H41.7709C43.0683 207.879 44.1236 206.837 44.1236 205.556V199.426H50.3309C51.6283 199.426 52.6836 198.384 52.6836 197.103V193.605C52.6836 192.324 51.6283 191.282 50.3309 191.282H44.1236V185.153C44.1236 183.872 43.0683 182.829 41.7709 182.829H38.2291C36.9317 182.829 35.8764 183.872 35.8764 185.153V191.282H29.6691C28.3717 191.282 27.3164 192.325 27.3164 193.606V197.103C27.3164 198.385 28.3717 199.427 29.6691 199.427H35.8764V205.556C35.8764 206.837 36.9317 207.879 38.2291 207.879ZM29.6603 197.103L29.6692 193.597H36.458C37.4297 193.597 38.2202 192.816 38.2202 191.857L38.2291 185.144L41.7798 185.153V191.857C41.7798 192.816 42.5705 193.597 43.542 193.597H50.3308L50.3397 193.606L50.3308 197.112H43.542C42.5703 197.112 41.7798 197.893 41.7798 198.852L41.7709 205.565L38.2202 205.556V198.852C38.2202 197.893 37.4295 197.112 36.458 197.112L29.6603 197.103ZM56.5102 203.78C56.8081 203.213 56.5842 202.515 56.0097 202.22C55.4353 201.926 54.728 202.147 54.4298 202.715C51.6172 208.068 46.088 211.394 40 211.394C31.0436 211.394 23.757 204.199 23.757 195.354C23.757 186.51 31.0436 179.314 40 179.314C48.9564 179.314 56.243 186.51 56.243 195.354C56.243 196.214 56.1733 197.077 56.0359 197.918C55.933 198.549 56.3673 199.143 57.0062 199.245C57.6458 199.347 58.2466 198.917 58.3498 198.286C58.507 197.324 58.5869 196.337 58.5869 195.354C58.5867 185.234 50.2487 177 40 177C29.7512 177 21.4133 185.234 21.4133 195.354C21.4133 205.475 29.7512 213.709 40 213.709C46.9666 213.709 53.293 209.905 56.5102 203.78ZM74.7294 192.361C72.0975 192.361 69.8514 194.303 69.5047 196.879L67.6394 210.736C67.5291 211.556 67.1384 212.327 66.5395 212.906L64.065 215.298C63.8662 214.323 63.3802 213.428 62.647 212.711C60.647 210.756 57.3336 210.781 55.3814 212.762L44.5386 223.67C42.6577 225.562 41.6217 228.065 41.6217 230.716V254.843C41.6217 255.482 42.1462 256 42.7936 256C43.4409 256 43.9655 255.482 43.9655 254.843V230.716C43.9655 228.675 44.763 226.748 46.2113 225.292L57.0541 214.384C58.1103 213.307 59.9175 213.299 60.9981 214.356C61.5322 214.878 61.8252 215.574 61.823 216.317C61.8208 217.059 61.5239 217.754 60.9869 218.273L55.7308 223.353C55.2683 223.8 55.2603 224.533 55.7131 224.99C56.1656 225.446 56.9078 225.455 57.3702 225.007L62.6263 219.927L62.6264 219.926L68.1789 214.559C69.1502 213.621 69.7837 212.371 69.9627 211.041L71.828 197.184C72.0205 195.754 73.2678 194.675 74.7292 194.675C76.3431 194.675 77.6561 195.971 77.6561 197.565V217.466C77.6561 218.823 77.1666 220.14 76.2778 221.174L60.4214 239.635C59.458 240.757 58.9273 242.185 58.9273 243.656V254.843C58.9273 255.482 59.4519 256 60.0992 256C60.7466 256 61.2711 255.482 61.2711 254.843V243.655C61.2711 242.732 61.6042 241.836 62.2089 241.132L78.0653 222.672C79.313 221.219 80 219.37 80 217.466V197.565C80 194.695 77.6355 192.361 74.7294 192.361Z" fill="black"/>
</g>
<path d="M284.653 386.732H207.693C206.512 386.732 205.555 387.547 205.555 388.552V426.782H211.968C214.33 426.782 216.244 428.412 216.244 430.423C216.244 432.433 214.329 434.063 211.968 434.063H205.555V439.525C205.555 440.53 206.512 441.345 207.693 441.345H286.791V388.552C286.791 387.547 285.834 386.732 284.653 386.732Z" fill="#B4E66E"/>
<path d="M312.445 415.859H286.791V441.346H320.996V423.141C320.996 419.119 317.167 415.859 312.445 415.859Z" fill="#FFDC64"/>
<path d="M286.791 421.32H309.951C312.312 421.32 314.226 422.95 314.226 424.961V441.345H286.791V421.32Z" fill="#FFC850"/>
<path d="M303.893 394.014H286.791V401.296H310.307V399.475C310.307 396.459 307.435 394.014 303.893 394.014Z" fill="#FFDC64"/>
<path d="M312.445 415.859L308.169 401.296H286.791V415.859H312.445Z" fill="#B4E6FF"/>
<path d="M312.445 423.141H320.996V430.423H316.721C314.359 430.423 312.445 428.793 312.445 426.782V423.141H312.445Z" fill="#F1F4FB"/>
<path d="M301.756 428.602C295.313 428.602 289.707 431.639 286.791 436.121V441.346H318.71C317.656 434.163 310.475 428.602 301.756 428.602Z" fill="#E1A546"/>
<path d="M314.226 433.213V441.345H318.71C318.251 438.218 316.63 435.4 314.226 433.213Z" fill="#FFC850"/>
<path d="M301.756 452.268C307.659 452.268 312.445 448.193 312.445 443.166C312.445 438.139 307.659 434.064 301.756 434.064C295.852 434.064 291.067 438.139 291.067 443.166C291.067 448.193 295.852 452.268 301.756 452.268Z" fill="#5B5D6E"/>
<path d="M295.342 406.757H309.772L308.169 401.296H286.791V415.859H293.205V408.577C293.204 407.572 294.162 406.757 295.342 406.757Z" fill="#9BD6FF"/>
<path d="M231.209 428.602C225.81 428.602 221.004 430.737 217.87 434.064H211.969H205.555V439.525C205.555 440.53 206.512 441.345 207.693 441.345H286.791V434.063H244.547C241.413 430.737 236.607 428.602 231.209 428.602Z" fill="#A0D755"/>
<path d="M231.209 452.268C237.112 452.268 241.898 448.193 241.898 443.166C241.898 438.139 237.112 434.064 231.209 434.064C225.305 434.064 220.52 438.139 220.52 443.166C220.52 448.193 225.305 452.268 231.209 452.268Z" fill="#5B5D6E"/>
<path d="M314.039 414.255L310.725 402.964C311.631 402.8 312.311 402.116 312.311 401.295V399.475C312.311 395.523 308.535 392.307 303.894 392.307H288.796V388.552C288.796 386.607 286.938 385.025 284.654 385.025H207.693C205.409 385.025 203.551 386.607 203.551 388.552V419.5C203.551 420.442 204.448 421.207 205.555 421.207C206.662 421.207 207.559 420.443 207.559 419.5V388.552C207.559 388.489 207.619 388.438 207.693 388.438H284.653C284.727 388.438 284.787 388.489 284.787 388.552V419.5C284.787 420.443 285.684 421.207 286.791 421.207C287.898 421.207 288.795 420.443 288.795 419.5V417.566H312.438C312.439 417.566 312.441 417.566 312.443 417.566C312.444 417.566 312.447 417.566 312.448 417.566C315.357 417.567 317.828 419.194 318.676 421.434H312.444C311.338 421.434 310.44 422.198 310.44 423.141V426.782C310.44 429.731 313.257 432.13 316.72 432.13H318.991V439.639H313.751C312.029 435.406 307.304 432.357 301.755 432.357C296.206 432.357 291.481 435.406 289.76 439.639H288.795V426.782C288.795 425.839 287.897 425.075 286.79 425.075C285.684 425.075 284.786 425.839 284.786 426.782V439.639H243.204C241.483 435.406 236.757 432.357 231.209 432.357C225.66 432.357 220.934 435.406 219.213 439.639H207.693C207.619 439.639 207.559 439.588 207.559 439.525V435.77H216.244C217.351 435.77 218.249 435.006 218.249 434.063C218.249 433.121 217.351 432.357 216.244 432.357H197.004C195.898 432.357 195 433.121 195 434.063C195 435.006 195.897 435.77 197.004 435.77H203.551V439.525C203.551 441.47 205.409 443.052 207.693 443.052H218.519C218.519 443.09 218.516 443.128 218.516 443.166C218.516 449.126 224.21 453.975 231.209 453.975C238.208 453.975 243.902 449.126 243.902 443.166C243.902 443.127 243.899 443.09 243.898 443.052H289.066C289.065 443.09 289.062 443.128 289.062 443.166C289.062 449.126 294.757 453.975 301.755 453.975C308.754 453.975 314.448 449.126 314.448 443.166C314.448 443.127 314.445 443.09 314.445 443.052H320.995C322.102 443.052 323 442.288 323 441.345V423.141C323 418.646 319.106 414.912 314.039 414.255ZM288.796 403.002H306.604L309.878 414.152H288.796V403.002ZM303.894 395.72C306.325 395.72 308.303 397.405 308.303 399.475V399.589H288.796V395.72H303.894ZM231.209 450.562C226.42 450.562 222.524 447.244 222.524 443.166C222.524 439.088 226.42 435.77 231.209 435.77C235.998 435.77 239.894 439.088 239.894 443.166C239.894 447.244 235.998 450.562 231.209 450.562ZM301.756 450.562C296.967 450.562 293.071 447.244 293.071 443.166C293.071 439.088 296.967 435.77 301.756 435.77C306.545 435.77 310.44 439.088 310.44 443.166C310.44 447.244 306.545 450.562 301.756 450.562ZM316.72 428.716C315.468 428.716 314.449 427.848 314.449 426.782V424.847H318.992V428.716H316.72V428.716Z" fill="black"/>
<path d="M231.209 439.639C228.925 439.639 227.067 441.221 227.067 443.166C227.067 445.111 228.925 446.693 231.209 446.693C233.493 446.693 235.351 445.111 235.351 443.166C235.351 441.221 233.493 439.639 231.209 439.639Z" fill="black"/>
<path d="M301.756 439.639C299.472 439.639 297.614 441.221 297.614 443.166C297.614 445.111 299.472 446.693 301.756 446.693C304.04 446.693 305.898 445.111 305.898 443.166C305.898 441.221 304.04 439.639 301.756 439.639Z" fill="black"/>
<path d="M246.307 434.064C246.307 435.006 247.204 435.77 248.311 435.77H278.24C279.347 435.77 280.244 435.006 280.244 434.064C280.244 433.121 279.347 432.357 278.24 432.357H248.311C247.204 432.357 246.307 433.121 246.307 434.064Z" fill="black"/>
<path d="M201.28 428.488H226.933C228.04 428.488 228.938 427.724 228.938 426.782C228.938 425.839 228.04 425.075 226.933 425.075H201.28C200.173 425.075 199.276 425.839 199.276 426.782C199.276 427.724 200.173 428.488 201.28 428.488Z" fill="black"/>
<path d="M261.859 401.909L244.036 417.086L234.764 409.191C233.981 408.524 232.712 408.524 231.93 409.191C231.147 409.857 231.147 410.938 231.93 411.604L242.619 420.707C243.01 421.04 243.523 421.207 244.036 421.207C244.548 421.207 245.061 421.04 245.453 420.707L264.693 404.323C265.475 403.656 265.475 402.576 264.693 401.909C263.91 401.243 262.641 401.243 261.859 401.909Z" fill="black"/>
<defs>
<clipPath id="clip0">
<rect width="101" height="94" fill="white" transform="translate(195)"/>
</clipPath>
<clipPath id="clip1">
<rect width="80" height="79" fill="white" transform="translate(0 177)"/>
</clipPath>
</defs>
</svg>
