<svg width="122" height="32" viewBox="0 0 122 32" fill="none" xmlns="http://www.w3.org/2000/svg">
<g filter="url(#filter0_d)">
<path d="M2.93627 20C2.39493 20 1.9656 19.8507 1.64827 19.552C1.3496 19.2533 1.20027 18.8333 1.20027 18.292V1.968C1.20027 1.42667 1.3496 1.00667 1.64827 0.708C1.9656 0.409332 2.39493 0.259999 2.93627 0.259999H8.48027C11.7096 0.259999 14.2109 1.128 15.9843 2.864C17.7763 4.58133 18.6723 6.99867 18.6723 10.116C18.6723 13.252 17.7763 15.688 15.9843 17.424C14.2109 19.1413 11.7096 20 8.48027 20H2.93627ZM8.25627 17.06C12.7923 17.06 15.0603 14.7453 15.0603 10.116C15.0603 5.50533 12.7923 3.2 8.25627 3.2H4.81227V17.06H8.25627ZM31.1016 20.252C29.179 20.252 27.5083 19.8413 26.0896 19.02C24.6896 18.1987 23.607 17.0227 22.8416 15.492C22.0763 13.9613 21.6936 12.1693 21.6936 10.116C21.6936 8.06267 22.067 6.28 22.8136 4.768C23.579 3.23733 24.671 2.06133 26.0896 1.24C27.5083 0.418666 29.179 0.0079987 31.1016 0.0079987C33.0243 0.0079987 34.6856 0.418666 36.0856 1.24C37.5043 2.06133 38.587 3.23733 39.3336 4.768C40.099 6.28 40.4816 8.06267 40.4816 10.116C40.4816 12.1693 40.099 13.9613 39.3336 15.492C38.5683 17.0227 37.4763 18.1987 36.0576 19.02C34.6576 19.8413 33.0056 20.252 31.1016 20.252ZM31.1016 17.368C32.9123 17.368 34.3216 16.7427 35.3296 15.492C36.3563 14.2413 36.8696 12.4493 36.8696 10.116C36.8696 7.78267 36.3563 6 35.3296 4.768C34.3216 3.51733 32.9123 2.892 31.1016 2.892C29.2723 2.892 27.8443 3.51733 26.8176 4.768C25.8096 6 25.3056 7.78267 25.3056 10.116C25.3056 12.4493 25.8096 14.2413 26.8176 15.492C27.8443 16.7427 29.2723 17.368 31.1016 17.368ZM59.082 0.119999C59.6046 0.119999 60.0153 0.287999 60.314 0.623999C60.6313 0.941333 60.79 1.37067 60.79 1.912V18.348C60.79 18.8893 60.6313 19.328 60.314 19.664C59.9966 20 59.586 20.168 59.082 20.168C58.4846 20.168 58.0273 19.9533 57.71 19.524L47.49 6.224V18.348C47.49 18.8893 47.3406 19.328 47.042 19.664C46.7433 20 46.3326 20.168 45.81 20.168C45.2873 20.168 44.8766 20 44.578 19.664C44.2793 19.328 44.13 18.8893 44.13 18.348V1.912C44.13 1.37067 44.2886 0.941333 44.606 0.623999C44.9233 0.287999 45.3433 0.119999 45.866 0.119999C46.4446 0.119999 46.8926 0.334666 47.21 0.763999L57.402 14.008V1.912C57.402 1.37067 57.5513 0.941333 57.85 0.623999C58.1673 0.287999 58.578 0.119999 59.082 0.119999ZM82.9399 17.844C83.0519 18.0867 83.1079 18.3293 83.1079 18.572C83.1079 19.0013 82.9306 19.3653 82.5759 19.664C82.2399 19.9627 81.8479 20.112 81.3999 20.112C81.1013 20.112 80.8213 20.0373 80.5599 19.888C80.2986 19.72 80.0933 19.468 79.9439 19.132L78.2639 15.38H68.4079L66.7279 19.132C66.5786 19.468 66.3733 19.72 66.1119 19.888C65.8506 20.0373 65.5613 20.112 65.2439 20.112C64.8146 20.112 64.4226 19.9627 64.0679 19.664C63.7133 19.3653 63.5359 19.0013 63.5359 18.572C63.5359 18.3293 63.5919 18.0867 63.7039 17.844L71.4319 1.24C71.5999 0.866665 71.8519 0.586665 72.1879 0.399999C72.5426 0.194666 72.9159 0.0919993 73.3079 0.0919993C73.6999 0.0919993 74.0639 0.194666 74.3999 0.399999C74.7546 0.586665 75.0159 0.866665 75.1839 1.24L82.9399 17.844ZM69.6399 12.58H77.0319L73.3359 4.264L69.6399 12.58ZM89.8636 20.14C89.3036 20.14 88.8556 19.9813 88.5196 19.664C88.2022 19.328 88.0436 18.8893 88.0436 18.348V3.228H82.9476C81.8276 3.228 81.2676 2.73333 81.2676 1.744C81.2676 0.754666 81.8276 0.259999 82.9476 0.259999H96.7516C97.8716 0.259999 98.4316 0.754666 98.4316 1.744C98.4316 2.73333 97.8716 3.228 96.7516 3.228H91.6556V18.348C91.6556 18.8893 91.4876 19.328 91.1516 19.664C90.8342 19.9813 90.4049 20.14 89.8636 20.14ZM102.303 20C101.762 20 101.333 19.8507 101.015 19.552C100.717 19.2533 100.567 18.8333 100.567 18.292V1.968C100.567 1.42667 100.717 1.00667 101.015 0.708C101.333 0.409332 101.762 0.259999 102.303 0.259999H112.411C112.953 0.259999 113.373 0.381332 113.671 0.623999C113.97 0.866666 114.119 1.212 114.119 1.66C114.119 2.12667 113.97 2.49067 113.671 2.752C113.373 2.99467 112.953 3.116 112.411 3.116H104.095V8.548H111.851C112.393 8.548 112.813 8.66933 113.111 8.912C113.41 9.15467 113.559 9.50933 113.559 9.976C113.559 10.424 113.41 10.7693 113.111 11.012C112.813 11.2547 112.393 11.376 111.851 11.376H104.095V17.144H112.411C112.953 17.144 113.373 17.2747 113.671 17.536C113.97 17.7787 114.119 18.1333 114.119 18.6C114.119 19.048 113.97 19.3933 113.671 19.636C113.373 19.8787 112.953 20 112.411 20H102.303Z" fill="#12232E"/>
</g>
<defs>
<filter id="filter0_d" x="0.200256" y="0.00805664" width="120.919" height="31.244" filterUnits="userSpaceOnUse" color-interpolation-filters="sRGB">
<feFlood flood-opacity="0" result="BackgroundImageFix"/>
<feColorMatrix in="SourceAlpha" type="matrix" values="0 0 0 0 0 0 0 0 0 0 0 0 0 0 0 0 0 0 127 0"/>
<feOffset dx="3" dy="7"/>
<feGaussianBlur stdDeviation="2"/>
<feColorMatrix type="matrix" values="0 0 0 0 0 0 0 0 0 0 0 0 0 0 0 0 0 0 0.25 0"/>
<feBlend mode="normal" in2="BackgroundImageFix" result="effect1_dropShadow"/>
<feBlend mode="normal" in="SourceGraphic" in2="effect1_dropShadow" result="shape"/>
</filter>
</defs>
</svg>
