<svg width="131" height="32" viewBox="0 0 131 32" fill="none" xmlns="http://www.w3.org/2000/svg">
<g filter="url(#filter0_d)">
<path d="M3.05541 20C2.51407 20 2.08474 19.8507 1.76741 19.552C1.46874 19.2533 1.31941 18.8333 1.31941 18.292V1.968C1.31941 1.42667 1.46874 1.00667 1.76741 0.708C2.08474 0.409332 2.51407 0.259999 3.05541 0.259999H13.1634C13.7047 0.259999 14.1247 0.381332 14.4234 0.623999C14.7221 0.866666 14.8714 1.212 14.8714 1.66C14.8714 2.12667 14.7221 2.49067 14.4234 2.752C14.1247 2.99467 13.7047 3.116 13.1634 3.116H4.84741V8.548H12.6034C13.1447 8.548 13.5647 8.66933 13.8634 8.912C14.1621 9.15467 14.3114 9.50933 14.3114 9.976C14.3114 10.424 14.1621 10.7693 13.8634 11.012C13.5647 11.2547 13.1447 11.376 12.6034 11.376H4.84741V17.144H13.1634C13.7047 17.144 14.1247 17.2747 14.4234 17.536C14.7221 17.7787 14.8714 18.1333 14.8714 18.6C14.8714 19.048 14.7221 19.3933 14.4234 19.636C14.1247 19.8787 13.7047 20 13.1634 20H3.05541ZM32.9603 17.424C33.2589 17.7787 33.4083 18.1333 33.4083 18.488C33.4083 18.936 33.2309 19.328 32.8763 19.664C32.5403 20 32.1483 20.168 31.7003 20.168C31.2336 20.168 30.8229 19.9627 30.4683 19.552L24.7843 12.496L19.0723 19.552C18.7363 19.944 18.3349 20.14 17.8683 20.14C17.4203 20.14 17.0189 19.9813 16.6643 19.664C16.3283 19.328 16.1603 18.936 16.1603 18.488C16.1603 18.1147 16.3003 17.76 16.5803 17.424L22.6843 9.976L16.8323 2.836C16.5523 2.53733 16.4123 2.18267 16.4123 1.772C16.4123 1.324 16.5803 0.941333 16.9163 0.623999C17.2523 0.287999 17.6443 0.119999 18.0923 0.119999C18.5589 0.119999 18.9696 0.325332 19.3243 0.735999L24.7843 7.484L30.2443 0.735999C30.5803 0.325332 30.9816 0.119999 31.4483 0.119999C31.8963 0.119999 32.2883 0.287999 32.6243 0.623999C32.9789 0.941333 33.1563 1.324 33.1563 1.772C33.1563 2.18267 33.0163 2.53733 32.7363 2.836L26.8843 9.976L32.9603 17.424ZM38.002 20.168C37.4607 20.168 37.022 20.0093 36.686 19.692C36.3687 19.356 36.21 18.908 36.21 18.348V1.968C36.21 1.42667 36.3594 1.00667 36.658 0.708C36.9754 0.409332 37.4047 0.259999 37.946 0.259999H44.834C46.9434 0.259999 48.586 0.791999 49.762 1.856C50.938 2.90133 51.526 4.376 51.526 6.28C51.526 8.184 50.938 9.668 49.762 10.732C48.586 11.796 46.9434 12.328 44.834 12.328H39.822V18.348C39.822 18.908 39.654 19.356 39.318 19.692C39.0007 20.0093 38.562 20.168 38.002 20.168ZM44.386 9.556C46.8687 9.556 48.11 8.47333 48.11 6.308C48.11 4.14267 46.8687 3.06 44.386 3.06H39.822V9.556H44.386ZM56.4024 20C55.8611 20 55.4411 19.8507 55.1424 19.552C54.8437 19.2533 54.6944 18.8427 54.6944 18.32V1.912C54.6944 1.37067 54.8531 0.941333 55.1704 0.623999C55.5064 0.287999 55.9451 0.119999 56.4864 0.119999C57.0464 0.119999 57.4851 0.287999 57.8024 0.623999C58.1384 0.941333 58.3064 1.37067 58.3064 1.912V17.032H66.1744C67.2944 17.032 67.8544 17.5267 67.8544 18.516C67.8544 19.5053 67.2944 20 66.1744 20H56.4024ZM77.9513 20.252C76.0286 20.252 74.3579 19.8413 72.9393 19.02C71.5393 18.1987 70.4566 17.0227 69.6913 15.492C68.9259 13.9613 68.5433 12.1693 68.5433 10.116C68.5433 8.06267 68.9166 6.28 69.6633 4.768C70.4286 3.23733 71.5206 2.06133 72.9393 1.24C74.3579 0.418666 76.0286 0.0079987 77.9513 0.0079987C79.8739 0.0079987 81.5353 0.418666 82.9353 1.24C84.3539 2.06133 85.4366 3.23733 86.1833 4.768C86.9486 6.28 87.3313 8.06267 87.3313 10.116C87.3313 12.1693 86.9486 13.9613 86.1833 15.492C85.4179 17.0227 84.3259 18.1987 82.9073 19.02C81.5073 19.8413 79.8553 20.252 77.9513 20.252ZM77.9513 17.368C79.7619 17.368 81.1713 16.7427 82.1793 15.492C83.2059 14.2413 83.7193 12.4493 83.7193 10.116C83.7193 7.78267 83.2059 6 82.1793 4.768C81.1713 3.51733 79.7619 2.892 77.9513 2.892C76.1219 2.892 74.6939 3.51733 73.6673 4.768C72.6593 6 72.1553 7.78267 72.1553 10.116C72.1553 12.4493 72.6593 14.2413 73.6673 15.492C74.6939 16.7427 76.1219 17.368 77.9513 17.368ZM106.772 17.732C106.996 18.068 107.108 18.3947 107.108 18.712C107.108 19.1413 106.93 19.496 106.576 19.776C106.24 20.056 105.838 20.196 105.372 20.196C105.073 20.196 104.784 20.1307 104.504 20C104.242 19.8507 104.018 19.636 103.832 19.356L100.108 13.7C99.7342 13.1027 99.3329 12.6827 98.9036 12.44C98.4929 12.1973 97.9516 12.076 97.2796 12.076H94.5356V18.348C94.5356 18.908 94.3769 19.356 94.0596 19.692C93.7422 20.0093 93.3129 20.168 92.7716 20.168C92.2302 20.168 91.7916 20.0093 91.4556 19.692C91.1382 19.356 90.9796 18.908 90.9796 18.348V1.968C90.9796 1.42667 91.1289 1.00667 91.4276 0.708C91.7449 0.409332 92.1742 0.259999 92.7156 0.259999H99.7156C101.956 0.259999 103.654 0.763999 104.812 1.772C105.988 2.76133 106.576 4.19867 106.576 6.084C106.576 7.61467 106.137 8.87467 105.26 9.864C104.401 10.8347 103.178 11.46 101.592 11.74C102.133 11.8707 102.609 12.104 103.02 12.44C103.43 12.776 103.832 13.2427 104.224 13.84L106.772 17.732ZM99.2116 9.304C100.574 9.304 101.573 9.052 102.208 8.548C102.842 8.02533 103.16 7.232 103.16 6.168C103.16 5.08533 102.842 4.30133 102.208 3.816C101.573 3.312 100.574 3.06 99.2116 3.06H94.5076V9.304H99.2116ZM112.184 20C111.643 20 111.214 19.8507 110.896 19.552C110.598 19.2533 110.448 18.8333 110.448 18.292V1.968C110.448 1.42667 110.598 1.00667 110.896 0.708C111.214 0.409332 111.643 0.259999 112.184 0.259999H122.292C122.834 0.259999 123.254 0.381332 123.552 0.623999C123.851 0.866666 124 1.212 124 1.66C124 2.12667 123.851 2.49067 123.552 2.752C123.254 2.99467 122.834 3.116 122.292 3.116H113.976V8.548H121.732C122.274 8.548 122.694 8.66933 122.992 8.912C123.291 9.15467 123.44 9.50933 123.44 9.976C123.44 10.424 123.291 10.7693 122.992 11.012C122.694 11.2547 122.274 11.376 121.732 11.376H113.976V17.144H122.292C122.834 17.144 123.254 17.2747 123.552 17.536C123.851 17.7787 124 18.1333 124 18.6C124 19.048 123.851 19.3933 123.552 19.636C123.254 19.8787 122.834 20 122.292 20H112.184Z" fill="#12232E"/>
</g>
<defs>
<filter id="filter0_d" x="0.319397" y="0.00805664" width="130.681" height="31.244" filterUnits="userSpaceOnUse" color-interpolation-filters="sRGB">
<feFlood flood-opacity="0" result="BackgroundImageFix"/>
<feColorMatrix in="SourceAlpha" type="matrix" values="0 0 0 0 0 0 0 0 0 0 0 0 0 0 0 0 0 0 127 0"/>
<feOffset dx="3" dy="7"/>
<feGaussianBlur stdDeviation="2"/>
<feColorMatrix type="matrix" values="0 0 0 0 0 0 0 0 0 0 0 0 0 0 0 0 0 0 0.25 0"/>
<feBlend mode="normal" in2="BackgroundImageFix" result="effect1_dropShadow"/>
<feBlend mode="normal" in="SourceGraphic" in2="effect1_dropShadow" result="shape"/>
</filter>
</defs>
</svg>
