<svg width="89" height="29" viewBox="0 0 89 29" fill="none" xmlns="http://www.w3.org/2000/svg">
<g filter="url(#filter0_d)">
<path d="M19.9115 0.119999C20.4528 0.119999 20.8821 0.287999 21.1995 0.623999C21.5168 0.941333 21.6755 1.37067 21.6755 1.912V18.348C21.6755 18.8893 21.5075 19.328 21.1715 19.664C20.8541 20 20.4341 20.168 19.9115 20.168C19.3701 20.168 18.9408 20 18.6235 19.664C18.3061 19.328 18.1475 18.8893 18.1475 18.348V11.432H8.03947V18.348C8.03947 18.8893 7.87147 19.328 7.53547 19.664C7.21814 20 6.7888 20.168 6.24747 20.168C5.7248 20.168 5.29547 20 4.95947 19.664C4.64214 19.328 4.48347 18.8893 4.48347 18.348V1.912C4.48347 1.37067 4.64214 0.941333 4.95947 0.623999C5.2768 0.287999 5.70614 0.119999 6.24747 0.119999C6.7888 0.119999 7.21814 0.287999 7.53547 0.623999C7.87147 0.941333 8.03947 1.37067 8.03947 1.912V8.52H18.1475V1.912C18.1475 1.37067 18.3061 0.941333 18.6235 0.623999C18.9408 0.287999 19.3701 0.119999 19.9115 0.119999ZM34.713 20.252C32.7903 20.252 31.1196 19.8413 29.701 19.02C28.301 18.1987 27.2183 17.0227 26.453 15.492C25.6876 13.9613 25.305 12.1693 25.305 10.116C25.305 8.06267 25.6783 6.28 26.425 4.768C27.1903 3.23733 28.2823 2.06133 29.701 1.24C31.1196 0.418666 32.7903 0.0079987 34.713 0.0079987C36.6356 0.0079987 38.297 0.418666 39.697 1.24C41.1156 2.06133 42.1983 3.23733 42.945 4.768C43.7103 6.28 44.093 8.06267 44.093 10.116C44.093 12.1693 43.7103 13.9613 42.945 15.492C42.1796 17.0227 41.0876 18.1987 39.669 19.02C38.269 19.8413 36.617 20.252 34.713 20.252ZM34.713 17.368C36.5236 17.368 37.933 16.7427 38.941 15.492C39.9676 14.2413 40.481 12.4493 40.481 10.116C40.481 7.78267 39.9676 6 38.941 4.768C37.933 3.51733 36.5236 2.892 34.713 2.892C32.8836 2.892 31.4556 3.51733 30.429 4.768C29.421 6 28.917 7.78267 28.917 10.116C28.917 12.4493 29.421 14.2413 30.429 15.492C31.4556 16.7427 32.8836 17.368 34.713 17.368ZM65.2693 0.119999C65.7919 0.119999 66.2119 0.287999 66.5293 0.623999C66.8466 0.941333 67.0053 1.37067 67.0053 1.912V18.488C67.0053 19.0107 66.8559 19.4213 66.5573 19.72C66.2586 20.0187 65.8666 20.168 65.3813 20.168C64.8959 20.168 64.5133 20.0187 64.2333 19.72C63.9533 19.4213 63.8133 19.0107 63.8133 18.488V6.952L59.0533 15.968C58.8293 16.3787 58.5866 16.6867 58.3253 16.892C58.0639 17.0787 57.7559 17.172 57.4013 17.172C57.0466 17.172 56.7386 17.0787 56.4773 16.892C56.2159 16.7053 55.9733 16.3973 55.7493 15.968L50.9613 7.092V18.488C50.9613 18.992 50.8119 19.4027 50.5133 19.72C50.2333 20.0187 49.8506 20.168 49.3653 20.168C48.8799 20.168 48.4973 20.0187 48.2173 19.72C47.9373 19.4213 47.7973 19.0107 47.7973 18.488V1.912C47.7973 1.37067 47.9466 0.941333 48.2453 0.623999C48.5626 0.287999 48.9826 0.119999 49.5053 0.119999C50.2333 0.119999 50.8026 0.521332 51.2133 1.324L57.4293 13.168L63.6173 1.324C64.0279 0.521332 64.5786 0.119999 65.2693 0.119999ZM73.0203 20C72.4789 20 72.0496 19.8507 71.7323 19.552C71.4336 19.2533 71.2843 18.8333 71.2843 18.292V1.968C71.2843 1.42667 71.4336 1.00667 71.7323 0.708C72.0496 0.409332 72.4789 0.259999 73.0203 0.259999H83.1283C83.6696 0.259999 84.0896 0.381332 84.3883 0.623999C84.6869 0.866666 84.8363 1.212 84.8363 1.66C84.8363 2.12667 84.6869 2.49067 84.3883 2.752C84.0896 2.99467 83.6696 3.116 83.1283 3.116H74.8123V8.548H82.5683C83.1096 8.548 83.5296 8.66933 83.8283 8.912C84.1269 9.15467 84.2763 9.50933 84.2763 9.976C84.2763 10.424 84.1269 10.7693 83.8283 11.012C83.5296 11.2547 83.1096 11.376 82.5683 11.376H74.8123V17.144H83.1283C83.6696 17.144 84.0896 17.2747 84.3883 17.536C84.6869 17.7787 84.8363 18.1333 84.8363 18.6C84.8363 19.048 84.6869 19.3933 84.3883 19.636C84.0896 19.8787 83.6696 20 83.1283 20H73.0203Z" fill="#12232E"/>
</g>
<defs>
<filter id="filter0_d" x="0.483459" y="0.00805664" width="88.3528" height="28.244" filterUnits="userSpaceOnUse" color-interpolation-filters="sRGB">
<feFlood flood-opacity="0" result="BackgroundImageFix"/>
<feColorMatrix in="SourceAlpha" type="matrix" values="0 0 0 0 0 0 0 0 0 0 0 0 0 0 0 0 0 0 127 0"/>
<feOffset dy="4"/>
<feGaussianBlur stdDeviation="2"/>
<feColorMatrix type="matrix" values="0 0 0 0 0 0 0 0 0 0 0 0 0 0 0 0 0 0 0.25 0"/>
<feBlend mode="normal" in2="BackgroundImageFix" result="effect1_dropShadow"/>
<feBlend mode="normal" in="SourceGraphic" in2="effect1_dropShadow" result="shape"/>
</filter>
</defs>
</svg>
