<svg width="1302" height="208" viewBox="0 0 1302 208" fill="none" xmlns="http://www.w3.org/2000/svg">
<path d="M457.511 22.46C458.942 22.46 460.077 22.904 460.915 23.792C461.754 24.6307 462.173 25.7653 462.173 27.196V70.634C462.173 72.0647 461.729 73.224 460.841 74.112C460.003 75 458.893 75.444 457.511 75.444C456.081 75.444 454.946 75 454.107 74.112C453.269 73.224 452.849 72.0647 452.849 70.634V52.356H426.135V70.634C426.135 72.0647 425.691 73.224 424.803 74.112C423.965 75 422.83 75.444 421.399 75.444C420.018 75.444 418.883 75 417.995 74.112C417.157 73.224 416.737 72.0647 416.737 70.634V27.196C416.737 25.7653 417.157 24.6307 417.995 23.792C418.834 22.904 419.969 22.46 421.399 22.46C422.83 22.46 423.965 22.904 424.803 23.792C425.691 24.6307 426.135 25.7653 426.135 27.196V44.66H452.849V27.196C452.849 25.7653 453.269 24.6307 454.107 23.792C454.946 22.904 456.081 22.46 457.511 22.46ZM489.082 75.592C485.382 75.592 482.126 74.8273 479.314 73.298C476.551 71.7687 474.405 69.5733 472.876 66.712C471.346 63.8507 470.582 60.5207 470.582 56.722C470.582 52.9233 471.346 49.618 472.876 46.806C474.405 43.9447 476.551 41.7493 479.314 40.22C482.126 38.6907 485.382 37.926 489.082 37.926C492.782 37.926 496.013 38.6907 498.776 40.22C501.588 41.7493 503.734 43.9447 505.214 46.806C506.743 49.618 507.508 52.9233 507.508 56.722C507.508 60.5207 506.743 63.8507 505.214 66.712C503.734 69.5733 501.588 71.7687 498.776 73.298C496.013 74.8273 492.782 75.592 489.082 75.592ZM489.008 68.414C492.017 68.414 494.311 67.4273 495.89 65.454C497.468 63.4807 498.258 60.57 498.258 56.722C498.258 52.9233 497.468 50.0373 495.89 48.064C494.311 46.0413 492.042 45.03 489.082 45.03C486.122 45.03 483.828 46.0413 482.2 48.064C480.621 50.0373 479.832 52.9233 479.832 56.722C479.832 60.57 480.621 63.4807 482.2 65.454C483.778 67.4273 486.048 68.414 489.008 68.414ZM563.48 40.812C563.825 39.924 564.319 39.258 564.96 38.814C565.651 38.37 566.391 38.148 567.18 38.148C568.315 38.148 569.326 38.5427 570.214 39.332C571.151 40.072 571.62 41.0093 571.62 42.144C571.62 42.7853 571.497 43.3527 571.25 43.846L559.04 72.484C558.645 73.4213 558.029 74.1367 557.19 74.63C556.401 75.1233 555.513 75.37 554.526 75.37C553.589 75.37 552.701 75.1233 551.862 74.63C551.073 74.1367 550.481 73.4213 550.086 72.484L541.28 51.32L532.77 72.484C532.375 73.4213 531.759 74.1367 530.92 74.63C530.131 75.1233 529.243 75.37 528.256 75.37C527.319 75.37 526.431 75.1233 525.592 74.63C524.753 74.1367 524.137 73.4213 523.742 72.484L511.606 43.846C511.359 43.2047 511.236 42.662 511.236 42.218C511.236 41.0833 511.729 40.1213 512.716 39.332C513.703 38.4933 514.788 38.074 515.972 38.074C516.811 38.074 517.575 38.296 518.266 38.74C518.957 39.184 519.475 39.85 519.82 40.738L528.552 63.308L537.506 40.96C537.901 40.0227 538.468 39.332 539.208 38.888C539.948 38.3947 540.762 38.148 541.65 38.148C542.538 38.148 543.352 38.3947 544.092 38.888C544.832 39.332 545.399 40.0227 545.794 40.96L554.822 63.382L563.48 40.812ZM602.621 75.444C601.289 75.444 600.179 75.074 599.291 74.334C598.452 73.5447 598.033 72.4347 598.033 71.004V42.44C598.033 41.0093 598.452 39.924 599.291 39.184C600.179 38.444 601.289 38.074 602.621 38.074C603.953 38.074 605.063 38.444 605.951 39.184C606.839 39.924 607.283 41.0093 607.283 42.44V71.004C607.283 72.4347 606.839 73.5447 605.951 74.334C605.063 75.074 603.953 75.444 602.621 75.444ZM602.621 31.488C600.943 31.488 599.611 31.044 598.625 30.156C597.638 29.2187 597.145 28.01 597.145 26.53C597.145 25.05 597.638 23.866 598.625 22.978C599.611 22.09 600.943 21.646 602.621 21.646C604.249 21.646 605.556 22.09 606.543 22.978C607.579 23.866 608.097 25.05 608.097 26.53C608.097 28.01 607.603 29.2187 606.617 30.156C605.63 31.044 604.298 31.488 602.621 31.488ZM637.208 68.562C639.674 68.71 640.908 69.82 640.908 71.892C640.908 73.076 640.414 73.9887 639.428 74.63C638.49 75.222 637.134 75.4687 635.358 75.37L633.36 75.222C625.072 74.63 620.928 70.19 620.928 61.902V45.77H617.228C615.896 45.77 614.86 45.474 614.12 44.882C613.429 44.29 613.084 43.4267 613.084 42.292C613.084 41.1573 613.429 40.294 614.12 39.702C614.86 39.11 615.896 38.814 617.228 38.814H620.928V32.006C620.928 30.674 621.347 29.6133 622.186 28.824C623.024 28.0347 624.159 27.64 625.59 27.64C626.971 27.64 628.081 28.0347 628.92 28.824C629.758 29.6133 630.178 30.674 630.178 32.006V38.814H636.468C637.8 38.814 638.811 39.11 639.502 39.702C640.242 40.294 640.612 41.1573 640.612 42.292C640.612 43.4267 640.242 44.29 639.502 44.882C638.811 45.474 637.8 45.77 636.468 45.77H630.178V62.568C630.178 66.2187 631.855 68.1673 635.21 68.414L637.208 68.562ZM732.048 25.346C732.393 24.3593 732.936 23.6193 733.676 23.126C734.465 22.6327 735.328 22.386 736.266 22.386C737.45 22.386 738.461 22.756 739.3 23.496C740.188 24.236 740.632 25.2227 740.632 26.456C740.632 26.9 740.508 27.5413 740.262 28.38L724.352 72.41C723.957 73.3967 723.291 74.1613 722.354 74.704C721.466 75.2467 720.479 75.518 719.394 75.518C718.308 75.518 717.297 75.2467 716.36 74.704C715.422 74.1613 714.781 73.3967 714.436 72.41L702.152 37.556L689.646 72.41C689.251 73.3967 688.585 74.1613 687.648 74.704C686.76 75.2467 685.773 75.518 684.688 75.518C683.602 75.518 682.591 75.2467 681.654 74.704C680.766 74.1613 680.149 73.3967 679.804 72.41L663.894 28.38C663.647 27.64 663.524 26.9987 663.524 26.456C663.524 25.2227 663.968 24.236 664.856 23.496C665.793 22.756 666.878 22.386 668.112 22.386C669.098 22.386 669.986 22.6327 670.776 23.126C671.565 23.6193 672.132 24.3593 672.478 25.346L685.058 61.532L698.008 25.568C698.353 24.5813 698.92 23.8167 699.71 23.274C700.499 22.682 701.362 22.386 702.3 22.386C703.237 22.386 704.1 22.682 704.89 23.274C705.728 23.8167 706.32 24.606 706.666 25.642L719.246 61.976L732.048 25.346ZM760.222 75.592C756.522 75.592 753.266 74.8273 750.454 73.298C747.691 71.7687 745.545 69.5733 744.016 66.712C742.487 63.8507 741.722 60.5207 741.722 56.722C741.722 52.9233 742.487 49.618 744.016 46.806C745.545 43.9447 747.691 41.7493 750.454 40.22C753.266 38.6907 756.522 37.926 760.222 37.926C763.922 37.926 767.153 38.6907 769.916 40.22C772.728 41.7493 774.874 43.9447 776.354 46.806C777.883 49.618 778.648 52.9233 778.648 56.722C778.648 60.5207 777.883 63.8507 776.354 66.712C774.874 69.5733 772.728 71.7687 769.916 73.298C767.153 74.8273 763.922 75.592 760.222 75.592ZM760.148 68.414C763.157 68.414 765.451 67.4273 767.03 65.454C768.609 63.4807 769.398 60.57 769.398 56.722C769.398 52.9233 768.609 50.0373 767.03 48.064C765.451 46.0413 763.182 45.03 760.222 45.03C757.262 45.03 754.968 46.0413 753.34 48.064C751.761 50.0373 750.972 52.9233 750.972 56.722C750.972 60.57 751.761 63.4807 753.34 65.454C754.919 67.4273 757.188 68.414 760.148 68.414ZM806.487 38.074C807.769 37.9753 808.781 38.2467 809.521 38.888C810.261 39.5293 810.631 40.4913 810.631 41.774C810.631 43.106 810.31 44.0927 809.669 44.734C809.027 45.3753 807.868 45.7947 806.191 45.992L803.971 46.214C801.06 46.51 798.914 47.4967 797.533 49.174C796.201 50.8513 795.535 52.948 795.535 55.464V71.004C795.535 72.4347 795.091 73.5447 794.203 74.334C793.315 75.074 792.205 75.444 790.873 75.444C789.541 75.444 788.431 75.074 787.543 74.334C786.704 73.5447 786.285 72.4347 786.285 71.004V42.366C786.285 40.9847 786.704 39.924 787.543 39.184C788.431 38.444 789.516 38.074 790.799 38.074C792.081 38.074 793.117 38.444 793.907 39.184C794.696 39.8747 795.091 40.886 795.091 42.218V45.178C796.028 43.0073 797.409 41.33 799.235 40.146C801.109 38.962 803.181 38.296 805.451 38.148L806.487 38.074ZM846.803 67.822C847.789 68.7593 848.283 69.82 848.283 71.004C848.283 72.1387 847.863 73.15 847.025 74.038C846.235 74.926 845.298 75.37 844.213 75.37C843.127 75.37 842.116 74.926 841.179 74.038L823.863 58.35V71.004C823.863 72.4347 823.419 73.52 822.531 74.26C821.643 75 820.533 75.37 819.201 75.37C817.869 75.37 816.759 75 815.871 74.26C815.032 73.52 814.613 72.4347 814.613 71.004V26.826C814.613 25.3953 815.032 24.31 815.871 23.57C816.759 22.83 817.869 22.46 819.201 22.46C820.533 22.46 821.643 22.83 822.531 23.57C823.419 24.31 823.863 25.3953 823.863 26.826V54.65L839.699 39.48C840.587 38.592 841.598 38.148 842.733 38.148C843.867 38.148 844.854 38.5673 845.693 39.406C846.531 40.2447 846.951 41.2313 846.951 42.366C846.951 43.5007 846.482 44.5367 845.545 45.474L833.927 56.278L846.803 67.822ZM866.879 75.592C861.501 75.592 857.16 74.5313 853.855 72.41C852.276 71.4727 851.487 70.1407 851.487 68.414C851.487 67.4273 851.758 66.638 852.301 66.046C852.843 65.4047 853.509 65.084 854.299 65.084C855.137 65.084 856.297 65.4787 857.777 66.268C859.355 67.008 860.786 67.5753 862.069 67.97C863.401 68.3647 865.078 68.562 867.101 68.562C869.173 68.562 870.776 68.2167 871.911 67.526C873.095 66.8353 873.687 65.8733 873.687 64.64C873.687 63.8013 873.44 63.1353 872.947 62.642C872.503 62.1487 871.664 61.7047 870.431 61.31C869.247 60.866 867.421 60.3727 864.955 59.83C860.564 58.942 857.407 57.684 855.483 56.056C853.608 54.428 852.671 52.1833 852.671 49.322C852.671 47.1513 853.312 45.2027 854.595 43.476C855.877 41.7 857.629 40.3433 859.849 39.406C862.118 38.4193 864.683 37.926 867.545 37.926C869.617 37.926 871.615 38.1973 873.539 38.74C875.463 39.2333 877.189 39.9733 878.719 40.96C880.297 41.9467 881.087 43.254 881.087 44.882C881.087 45.8687 880.815 46.7073 880.273 47.398C879.73 48.0393 879.064 48.36 878.275 48.36C877.732 48.36 877.189 48.2613 876.647 48.064C876.153 47.8173 875.512 47.472 874.723 47.028C873.292 46.288 872.059 45.7453 871.023 45.4C869.987 45.0053 868.704 44.808 867.175 44.808C865.349 44.808 863.894 45.178 862.809 45.918C861.773 46.658 861.255 47.6693 861.255 48.952C861.255 50.1853 861.797 51.1227 862.883 51.764C863.968 52.4053 866.065 53.0467 869.173 53.688C872.478 54.3787 875.068 55.168 876.943 56.056C878.817 56.944 880.149 58.054 880.939 59.386C881.777 60.718 882.197 62.42 882.197 64.492C882.197 67.8467 880.791 70.5353 877.979 72.558C875.216 74.5807 871.516 75.592 866.879 75.592Z" fill="white"/>
<line x1="381" y1="91.5" x2="899.001" y2="91.5" stroke="#78E751" stroke-width="5"/>
</svg>
