<svg width="284" height="72" viewBox="0 0 284 72" fill="none" xmlns="http://www.w3.org/2000/svg">
<g filter="url(#filter0_d)">
<rect x="6.5" y="2.5" width="271" height="59" rx="22.5" stroke="url(#paint0_linear)" stroke-width="5"/>
<path d="M57.226 39.202C57.4967 39.4533 57.632 39.7337 57.632 40.043C57.632 40.3137 57.516 40.565 57.284 40.797C57.0713 41.0097 56.82 41.116 56.53 41.116C56.2787 41.116 56.0177 41 55.747 40.768L44.901 31.285V39.927C44.901 40.2943 44.7947 40.594 44.582 40.826C44.3693 41.0387 44.0793 41.145 43.712 41.145C43.3447 41.145 43.0547 41.0387 42.842 40.826C42.6293 40.594 42.523 40.2943 42.523 39.927V21.628C42.523 21.2607 42.6293 20.9707 42.842 20.758C43.0547 20.526 43.3447 20.41 43.712 20.41C44.0793 20.41 44.3693 20.526 44.582 20.758C44.7947 20.9707 44.901 21.2607 44.901 21.628V29.951L55.254 20.758C55.4667 20.5453 55.718 20.439 56.008 20.439C56.298 20.439 56.5493 20.555 56.762 20.787C56.9747 20.9997 57.081 21.2413 57.081 21.512C57.081 21.802 56.9553 22.0727 56.704 22.324L47.337 30.56L57.226 39.202ZM76.016 20.41C76.364 20.41 76.6346 20.526 76.828 20.758C77.0213 20.9707 77.118 21.2607 77.118 21.628V39.927C77.118 40.2943 77.0116 40.594 76.799 40.826C76.6056 41.0387 76.3253 41.145 75.958 41.145C75.5906 41.145 75.2716 40.9807 75.001 40.652L62.966 24.557V39.927C62.966 40.2943 62.8596 40.594 62.647 40.826C62.4536 41.0387 62.183 41.145 61.835 41.145C61.487 41.145 61.2163 41.0387 61.023 40.826C60.8296 40.594 60.733 40.2943 60.733 39.927V21.628C60.733 21.2607 60.8296 20.9707 61.023 20.758C61.2356 20.526 61.5256 20.41 61.893 20.41C62.2796 20.41 62.6083 20.5743 62.879 20.903L74.885 36.998V21.628C74.885 21.2607 74.9816 20.9707 75.175 20.758C75.3876 20.526 75.668 20.41 76.016 20.41ZM90.7264 41.232C88.8318 41.232 87.1788 40.8067 85.7674 39.956C84.3754 39.1053 83.3024 37.897 82.5484 36.331C81.7944 34.765 81.4174 32.9187 81.4174 30.792C81.4174 28.646 81.7848 26.79 82.5194 25.224C83.2734 23.6387 84.3464 22.4303 85.7384 21.599C87.1498 20.7483 88.8124 20.323 90.7264 20.323C92.6404 20.323 94.2934 20.7483 95.6854 21.599C97.0968 22.4303 98.1698 23.6387 98.9044 25.224C99.6584 26.79 100.035 28.6363 100.035 30.763C100.035 32.8897 99.6584 34.7457 98.9044 36.331C98.1504 37.897 97.0678 39.1053 95.6564 39.956C94.2644 40.8067 92.6211 41.232 90.7264 41.232ZM90.7264 39.202C92.8918 39.202 94.5738 38.477 95.7724 37.027C96.9904 35.5577 97.5994 33.4697 97.5994 30.763C97.5994 28.0563 97.0001 25.978 95.8014 24.528C94.6028 23.078 92.9111 22.353 90.7264 22.353C88.5611 22.353 86.8694 23.0877 85.6514 24.557C84.4528 26.007 83.8534 28.0757 83.8534 30.763C83.8534 33.4503 84.4528 35.5287 85.6514 36.998C86.8694 38.4673 88.5611 39.202 90.7264 39.202ZM129.994 21.135C130.071 20.8837 130.206 20.7 130.4 20.584C130.593 20.4487 130.806 20.381 131.038 20.381C131.347 20.381 131.608 20.4777 131.821 20.671C132.053 20.845 132.169 21.0867 132.169 21.396C132.169 21.5313 132.14 21.686 132.082 21.86L125.528 40.333C125.431 40.6037 125.267 40.8163 125.035 40.971C124.803 41.1063 124.542 41.174 124.252 41.174C123.981 41.174 123.73 41.1063 123.498 40.971C123.266 40.8163 123.101 40.6037 123.005 40.333L117.321 24.267L111.579 40.333C111.482 40.6037 111.318 40.8163 111.086 40.971C110.854 41.1063 110.602 41.174 110.332 41.174C110.061 41.174 109.81 41.1063 109.578 40.971C109.346 40.8163 109.181 40.6037 109.085 40.333L102.502 21.86C102.444 21.7053 102.415 21.5603 102.415 21.425C102.415 21.1157 102.531 20.8643 102.763 20.671C103.014 20.4777 103.294 20.381 103.604 20.381C103.836 20.381 104.048 20.4487 104.242 20.584C104.454 20.7 104.599 20.8837 104.677 21.135L110.39 37.607L116.19 21.309C116.286 21.019 116.441 20.8063 116.654 20.671C116.866 20.5163 117.098 20.439 117.35 20.439C117.601 20.439 117.833 20.5163 118.046 20.671C118.258 20.8257 118.413 21.048 118.51 21.338L124.223 37.665L129.994 21.135ZM161.412 20.41C161.78 20.41 162.06 20.526 162.253 20.758C162.466 20.9707 162.572 21.2607 162.572 21.628V39.985C162.572 40.333 162.476 40.6133 162.282 40.826C162.089 41.0387 161.818 41.145 161.47 41.145C161.122 41.145 160.861 41.0387 160.687 40.826C160.513 40.6133 160.426 40.333 160.426 39.985V25.166L154.133 37.23C153.863 37.7907 153.466 38.071 152.944 38.071C152.442 38.071 152.045 37.7907 151.755 37.23L145.433 25.311V39.985C145.433 40.333 145.337 40.6133 145.143 40.826C144.969 41.0387 144.708 41.145 144.36 41.145C144.012 41.145 143.742 41.0387 143.548 40.826C143.355 40.6133 143.258 40.333 143.258 39.985V21.628C143.258 21.2607 143.365 20.9707 143.577 20.758C143.79 20.526 144.08 20.41 144.447 20.41C144.931 20.41 145.317 20.6903 145.607 21.251L152.973 35.374L160.252 21.251C160.407 20.9417 160.571 20.729 160.745 20.613C160.939 20.4777 161.161 20.41 161.412 20.41ZM176.197 41.232C174.302 41.232 172.649 40.8067 171.238 39.956C169.846 39.1053 168.773 37.897 168.019 36.331C167.265 34.765 166.888 32.9187 166.888 30.792C166.888 28.646 167.255 26.79 167.99 25.224C168.744 23.6387 169.817 22.4303 171.209 21.599C172.62 20.7483 174.283 20.323 176.197 20.323C178.111 20.323 179.764 20.7483 181.156 21.599C182.567 22.4303 183.64 23.6387 184.375 25.224C185.129 26.79 185.506 28.6363 185.506 30.763C185.506 32.8897 185.129 34.7457 184.375 36.331C183.621 37.897 182.538 39.1053 181.127 39.956C179.735 40.8067 178.092 41.232 176.197 41.232ZM176.197 39.202C178.362 39.202 180.044 38.477 181.243 37.027C182.461 35.5577 183.07 33.4697 183.07 30.763C183.07 28.0563 182.471 25.978 181.272 24.528C180.073 23.078 178.382 22.353 176.197 22.353C174.032 22.353 172.34 23.0877 171.122 24.557C169.923 26.007 169.324 28.0757 169.324 30.763C169.324 33.4503 169.923 35.5287 171.122 36.998C172.34 38.4673 174.032 39.202 176.197 39.202ZM205.391 39.521C205.526 39.7337 205.594 39.956 205.594 40.188C205.594 40.478 205.478 40.7197 205.246 40.913C205.033 41.087 204.782 41.174 204.492 41.174C204.047 41.174 203.699 40.9807 203.448 40.594L199.562 34.446C199.059 33.6533 198.537 33.112 197.996 32.822C197.454 32.5127 196.72 32.358 195.792 32.358H192.138V39.927C192.138 40.2943 192.031 40.594 191.819 40.826C191.606 41.0387 191.326 41.145 190.978 41.145C190.61 41.145 190.32 41.0387 190.108 40.826C189.895 40.594 189.789 40.2943 189.789 39.927V21.715C189.789 21.367 189.895 21.0867 190.108 20.874C190.34 20.6613 190.639 20.555 191.007 20.555H198.199C200.422 20.555 202.114 21.048 203.274 22.034C204.453 23.02 205.043 24.47 205.043 26.384C205.043 28.008 204.569 29.313 203.622 30.299C202.694 31.285 201.36 31.8843 199.62 32.097C200.103 32.2517 200.538 32.503 200.925 32.851C201.311 33.199 201.698 33.6823 202.085 34.301L205.391 39.521ZM197.996 30.386C199.581 30.386 200.76 30.0573 201.534 29.4C202.326 28.7427 202.723 27.747 202.723 26.413C202.723 25.0983 202.336 24.122 201.563 23.484C200.789 22.846 199.6 22.527 197.996 22.527H192.138V30.386H197.996ZM210.887 41C210.52 41 210.22 40.8937 209.988 40.681C209.776 40.4683 209.669 40.188 209.669 39.84V21.715C209.669 21.367 209.776 21.0867 209.988 20.874C210.22 20.6613 210.52 20.555 210.887 20.555H221.733C222.081 20.555 222.352 20.642 222.545 20.816C222.739 20.99 222.835 21.2317 222.835 21.541C222.835 21.8503 222.739 22.092 222.545 22.266C222.352 22.44 222.081 22.527 221.733 22.527H212.018V29.632H221.153C221.501 29.632 221.772 29.719 221.965 29.893C222.159 30.067 222.255 30.3087 222.255 30.618C222.255 30.9273 222.159 31.169 221.965 31.343C221.772 31.517 221.501 31.604 221.153 31.604H212.018V39.028H221.733C222.081 39.028 222.352 39.115 222.545 39.289C222.739 39.4437 222.835 39.6853 222.835 40.014C222.835 40.3233 222.739 40.565 222.545 40.739C222.352 40.913 222.081 41 221.733 41H210.887Z" fill="#FFFBFB"/>
</g>
<defs>
<filter id="filter0_d" x="0" y="0" width="284" height="72" filterUnits="userSpaceOnUse" color-interpolation-filters="sRGB">
<feFlood flood-opacity="0" result="BackgroundImageFix"/>
<feColorMatrix in="SourceAlpha" type="matrix" values="0 0 0 0 0 0 0 0 0 0 0 0 0 0 0 0 0 0 127 0"/>
<feOffset dy="4"/>
<feGaussianBlur stdDeviation="2"/>
<feColorMatrix type="matrix" values="0 0 0 0 0 0 0 0 0 0 0 0 0 0 0 0 0 0 0.25 0"/>
<feBlend mode="normal" in2="BackgroundImageFix" result="effect1_dropShadow"/>
<feBlend mode="normal" in="SourceGraphic" in2="effect1_dropShadow" result="shape"/>
</filter>
<linearGradient id="paint0_linear" x1="142" y1="0" x2="142" y2="64" gradientUnits="userSpaceOnUse">
<stop stop-color="#78E751"/>
<stop offset="0.419792" stop-color="#78E751" stop-opacity="0.27"/>
<stop offset="1" stop-color="#78E751" stop-opacity="0.38"/>
</linearGradient>
</defs>
</svg>
