<svg width="90" height="32" viewBox="0 0 90 32" fill="none" xmlns="http://www.w3.org/2000/svg">
<g filter="url(#filter0_d)">
<path d="M3.02936 20C2.48803 20 2.06803 19.8507 1.76936 19.552C1.47069 19.2533 1.32136 18.8427 1.32136 18.32V1.912C1.32136 1.37067 1.48003 0.941333 1.79736 0.623999C2.13336 0.287999 2.57203 0.119999 3.11336 0.119999C3.67336 0.119999 4.11203 0.287999 4.42936 0.623999C4.76536 0.941333 4.93336 1.37067 4.93336 1.912V17.032H12.8014C13.9214 17.032 14.4814 17.5267 14.4814 18.516C14.4814 19.5053 13.9214 20 12.8014 20H3.02936ZM24.5782 20.252C22.6555 20.252 20.9849 19.8413 19.5662 19.02C18.1662 18.1987 17.0835 17.0227 16.3182 15.492C15.5529 13.9613 15.1702 12.1693 15.1702 10.116C15.1702 8.06267 15.5435 6.28 16.2902 4.768C17.0555 3.23733 18.1475 2.06133 19.5662 1.24C20.9849 0.418666 22.6555 0.0079987 24.5782 0.0079987C26.5009 0.0079987 28.1622 0.418666 29.5622 1.24C30.9809 2.06133 32.0635 3.23733 32.8102 4.768C33.5755 6.28 33.9582 8.06267 33.9582 10.116C33.9582 12.1693 33.5755 13.9613 32.8102 15.492C32.0449 17.0227 30.9529 18.1987 29.5342 19.02C28.1342 19.8413 26.4822 20.252 24.5782 20.252ZM24.5782 17.368C26.3889 17.368 27.7982 16.7427 28.8062 15.492C29.8329 14.2413 30.3462 12.4493 30.3462 10.116C30.3462 7.78267 29.8329 6 28.8062 4.768C27.7982 3.51733 26.3889 2.892 24.5782 2.892C22.7489 2.892 21.3209 3.51733 20.2942 4.768C19.2862 6 18.7822 7.78267 18.7822 10.116C18.7822 12.4493 19.2862 14.2413 20.2942 15.492C21.3209 16.7427 22.7489 17.368 24.5782 17.368ZM52.6425 9.332C53.0718 9.332 53.4172 9.46267 53.6785 9.724C53.9398 9.96667 54.0705 10.2933 54.0705 10.704V16.724C54.0705 17.5827 53.9585 18.1893 53.7345 18.544C53.5105 18.8987 53.0532 19.188 52.3625 19.412C51.6158 19.6733 50.7478 19.8787 49.7585 20.028C48.7692 20.1773 47.8172 20.252 46.9025 20.252C44.8678 20.252 43.1038 19.8507 41.6105 19.048C40.1172 18.2453 38.9692 17.088 38.1665 15.576C37.3825 14.0453 36.9905 12.2253 36.9905 10.116C36.9905 8.044 37.3825 6.252 38.1665 4.74C38.9692 3.20933 40.0985 2.04267 41.5545 1.24C43.0105 0.418666 44.7278 0.0079987 46.7065 0.0079987C49.3385 0.0079987 51.4945 0.717332 53.1745 2.136C53.3985 2.34133 53.5572 2.54667 53.6505 2.752C53.7625 2.95733 53.8185 3.2 53.8185 3.48C53.8185 3.89067 53.7065 4.236 53.4825 4.516C53.2585 4.796 52.9878 4.936 52.6705 4.936C52.4652 4.936 52.2785 4.908 52.1105 4.852C51.9425 4.77733 51.7465 4.66533 51.5225 4.516C50.7012 3.93733 49.9359 3.536 49.2265 3.312C48.5172 3.06933 47.7145 2.948 46.8185 2.948C44.7838 2.948 43.2438 3.55467 42.1985 4.768C41.1718 5.96267 40.6585 7.74533 40.6585 10.116C40.6585 14.9693 42.7865 17.396 47.0425 17.396C48.3118 17.396 49.5812 17.2187 50.8505 16.864V11.908H47.6865C47.2385 11.908 46.8838 11.796 46.6225 11.572C46.3798 11.348 46.2585 11.0307 46.2585 10.62C46.2585 10.2093 46.3798 9.892 46.6225 9.668C46.8838 9.444 47.2385 9.332 47.6865 9.332H52.6425ZM59.9337 20.168C59.3923 20.168 58.9537 20 58.6177 19.664C58.3003 19.328 58.1417 18.8893 58.1417 18.348V1.912C58.1417 1.37067 58.3003 0.941333 58.6177 0.623999C58.9537 0.287999 59.3923 0.119999 59.9337 0.119999C60.4937 0.119999 60.9323 0.287999 61.2497 0.623999C61.5857 0.941333 61.7537 1.37067 61.7537 1.912V18.348C61.7537 18.8893 61.5857 19.328 61.2497 19.664C60.9323 20 60.4937 20.168 59.9337 20.168ZM80.9687 0.119999C81.4913 0.119999 81.902 0.287999 82.2007 0.623999C82.518 0.941333 82.6767 1.37067 82.6767 1.912V18.348C82.6767 18.8893 82.518 19.328 82.2007 19.664C81.8833 20 81.4727 20.168 80.9687 20.168C80.3713 20.168 79.914 19.9533 79.5967 19.524L69.3767 6.224V18.348C69.3767 18.8893 69.2273 19.328 68.9287 19.664C68.63 20 68.2193 20.168 67.6967 20.168C67.174 20.168 66.7633 20 66.4647 19.664C66.166 19.328 66.0167 18.8893 66.0167 18.348V1.912C66.0167 1.37067 66.1753 0.941333 66.4927 0.623999C66.81 0.287999 67.23 0.119999 67.7527 0.119999C68.3313 0.119999 68.7793 0.334666 69.0967 0.763999L79.2887 14.008V1.912C79.2887 1.37067 79.438 0.941333 79.7367 0.623999C80.054 0.287999 80.4647 0.119999 80.9687 0.119999Z" fill="#12232E"/>
</g>
<defs>
<filter id="filter0_d" x="0.321365" y="0.00805664" width="89.3553" height="31.244" filterUnits="userSpaceOnUse" color-interpolation-filters="sRGB">
<feFlood flood-opacity="0" result="BackgroundImageFix"/>
<feColorMatrix in="SourceAlpha" type="matrix" values="0 0 0 0 0 0 0 0 0 0 0 0 0 0 0 0 0 0 127 0"/>
<feOffset dx="3" dy="7"/>
<feGaussianBlur stdDeviation="2"/>
<feColorMatrix type="matrix" values="0 0 0 0 0 0 0 0 0 0 0 0 0 0 0 0 0 0 0.25 0"/>
<feBlend mode="normal" in2="BackgroundImageFix" result="effect1_dropShadow"/>
<feBlend mode="normal" in="SourceGraphic" in2="effect1_dropShadow" result="shape"/>
</filter>
</defs>
</svg>
