<svg width="373" height="262" viewBox="0 0 373 262" fill="none" xmlns="http://www.w3.org/2000/svg">
<path d="M21.628 39.432C18.1 39.432 15.022 38.64 12.394 37.056C9.802 35.472 7.804 33.222 6.4 30.306C4.996 27.39 4.294 23.952 4.294 19.992C4.294 15.996 4.978 12.54 6.346 9.624C7.75 6.672 9.748 4.422 12.34 2.874C14.968 1.29 18.064 0.497997 21.628 0.497997C25.192 0.497997 28.27 1.29 30.862 2.874C33.49 4.422 35.488 6.672 36.856 9.624C38.26 12.54 38.962 15.978 38.962 19.938C38.962 23.898 38.26 27.354 36.856 30.306C35.452 33.222 33.436 35.472 30.808 37.056C28.216 38.64 25.156 39.432 21.628 39.432ZM21.628 35.652C25.66 35.652 28.792 34.302 31.024 31.602C33.292 28.866 34.426 24.978 34.426 19.938C34.426 14.898 33.31 11.028 31.078 8.328C28.846 5.628 25.696 4.278 21.628 4.278C17.596 4.278 14.446 5.646 12.178 8.382C9.946 11.082 8.83 14.934 8.83 19.938C8.83 24.942 9.946 28.812 12.178 31.548C14.446 34.284 17.596 35.652 21.628 35.652ZM59.5183 12.054C65.8183 12.054 68.9683 15.528 68.9683 22.476V37.11C68.9683 37.794 68.7703 38.334 68.3743 38.73C68.0143 39.09 67.4923 39.27 66.8083 39.27C66.1243 39.27 65.5843 39.09 65.1883 38.73C64.7923 38.334 64.5943 37.794 64.5943 37.11V22.746C64.5943 20.298 64.1083 18.516 63.1363 17.4C62.2003 16.284 60.6883 15.726 58.6003 15.726C56.1883 15.726 54.2623 16.464 52.8223 17.94C51.3823 19.416 50.6623 21.414 50.6623 23.934V37.11C50.6623 37.794 50.4643 38.334 50.0683 38.73C49.7083 39.09 49.1863 39.27 48.5023 39.27C47.8183 39.27 47.2783 39.09 46.8823 38.73C46.4863 38.334 46.2883 37.794 46.2883 37.11V14.322C46.2883 13.674 46.4863 13.152 46.8823 12.756C47.2783 12.36 47.8183 12.162 48.5023 12.162C49.1503 12.162 49.6543 12.36 50.0143 12.756C50.4103 13.152 50.6083 13.656 50.6083 14.268V17.022C51.4723 15.402 52.6783 14.178 54.2263 13.35C55.7743 12.486 57.5383 12.054 59.5183 12.054ZM101.648 12.054C108.236 12.054 111.53 15.51 111.53 22.422V37.11C111.53 37.758 111.332 38.28 110.936 38.676C110.576 39.072 110.072 39.27 109.424 39.27C108.776 39.27 108.254 39.072 107.858 38.676C107.462 38.28 107.264 37.758 107.264 37.11V34.518C106.58 36.066 105.536 37.272 104.132 38.136C102.728 38.964 101.108 39.378 99.2716 39.378C97.5796 39.378 96.0136 39.036 94.5736 38.352C93.1696 37.668 92.0536 36.714 91.2256 35.49C90.3976 34.266 89.9836 32.916 89.9836 31.44C89.9836 29.46 90.4876 27.93 91.4956 26.85C92.5036 25.734 94.1596 24.942 96.4636 24.474C98.7676 23.97 101.972 23.718 106.076 23.718H107.264V21.936C107.264 19.776 106.814 18.192 105.914 17.184C105.05 16.176 103.628 15.672 101.648 15.672C99.1996 15.672 96.7156 16.338 94.1956 17.67C93.2236 18.282 92.5396 18.588 92.1436 18.588C91.7116 18.588 91.3516 18.426 91.0636 18.102C90.7756 17.778 90.6316 17.364 90.6316 16.86C90.6316 16.356 90.7756 15.924 91.0636 15.564C91.3876 15.168 91.8916 14.772 92.5756 14.376C93.8356 13.656 95.2576 13.098 96.8416 12.702C98.4616 12.27 100.064 12.054 101.648 12.054ZM99.8656 35.922C102.026 35.922 103.79 35.202 105.158 33.762C106.562 32.286 107.264 30.396 107.264 28.092V26.526H106.292C103.124 26.526 100.712 26.67 99.0556 26.958C97.3996 27.21 96.2116 27.66 95.4916 28.308C94.8076 28.92 94.4656 29.838 94.4656 31.062C94.4656 32.466 94.9696 33.636 95.9776 34.572C97.0216 35.472 98.3176 35.922 99.8656 35.922ZM167.91 0.659998C168.594 0.659998 169.116 0.875998 169.476 1.308C169.872 1.704 170.07 2.244 170.07 2.928V37.11C170.07 37.758 169.89 38.28 169.53 38.676C169.17 39.072 168.666 39.27 168.018 39.27C167.37 39.27 166.884 39.072 166.56 38.676C166.236 38.28 166.074 37.758 166.074 37.11V9.516L154.356 31.98C153.852 33.024 153.114 33.546 152.142 33.546C151.206 33.546 150.468 33.024 149.928 31.98L138.156 9.786V37.11C138.156 37.758 137.976 38.28 137.616 38.676C137.292 39.072 136.806 39.27 136.158 39.27C135.51 39.27 135.006 39.072 134.646 38.676C134.286 38.28 134.106 37.758 134.106 37.11V2.928C134.106 2.244 134.304 1.704 134.7 1.308C135.096 0.875998 135.636 0.659998 136.32 0.659998C137.22 0.659998 137.94 1.182 138.48 2.226L152.196 28.524L165.75 2.226C166.038 1.65 166.344 1.254 166.668 1.038C167.028 0.785998 167.442 0.659998 167.91 0.659998ZM181.077 39.27C180.429 39.27 179.889 39.09 179.457 38.73C179.061 38.334 178.863 37.794 178.863 37.11V14.322C178.863 13.638 179.061 13.116 179.457 12.756C179.889 12.36 180.429 12.162 181.077 12.162C181.725 12.162 182.247 12.36 182.643 12.756C183.039 13.116 183.237 13.638 183.237 14.322V37.11C183.237 37.83 183.039 38.37 182.643 38.73C182.247 39.09 181.725 39.27 181.077 39.27ZM181.077 6.492C180.213 6.492 179.511 6.24 178.971 5.736C178.431 5.232 178.161 4.566 178.161 3.738C178.161 2.946 178.431 2.298 178.971 1.794C179.511 1.29 180.213 1.038 181.077 1.038C181.941 1.038 182.643 1.29 183.183 1.794C183.723 2.298 183.993 2.946 183.993 3.738C183.993 4.566 183.723 5.232 183.183 5.736C182.643 6.24 181.941 6.492 181.077 6.492ZM200.269 39.378C198.613 39.378 197.029 39.18 195.517 38.784C194.041 38.388 192.727 37.83 191.575 37.11C190.927 36.678 190.459 36.282 190.171 35.922C189.919 35.526 189.793 35.058 189.793 34.518C189.793 34.05 189.919 33.672 190.171 33.384C190.459 33.06 190.819 32.898 191.251 32.898C191.683 32.898 192.313 33.168 193.141 33.708C194.221 34.356 195.283 34.878 196.327 35.274C197.407 35.634 198.739 35.814 200.323 35.814C202.267 35.814 203.779 35.472 204.859 34.788C205.939 34.104 206.479 33.114 206.479 31.818C206.479 31.026 206.281 30.396 205.885 29.928C205.489 29.424 204.805 28.992 203.833 28.632C202.861 28.236 201.439 27.84 199.567 27.444C196.399 26.76 194.131 25.842 192.763 24.69C191.395 23.538 190.711 21.972 190.711 19.992C190.711 18.444 191.143 17.076 192.007 15.888C192.871 14.7 194.059 13.764 195.571 13.08C197.119 12.396 198.865 12.054 200.809 12.054C202.213 12.054 203.563 12.252 204.859 12.648C206.191 13.008 207.361 13.53 208.369 14.214C209.593 15.078 210.205 15.978 210.205 16.914C210.205 17.382 210.061 17.778 209.773 18.102C209.485 18.426 209.143 18.588 208.747 18.588C208.315 18.588 207.667 18.282 206.803 17.67C205.795 17.022 204.841 16.518 203.941 16.158C203.041 15.798 201.925 15.618 200.593 15.618C198.901 15.618 197.533 15.996 196.489 16.752C195.481 17.508 194.977 18.516 194.977 19.776C194.977 20.568 195.157 21.216 195.517 21.72C195.913 22.188 196.543 22.62 197.407 23.016C198.307 23.376 199.585 23.736 201.241 24.096C203.689 24.636 205.579 25.23 206.911 25.878C208.279 26.526 209.251 27.318 209.827 28.254C210.403 29.19 210.691 30.378 210.691 31.818C210.691 34.086 209.737 35.922 207.829 37.326C205.921 38.694 203.401 39.378 200.269 39.378ZM226.215 39.378C224.559 39.378 222.975 39.18 221.463 38.784C219.987 38.388 218.673 37.83 217.521 37.11C216.873 36.678 216.405 36.282 216.117 35.922C215.865 35.526 215.739 35.058 215.739 34.518C215.739 34.05 215.865 33.672 216.117 33.384C216.405 33.06 216.765 32.898 217.197 32.898C217.629 32.898 218.259 33.168 219.087 33.708C220.167 34.356 221.229 34.878 222.273 35.274C223.353 35.634 224.685 35.814 226.269 35.814C228.213 35.814 229.725 35.472 230.805 34.788C231.885 34.104 232.425 33.114 232.425 31.818C232.425 31.026 232.227 30.396 231.831 29.928C231.435 29.424 230.751 28.992 229.779 28.632C228.807 28.236 227.385 27.84 225.513 27.444C222.345 26.76 220.077 25.842 218.709 24.69C217.341 23.538 216.657 21.972 216.657 19.992C216.657 18.444 217.089 17.076 217.953 15.888C218.817 14.7 220.005 13.764 221.517 13.08C223.065 12.396 224.811 12.054 226.755 12.054C228.159 12.054 229.509 12.252 230.805 12.648C232.137 13.008 233.307 13.53 234.315 14.214C235.539 15.078 236.151 15.978 236.151 16.914C236.151 17.382 236.007 17.778 235.719 18.102C235.431 18.426 235.089 18.588 234.693 18.588C234.261 18.588 233.613 18.282 232.749 17.67C231.741 17.022 230.787 16.518 229.887 16.158C228.987 15.798 227.871 15.618 226.539 15.618C224.847 15.618 223.479 15.996 222.435 16.752C221.427 17.508 220.923 18.516 220.923 19.776C220.923 20.568 221.103 21.216 221.463 21.72C221.859 22.188 222.489 22.62 223.353 23.016C224.253 23.376 225.531 23.736 227.187 24.096C229.635 24.636 231.525 25.23 232.857 25.878C234.225 26.526 235.197 27.318 235.773 28.254C236.349 29.19 236.637 30.378 236.637 31.818C236.637 34.086 235.683 35.922 233.775 37.326C231.867 38.694 229.347 39.378 226.215 39.378ZM245.518 39.27C244.87 39.27 244.33 39.09 243.898 38.73C243.502 38.334 243.304 37.794 243.304 37.11V14.322C243.304 13.638 243.502 13.116 243.898 12.756C244.33 12.36 244.87 12.162 245.518 12.162C246.166 12.162 246.688 12.36 247.084 12.756C247.48 13.116 247.678 13.638 247.678 14.322V37.11C247.678 37.83 247.48 38.37 247.084 38.73C246.688 39.09 246.166 39.27 245.518 39.27ZM245.518 6.492C244.654 6.492 243.952 6.24 243.412 5.736C242.872 5.232 242.602 4.566 242.602 3.738C242.602 2.946 242.872 2.298 243.412 1.794C243.952 1.29 244.654 1.038 245.518 1.038C246.382 1.038 247.084 1.29 247.624 1.794C248.164 2.298 248.434 2.946 248.434 3.738C248.434 4.566 248.164 5.232 247.624 5.736C247.084 6.24 246.382 6.492 245.518 6.492ZM266.763 39.378C264.279 39.378 262.083 38.82 260.175 37.704C258.303 36.588 256.845 35.004 255.801 32.952C254.793 30.864 254.289 28.452 254.289 25.716C254.289 22.98 254.793 20.586 255.801 18.534C256.845 16.446 258.303 14.844 260.175 13.728C262.083 12.612 264.279 12.054 266.763 12.054C269.247 12.054 271.443 12.612 273.351 13.728C275.259 14.844 276.717 16.446 277.725 18.534C278.769 20.586 279.291 22.98 279.291 25.716C279.291 28.452 278.769 30.864 277.725 32.952C276.717 35.004 275.259 36.588 273.351 37.704C271.443 38.82 269.247 39.378 266.763 39.378ZM266.763 35.76C269.355 35.76 271.335 34.914 272.703 33.222C274.107 31.494 274.809 28.992 274.809 25.716C274.809 22.512 274.107 20.046 272.703 18.318C271.299 16.554 269.319 15.672 266.763 15.672C264.207 15.672 262.227 16.554 260.823 18.318C259.419 20.046 258.717 22.512 258.717 25.716C258.717 28.956 259.401 31.44 260.769 33.168C262.173 34.896 264.171 35.76 266.763 35.76ZM299.038 12.054C305.338 12.054 308.488 15.528 308.488 22.476V37.11C308.488 37.794 308.29 38.334 307.894 38.73C307.534 39.09 307.012 39.27 306.328 39.27C305.644 39.27 305.104 39.09 304.708 38.73C304.312 38.334 304.114 37.794 304.114 37.11V22.746C304.114 20.298 303.628 18.516 302.656 17.4C301.72 16.284 300.208 15.726 298.12 15.726C295.708 15.726 293.782 16.464 292.342 17.94C290.902 19.416 290.182 21.414 290.182 23.934V37.11C290.182 37.794 289.984 38.334 289.588 38.73C289.228 39.09 288.706 39.27 288.022 39.27C287.338 39.27 286.798 39.09 286.402 38.73C286.006 38.334 285.808 37.794 285.808 37.11V14.322C285.808 13.674 286.006 13.152 286.402 12.756C286.798 12.36 287.338 12.162 288.022 12.162C288.67 12.162 289.174 12.36 289.534 12.756C289.93 13.152 290.128 13.656 290.128 14.268V17.022C290.992 15.402 292.198 14.178 293.746 13.35C295.294 12.486 297.058 12.054 299.038 12.054ZM342.571 35.814C343.831 35.922 344.461 36.498 344.461 37.542C344.461 38.154 344.227 38.622 343.759 38.946C343.327 39.234 342.661 39.342 341.761 39.27L340.303 39.162C337.423 38.946 335.299 38.082 333.931 36.57C332.563 35.058 331.879 32.772 331.879 29.712V16.158H328.261C327.649 16.158 327.163 16.014 326.803 15.726C326.479 15.402 326.317 14.988 326.317 14.484C326.317 13.944 326.479 13.512 326.803 13.188C327.163 12.864 327.649 12.702 328.261 12.702H331.879V6.6C331.879 5.916 332.077 5.394 332.473 5.034C332.869 4.638 333.409 4.44 334.093 4.44C334.741 4.44 335.263 4.638 335.659 5.034C336.055 5.394 336.253 5.916 336.253 6.6V12.702H342.247C342.823 12.702 343.273 12.864 343.597 13.188C343.957 13.512 344.137 13.944 344.137 14.484C344.137 14.988 343.957 15.402 343.597 15.726C343.273 16.014 342.823 16.158 342.247 16.158H336.253V29.928C336.253 31.908 336.649 33.348 337.441 34.248C338.269 35.112 339.493 35.598 341.113 35.706L342.571 35.814ZM359.681 39.378C357.197 39.378 355.001 38.82 353.093 37.704C351.221 36.588 349.763 35.004 348.719 32.952C347.711 30.864 347.207 28.452 347.207 25.716C347.207 22.98 347.711 20.586 348.719 18.534C349.763 16.446 351.221 14.844 353.093 13.728C355.001 12.612 357.197 12.054 359.681 12.054C362.165 12.054 364.361 12.612 366.269 13.728C368.177 14.844 369.635 16.446 370.643 18.534C371.687 20.586 372.209 22.98 372.209 25.716C372.209 28.452 371.687 30.864 370.643 32.952C369.635 35.004 368.177 36.588 366.269 37.704C364.361 38.82 362.165 39.378 359.681 39.378ZM359.681 35.76C362.273 35.76 364.253 34.914 365.621 33.222C367.025 31.494 367.727 28.992 367.727 25.716C367.727 22.512 367.025 20.046 365.621 18.318C364.217 16.554 362.237 15.672 359.681 15.672C357.125 15.672 355.145 16.554 353.741 18.318C352.337 20.046 351.635 22.512 351.635 25.716C351.635 28.956 352.319 31.44 353.687 33.168C355.091 34.896 357.089 35.76 359.681 35.76ZM25.192 86.702C25.804 86.702 26.272 86.864 26.596 87.188C26.92 87.512 27.082 87.944 27.082 88.484V111.11C27.082 111.794 26.866 112.334 26.434 112.73C26.038 113.09 25.534 113.27 24.922 113.27C24.274 113.27 23.734 113.09 23.302 112.73C22.906 112.334 22.708 111.794 22.708 111.11V90.158H10.882V111.11C10.882 111.794 10.666 112.334 10.234 112.73C9.838 113.09 9.334 113.27 8.722 113.27C8.074 113.27 7.534 113.09 7.102 112.73C6.706 112.334 6.508 111.794 6.508 111.11V90.158H2.89C2.278 90.158 1.792 90.014 1.432 89.726C1.108 89.402 0.946 88.988 0.946 88.484C0.946 87.944 1.108 87.512 1.432 87.188C1.792 86.864 2.278 86.702 2.89 86.702H6.508V85.784C6.508 82.544 7.318 80.006 8.938 78.17C10.558 76.298 12.88 75.236 15.904 74.984L17.2 74.876C18.928 74.732 19.792 75.272 19.792 76.496C19.792 77.54 19.18 78.134 17.956 78.278L16.66 78.386C14.752 78.53 13.312 79.142 12.34 80.222C11.368 81.266 10.882 82.85 10.882 84.974V86.702H25.192ZM24.922 75.038C25.75 75.038 26.434 75.29 26.974 75.794C27.55 76.298 27.838 76.946 27.838 77.738C27.838 78.566 27.568 79.232 27.028 79.736C26.488 80.24 25.786 80.492 24.922 80.492C24.058 80.492 23.356 80.24 22.816 79.736C22.276 79.232 22.006 78.566 22.006 77.738C22.006 76.946 22.276 76.298 22.816 75.794C23.356 75.29 24.058 75.038 24.922 75.038ZM56.5441 86.162C57.2281 86.162 57.7681 86.36 58.1641 86.756C58.5601 87.152 58.7581 87.674 58.7581 88.322V111.218C58.7581 115.142 57.7501 118.094 55.7341 120.074C53.7181 122.09 50.7301 123.098 46.7701 123.098C42.9181 123.098 39.7141 122.342 37.1581 120.83C35.8621 120.11 35.2141 119.282 35.2141 118.346C35.2141 117.842 35.3401 117.428 35.5921 117.104C35.8801 116.78 36.2401 116.618 36.6721 116.618C37.0321 116.618 37.6801 116.87 38.6161 117.374C39.8761 118.022 41.1181 118.544 42.3421 118.94C43.5661 119.336 45.0241 119.534 46.7161 119.534C49.2721 119.534 51.1981 118.85 52.4941 117.482C53.7901 116.15 54.4381 114.188 54.4381 111.596V106.952C53.6821 108.644 52.5121 109.94 50.9281 110.84C49.3801 111.74 47.5441 112.19 45.4201 112.19C43.1161 112.19 41.0641 111.65 39.2641 110.57C37.5001 109.49 36.1141 107.96 35.1061 105.98C34.1341 104 33.6481 101.714 33.6481 99.122C33.6481 96.53 34.1341 94.244 35.1061 92.264C36.1141 90.284 37.5001 88.754 39.2641 87.674C41.0641 86.594 43.1161 86.054 45.4201 86.054C47.5081 86.054 49.3261 86.504 50.8741 87.404C52.4221 88.304 53.5921 89.582 54.3841 91.238V88.322C54.3841 87.674 54.5641 87.152 54.9241 86.756C55.3201 86.36 55.8601 86.162 56.5441 86.162ZM46.2841 108.572C48.8041 108.572 50.7841 107.744 52.2241 106.088C53.6641 104.396 54.3841 102.074 54.3841 99.122C54.3841 96.206 53.6641 93.92 52.2241 92.264C50.8201 90.572 48.8401 89.726 46.2841 89.726C43.7281 89.726 41.7121 90.572 40.2361 92.264C38.7961 93.92 38.0761 96.206 38.0761 99.122C38.0761 102.074 38.7961 104.396 40.2361 106.088C41.7121 107.744 43.7281 108.572 46.2841 108.572ZM80.1387 86.054C83.2347 86.054 85.5747 86.936 87.1587 88.7C88.7427 90.428 89.5347 93.02 89.5347 96.476V111.11C89.5347 111.794 89.3367 112.334 88.9407 112.73C88.5447 113.09 88.0227 113.27 87.3747 113.27C86.6907 113.27 86.1507 113.09 85.7547 112.73C85.3587 112.334 85.1607 111.794 85.1607 111.11V96.584C85.1607 94.244 84.6747 92.516 83.7027 91.4C82.7667 90.284 81.2547 89.726 79.1667 89.726C76.7547 89.726 74.8287 90.464 73.3887 91.94C71.9487 93.416 71.2287 95.414 71.2287 97.934V111.11C71.2287 111.794 71.0307 112.334 70.6347 112.73C70.2747 113.09 69.7527 113.27 69.0687 113.27C68.3847 113.27 67.8447 113.09 67.4487 112.73C67.0527 112.334 66.8547 111.794 66.8547 111.11V76.766C66.8547 76.154 67.0527 75.65 67.4487 75.254C67.8807 74.858 68.4207 74.66 69.0687 74.66C69.7527 74.66 70.2747 74.858 70.6347 75.254C71.0307 75.614 71.2287 76.118 71.2287 76.766V90.914C72.0927 89.33 73.2987 88.124 74.8467 87.296C76.3947 86.468 78.1587 86.054 80.1387 86.054ZM109.696 109.814C110.956 109.922 111.586 110.498 111.586 111.542C111.586 112.154 111.352 112.622 110.884 112.946C110.452 113.234 109.786 113.342 108.886 113.27L107.428 113.162C104.548 112.946 102.424 112.082 101.056 110.57C99.6881 109.058 99.0041 106.772 99.0041 103.712V90.158H95.3861C94.7741 90.158 94.2881 90.014 93.9281 89.726C93.6041 89.402 93.4421 88.988 93.4421 88.484C93.4421 87.944 93.6041 87.512 93.9281 87.188C94.2881 86.864 94.7741 86.702 95.3861 86.702H99.0041V80.6C99.0041 79.916 99.2021 79.394 99.5981 79.034C99.9941 78.638 100.534 78.44 101.218 78.44C101.866 78.44 102.388 78.638 102.784 79.034C103.18 79.394 103.378 79.916 103.378 80.6V86.702H109.372C109.948 86.702 110.398 86.864 110.722 87.188C111.082 87.512 111.262 87.944 111.262 88.484C111.262 88.988 111.082 89.402 110.722 89.726C110.398 90.014 109.948 90.158 109.372 90.158H103.378V103.928C103.378 105.908 103.774 107.348 104.566 108.248C105.394 109.112 106.618 109.598 108.238 109.706L109.696 109.814ZM143.104 86.054C146.2 86.054 148.54 86.936 150.124 88.7C151.708 90.428 152.5 93.02 152.5 96.476V111.11C152.5 111.794 152.302 112.334 151.906 112.73C151.51 113.09 150.988 113.27 150.34 113.27C149.656 113.27 149.116 113.09 148.72 112.73C148.324 112.334 148.126 111.794 148.126 111.11V96.584C148.126 94.244 147.64 92.516 146.668 91.4C145.732 90.284 144.22 89.726 142.132 89.726C139.72 89.726 137.794 90.464 136.354 91.94C134.914 93.416 134.194 95.414 134.194 97.934V111.11C134.194 111.794 133.996 112.334 133.6 112.73C133.24 113.09 132.718 113.27 132.034 113.27C131.35 113.27 130.81 113.09 130.414 112.73C130.018 112.334 129.82 111.794 129.82 111.11V76.766C129.82 76.154 130.018 75.65 130.414 75.254C130.846 74.858 131.386 74.66 132.034 74.66C132.718 74.66 133.24 74.858 133.6 75.254C133.996 75.614 134.194 76.118 134.194 76.766V90.914C135.058 89.33 136.264 88.124 137.812 87.296C139.36 86.468 141.124 86.054 143.104 86.054ZM180.869 106.898C181.265 106.898 181.607 107.06 181.895 107.384C182.183 107.708 182.327 108.122 182.327 108.626C182.327 109.526 181.697 110.354 180.437 111.11C179.141 111.866 177.773 112.442 176.333 112.838C174.893 113.198 173.489 113.378 172.121 113.378C168.053 113.378 164.831 112.172 162.455 109.76C160.115 107.348 158.945 104.018 158.945 99.77C158.945 97.07 159.467 94.694 160.511 92.642C161.555 90.554 163.013 88.934 164.885 87.782C166.793 86.63 168.953 86.054 171.365 86.054C174.785 86.054 177.503 87.17 179.519 89.402C181.535 91.634 182.543 94.658 182.543 98.474C182.543 99.194 182.399 99.716 182.111 100.04C181.823 100.364 181.355 100.526 180.707 100.526H163.319C163.643 106.718 166.577 109.814 172.121 109.814C173.525 109.814 174.731 109.634 175.739 109.274C176.747 108.878 177.827 108.356 178.979 107.708C179.915 107.168 180.545 106.898 180.869 106.898ZM171.419 89.456C169.115 89.456 167.261 90.176 165.857 91.616C164.489 93.056 163.679 95.09 163.427 97.718H178.709C178.637 95.054 177.971 93.02 176.711 91.616C175.451 90.176 173.687 89.456 171.419 89.456ZM199.734 86.054C206.322 86.054 209.616 89.51 209.616 96.422V111.11C209.616 111.758 209.418 112.28 209.022 112.676C208.662 113.072 208.158 113.27 207.51 113.27C206.862 113.27 206.34 113.072 205.944 112.676C205.548 112.28 205.35 111.758 205.35 111.11V108.518C204.666 110.066 203.622 111.272 202.218 112.136C200.814 112.964 199.194 113.378 197.358 113.378C195.666 113.378 194.1 113.036 192.66 112.352C191.256 111.668 190.14 110.714 189.312 109.49C188.484 108.266 188.07 106.916 188.07 105.44C188.07 103.46 188.574 101.93 189.582 100.85C190.59 99.734 192.246 98.942 194.55 98.474C196.854 97.97 200.058 97.718 204.162 97.718H205.35V95.936C205.35 93.776 204.9 92.192 204 91.184C203.136 90.176 201.714 89.672 199.734 89.672C197.286 89.672 194.802 90.338 192.282 91.67C191.31 92.282 190.626 92.588 190.23 92.588C189.798 92.588 189.438 92.426 189.15 92.102C188.862 91.778 188.718 91.364 188.718 90.86C188.718 90.356 188.862 89.924 189.15 89.564C189.474 89.168 189.978 88.772 190.662 88.376C191.922 87.656 193.344 87.098 194.928 86.702C196.548 86.27 198.15 86.054 199.734 86.054ZM197.952 109.922C200.112 109.922 201.876 109.202 203.244 107.762C204.648 106.286 205.35 104.396 205.35 102.092V100.526H204.378C201.21 100.526 198.798 100.67 197.142 100.958C195.486 101.21 194.298 101.66 193.578 102.308C192.894 102.92 192.552 103.838 192.552 105.062C192.552 106.466 193.056 107.636 194.064 108.572C195.108 109.472 196.404 109.922 197.952 109.922ZM219.836 113.27C219.188 113.27 218.648 113.09 218.216 112.73C217.82 112.334 217.622 111.794 217.622 111.11V76.82C217.622 76.136 217.82 75.614 218.216 75.254C218.648 74.858 219.188 74.66 219.836 74.66C220.448 74.66 220.952 74.858 221.348 75.254C221.78 75.614 221.996 76.136 221.996 76.82V111.11C221.996 111.794 221.78 112.334 221.348 112.73C220.952 113.09 220.448 113.27 219.836 113.27ZM242.745 109.814C244.005 109.922 244.635 110.498 244.635 111.542C244.635 112.154 244.401 112.622 243.933 112.946C243.501 113.234 242.835 113.342 241.935 113.27L240.477 113.162C237.597 112.946 235.473 112.082 234.105 110.57C232.737 109.058 232.053 106.772 232.053 103.712V90.158H228.435C227.823 90.158 227.337 90.014 226.977 89.726C226.653 89.402 226.491 88.988 226.491 88.484C226.491 87.944 226.653 87.512 226.977 87.188C227.337 86.864 227.823 86.702 228.435 86.702H232.053V80.6C232.053 79.916 232.251 79.394 232.647 79.034C233.043 78.638 233.583 78.44 234.267 78.44C234.915 78.44 235.437 78.638 235.833 79.034C236.229 79.394 236.427 79.916 236.427 80.6V86.702H242.421C242.997 86.702 243.447 86.864 243.771 87.188C244.131 87.512 244.311 87.944 244.311 88.484C244.311 88.988 244.131 89.402 243.771 89.726C243.447 90.014 242.997 90.158 242.421 90.158H236.427V103.928C236.427 105.908 236.823 107.348 237.615 108.248C238.443 109.112 239.667 109.598 241.287 109.706L242.745 109.814ZM262.23 86.054C265.326 86.054 267.666 86.936 269.25 88.7C270.834 90.428 271.626 93.02 271.626 96.476V111.11C271.626 111.794 271.428 112.334 271.032 112.73C270.636 113.09 270.114 113.27 269.466 113.27C268.782 113.27 268.242 113.09 267.846 112.73C267.45 112.334 267.252 111.794 267.252 111.11V96.584C267.252 94.244 266.766 92.516 265.794 91.4C264.858 90.284 263.346 89.726 261.258 89.726C258.846 89.726 256.92 90.464 255.48 91.94C254.04 93.416 253.32 95.414 253.32 97.934V111.11C253.32 111.794 253.122 112.334 252.726 112.73C252.366 113.09 251.844 113.27 251.16 113.27C250.476 113.27 249.936 113.09 249.54 112.73C249.144 112.334 248.946 111.794 248.946 111.11V76.766C248.946 76.154 249.144 75.65 249.54 75.254C249.972 74.858 250.512 74.66 251.16 74.66C251.844 74.66 252.366 74.858 252.726 75.254C253.122 75.614 253.32 76.118 253.32 76.766V90.914C254.184 89.33 255.39 88.124 256.938 87.296C258.486 86.468 260.25 86.054 262.23 86.054ZM26.164 148.66C26.848 148.66 27.388 148.858 27.784 149.254C28.18 149.65 28.378 150.154 28.378 150.766V185.11C28.378 185.758 28.18 186.28 27.784 186.676C27.388 187.072 26.848 187.27 26.164 187.27C25.48 187.27 24.94 187.072 24.544 186.676C24.184 186.28 24.004 185.758 24.004 185.11V182.194C23.212 183.85 22.042 185.128 20.494 186.028C18.982 186.928 17.2 187.378 15.148 187.378C12.844 187.378 10.81 186.802 9.046 185.65C7.282 184.498 5.914 182.896 4.942 180.844C3.97 178.756 3.484 176.344 3.484 173.608C3.484 170.908 3.97 168.532 4.942 166.48C5.914 164.428 7.282 162.844 9.046 161.728C10.81 160.612 12.844 160.054 15.148 160.054C17.2 160.054 18.982 160.504 20.494 161.404C22.042 162.304 23.212 163.582 24.004 165.238V150.766C24.004 150.118 24.184 149.614 24.544 149.254C24.94 148.858 25.48 148.66 26.164 148.66ZM16.012 183.76C18.568 183.76 20.53 182.896 21.898 181.168C23.302 179.404 24.004 176.92 24.004 173.716C24.004 170.512 23.302 168.046 21.898 166.318C20.53 164.59 18.568 163.726 16.012 163.726C13.456 163.726 11.458 164.59 10.018 166.318C8.614 168.046 7.912 170.476 7.912 173.608C7.912 176.812 8.614 179.314 10.018 181.114C11.458 182.878 13.456 183.76 16.012 183.76ZM38.6937 187.27C38.0457 187.27 37.5057 187.09 37.0737 186.73C36.6777 186.334 36.4797 185.794 36.4797 185.11V162.322C36.4797 161.638 36.6777 161.116 37.0737 160.756C37.5057 160.36 38.0457 160.162 38.6937 160.162C39.3417 160.162 39.8637 160.36 40.2597 160.756C40.6557 161.116 40.8537 161.638 40.8537 162.322V185.11C40.8537 185.83 40.6557 186.37 40.2597 186.73C39.8637 187.09 39.3417 187.27 38.6937 187.27ZM38.6937 154.492C37.8297 154.492 37.1277 154.24 36.5877 153.736C36.0477 153.232 35.7777 152.566 35.7777 151.738C35.7777 150.946 36.0477 150.298 36.5877 149.794C37.1277 149.29 37.8297 149.038 38.6937 149.038C39.5577 149.038 40.2597 149.29 40.7997 149.794C41.3397 150.298 41.6097 150.946 41.6097 151.738C41.6097 152.566 41.3397 153.232 40.7997 153.736C40.2597 154.24 39.5577 154.492 38.6937 154.492ZM57.8865 187.378C56.2305 187.378 54.6465 187.18 53.1345 186.784C51.6585 186.388 50.3445 185.83 49.1925 185.11C48.5445 184.678 48.0765 184.282 47.7885 183.922C47.5365 183.526 47.4105 183.058 47.4105 182.518C47.4105 182.05 47.5365 181.672 47.7885 181.384C48.0765 181.06 48.4365 180.898 48.8685 180.898C49.3005 180.898 49.9305 181.168 50.7585 181.708C51.8385 182.356 52.9005 182.878 53.9445 183.274C55.0245 183.634 56.3565 183.814 57.9405 183.814C59.8845 183.814 61.3965 183.472 62.4765 182.788C63.5565 182.104 64.0965 181.114 64.0965 179.818C64.0965 179.026 63.8985 178.396 63.5025 177.928C63.1065 177.424 62.4225 176.992 61.4505 176.632C60.4785 176.236 59.0565 175.84 57.1845 175.444C54.0165 174.76 51.7485 173.842 50.3805 172.69C49.0125 171.538 48.3285 169.972 48.3285 167.992C48.3285 166.444 48.7605 165.076 49.6245 163.888C50.4885 162.7 51.6765 161.764 53.1885 161.08C54.7365 160.396 56.4825 160.054 58.4265 160.054C59.8305 160.054 61.1805 160.252 62.4765 160.648C63.8085 161.008 64.9785 161.53 65.9865 162.214C67.2105 163.078 67.8225 163.978 67.8225 164.914C67.8225 165.382 67.6785 165.778 67.3905 166.102C67.1025 166.426 66.7605 166.588 66.3645 166.588C65.9325 166.588 65.2845 166.282 64.4205 165.67C63.4125 165.022 62.4585 164.518 61.5585 164.158C60.6585 163.798 59.5425 163.618 58.2105 163.618C56.5185 163.618 55.1505 163.996 54.1065 164.752C53.0985 165.508 52.5945 166.516 52.5945 167.776C52.5945 168.568 52.7745 169.216 53.1345 169.72C53.5305 170.188 54.1605 170.62 55.0245 171.016C55.9245 171.376 57.2025 171.736 58.8585 172.096C61.3065 172.636 63.1965 173.23 64.5285 173.878C65.8965 174.526 66.8685 175.318 67.4445 176.254C68.0205 177.19 68.3085 178.378 68.3085 179.818C68.3085 182.086 67.3545 183.922 65.4465 185.326C63.5385 186.694 61.0185 187.378 57.8865 187.378ZM88.2058 160.054C90.5098 160.054 92.5438 160.63 94.3078 161.782C96.0718 162.934 97.4398 164.554 98.4118 166.642C99.3838 168.694 99.8698 171.088 99.8698 173.824C99.8698 176.56 99.3838 178.954 98.4118 181.006C97.4398 183.022 96.0718 184.588 94.3078 185.704C92.5798 186.82 90.5458 187.378 88.2058 187.378C86.1538 187.378 84.3538 186.928 82.8058 186.028C81.2938 185.128 80.1418 183.85 79.3498 182.194V194.884C79.3498 195.532 79.1518 196.036 78.7558 196.396C78.3958 196.792 77.8738 196.99 77.1898 196.99C76.5058 196.99 75.9658 196.792 75.5698 196.396C75.1738 196 74.9758 195.496 74.9758 194.884V162.322C74.9758 161.674 75.1738 161.152 75.5698 160.756C75.9658 160.36 76.5058 160.162 77.1898 160.162C77.8738 160.162 78.3958 160.36 78.7558 160.756C79.1518 161.152 79.3498 161.674 79.3498 162.322V165.238C80.1418 163.582 81.2938 162.304 82.8058 161.404C84.3538 160.504 86.1538 160.054 88.2058 160.054ZM87.3418 183.76C89.8978 183.76 91.8778 182.896 93.2818 181.168C94.6858 179.44 95.3878 176.992 95.3878 173.824C95.3878 170.656 94.6858 168.19 93.2818 166.426C91.8778 164.626 89.8978 163.726 87.3418 163.726C84.7858 163.726 82.8058 164.59 81.4018 166.318C80.0338 168.046 79.3498 170.512 79.3498 173.716C79.3498 176.92 80.0338 179.404 81.4018 181.168C82.8058 182.896 84.7858 183.76 87.3418 183.76ZM117.151 160.054C123.739 160.054 127.033 163.51 127.033 170.422V185.11C127.033 185.758 126.835 186.28 126.439 186.676C126.079 187.072 125.575 187.27 124.927 187.27C124.279 187.27 123.757 187.072 123.361 186.676C122.965 186.28 122.767 185.758 122.767 185.11V182.518C122.083 184.066 121.039 185.272 119.635 186.136C118.231 186.964 116.611 187.378 114.775 187.378C113.083 187.378 111.517 187.036 110.077 186.352C108.673 185.668 107.557 184.714 106.729 183.49C105.901 182.266 105.487 180.916 105.487 179.44C105.487 177.46 105.991 175.93 106.999 174.85C108.007 173.734 109.663 172.942 111.967 172.474C114.271 171.97 117.475 171.718 121.579 171.718H122.767V169.936C122.767 167.776 122.317 166.192 121.417 165.184C120.553 164.176 119.131 163.672 117.151 163.672C114.703 163.672 112.219 164.338 109.699 165.67C108.727 166.282 108.043 166.588 107.647 166.588C107.215 166.588 106.855 166.426 106.567 166.102C106.279 165.778 106.135 165.364 106.135 164.86C106.135 164.356 106.279 163.924 106.567 163.564C106.891 163.168 107.395 162.772 108.079 162.376C109.339 161.656 110.761 161.098 112.345 160.702C113.965 160.27 115.567 160.054 117.151 160.054ZM115.369 183.922C117.529 183.922 119.293 183.202 120.661 181.762C122.065 180.286 122.767 178.396 122.767 176.092V174.526H121.795C118.627 174.526 116.215 174.67 114.559 174.958C112.903 175.21 111.715 175.66 110.995 176.308C110.311 176.92 109.969 177.838 109.969 179.062C109.969 180.466 110.473 181.636 111.481 182.572C112.525 183.472 113.821 183.922 115.369 183.922ZM148.054 160.162C149.566 160.054 150.322 160.666 150.322 161.998C150.322 162.574 150.16 163.042 149.836 163.402C149.512 163.726 148.954 163.924 148.162 163.996L146.542 164.158C144.13 164.374 142.33 165.238 141.142 166.75C139.99 168.226 139.414 169.972 139.414 171.988V185.11C139.414 185.83 139.216 186.37 138.82 186.73C138.424 187.09 137.902 187.27 137.254 187.27C136.606 187.27 136.066 187.09 135.634 186.73C135.238 186.334 135.04 185.794 135.04 185.11V162.322C135.04 161.638 135.256 161.116 135.688 160.756C136.12 160.36 136.642 160.162 137.254 160.162C137.83 160.162 138.316 160.36 138.712 160.756C139.108 161.116 139.306 161.62 139.306 162.268V165.292C140.062 163.708 141.124 162.502 142.492 161.674C143.896 160.846 145.498 160.36 147.298 160.216L148.054 160.162ZM156.291 187.27C155.643 187.27 155.103 187.09 154.671 186.73C154.275 186.334 154.077 185.794 154.077 185.11V162.322C154.077 161.638 154.275 161.116 154.671 160.756C155.103 160.36 155.643 160.162 156.291 160.162C156.939 160.162 157.461 160.36 157.857 160.756C158.253 161.116 158.451 161.638 158.451 162.322V185.11C158.451 185.83 158.253 186.37 157.857 186.73C157.461 187.09 156.939 187.27 156.291 187.27ZM156.291 154.492C155.427 154.492 154.725 154.24 154.185 153.736C153.645 153.232 153.375 152.566 153.375 151.738C153.375 150.946 153.645 150.298 154.185 149.794C154.725 149.29 155.427 149.038 156.291 149.038C157.155 149.038 157.857 149.29 158.397 149.794C158.937 150.298 159.207 150.946 159.207 151.738C159.207 152.566 158.937 153.232 158.397 153.736C157.857 154.24 157.155 154.492 156.291 154.492ZM179.2 183.814C180.46 183.922 181.09 184.498 181.09 185.542C181.09 186.154 180.856 186.622 180.388 186.946C179.956 187.234 179.29 187.342 178.39 187.27L176.932 187.162C174.052 186.946 171.928 186.082 170.56 184.57C169.192 183.058 168.508 180.772 168.508 177.712V164.158H164.89C164.278 164.158 163.792 164.014 163.432 163.726C163.108 163.402 162.946 162.988 162.946 162.484C162.946 161.944 163.108 161.512 163.432 161.188C163.792 160.864 164.278 160.702 164.89 160.702H168.508V154.6C168.508 153.916 168.706 153.394 169.102 153.034C169.498 152.638 170.038 152.44 170.722 152.44C171.37 152.44 171.892 152.638 172.288 153.034C172.684 153.394 172.882 153.916 172.882 154.6V160.702H178.876C179.452 160.702 179.902 160.864 180.226 161.188C180.586 161.512 180.766 161.944 180.766 162.484C180.766 162.988 180.586 163.402 180.226 163.726C179.902 164.014 179.452 164.158 178.876 164.158H172.882V177.928C172.882 179.908 173.278 181.348 174.07 182.248C174.898 183.112 176.122 183.598 177.742 183.706L179.2 183.814ZM204.672 161.512C205.068 160.648 205.698 160.216 206.562 160.216C207.102 160.216 207.588 160.396 208.02 160.756C208.452 161.116 208.668 161.566 208.668 162.106C208.668 162.43 208.596 162.718 208.452 162.97L193.278 195.694C193.098 196.09 192.828 196.396 192.468 196.612C192.144 196.828 191.802 196.936 191.442 196.936C190.902 196.936 190.416 196.756 189.984 196.396C189.588 196.072 189.39 195.64 189.39 195.1C189.39 194.812 189.462 194.524 189.606 194.236L193.386 186.082L182.694 162.97C182.55 162.718 182.478 162.448 182.478 162.16C182.478 161.62 182.712 161.152 183.18 160.756C183.684 160.36 184.224 160.162 184.8 160.162C185.16 160.162 185.502 160.27 185.826 160.486C186.186 160.702 186.456 161.008 186.636 161.404L195.654 181.654L204.672 161.512ZM229.592 187.27C228.944 187.27 228.404 187.09 227.972 186.73C227.576 186.334 227.378 185.794 227.378 185.11V162.322C227.378 161.638 227.576 161.116 227.972 160.756C228.404 160.36 228.944 160.162 229.592 160.162C230.24 160.162 230.762 160.36 231.158 160.756C231.554 161.116 231.752 161.638 231.752 162.322V185.11C231.752 185.83 231.554 186.37 231.158 186.73C230.762 187.09 230.24 187.27 229.592 187.27ZM229.592 154.492C228.728 154.492 228.026 154.24 227.486 153.736C226.946 153.232 226.676 152.566 226.676 151.738C226.676 150.946 226.946 150.298 227.486 149.794C228.026 149.29 228.728 149.038 229.592 149.038C230.456 149.038 231.158 149.29 231.698 149.794C232.238 150.298 232.508 150.946 232.508 151.738C232.508 152.566 232.238 153.232 231.698 153.736C231.158 154.24 230.456 154.492 229.592 154.492ZM253.159 160.054C259.459 160.054 262.609 163.528 262.609 170.476V185.11C262.609 185.794 262.411 186.334 262.015 186.73C261.655 187.09 261.133 187.27 260.449 187.27C259.765 187.27 259.225 187.09 258.829 186.73C258.433 186.334 258.235 185.794 258.235 185.11V170.746C258.235 168.298 257.749 166.516 256.777 165.4C255.841 164.284 254.329 163.726 252.241 163.726C249.829 163.726 247.903 164.464 246.463 165.94C245.023 167.416 244.303 169.414 244.303 171.934V185.11C244.303 185.794 244.105 186.334 243.709 186.73C243.349 187.09 242.827 187.27 242.143 187.27C241.459 187.27 240.919 187.09 240.523 186.73C240.127 186.334 239.929 185.794 239.929 185.11V162.322C239.929 161.674 240.127 161.152 240.523 160.756C240.919 160.36 241.459 160.162 242.143 160.162C242.791 160.162 243.295 160.36 243.655 160.756C244.051 161.152 244.249 161.656 244.249 162.268V165.022C245.113 163.402 246.319 162.178 247.867 161.35C249.415 160.486 251.179 160.054 253.159 160.054ZM296.692 183.814C297.952 183.922 298.582 184.498 298.582 185.542C298.582 186.154 298.348 186.622 297.88 186.946C297.448 187.234 296.782 187.342 295.882 187.27L294.424 187.162C291.544 186.946 289.42 186.082 288.052 184.57C286.684 183.058 286 180.772 286 177.712V164.158H282.382C281.77 164.158 281.284 164.014 280.924 163.726C280.6 163.402 280.438 162.988 280.438 162.484C280.438 161.944 280.6 161.512 280.924 161.188C281.284 160.864 281.77 160.702 282.382 160.702H286V154.6C286 153.916 286.198 153.394 286.594 153.034C286.99 152.638 287.53 152.44 288.214 152.44C288.862 152.44 289.384 152.638 289.78 153.034C290.176 153.394 290.374 153.916 290.374 154.6V160.702H296.368C296.944 160.702 297.394 160.864 297.718 161.188C298.078 161.512 298.258 161.944 298.258 162.484C298.258 162.988 298.078 163.402 297.718 163.726C297.394 164.014 296.944 164.158 296.368 164.158H290.374V177.928C290.374 179.908 290.77 181.348 291.562 182.248C292.39 183.112 293.614 183.598 295.234 183.706L296.692 183.814ZM316.178 160.054C319.274 160.054 321.614 160.936 323.198 162.7C324.782 164.428 325.574 167.02 325.574 170.476V185.11C325.574 185.794 325.376 186.334 324.98 186.73C324.584 187.09 324.062 187.27 323.414 187.27C322.73 187.27 322.19 187.09 321.794 186.73C321.398 186.334 321.2 185.794 321.2 185.11V170.584C321.2 168.244 320.714 166.516 319.742 165.4C318.806 164.284 317.294 163.726 315.206 163.726C312.794 163.726 310.868 164.464 309.428 165.94C307.988 167.416 307.268 169.414 307.268 171.934V185.11C307.268 185.794 307.07 186.334 306.674 186.73C306.314 187.09 305.792 187.27 305.108 187.27C304.424 187.27 303.884 187.09 303.488 186.73C303.092 186.334 302.894 185.794 302.894 185.11V150.766C302.894 150.154 303.092 149.65 303.488 149.254C303.92 148.858 304.46 148.66 305.108 148.66C305.792 148.66 306.314 148.858 306.674 149.254C307.07 149.614 307.268 150.118 307.268 150.766V164.914C308.132 163.33 309.338 162.124 310.886 161.296C312.434 160.468 314.198 160.054 316.178 160.054ZM353.943 180.898C354.339 180.898 354.681 181.06 354.969 181.384C355.257 181.708 355.401 182.122 355.401 182.626C355.401 183.526 354.771 184.354 353.511 185.11C352.215 185.866 350.847 186.442 349.407 186.838C347.967 187.198 346.563 187.378 345.195 187.378C341.127 187.378 337.905 186.172 335.529 183.76C333.189 181.348 332.019 178.018 332.019 173.77C332.019 171.07 332.541 168.694 333.585 166.642C334.629 164.554 336.087 162.934 337.959 161.782C339.867 160.63 342.027 160.054 344.439 160.054C347.859 160.054 350.577 161.17 352.593 163.402C354.609 165.634 355.617 168.658 355.617 172.474C355.617 173.194 355.473 173.716 355.185 174.04C354.897 174.364 354.429 174.526 353.781 174.526H336.393C336.717 180.718 339.651 183.814 345.195 183.814C346.599 183.814 347.805 183.634 348.813 183.274C349.821 182.878 350.901 182.356 352.053 181.708C352.989 181.168 353.619 180.898 353.943 180.898ZM344.493 163.456C342.189 163.456 340.335 164.176 338.931 165.616C337.563 167.056 336.753 169.09 336.501 171.718H351.783C351.711 169.054 351.045 167.02 349.785 165.616C348.525 164.176 346.761 163.456 344.493 163.456ZM41.014 235.566C41.374 234.702 41.968 234.27 42.796 234.27C43.336 234.27 43.822 234.45 44.254 234.81C44.686 235.17 44.902 235.62 44.902 236.16C44.902 236.412 44.848 236.682 44.74 236.97L35.776 259.65C35.56 260.118 35.236 260.496 34.804 260.784C34.408 261.036 33.958 261.162 33.454 261.162C32.986 261.162 32.536 261.036 32.104 260.784C31.708 260.496 31.402 260.118 31.186 259.65L23.734 240.696L16.336 259.65C16.156 260.118 15.85 260.496 15.418 260.784C14.986 261.036 14.518 261.162 14.014 261.162C13.546 261.162 13.096 261.036 12.664 260.784C12.232 260.496 11.908 260.118 11.692 259.65L2.728 237.024C2.62 236.736 2.566 236.484 2.566 236.268C2.566 235.692 2.8 235.206 3.268 234.81C3.772 234.414 4.312 234.216 4.888 234.216C5.752 234.216 6.364 234.648 6.724 235.512L14.122 255.438L21.736 235.674C21.952 235.206 22.24 234.846 22.6 234.594C22.996 234.342 23.41 234.216 23.842 234.216C24.31 234.216 24.724 234.342 25.084 234.594C25.48 234.846 25.768 235.206 25.948 235.674L33.562 255.384L41.014 235.566ZM61.0986 261.378C58.6146 261.378 56.4186 260.82 54.5106 259.704C52.6386 258.588 51.1806 257.004 50.1366 254.952C49.1286 252.864 48.6246 250.452 48.6246 247.716C48.6246 244.98 49.1286 242.586 50.1366 240.534C51.1806 238.446 52.6386 236.844 54.5106 235.728C56.4186 234.612 58.6146 234.054 61.0986 234.054C63.5826 234.054 65.7786 234.612 67.6866 235.728C69.5946 236.844 71.0526 238.446 72.0606 240.534C73.1046 242.586 73.6266 244.98 73.6266 247.716C73.6266 250.452 73.1046 252.864 72.0606 254.952C71.0526 257.004 69.5946 258.588 67.6866 259.704C65.7786 260.82 63.5826 261.378 61.0986 261.378ZM61.0986 257.76C63.6906 257.76 65.6706 256.914 67.0386 255.222C68.4426 253.494 69.1446 250.992 69.1446 247.716C69.1446 244.512 68.4426 242.046 67.0386 240.318C65.6346 238.554 63.6546 237.672 61.0986 237.672C58.5426 237.672 56.5626 238.554 55.1586 240.318C53.7546 242.046 53.0526 244.512 53.0526 247.716C53.0526 250.956 53.7366 253.44 55.1046 255.168C56.5086 256.896 58.5066 257.76 61.0986 257.76ZM93.1578 234.162C94.6698 234.054 95.4258 234.666 95.4258 235.998C95.4258 236.574 95.2638 237.042 94.9398 237.402C94.6158 237.726 94.0578 237.924 93.2658 237.996L91.6458 238.158C89.2338 238.374 87.4338 239.238 86.2458 240.75C85.0938 242.226 84.5178 243.972 84.5178 245.988V259.11C84.5178 259.83 84.3198 260.37 83.9238 260.73C83.5278 261.09 83.0058 261.27 82.3578 261.27C81.7098 261.27 81.1698 261.09 80.7378 260.73C80.3418 260.334 80.1438 259.794 80.1438 259.11V236.322C80.1438 235.638 80.3598 235.116 80.7918 234.756C81.2238 234.36 81.7458 234.162 82.3578 234.162C82.9338 234.162 83.4198 234.36 83.8158 234.756C84.2118 235.116 84.4098 235.62 84.4098 236.268V239.292C85.1658 237.708 86.2278 236.502 87.5958 235.674C88.9998 234.846 90.6018 234.36 92.4018 234.216L93.1578 234.162ZM101.395 261.27C100.747 261.27 100.207 261.09 99.7749 260.73C99.3789 260.334 99.1809 259.794 99.1809 259.11V224.82C99.1809 224.136 99.3789 223.614 99.7749 223.254C100.207 222.858 100.747 222.66 101.395 222.66C102.007 222.66 102.511 222.858 102.907 223.254C103.339 223.614 103.555 224.136 103.555 224.82V259.11C103.555 259.794 103.339 260.334 102.907 260.73C102.511 261.09 102.007 261.27 101.395 261.27ZM132.846 222.66C133.53 222.66 134.07 222.858 134.466 223.254C134.862 223.65 135.06 224.154 135.06 224.766V259.11C135.06 259.758 134.862 260.28 134.466 260.676C134.07 261.072 133.53 261.27 132.846 261.27C132.162 261.27 131.622 261.072 131.226 260.676C130.866 260.28 130.686 259.758 130.686 259.11V256.194C129.894 257.85 128.724 259.128 127.176 260.028C125.664 260.928 123.882 261.378 121.83 261.378C119.526 261.378 117.492 260.802 115.728 259.65C113.964 258.498 112.596 256.896 111.624 254.844C110.652 252.756 110.166 250.344 110.166 247.608C110.166 244.908 110.652 242.532 111.624 240.48C112.596 238.428 113.964 236.844 115.728 235.728C117.492 234.612 119.526 234.054 121.83 234.054C123.882 234.054 125.664 234.504 127.176 235.404C128.724 236.304 129.894 237.582 130.686 239.238V224.766C130.686 224.118 130.866 223.614 131.226 223.254C131.622 222.858 132.162 222.66 132.846 222.66ZM122.694 257.76C125.25 257.76 127.212 256.896 128.58 255.168C129.984 253.404 130.686 250.92 130.686 247.716C130.686 244.512 129.984 242.046 128.58 240.318C127.212 238.59 125.25 237.726 122.694 237.726C120.138 237.726 118.14 238.59 116.7 240.318C115.296 242.046 114.594 244.476 114.594 247.608C114.594 250.812 115.296 253.314 116.7 255.114C118.14 256.878 120.138 257.76 122.694 257.76ZM145.321 261.27C144.457 261.27 143.737 261 143.161 260.46C142.585 259.884 142.297 259.146 142.297 258.246C142.297 257.346 142.585 256.608 143.161 256.032C143.737 255.456 144.457 255.168 145.321 255.168C146.149 255.168 146.833 255.456 147.373 256.032C147.949 256.608 148.237 257.346 148.237 258.246C148.237 259.146 147.949 259.884 147.373 260.46C146.833 261 146.149 261.27 145.321 261.27Z" fill="white"/>
</svg>
