<svg width="136" height="37" viewBox="0 0 136 37" fill="none" xmlns="http://www.w3.org/2000/svg">
<g filter="url(#filter0_d)">
<path d="M17.3751 17.732C17.5991 18.068 17.7111 18.3947 17.7111 18.712C17.7111 19.1413 17.5337 19.496 17.1791 19.776C16.8431 20.056 16.4417 20.196 15.9751 20.196C15.6764 20.196 15.3871 20.1307 15.1071 20C14.8457 19.8507 14.6217 19.636 14.4351 19.356L10.7111 13.7C10.3377 13.1027 9.93641 12.6827 9.50708 12.44C9.09641 12.1973 8.55508 12.076 7.88308 12.076H5.13908V18.348C5.13908 18.908 4.98041 19.356 4.66308 19.692C4.34575 20.0093 3.91641 20.168 3.37508 20.168C2.83374 20.168 2.39508 20.0093 2.05908 19.692C1.74174 19.356 1.58308 18.908 1.58308 18.348V1.968C1.58308 1.42667 1.73241 1.00667 2.03108 0.708C2.34841 0.409332 2.77774 0.259999 3.31908 0.259999H10.3191C12.5591 0.259999 14.2577 0.763999 15.4151 1.772C16.5911 2.76133 17.1791 4.19867 17.1791 6.084C17.1791 7.61467 16.7404 8.87467 15.8631 9.864C15.0044 10.8347 13.7817 11.46 12.1951 11.74C12.7364 11.8707 13.2124 12.104 13.6231 12.44C14.0337 12.776 14.4351 13.2427 14.8271 13.84L17.3751 17.732ZM9.81508 9.304C11.1777 9.304 12.1764 9.052 12.8111 8.548C13.4457 8.02533 13.7631 7.232 13.7631 6.168C13.7631 5.08533 13.4457 4.30133 12.8111 3.816C12.1764 3.312 11.1777 3.06 9.81508 3.06H5.11108V9.304H9.81508ZM22.7878 20C22.2465 20 21.8172 19.8507 21.4998 19.552C21.2012 19.2533 21.0518 18.8333 21.0518 18.292V1.968C21.0518 1.42667 21.2012 1.00667 21.4998 0.708C21.8172 0.409332 22.2465 0.259999 22.7878 0.259999H32.8958C33.4372 0.259999 33.8572 0.381332 34.1558 0.623999C34.4545 0.866666 34.6038 1.212 34.6038 1.66C34.6038 2.12667 34.4545 2.49067 34.1558 2.752C33.8572 2.99467 33.4372 3.116 32.8958 3.116H24.5798V8.548H32.3358C32.8772 8.548 33.2972 8.66933 33.5958 8.912C33.8945 9.15467 34.0438 9.50933 34.0438 9.976C34.0438 10.424 33.8945 10.7693 33.5958 11.012C33.2972 11.2547 32.8772 11.376 32.3358 11.376H24.5798V17.144H32.8958C33.4372 17.144 33.8572 17.2747 34.1558 17.536C34.4545 17.7787 34.6038 18.1333 34.6038 18.6C34.6038 19.048 34.4545 19.3933 34.1558 19.636C33.8572 19.8787 33.4372 20 32.8958 20H22.7878ZM53.6414 22.744C53.8468 23.08 53.9494 23.4067 53.9494 23.724C53.9494 24.1533 53.7814 24.4987 53.4454 24.76C53.1094 25.04 52.7174 25.18 52.2694 25.18C51.9334 25.18 51.6161 25.096 51.3174 24.928C51.0188 24.7787 50.7761 24.5453 50.5894 24.228L48.9374 21.512C48.6761 21.0827 48.3308 20.7653 47.9014 20.56C47.4908 20.3547 46.9494 20.252 46.2774 20.252C44.3548 20.252 42.6841 19.8413 41.2654 19.02C39.8654 18.1987 38.7828 17.0227 38.0174 15.492C37.2521 13.9613 36.8694 12.1693 36.8694 10.116C36.8694 8.06267 37.2521 6.28 38.0174 4.768C38.7828 3.23733 39.8654 2.06133 41.2654 1.24C42.6841 0.418666 44.3548 0.0079987 46.2774 0.0079987C48.1814 0.0079987 49.8334 0.418666 51.2334 1.24C52.6521 2.06133 53.7441 3.23733 54.5094 4.768C55.2748 6.28 55.6574 8.06267 55.6574 10.116C55.6574 12.3373 55.2094 14.2507 54.3134 15.856C53.4361 17.4427 52.1761 18.6 50.5334 19.328C51.3921 19.6267 52.1014 20.2427 52.6614 21.176L53.6414 22.744ZM46.2774 17.368C48.0881 17.368 49.4974 16.7427 50.5054 15.492C51.5321 14.2413 52.0454 12.4493 52.0454 10.116C52.0454 7.78267 51.5321 6 50.5054 4.768C49.4974 3.51733 48.0881 2.892 46.2774 2.892C44.4481 2.892 43.0201 3.51733 41.9934 4.768C40.9854 6 40.4814 7.78267 40.4814 10.116C40.4814 12.4493 40.9854 14.2413 41.9934 15.492C43.0201 16.7427 44.4481 17.368 46.2774 17.368ZM67.4537 20.252C64.7471 20.252 62.6937 19.552 61.2937 18.152C59.8937 16.752 59.1937 14.708 59.1937 12.02V1.912C59.1937 1.37067 59.3524 0.941333 59.6697 0.623999C59.9871 0.287999 60.4164 0.119999 60.9577 0.119999C61.4991 0.119999 61.9284 0.287999 62.2457 0.623999C62.5631 0.941333 62.7217 1.37067 62.7217 1.912V12.216C62.7217 13.9147 63.1231 15.2027 63.9257 16.08C64.7284 16.9387 65.9044 17.368 67.4537 17.368C68.9844 17.368 70.1511 16.9293 70.9537 16.052C71.7564 15.1747 72.1577 13.896 72.1577 12.216V1.912C72.1577 1.37067 72.3164 0.941333 72.6337 0.623999C72.9511 0.287999 73.3804 0.119999 73.9217 0.119999C74.4631 0.119999 74.8924 0.287999 75.2097 0.623999C75.5271 0.941333 75.6857 1.37067 75.6857 1.912V12.02C75.6857 14.6893 74.9857 16.7333 73.5857 18.152C72.1857 19.552 70.1417 20.252 67.4537 20.252ZM81.5769 20C81.0356 20 80.6062 19.8507 80.2889 19.552C79.9902 19.2533 79.8409 18.8333 79.8409 18.292V1.968C79.8409 1.42667 79.9902 1.00667 80.2889 0.708C80.6062 0.409332 81.0356 0.259999 81.5769 0.259999H91.6849C92.2262 0.259999 92.6462 0.381332 92.9449 0.623999C93.2436 0.866666 93.3929 1.212 93.3929 1.66C93.3929 2.12667 93.2436 2.49067 92.9449 2.752C92.6462 2.99467 92.2262 3.116 91.6849 3.116H83.3689V8.548H91.1249C91.6662 8.548 92.0862 8.66933 92.3849 8.912C92.6836 9.15467 92.8329 9.50933 92.8329 9.976C92.8329 10.424 92.6836 10.7693 92.3849 11.012C92.0862 11.2547 91.6662 11.376 91.1249 11.376H83.3689V17.144H91.6849C92.2262 17.144 92.6462 17.2747 92.9449 17.536C93.2436 17.7787 93.3929 18.1333 93.3929 18.6C93.3929 19.048 93.2436 19.3933 92.9449 19.636C92.6462 19.8787 92.2262 20 91.6849 20H81.5769ZM102.888 20.252C101.45 20.252 100.088 20.0653 98.7997 19.692C97.5304 19.3 96.4944 18.7773 95.6917 18.124C95.2624 17.8067 95.0477 17.3587 95.0477 16.78C95.0477 16.388 95.1597 16.052 95.3837 15.772C95.6264 15.4733 95.9064 15.324 96.2237 15.324C96.5597 15.324 96.9424 15.4547 97.3717 15.716C98.1744 16.2947 99.0144 16.7147 99.8917 16.976C100.769 17.2373 101.74 17.368 102.804 17.368C104.166 17.368 105.212 17.1347 105.94 16.668C106.668 16.1827 107.032 15.4827 107.032 14.568C107.032 13.8587 106.686 13.3173 105.996 12.944C105.324 12.552 104.194 12.1787 102.608 11.824C100.965 11.4693 99.6304 11.0587 98.6037 10.592C97.5771 10.1253 96.8024 9.528 96.2797 8.8C95.7571 8.072 95.4957 7.148 95.4957 6.028C95.4957 4.87067 95.8224 3.83467 96.4757 2.92C97.1291 2.00533 98.0344 1.296 99.1917 0.791999C100.368 0.269332 101.684 0.0079987 103.14 0.0079987C105.809 0.0079987 107.984 0.717332 109.664 2.136C109.906 2.34133 110.074 2.54667 110.168 2.752C110.28 2.93867 110.336 3.18133 110.336 3.48C110.336 3.872 110.214 4.21733 109.972 4.516C109.748 4.796 109.477 4.936 109.16 4.936C108.973 4.936 108.796 4.908 108.628 4.852C108.478 4.796 108.273 4.69333 108.012 4.544C107.246 3.984 106.5 3.57333 105.772 3.312C105.062 3.032 104.185 2.892 103.14 2.892C101.87 2.892 100.862 3.15333 100.116 3.676C99.3877 4.18 99.0237 4.88933 99.0237 5.804C99.0237 6.56933 99.3504 7.15733 100.004 7.568C100.657 7.97867 101.768 8.36133 103.336 8.716C104.997 9.08933 106.341 9.50933 107.368 9.976C108.413 10.424 109.206 11.0027 109.748 11.712C110.308 12.4213 110.588 13.308 110.588 14.372C110.588 15.5293 110.261 16.556 109.608 17.452C108.973 18.3293 108.068 19.02 106.892 19.524C105.734 20.0093 104.4 20.252 102.888 20.252ZM119.969 20.14C119.409 20.14 118.961 19.9813 118.625 19.664C118.308 19.328 118.149 18.8893 118.149 18.348V3.228H113.053C111.933 3.228 111.373 2.73333 111.373 1.744C111.373 0.754666 111.933 0.259999 113.053 0.259999H126.857C127.977 0.259999 128.537 0.754666 128.537 1.744C128.537 2.73333 127.977 3.228 126.857 3.228H121.761V18.348C121.761 18.8893 121.593 19.328 121.257 19.664C120.94 19.9813 120.51 20.14 119.969 20.14Z" fill="#12232E"/>
</g>
<defs>
<filter id="filter0_d" x="0.583069" y="0.00805664" width="134.954" height="36.172" filterUnits="userSpaceOnUse" color-interpolation-filters="sRGB">
<feFlood flood-opacity="0" result="BackgroundImageFix"/>
<feColorMatrix in="SourceAlpha" type="matrix" values="0 0 0 0 0 0 0 0 0 0 0 0 0 0 0 0 0 0 127 0"/>
<feOffset dx="3" dy="7"/>
<feGaussianBlur stdDeviation="2"/>
<feColorMatrix type="matrix" values="0 0 0 0 0 0 0 0 0 0 0 0 0 0 0 0 0 0 0.25 0"/>
<feBlend mode="normal" in2="BackgroundImageFix" result="effect1_dropShadow"/>
<feBlend mode="normal" in="SourceGraphic" in2="effect1_dropShadow" result="shape"/>
</filter>
</defs>
</svg>
