<svg width="650" height="534" viewBox="0 0 650 534" fill="none" xmlns="http://www.w3.org/2000/svg">
<g clip-path="url(#clip0)">
<path opacity="0.1" d="M42.5425 209.3H99.0356V294.908H46.6731C46.5395 295.793 46.4059 296.671 46.2556 297.556H99.0356V366.585C98.9466 366.585 98.8575 366.51 98.774 366.473C97.2895 365.817 95.805 365.122 94.3204 364.388C94.0031 364.227 93.6914 364.06 93.3685 363.905C91.884 363.125 90.3995 362.3 88.915 361.43C88.3972 361.126 87.8795 360.811 87.3729 360.489C79.1315 355.377 71.641 348.894 65.1609 341.267C64.966 341.063 64.7879 340.84 64.6042 340.648C63.7023 339.559 62.8172 338.457 61.9599 337.331C61.637 336.916 61.3253 336.495 61.0079 336.093C59.9948 334.719 59.015 333.296 58.0686 331.866C57.9239 331.65 57.7903 331.439 57.6511 331.247C53.7743 325.284 50.5593 318.821 48.076 312.001C47.998 311.797 47.9257 311.574 47.8533 311.382C47.0851 309.216 46.3892 307.019 45.788 304.779C45.5319 303.844 45.2814 302.922 45.0698 301.95C44.9919 301.672 44.9307 301.387 44.8639 301.109C41.7353 287.401 41.3734 273.155 41.3734 258.976C41.3734 257.326 41.3734 255.676 41.3734 254.025C41.4179 248.237 41.4792 242.455 41.5571 236.679C41.5868 235.193 41.6146 233.702 41.6406 232.204C41.7185 228.413 41.8299 224.613 41.9746 220.805C42.008 219.753 42.0526 218.694 42.1027 217.649C42.1249 217.042 42.1528 216.436 42.1862 215.829C42.2864 213.638 42.4051 211.462 42.5425 209.3Z" fill="#6C63FF"/>
<path opacity="0.1" d="M99.0357 113.983H68.0446C73.0846 105.222 78.5889 96.8034 84.5282 88.77C89.1377 82.4823 93.992 76.3555 99.0357 70.4516V113.983Z" fill="#6C63FF"/>
<path opacity="0.1" d="M99.0356 116.619V206.651H42.7206C42.7206 206.391 42.754 206.125 42.7763 205.865C42.8264 205.154 42.8765 204.448 42.9321 203.737C42.9878 202.907 43.0602 202.078 43.1326 201.261C43.2049 200.444 43.2773 199.454 43.3664 198.557C43.4554 197.659 43.5278 196.75 43.6169 195.852C43.706 194.955 43.795 194.058 43.8952 193.166C43.9954 192.275 44.0845 191.372 44.1958 190.48C44.2793 189.744 44.3628 189.001 44.4575 188.259C44.5855 187.213 44.7191 186.167 44.8583 185.127C44.8583 184.966 44.9028 184.812 44.9251 184.657C45.9425 177.047 47.3251 169.502 49.0669 162.056C50.896 154.246 53.2309 146.593 56.0534 139.158C59.0525 131.367 62.5655 123.834 66.5638 116.619H99.0356Z" fill="#6C63FF"/>
<path opacity="0.1" d="M112.53 209.3V294.908H233.199V209.3H112.53ZM112.53 297.556V371.078C113.22 371.232 113.899 371.387 114.584 371.517C115.503 371.715 116.427 371.895 117.368 372.049L117.924 372.136C118.292 372.204 118.665 372.26 119.038 372.309C119.967 372.458 120.897 372.569 121.821 372.668C122.255 372.718 122.706 372.755 123.146 372.798L124.22 372.885C124.805 372.934 125.384 372.971 125.963 372.996C126.319 372.996 126.675 373.027 127.037 373.039C127.399 373.052 127.594 373.039 127.883 373.039H128.936C129.414 373.039 129.893 373.039 130.366 373.039H130.979C131.457 373.039 131.936 373.039 132.409 372.99H132.437C132.771 372.99 133.1 372.99 133.434 372.947C133.528 372.953 133.623 372.953 133.718 372.947C133.996 372.947 134.274 372.947 134.542 372.909C134.605 372.904 134.668 372.904 134.731 372.909C135.349 372.866 135.972 372.81 136.601 372.749C137.23 372.687 137.826 372.612 138.455 372.538L139.719 372.365C144.883 371.561 149.989 370.353 155 368.751C166.262 365.26 177.268 360.377 188.524 356.807C203.065 352.196 219.142 349.925 233.193 355.538V297.556H112.53ZM233.199 113.983V0.0123851C219.989 -0.149183 206.815 1.56659 193.996 5.11802C163.439 13.6522 136 32.1624 112.53 55.8031V113.976H118.603V116.619H112.53V206.651H233.199V116.619H143.449V113.97L233.199 113.983ZM388.226 75.483C380.667 75.1859 373.151 72.531 366.348 68.4155C353.355 60.5621 342.967 48.42 331.366 38.184C307.261 16.8517 277.367 3.97312 246.698 0.779778V113.983H418.945L419.373 113.481L388.226 75.483ZM403.92 72.3886L420.559 92.6936V67.0478C414.959 67.8338 410.082 69.6595 403.92 72.3639V72.3886ZM420.559 389.334V297.556H385.076C384.986 297.167 384.886 296.771 384.775 296.374C384.881 296.771 384.975 297.167 385.07 297.556H246.698V363.924C248.012 365.007 249.309 366.151 250.595 367.303C251.983 368.565 253.362 369.842 254.731 371.133L256.112 372.402C256.775 373.021 257.448 373.64 258.116 374.228C259.456 375.428 260.805 376.616 262.163 377.792C262.842 378.386 263.525 378.97 264.212 379.544C275.085 388.782 286.554 397.12 298.527 404.49C301.21 406.155 303.921 407.758 306.649 409.323C308.463 410.363 310.291 411.382 312.132 412.381C314.893 413.878 317.677 415.322 320.482 416.713C346.35 429.621 373.703 438.477 401.76 443.027C407.987 444.046 414.243 444.85 420.526 445.44V389.322H421.082L420.559 389.334ZM246.698 116.619V206.651H420.559V116.619H246.698ZM246.698 209.288V294.908H420.559V209.3L246.698 209.288ZM434.053 66.9241V95.5775L455.286 69.6656C448.249 68.3743 441.172 67.4604 434.053 66.9241ZM434.053 209.3V294.908H603.149V209.3H434.053ZM602.553 396.123L603.149 297.556H434.053V446.437C444.945 446.94 455.854 446.794 466.731 445.997H466.92C472.116 445.626 477.288 445.098 482.436 444.413H482.552C510.023 440.858 536.882 432.882 562.288 420.735L602.553 396.123ZM635.771 223.361C635.129 221.71 634.47 220.06 633.795 218.41C632.537 215.316 631.212 212.308 629.842 209.306H616.649V294.908H650C649.972 270.661 644.45 245.906 635.771 223.361ZM616.649 297.556V382.341C626.04 372.334 633.984 360.879 639.696 347.784C646.571 332.009 649.716 314.94 649.978 297.55L616.649 297.556ZM616.649 184.354V206.633H628.606C624.982 198.974 620.99 191.537 616.649 184.354ZM501.97 83.7262C501.09 83.3487 500.205 82.9712 499.32 82.6123C489.987 78.7779 480.449 75.5908 470.762 73.0694L438.262 112.714L437.627 113.475L438.045 113.976H553.714C537.604 101.652 520.234 91.4979 501.97 83.7262ZM557.11 116.619H436.425L434.053 119.026V206.651H454.846H603.149V164.197C589.739 146.169 574.261 130.174 557.11 116.619Z" fill="#6C63FF"/>
<path opacity="0.1" d="M99.0356 162.037V206.651H42.7206C42.7206 206.391 42.754 206.125 42.7763 205.865C42.8264 205.154 42.8765 204.448 42.9321 203.737C42.9878 202.907 43.0602 202.078 43.1326 201.261C43.2049 200.444 43.2773 199.454 43.3664 198.557C43.4554 197.659 43.5278 196.75 43.6169 195.852C43.706 194.955 43.795 194.057 43.8952 193.166C43.9954 192.275 44.0845 191.372 44.1958 190.48C44.2793 189.744 44.3628 189.001 44.4575 188.259C44.5855 187.213 44.7191 186.167 44.8583 185.127C44.8583 184.966 44.9028 184.812 44.9251 184.657C45.9425 177.047 47.3251 169.502 49.0669 162.056L99.0356 162.037Z" fill="#6C63FF"/>
<path opacity="0.1" d="M42.5425 209.3H99.0356V294.908H46.6731C46.5395 295.793 46.4059 296.671 46.2556 297.556H99.0356V366.585C98.9466 366.585 98.8575 366.51 98.774 366.473C97.2895 365.817 95.805 365.122 94.3204 364.388C94.0031 364.227 93.6914 364.06 93.3685 363.905C91.884 363.125 90.3995 362.3 88.915 361.43C88.3972 361.126 87.8795 360.811 87.3729 360.489C79.1315 355.377 71.641 348.894 65.1609 341.267C64.966 341.063 64.7879 340.84 64.6042 340.648C63.7023 339.559 62.8172 338.457 61.9599 337.331C61.637 336.916 61.3253 336.495 61.0079 336.093C59.9948 334.719 59.015 333.296 58.0686 331.866C57.9239 331.65 57.7903 331.439 57.6511 331.247C53.7743 325.284 50.5593 318.821 48.076 312.001C47.998 311.797 47.9257 311.574 47.8533 311.382C47.0851 309.216 46.3892 307.019 45.788 304.779C45.5319 303.844 45.2814 302.922 45.0698 301.95C44.9919 301.672 44.9307 301.387 44.8639 301.109C41.7353 287.401 41.3734 273.155 41.3734 258.976C41.3734 257.326 41.3734 255.676 41.3734 254.025C41.4179 248.237 41.4792 242.455 41.5571 236.679C41.5868 235.193 41.6146 233.702 41.6406 232.204C41.7185 228.413 41.8299 224.613 41.9746 220.805C42.008 219.753 42.0526 218.694 42.1027 217.649C42.1249 217.042 42.1528 216.436 42.1862 215.829C42.2864 213.638 42.4051 211.462 42.5425 209.3Z" fill="#6C63FF"/>
<path opacity="0.1" d="M155.006 129.516V206.651H112.524V129.516H118.581V103.4H143.443V129.516H155.006Z" fill="#6C63FF"/>
<path opacity="0.1" d="M155 209.294H112.524V294.902H155V209.294Z" fill="#6C63FF"/>
<path opacity="0.1" d="M112.53 297.556H155.006V368.726C149.995 370.33 144.889 371.535 139.724 372.334C139.301 372.402 138.884 372.458 138.461 372.507C137.837 372.588 137.219 372.662 136.601 372.724L134.736 372.891H134.547L133.723 372.94H133.439C133.105 372.94 132.777 372.984 132.443 372.99H132.415C131.936 372.99 131.463 373.027 130.984 373.039H130.372C129.899 373.039 129.425 373.039 128.941 373.039H127.895H127.043C126.681 373.039 126.325 373.039 125.963 372.99C125.391 372.965 124.812 372.928 124.226 372.879L123.152 372.792C122.706 372.755 122.261 372.705 121.821 372.656C120.886 372.565 119.958 372.447 119.038 372.303L117.924 372.13L117.368 372.043C116.438 371.888 115.514 371.715 114.584 371.517C113.894 371.381 113.215 371.226 112.53 371.065V297.556Z" fill="#6C63FF"/>
<path opacity="0.1" d="M420.554 120.406H385.526V206.645H420.554V120.406Z" fill="#6C63FF"/>
<path opacity="0.1" d="M420.559 209.294V294.908H246.698V257.98H339.304V279.764H385.526V209.294H420.559Z" fill="#6C63FF"/>
<path opacity="0.1" d="M421.11 389.353C420.927 389.353 420.743 389.353 420.554 389.316V445.478C414.278 444.904 408.024 444.102 401.793 443.07C373.726 438.522 346.363 429.67 320.482 416.768C313.012 413.022 305.693 408.94 298.526 404.521C286.558 397.147 275.091 388.809 264.217 379.575C261.479 377.248 258.78 374.869 256.123 372.439C254.281 370.743 252.455 369.011 250.595 367.333C249.315 366.176 248.018 365.031 246.698 363.942V297.556H385.07C384.97 297.16 384.881 296.77 384.78 296.374C384.886 296.77 384.986 297.16 385.075 297.556H420.559V389.309C420.743 389.316 420.927 389.334 421.11 389.353Z" fill="#6C63FF"/>
<path opacity="0.1" d="M511.912 113.983H489.088V106.098H499.314V82.6123C500.201 82.9754 501.085 83.3467 501.964 83.7263V106.098H511.907L511.912 113.983Z" fill="#6C63FF"/>
<path opacity="0.1" d="M566.908 206.651H454.846C454.857 206.654 454.868 206.654 454.879 206.651H454.829H434.053V120.413H439.943V184.156H466.854V146.405H489.094V116.619H511.918V146.423H534.147V184.174H566.914L566.908 206.651Z" fill="#6C63FF"/>
<path opacity="0.1" d="M434.053 209.3V294.908H566.914V209.3H434.053ZM602.959 395.671L603.149 327.906H566.914V297.581H434.053V446.437C444.945 446.94 455.853 446.794 466.731 445.997H466.92C472.116 445.626 477.288 445.098 482.435 444.413H482.552C510.023 440.858 536.882 432.882 562.287 420.735" fill="#6C63FF"/>
<path opacity="0.1" d="M618.987 297.556H649.978C649.711 314.94 646.571 332.015 639.696 347.784C633.984 360.885 626.04 372.34 616.649 382.347V327.887H618.987V297.556Z" fill="#6C63FF"/>
<path opacity="0.1" d="M650 294.908H618.987V223.361H635.771C644.45 245.906 649.972 270.661 650 294.908Z" fill="#6C63FF"/>
<path opacity="0.1" d="M420.559 144.381H401.793V171.419H420.559V144.381Z" fill="#6C63FF"/>
<path opacity="0.1" d="M420.559 200.426H401.793V206.651H420.559V200.426Z" fill="#6C63FF"/>
<path opacity="0.1" d="M420.559 209.294H401.793V227.458H420.559V209.294Z" fill="#6C63FF"/>
<path opacity="0.1" d="M420.559 256.47H401.793V283.508H420.559V256.47Z" fill="#6C63FF"/>
<path opacity="0.1" d="M420.559 312.514H401.793V339.553H420.559V312.514Z" fill="#6C63FF"/>
<path opacity="0.1" d="M420.559 389.309C420.743 389.309 420.927 389.309 421.116 389.353C420.932 389.353 420.748 389.353 420.559 389.316V395.597H401.793V368.559H420.559V389.309Z" fill="#6C63FF"/>
<path opacity="0.1" d="M420.559 424.597V445.478C414.28 444.904 408.024 444.102 401.793 443.07V424.597H420.559Z" fill="#6C63FF"/>
<path opacity="0.1" d="M327.124 292.921H246.698V294.908H327.124V292.921Z" fill="#6C63FF"/>
<path opacity="0.1" d="M327.124 297.55H246.698V305.162H327.124V297.55Z" fill="#6C63FF"/>
<path opacity="0.1" d="M327.124 330.115H246.698V342.356H327.124V330.115Z" fill="#6C63FF"/>
<path opacity="0.1" d="M327.124 367.309V379.55H264.217C261.479 377.231 258.78 374.851 256.123 372.408C254.275 370.719 252.449 368.986 250.595 367.309H327.124Z" fill="#6C63FF"/>
<path opacity="0.1" d="M327.124 404.496V416.768H320.482C313.012 413.022 305.693 408.94 298.526 404.521L327.124 404.496Z" fill="#6C63FF"/>
<path opacity="0.1" d="M482.564 217.593H466.731V235.193H482.564V217.593Z" fill="#6C63FF"/>
<path opacity="0.1" d="M139.763 135.587H123.931V153.188H139.763V135.587Z" fill="#6C63FF"/>
<path opacity="0.1" d="M139.763 176.469H123.931V194.07H139.763V176.469Z" fill="#6C63FF"/>
<path opacity="0.1" d="M139.763 217.352H123.931V234.952H139.763V217.352Z" fill="#6C63FF"/>
<path opacity="0.1" d="M139.763 258.228H123.931V275.828H139.763V258.228Z" fill="#6C63FF"/>
<path opacity="0.1" d="M139.763 299.11H123.931V316.71H139.763V299.11Z" fill="#6C63FF"/>
<path opacity="0.1" d="M139.763 339.992H123.931V357.593H139.763V339.992Z" fill="#6C63FF"/>
<path opacity="0.1" d="M543.004 217.593H527.171V235.193H543.004V217.593Z" fill="#6C63FF"/>
<path opacity="0.1" d="M482.564 261.006H466.731V278.607H482.564V261.006Z" fill="#6C63FF"/>
<path opacity="0.1" d="M543.004 261.006H527.171V278.607H543.004V261.006Z" fill="#6C63FF"/>
<path opacity="0.1" d="M482.564 304.414H466.731V322.014H482.564V304.414Z" fill="#6C63FF"/>
<path opacity="0.1" d="M543.004 304.414H527.171V322.014H543.004V304.414Z" fill="#6C63FF"/>
<path opacity="0.1" d="M482.564 347.827H466.731V365.427H482.564V347.827Z" fill="#6C63FF"/>
<path opacity="0.1" d="M543.004 347.827H527.171V365.427H543.004V347.827Z" fill="#6C63FF"/>
<path opacity="0.1" d="M482.564 391.24H466.731V408.841H482.564V391.24Z" fill="#6C63FF"/>
<path opacity="0.1" d="M543.004 391.24H527.171V408.841H543.004V391.24Z" fill="#6C63FF"/>
<path opacity="0.1" d="M466.731 445.997V434.647H482.558V444.382L466.731 445.997Z" fill="#6C63FF"/>
<path opacity="0.1" d="M44.8583 184.638V194.707H99.0356V184.638H44.8583ZM50.2527 194.076H45.7991V185.276H50.2527V194.076ZM55.647 194.076H51.1935V185.276H55.647V194.076ZM61.0302 194.076H56.5767V185.276H61.0302V194.076ZM66.4246 194.076H61.971V185.276H66.4246V194.076ZM71.8134 194.076H67.3598V185.276H71.8134V194.076ZM77.2077 194.076H72.7542V185.276H77.2077V194.076ZM82.6021 194.076H78.1485V185.276H82.6021V194.076ZM87.9909 194.076H83.5373V185.276H87.9909V194.076ZM93.3796 194.076H88.9261V185.276H93.3796V194.076ZM98.774 194.076H94.3205V185.276H98.774V194.076Z" fill="#6C63FF"/>
<path opacity="0.1" d="M44.8583 213.948V224.017H99.0356V213.948H44.8583ZM50.2527 223.385H45.7991V214.585H50.2527V223.385ZM55.647 223.385H51.1935V214.585H55.647V223.385ZM61.0302 223.385H56.5767V214.585H61.0302V223.385ZM66.4246 223.385H61.971V214.585H66.4246V223.385ZM71.8134 223.385H67.3598V214.585H71.8134V223.385ZM77.2077 223.385H72.7542V214.585H77.2077V223.385ZM82.6021 223.385H78.1485V214.585H82.6021V223.385ZM87.9909 223.385H83.5373V214.585H87.9909V223.385ZM93.3796 223.385H88.9261V214.585H93.3796V223.385ZM98.774 223.385H94.3205V214.585H98.774V223.385Z" fill="#6C63FF"/>
<path opacity="0.1" d="M44.8583 243.263V253.326H99.0356V243.263H44.8583ZM50.2527 252.689H45.7991V243.888H50.2527V252.689ZM55.647 252.689H51.1935V243.888H55.647V252.689ZM61.0302 252.689H56.5767V243.888H61.0302V252.689ZM66.4246 252.689H61.971V243.888H66.4246V252.689ZM71.8134 252.689H67.3598V243.888H71.8134V252.689ZM77.2077 252.689H72.7542V243.888H77.2077V252.689ZM82.6021 252.689H78.1485V243.888H82.6021V252.689ZM87.9909 252.689H83.5373V243.888H87.9909V252.689ZM93.3796 252.689H88.9261V243.888H93.3796V252.689ZM98.774 252.689H94.3205V243.888H98.774V252.689Z" fill="#6C63FF"/>
<path opacity="0.1" d="M44.8583 272.573V282.636H99.0356V272.573H44.8583ZM50.2527 282.004H45.7991V273.192H50.2527V282.004ZM55.647 282.004H51.1935V273.192H55.647V282.004ZM61.0302 282.004H56.5767V273.192H61.0302V282.004ZM66.4246 282.004H61.971V273.192H66.4246V282.004ZM71.8134 282.004H67.3598V273.192H71.8134V282.004ZM77.2077 282.004H72.7542V273.192H77.2077V282.004ZM82.6021 282.004H78.1485V273.192H82.6021V282.004ZM87.9909 282.004H83.5373V273.192H87.9909V282.004ZM93.3796 282.004H88.9261V273.192H93.3796V282.004ZM98.774 282.004H94.3205V273.192H98.774V282.004Z" fill="#6C63FF"/>
<path opacity="0.1" d="M45.1199 301.87C45.3315 302.823 45.582 303.764 45.8381 304.698V302.507H50.2916V311.301H47.9034C47.9702 311.512 48.0426 311.728 48.1205 311.92H99.0579V301.87H45.1199ZM55.6971 311.301H51.2436V302.507H55.6971V311.301ZM61.0803 311.301H56.6268V302.507H61.0803V311.301ZM66.4747 311.301H62.0211V302.507H66.4747V311.301ZM71.8635 311.301H67.4099V302.507H71.8635V311.301ZM77.2578 311.301H72.8043V302.507H77.2578V311.301ZM82.6522 311.301H78.1986V302.507H82.6522V311.301ZM88.041 311.301H83.5874V302.507H88.041V311.301ZM93.4297 311.301H88.9762V302.507H93.4297V311.301ZM98.8241 311.301H94.3706V302.507H98.8241V311.301Z" fill="#6C63FF"/>
<path opacity="0.1" d="M57.6678 331.179C57.8125 331.377 57.9461 331.6 58.0853 331.798H61.0302V336.025L61.9822 337.263V331.773H66.4357V340.648H64.6042C64.7823 340.852 64.9549 341.069 65.1609 341.267H99.0245V331.179H57.6678ZM71.8412 340.648H67.3877V331.811H71.8412V340.648ZM77.2355 340.648H72.782V331.811H77.2355V340.648ZM82.6299 340.648H78.1764V331.811H82.6299V340.648ZM88.0187 340.648H83.5651V331.811H88.0187V340.648ZM93.4075 340.648H88.9539V331.811H93.4075V340.648ZM98.8018 340.648H94.3483V331.811H98.8018V340.648Z" fill="#6C63FF"/>
<path opacity="0.1" d="M87.3896 360.489C87.9018 360.811 88.4195 361.108 88.9372 361.423V361.114H93.3908V363.905C93.7137 364.06 94.0199 364.227 94.3372 364.388V361.114H98.7907V366.473C98.8754 366.516 98.9629 366.551 99.0524 366.578V360.489H87.3896Z" fill="#6C63FF"/>
<path opacity="0.1" d="M420.554 389.309H421.11H420.554ZM384.775 296.374C384.881 296.771 384.975 297.167 385.07 297.556C384.986 297.167 384.886 296.771 384.775 296.374ZM118.603 113.983V116.619H143.471V113.97L118.603 113.983ZM420.559 389.309H421.116H420.559ZM384.775 296.374C384.881 296.771 384.975 297.167 385.07 297.556C384.986 297.167 384.886 296.771 384.775 296.374ZM420.554 389.309H421.11H420.554ZM384.775 296.374C384.881 296.771 384.975 297.167 385.07 297.556C384.986 297.167 384.886 296.771 384.775 296.374Z" fill="#6C63FF"/>
<path opacity="0.1" d="M489.572 534C519.53 534 543.816 529.664 543.816 524.315C543.816 518.966 519.53 514.63 489.572 514.63C459.614 514.63 435.328 518.966 435.328 524.315C435.328 529.664 459.614 534 489.572 534Z" fill="#6C63FF"/>
<path opacity="0.1" d="M244.928 524.315C274.886 524.315 299.172 519.979 299.172 514.63C299.172 509.281 274.886 504.944 244.928 504.944C214.97 504.944 190.684 509.281 190.684 514.63C190.684 519.979 214.97 524.315 244.928 524.315Z" fill="#6C63FF"/>
<path d="M307.378 258.531C307.365 258.469 307.336 258.414 307.294 258.37C306.465 257.46 295.888 240.831 295.888 240.831C295.888 240.831 295.331 238.975 294.429 236.561C294.718 236.145 294.935 235.673 295.069 235.169C295.118 234.955 295.153 234.738 295.175 234.519C295.175 234.451 295.22 234.395 295.236 234.327C295.43 233.488 295.41 232.605 295.181 231.777C295.119 231.99 295.043 232.197 294.953 232.396C294.743 231.675 294.463 230.982 294.117 230.329C292.715 227.643 290.711 225.378 289.235 222.76C287.001 218.693 286.114 213.887 286.725 209.17C286.725 209.412 286.725 209.659 286.725 209.9C286.78 208.965 286.892 208.035 287.059 207.116C287.291 206.069 287.602 205.047 287.988 204.058C289.313 200.686 291.456 197.746 292.759 194.361C293.196 193.219 293.528 192.031 293.75 190.815C294.209 188.783 294.376 186.684 294.245 184.595C294.245 185.09 294.173 185.585 294.106 186.074C293.966 181.051 292.141 176.268 288.99 172.663C284.442 167.582 277.912 165.608 271.666 164.569C269.041 164.228 266.535 163.165 264.373 161.474C261.974 159.748 258.873 159.333 256.068 159.71C252.843 160.098 249.846 161.745 247.611 164.358C244.644 167.985 243.358 173.121 239.896 176.178C237.797 178.035 235.136 178.901 232.692 180.164C230.248 181.426 227.938 183.258 227.153 185.969C227.153 185.969 227.153 185.932 227.153 185.913V186.068L227.119 186.167C226.307 189.373 227.877 192.634 228.695 195.834C229.547 199.145 229.602 202.641 229.647 206.063C229.708 210.247 229.764 214.437 229.703 218.626C229.675 220.273 229.625 221.937 229.513 223.577C228.196 224.02 226.916 224.592 225.689 225.285C224.442 226.189 219.777 231.79 219.777 231.79L210.653 270.543L210.775 270.698L210.653 271.224L211.115 271.106C212.406 272.653 216.264 277.06 220.428 279.807L220.818 287.407C220.818 287.407 221.285 295.032 227.593 298.182C227.737 300.824 228.188 311.555 226.101 315.807C224.655 318.913 223.975 322.389 224.13 325.882C224.13 325.882 224.859 332.33 224.03 335.722C223.545 337.988 223.509 340.345 223.924 342.628C223.924 342.628 223.924 343.377 223.924 344.664C223.924 351.528 223.996 373.522 223.924 376.01C223.818 378.95 223.924 422.425 223.924 422.425C223.924 422.425 223.406 444.153 221.747 450.039C220.088 455.924 220.506 475.412 220.506 475.412C220.506 475.412 219.465 498.626 223.145 503.205C223.145 503.41 223.111 503.62 223.106 503.824C223.106 503.917 223.106 504.022 223.106 504.115C223.061 505.879 223.367 507.754 224.731 508.329C227.515 509.518 231.194 513.082 231.89 514.104C232.586 515.125 236.633 517.668 241.911 516.987C245.217 516.574 248.544 516.405 251.87 516.48C251.87 516.48 253.952 516.059 253.278 513.181C252.844 511.387 251.219 508.627 250.061 506.813C250.272 506.875 250.478 506.925 250.673 506.968L250.874 507.011H251.029C251.115 507.017 251.2 507.017 251.286 507.011H251.397C251.501 507.021 251.605 507.021 251.709 507.011C253.106 506.863 258.317 509.561 259.246 511.343C260.176 513.126 263.455 514.481 265.927 514.821C267.396 515.019 271.104 514.685 274.216 514.24C275.783 514.06 277.335 513.745 278.859 513.299C279.593 512.99 279.749 511.999 279.538 510.885C279.288 509.471 278.608 508.195 277.612 507.271C276.71 506.56 275.518 504.684 274.639 503.15L274.405 502.735C275.958 501.089 278.764 495.705 279.616 494.591C280.651 493.235 277.946 443.67 277.946 443.67V418.823L282.093 395.306L284.993 382.861L287.482 364.072C287.482 364.072 291.835 342.127 290.493 339.973C290.493 339.93 289.38 317.335 288.211 311.908C287.704 309.488 287.832 304.042 288.133 298.745C288.447 298.398 288.666 297.959 288.765 297.479C288.863 296.999 288.837 296.498 288.69 296.034C288.607 295.717 288.499 295.408 288.367 295.112C288.367 295.019 288.367 294.92 288.367 294.827C290.772 293.597 293.285 292.647 295.865 291.993C300.013 291.089 298.977 288.713 298.977 288.713C298.977 288.713 299.913 286.677 300.531 285.433C301.148 284.189 300.636 273.21 300.531 272.307C300.492 271.942 300.236 269.924 299.94 267.634C301.271 266.582 303.002 265.276 304.889 264.039C308.48 261.675 307.673 259.181 307.378 258.531ZM253.267 415.432C253.267 415.432 250.155 424.257 251.402 426.516C252.649 428.774 251.196 437.16 251.196 437.16L250.155 449.605C250.155 449.605 247.255 472.689 248.291 478.117C249.103 482.374 249.404 495.092 249.499 500.396C249.427 500.427 249.358 500.464 249.293 500.507L249.153 500.587C249.632 498.502 249.432 494.281 247.055 485.79L246.854 450.719C246.854 450.719 246.487 410.208 249.365 405.678C252.243 401.148 253.262 393.456 253.262 393.456C253.262 393.456 252.638 404.552 252.232 407.492C251.826 410.431 253.267 415.432 253.267 415.432ZM247.472 502.605C247.444 502.679 247.411 502.754 247.389 502.822L247.233 502.599C247.312 502.607 247.392 502.609 247.472 502.605Z" fill="url(#paint0_linear)"/>
<path d="M279.209 516.505C277.6 517.192 268.877 518.361 266.439 518.033C264 517.705 260.772 516.331 259.853 514.537C258.935 512.742 253.785 510.031 252.405 510.205C251.839 510.224 251.274 510.136 250.734 509.945C249.782 509.624 248.852 509.227 247.951 508.757C247.825 507.976 247.846 507.176 248.012 506.405C248.044 506.249 248.085 506.096 248.135 505.947C248.46 504.932 249.132 504.1 250.005 503.632L250.206 503.527C250.591 503.342 250.995 503.205 251.408 503.119C255.784 502.184 273.837 504.059 273.837 504.059C273.837 504.059 274.344 505.068 275.04 506.318C275.908 507.865 277.088 509.753 277.979 510.465C278.966 511.402 279.635 512.686 279.877 514.104C280.089 515.199 279.933 516.201 279.209 516.505Z" fill="white"/>
<path opacity="0.1" d="M279.209 516.505C277.6 517.192 268.883 518.361 266.444 518.033C264.006 517.705 260.777 516.325 259.853 514.537C258.929 512.748 253.791 510.031 252.41 510.205C251.029 510.378 247.956 508.757 247.956 508.757C247.956 508.757 247.478 506.281 248.869 504.592L251.653 506.789C251.653 506.789 259.101 509.357 260.482 511.739C261.863 514.122 264.379 515.453 268.014 515.694C270.731 515.892 276.971 514.716 279.894 514.128C280.089 515.199 279.939 516.201 279.209 516.505Z" fill="black"/>
<path d="M252.56 519.661C249.277 519.59 245.992 519.761 242.729 520.175C237.502 520.855 233.51 518.318 232.814 517.272C232.119 516.226 228.517 512.692 225.75 511.455C224.397 510.873 224.08 508.979 224.141 507.209C224.141 507.117 224.141 507.011 224.141 506.918C224.192 505.797 224.342 504.684 224.587 503.595L246.247 503.081L248.124 505.91L248.413 506.343L249.554 508.07C249.554 508.07 250.072 508.825 250.751 509.926C251.898 511.783 253.501 514.524 253.93 516.338C254.615 519.24 252.56 519.661 252.56 519.661Z" fill="white"/>
<path opacity="0.1" d="M252.56 519.661C249.277 519.59 245.992 519.761 242.729 520.175C237.507 520.855 233.51 518.318 232.82 517.272C232.13 516.226 228.517 512.662 225.75 511.467C224.397 510.885 224.08 508.992 224.141 507.222C225.689 507.624 228.94 508.651 230.215 510.44C231.885 512.829 234.874 516.845 239.122 517.099C242.551 517.303 250.901 516.622 253.963 516.35C254.62 519.24 252.56 519.661 252.56 519.661Z" fill="black"/>
<path opacity="0.1" d="M249.983 503.608C249.732 505.675 248.959 506.232 248.402 506.355C248.266 506.385 248.126 506.385 247.99 506.355C247.917 506.349 247.844 506.337 247.773 506.318C247.773 506.318 228.322 511.096 224.392 507.228C224.292 507.128 224.199 507.021 224.113 506.906C224.165 505.785 224.314 504.672 224.559 503.583L246.22 503.069L248.096 505.897C248.421 504.882 249.093 504.05 249.966 503.583L249.983 503.608Z" fill="black"/>
<path opacity="0.1" d="M275.034 506.293C274.6 506.826 274.238 507.129 274.01 507.024C272.985 506.566 264.59 504.975 261.924 506.343C259.257 507.711 250.233 506.566 250.233 506.566C250.233 506.566 250.233 505.377 250.183 503.471C250.569 503.286 250.973 503.149 251.386 503.063C255.761 502.128 273.815 504.004 273.815 504.004C273.815 504.004 274.344 505.043 275.034 506.293Z" fill="black"/>
<path d="M287.738 366.306L285.277 385.206L282.416 397.732L278.319 421.41V446.474C278.319 446.474 280.98 496.342 279.955 497.704C278.931 499.065 275.04 506.819 274.015 506.368C272.991 505.916 264.596 504.319 261.93 505.681C259.263 507.042 250.239 505.91 250.239 505.91C250.239 505.91 250.033 486.558 249.009 481.093C247.984 475.629 250.851 452.403 250.851 452.403L251.876 439.883C251.876 439.883 253.312 431.454 252.082 429.177C250.851 426.899 253.924 418.037 253.924 418.037C253.924 418.037 252.494 413.018 252.906 410.06C253.317 407.102 253.924 395.944 253.924 395.944C253.924 395.944 252.906 403.692 250.061 408.24C247.216 412.789 247.578 453.554 247.578 453.554L247.778 488.829C252.906 507.506 247.778 505.681 247.778 505.681C247.778 505.681 228.328 510.465 224.397 506.59C220.467 502.716 221.592 478.333 221.592 478.333C221.592 478.333 221.185 458.752 222.822 452.836C224.458 446.92 224.976 425.055 224.976 425.055C224.976 425.055 224.87 381.332 224.976 378.38C225.054 375.905 224.976 353.743 224.976 346.818C224.976 345.531 224.976 344.77 224.976 344.77L227.325 338.284L255.16 334.41H268.476C268.476 334.41 288.517 339.645 290.588 341.904C290.632 341.942 290.67 341.988 290.699 342.04C292.041 344.225 287.738 366.306 287.738 366.306Z" fill="#6C63FF"/>
<path opacity="0.1" d="M253.941 465.585C253.941 465.585 260.065 481.978 262.954 483.117C265.843 484.256 253.941 465.585 253.941 465.585Z" fill="black"/>
<path opacity="0.1" d="M256.207 489.72C256.207 489.72 276.882 490.859 276.676 493.365C276.47 495.872 256.207 489.72 256.207 489.72Z" fill="black"/>
<path opacity="0.1" d="M228.545 483.166C229.363 484.027 244.316 485.642 243.085 487.214C241.855 488.786 229.775 491.843 229.775 491.843L228.545 483.166Z" fill="black"/>
<path opacity="0.1" d="M226.09 454.884C226.09 455.565 229.163 476.743 229.986 477.652C230.81 478.562 237.563 479.472 237.563 479.472L226.09 454.884Z" fill="black"/>
<path d="M248.385 165.416C245.451 169.062 244.182 174.229 240.764 177.311C238.688 179.168 236.06 180.053 233.644 181.315C231.228 182.578 228.834 184.502 228.116 187.361C227.314 190.579 228.862 193.866 229.675 197.084C230.515 200.413 230.565 203.891 230.616 207.375C230.671 211.59 230.732 215.804 230.666 220.019C230.565 226.585 230.076 233.454 226.941 239.018C238.259 243.022 250.295 243.567 262.163 244.08C264.444 244.261 266.735 244.197 269.005 243.889C270.972 243.453 272.917 242.905 274.834 242.249C278.623 241.134 282.527 240.578 286.446 240.596C288.155 240.596 289.898 240.714 291.546 240.219C293.193 239.724 294.78 238.455 295.225 236.623C295.621 234.977 295.042 233.225 294.285 231.746C292.904 229.048 290.944 226.795 289.464 224.134C287.952 221.323 287.055 218.157 286.845 214.891C286.635 211.624 287.118 208.348 288.256 205.327C289.569 201.929 291.685 198.971 292.976 195.568C294.299 191.913 294.651 187.913 293.99 184.043C293.329 180.173 291.682 176.595 289.246 173.734C284.754 168.622 278.307 166.642 272.139 165.59C269.542 165.249 267.064 164.184 264.936 162.495C262.57 160.763 259.502 160.342 256.73 160.725C253.532 161.124 250.57 162.789 248.385 165.416Z" fill="#3F3D56"/>
<g opacity="0.1">
<path opacity="0.1" d="M288.428 201.756C287.293 204.738 286.807 207.976 287.009 211.206C287.133 208.896 287.613 206.627 288.428 204.498C289.736 201.1 291.852 198.142 293.143 194.738C294.199 191.896 294.643 188.819 294.44 185.752C294.326 187.902 293.887 190.015 293.143 192.003C291.852 195.407 289.736 198.359 288.428 201.756Z" fill="black"/>
<path opacity="0.1" d="M230.783 206.534C230.816 208.96 230.849 211.392 230.855 213.818C230.855 210.476 230.827 207.14 230.783 203.805C230.738 200.345 230.682 196.842 229.842 193.507C229.285 191.39 228.461 189.243 228.172 187.108C227.676 190.14 229.085 193.216 229.842 196.242C230.682 199.547 230.738 203.074 230.783 206.534Z" fill="black"/>
<path opacity="0.1" d="M291.735 236.679C290.065 237.18 288.35 237.069 286.641 237.056C282.725 237.029 278.822 237.574 275.034 238.678C273.117 239.332 271.172 239.877 269.205 240.311C266.934 240.625 264.641 240.691 262.358 240.509C250.89 240.008 239.261 239.47 228.277 235.825C227.951 236.634 227.579 237.419 227.164 238.176C238.482 242.174 250.517 242.725 262.38 243.239C264.663 243.421 266.957 243.354 269.228 243.041C271.187 242.61 273.125 242.067 275.034 241.413C278.814 240.305 282.709 239.754 286.619 239.773C288.328 239.773 290.065 239.891 291.713 239.389C293.36 238.888 294.947 237.632 295.392 235.8C295.58 234.952 295.561 234.063 295.337 233.225C294.841 234.958 293.31 236.165 291.735 236.679Z" fill="black"/>
</g>
<path d="M275.246 229.345C274.834 230.372 273.097 239.247 272.685 240.157C272.273 241.066 270.024 255.628 269.818 256.445C269.612 257.262 254.993 253.029 254.993 253.029L246.192 244.829L237.146 234.822C237.146 234.822 236.878 225.793 243.542 222.897C243.995 222.699 244.46 222.538 244.934 222.414C253.017 220.254 252.204 192.931 252.204 192.931L268.794 200.896C268.794 200.896 265.721 216.838 265.826 219.914C265.854 220.947 266.583 221.591 267.535 221.981C269.007 222.446 270.54 222.63 272.067 222.525C272.067 222.525 275.658 228.324 275.246 229.345Z" fill="#FBBEBE"/>
<path d="M304.945 259.286L307.3 259.973C307.3 259.973 309.042 262.919 304.945 265.66C302.343 267.417 299.846 269.358 297.469 271.471L285.361 275.568L283.028 267.43L294.296 257.924L304.945 259.286Z" fill="#6C63FF"/>
<path opacity="0.1" d="M304.945 259.286L307.3 259.973C307.3 259.973 309.042 262.919 304.945 265.66C302.343 267.417 299.846 269.358 297.469 271.471L285.361 275.568L283.028 267.43L294.296 257.924L304.945 259.286Z" fill="black"/>
<path d="M216.581 267.145L211.872 272.27C211.872 272.27 220.367 283.199 226.902 283.88C233.438 284.56 237.652 275.568 237.652 275.568L231.996 265.666L216.581 267.145Z" fill="#6C63FF"/>
<path opacity="0.1" d="M216.581 267.145L211.872 272.27C211.872 272.27 220.367 283.199 226.902 283.88C233.438 284.56 237.652 275.568 237.652 275.568L231.996 265.666L216.581 267.145Z" fill="black"/>
<path opacity="0.1" d="M261.317 210.785C270.366 210.785 277.701 202.631 277.701 192.572C277.701 182.513 270.366 174.359 261.317 174.359C252.269 174.359 244.934 182.513 244.934 192.572C244.934 202.631 252.269 210.785 261.317 210.785Z" fill="black"/>
<path d="M261.317 209.418C270.366 209.418 277.701 201.263 277.701 191.205C277.701 181.146 270.366 172.991 261.317 172.991C252.269 172.991 244.934 181.146 244.934 191.205C244.934 201.263 252.269 209.418 261.317 209.418Z" fill="#FBBEBE"/>
<path opacity="0.1" d="M290.71 344.107C286.98 344.582 283.305 345.497 279.749 346.837C273.626 349.102 225.639 346.874 224.971 346.837C224.971 345.549 224.971 344.788 224.971 344.788L227.32 338.303L255.155 334.428H268.471C268.471 334.428 288.512 339.664 290.582 341.923C290.666 343.284 290.71 344.107 290.71 344.107Z" fill="black"/>
<path opacity="0.1" d="M275.246 229.345C274.834 230.372 273.097 239.247 272.685 240.157C272.273 241.066 270.024 255.628 269.818 256.445C269.612 257.262 254.993 253.029 254.993 253.029L246.192 244.829L237.146 234.822C237.146 234.822 236.878 225.793 243.542 222.897L260.087 244.043L267.535 221.981C269.007 222.446 270.54 222.63 272.067 222.525C272.067 222.525 275.658 228.324 275.246 229.345Z" fill="black"/>
<path d="M260.087 244.724L243.152 223.064C242.161 222.36 241.028 221.942 239.855 221.846C238.682 221.749 237.506 221.979 236.433 222.513C232.642 224.339 227.932 225.818 226.702 226.727C225.472 227.637 220.862 233.269 220.862 233.269L234.59 273.192L228.545 299.487C228.545 299.487 229.469 312.923 227.114 317.818C225.68 320.948 225.008 324.441 225.166 327.949C225.166 327.949 225.884 334.441 225.065 337.851C224.587 340.131 224.551 342.498 224.96 344.794C224.96 344.794 273.609 347.072 279.749 344.794C283.305 343.451 286.979 342.536 290.71 342.065C290.71 342.065 289.597 319.291 288.484 313.826C287.37 308.362 289.408 287.531 289.408 287.531L288.077 265.215L296.06 242.317C296.06 242.317 291.735 227.637 287.226 226.158C287.226 226.158 279.037 223.992 277.294 222.971C275.552 221.95 270.43 221.034 270.43 221.034L267.741 222.036L260.087 244.724Z" fill="#6C63FF"/>
<path opacity="0.1" d="M283.714 264.461L248.079 261.767C247.177 261.699 246.396 262.457 246.335 263.459L242.509 326.006C242.448 327.008 243.129 327.876 244.031 327.944L279.666 330.638C280.568 330.706 281.349 329.949 281.41 328.946L285.236 266.4C285.297 265.397 284.616 264.529 283.714 264.461Z" fill="black"/>
<path d="M284.941 263.103L249.306 260.409C248.404 260.341 247.624 261.098 247.562 262.101L243.736 324.647C243.675 325.65 244.356 326.518 245.258 326.586L280.893 329.28C281.795 329.348 282.576 328.591 282.637 327.588L286.463 265.041C286.524 264.039 285.843 263.171 284.941 263.103Z" fill="#3F3D56"/>
<path d="M283.765 268.005L249.874 265.444L246.391 322.384L280.282 324.946L283.765 268.005Z" fill="white"/>
<path opacity="0.1" d="M280.726 282.539L253.042 280.385L252.502 288.962L280.186 291.117L280.726 282.539Z" fill="black"/>
<path opacity="0.1" d="M279.725 316.626L275.331 316.293L275.058 320.764L279.451 321.096L279.725 316.626Z" fill="black"/>
<path opacity="0.1" d="M275.391 305.837L252.903 304.137L252.629 308.607L275.118 310.307L275.391 305.837Z" fill="black"/>
<path d="M279.571 265.877L256.154 264.106L255.734 270.979L279.15 272.749L279.571 265.877Z" fill="#3F3D56"/>
<path opacity="0.1" d="M279.571 265.877L256.154 264.106L255.734 270.979L279.15 272.749L279.571 265.877Z" fill="black"/>
<path opacity="0.1" d="M262.135 342.851C262.135 342.851 261.929 376.555 253.941 395.906C253.941 395.906 263.572 370.403 263.572 369.382C263.572 368.361 268.894 357.654 267.469 354.467C266.043 351.28 262.135 342.851 262.135 342.851Z" fill="black"/>
<path opacity="0.1" d="M262.57 186.65C262.264 183.667 262.921 180.66 264.423 178.165C264.245 180.665 264.881 183.154 266.216 185.176C267.55 187.199 269.495 188.62 271.694 189.181C271.506 189 271.372 188.76 271.31 188.492C271.247 188.225 271.259 187.943 271.343 187.683C272.484 189.119 273.358 190.821 274.65 192.083C275.941 193.346 277.879 194.101 279.399 193.203C281.464 191.966 281.486 188.704 280.952 186.167C279.805 180.763 277.452 175.768 274.11 171.642C273.276 170.395 272.194 169.38 270.948 168.675C269.702 167.971 268.326 167.597 266.929 167.582C263.767 167.31 260.482 167.62 257.649 169.198C256.054 170.165 254.56 171.325 253.195 172.657L245.401 179.725C244.651 180.325 244.009 181.077 243.509 181.94C243.174 182.662 242.973 183.451 242.918 184.261C242.719 186.575 243.105 188.906 244.031 190.991C244.957 193.075 246.388 194.832 248.162 196.063C248.125 194.233 248.578 192.433 249.463 190.89C250.348 189.347 251.626 188.132 253.134 187.398C253.37 187.618 253.561 187.891 253.695 188.2C253.828 188.508 253.901 188.845 253.908 189.187L255.55 185.932C255.794 185.339 256.179 184.832 256.663 184.465C257.676 183.846 258.94 184.576 259.803 185.449C260.666 186.322 261.506 187.411 262.664 187.547L262.709 182.701" fill="black"/>
<path d="M262.57 185.969C262.263 182.984 262.92 179.975 264.423 177.478C263.922 182.429 267.279 187.541 271.699 188.494C271.512 188.314 271.377 188.075 271.315 187.809C271.252 187.543 271.264 187.261 271.349 187.002C272.49 188.438 273.364 190.134 274.655 191.403C275.947 192.671 277.884 193.42 279.404 192.517C281.469 191.279 281.492 188.017 280.957 185.486C279.81 180.083 277.457 175.087 274.115 170.961C273.079 169.556 271.772 168.427 270.291 167.657C269.219 167.216 268.092 166.961 266.951 166.902C263.789 166.629 260.504 166.933 257.671 168.511C256.077 169.482 254.584 170.644 253.217 171.976L245.424 179.044C244.672 179.643 244.03 180.395 243.531 181.259C243.196 181.981 242.995 182.77 242.941 183.58C242.742 185.894 243.127 188.223 244.054 190.307C244.98 192.391 246.411 194.146 248.185 195.376C248.149 193.547 248.602 191.747 249.487 190.204C250.372 188.662 251.649 187.446 253.156 186.712C253.391 186.932 253.582 187.205 253.715 187.514C253.849 187.822 253.922 188.158 253.93 188.5L255.566 185.257C255.809 184.664 256.195 184.156 256.68 183.791C257.693 183.172 258.957 183.902 259.82 184.774C260.682 185.647 261.523 186.73 262.681 186.872L262.726 182.021" fill="#3F3D56"/>
<path d="M270.33 300.849C268.899 300.044 245.24 304.147 245.24 304.147C245.24 304.147 241.343 302.91 231.924 301.189C222.504 299.469 221.903 289.233 221.903 289.233L220.873 268.742L224.052 265.648L237.669 275.55C237.669 275.55 237.88 280.556 237.669 281.46C237.535 282.079 237.179 282.815 237.212 283.316C237.223 283.452 237.273 283.58 237.355 283.681C237.438 283.782 237.548 283.849 237.669 283.873C238.593 284.133 251.185 286.398 251.185 286.398C251.185 286.398 280.373 284.177 287.649 295.106C288.225 295.908 288.661 296.823 288.935 297.804C290.738 305.274 271.627 301.561 270.33 300.849Z" fill="#FBBEBE"/>
<path opacity="0.1" d="M288.951 297.847C287.838 298.398 287.148 298.794 287.148 298.794C287.148 298.794 276.704 298.454 270.837 296.09C264.969 293.726 257.838 294.147 257.838 294.147C257.838 294.147 233.388 289.468 237.179 283.36C237.189 283.495 237.24 283.624 237.322 283.724C237.405 283.825 237.515 283.893 237.635 283.917C238.56 284.177 251.152 286.442 251.152 286.442C251.152 286.442 280.339 284.22 287.615 295.149C288.21 295.947 288.663 296.862 288.951 297.847Z" fill="black"/>
<path d="M299.105 261.792C299.105 261.792 300.542 273.062 300.642 273.978C300.742 274.894 301.26 285.928 300.642 287.184C300.024 288.441 299.105 290.483 299.105 290.483C299.105 290.483 300.13 292.872 296.032 293.788C291.935 294.704 287.125 297.427 287.125 297.427C287.125 297.427 276.676 297.086 270.842 294.697C265.008 292.308 257.838 292.76 257.838 292.76C257.838 292.76 226.802 286.838 240.118 279.609C253.434 272.381 262.854 282.171 262.854 282.171L277.701 281.15C277.701 281.15 283.234 277.388 284.771 277.734C285.856 277.888 286.957 277.69 287.944 277.165L288.049 265.208L299.105 261.792Z" fill="#FBBEBE"/>
<path opacity="0.1" d="M223.818 234.129L220.846 233.956L211.838 272.944C211.838 272.944 221.564 270.209 225.756 272.944C229.947 275.68 237.635 276.243 237.635 276.243L234.768 245.163L223.818 234.129Z" fill="black"/>
<path d="M223.818 233.442L220.846 233.269L211.838 272.257C211.838 272.257 221.564 269.522 225.756 272.257C229.947 274.993 237.635 275.556 237.635 275.556L234.768 244.476L223.818 233.442Z" fill="#6C63FF"/>
<path opacity="0.1" d="M291.941 241.982L296.032 243.01C296.032 243.01 306.482 259.719 307.3 260.654C308.118 261.588 303.403 264.986 301.46 264.986C299.517 264.986 289.992 266.223 287.226 269.082C284.459 271.942 285.611 257.553 285.611 257.225C285.611 256.897 289.046 247.818 289.046 247.818L291.941 241.982Z" fill="black"/>
<path d="M291.941 241.302L296.032 242.323C296.032 242.323 306.482 259.063 307.3 259.973C308.118 260.883 303.403 264.305 301.46 264.305C299.517 264.305 289.992 265.543 287.226 268.402C284.459 271.261 285.611 256.872 285.611 256.544C285.611 256.216 289.068 247.107 289.068 247.107L291.941 241.302Z" fill="#6C63FF"/>
<g opacity="0.1">
<path opacity="0.1" d="M264.396 177.534C264.372 177.059 264.381 176.583 264.423 176.11C263.576 177.524 262.993 179.113 262.709 180.783V182.219C262.709 182.219 262.709 182.188 262.709 182.169V182.509C262.709 183.512 262.709 184.521 262.681 185.523H262.603V185.987C262.603 185.827 262.603 185.672 262.575 185.511C261.462 185.313 260.666 184.273 259.836 183.444C259.007 182.615 257.71 181.823 256.697 182.46C256.211 182.826 255.826 183.333 255.583 183.927L253.93 187.17C253.922 186.828 253.85 186.493 253.716 186.185C253.583 185.878 253.392 185.606 253.156 185.387C251.648 186.121 250.37 187.336 249.485 188.879C248.6 190.421 248.147 192.222 248.185 194.051C246.664 192.992 245.391 191.545 244.473 189.831C243.554 188.117 243.016 186.184 242.902 184.193C242.805 186.416 243.244 188.628 244.172 190.601C245.101 192.573 246.486 194.234 248.185 195.413C248.149 193.584 248.602 191.784 249.487 190.242C250.372 188.699 251.649 187.483 253.156 186.749C253.391 186.969 253.582 187.242 253.715 187.551C253.849 187.859 253.922 188.195 253.93 188.537L255.566 185.294C255.809 184.701 256.195 184.194 256.68 183.828C257.693 183.209 258.957 183.939 259.82 184.812C260.682 185.684 261.523 186.767 262.681 186.91C262.681 185.325 262.696 183.745 262.726 182.169C262.999 180.516 263.566 178.94 264.396 177.534Z" fill="black"/>
<path opacity="0.1" d="M262.514 183.766C262.542 183.345 262.586 182.924 262.642 182.528L262.703 180.82C262.536 181.79 262.472 182.779 262.514 183.766Z" fill="black"/>
<path opacity="0.1" d="M279.404 191.149C277.884 192.052 275.947 191.297 274.655 190.035C273.364 188.772 272.49 187.071 271.349 185.635C271.264 185.895 271.253 186.177 271.315 186.444C271.378 186.711 271.512 186.951 271.699 187.132C271.588 187.132 271.482 187.071 271.377 187.04C272.49 188.463 273.375 190.134 274.655 191.372C275.936 192.609 277.884 193.389 279.404 192.486C280.924 191.582 281.358 189.466 281.224 187.405C281.124 189.026 280.601 190.431 279.404 191.149Z" fill="black"/>
<path opacity="0.1" d="M271.343 187.027C269.481 186.463 267.819 185.28 266.58 183.636C265.34 181.993 264.582 179.967 264.407 177.831C264.089 182.689 267.385 187.559 271.699 188.494C271.516 188.316 271.384 188.082 271.32 187.821C271.257 187.56 271.265 187.283 271.343 187.027Z" fill="black"/>
</g>
<path d="M538.689 288.174C538.689 288.174 536.496 287.834 536.496 284.288C536.496 280.742 534.926 274.101 534.926 274.101C534.926 274.101 533.568 262.547 531.692 260.715C529.816 258.884 527.405 248.128 527.405 248.128C527.405 248.128 526.993 242.292 526.153 241.036C525.312 239.779 524.176 236.703 522.501 232.316C520.825 227.928 513.855 224.92 513.855 224.92C513.855 224.92 501.224 216.776 497.644 214.121C497.317 213.901 497.011 213.644 496.731 213.354C496.108 212.45 493.391 212.432 493.391 212.432C493.107 210.433 492.835 208.143 492.745 206.07C492.745 205.847 492.745 205.624 492.745 205.401C496.737 202.778 499.743 198.643 501.213 193.754C501.28 193.519 501.335 193.278 501.396 193.036C501.641 192.953 501.866 192.812 502.058 192.624C502.25 192.437 502.404 192.206 502.51 191.947C502.827 191.149 502.838 190.221 503.239 189.472C503.707 188.593 504.597 188.123 505.299 187.467C507.069 185.789 507.526 182.974 507.442 180.418C507.386 178.338 507.086 176.247 507.203 174.186C507.203 174.012 507.203 173.839 507.236 173.666C507.27 173.363 507.309 173.047 507.359 172.75C507.631 171.215 508.227 169.767 508.561 168.245C508.895 166.722 508.928 165.008 508.149 163.696C507.008 161.771 504.631 161.388 502.543 161.221C500.177 160.998 498.09 161.282 496.548 159.098C495.84 157.957 495.043 156.888 494.165 155.904C493.853 155.583 490.825 153.522 490.825 153.392C487.862 151.86 484.5 151.572 481.361 152.581C479.786 153.089 478.31 153.918 476.713 154.333C473.283 155.236 469.331 154.258 466.414 156.443C464.788 157.681 463.814 159.655 462.901 161.567C462.159 163.143 461.405 164.721 460.641 166.301C459.405 168.894 458.158 171.531 457.64 174.402C457.532 175.03 457.463 175.664 457.434 176.302C457.434 176.531 457.434 176.76 457.434 176.989C457.434 177.088 457.434 177.187 457.434 177.286C457.434 177.497 457.434 177.707 457.468 177.905C457.501 178.103 457.468 178.159 457.507 178.289C457.546 178.419 457.557 178.71 457.59 178.908C457.624 179.106 457.69 179.458 457.757 179.725C457.757 179.842 457.824 179.954 457.858 180.071C457.891 180.189 457.98 180.486 458.052 180.69C458.125 180.894 458.13 180.907 458.175 181.012C458.258 181.228 458.359 181.439 458.459 181.631C458.503 181.711 458.537 181.792 458.581 181.872C458.734 182.162 458.905 182.439 459.093 182.701C460.279 184.354 462.038 185.406 463.335 186.953C463.335 187.015 463.335 187.077 463.335 187.139C463.335 187.306 463.335 187.473 463.335 187.646C463.415 191.097 464.252 194.474 465.773 197.483C467.294 200.492 469.454 203.043 472.064 204.912C472.064 205.148 472.092 205.389 472.103 205.63C472.212 207.465 472.191 209.307 472.042 211.138C471.815 210.842 471.531 210.606 471.211 210.448C470.891 210.289 470.544 210.212 470.194 210.222C469.955 210.209 469.715 210.232 469.481 210.29L469.431 210.247V210.303C468.206 210.637 466.698 212.054 465.256 216.083C465.256 216.083 460.869 221.578 457.529 221.349C454.189 221.12 445.733 227.074 445.733 227.074C445.733 227.074 437.483 233.021 435.712 239.086C434.723 242.526 433.534 245.891 432.155 249.161L421.929 272.505L420.053 291.071C420.053 291.071 421.094 299.308 420.888 300.57C420.682 301.833 425.169 313.158 425.169 313.158C425.169 313.158 439.993 342.109 446.05 343.594L446.484 343.26C446.745 343.406 447.019 343.518 447.303 343.594L448.55 342.622C448.627 343.71 448.593 344.804 448.449 345.884C447.62 348.749 448.767 367.402 450.225 371.059C451.684 374.717 451.166 422.679 451.166 422.679L450.96 426.905C450.96 426.905 450.96 427.042 451.01 427.277L450.96 428.279L451.11 428.366C451.266 429.711 451.216 431.075 450.96 432.401C450.437 434.258 450.225 439.499 450.225 439.499C450.225 439.499 446.05 469.131 448.032 475.084C450.014 481.038 451.689 487.56 451.689 487.56C451.689 487.56 453.777 494.987 451.79 496.225C449.802 497.462 444.174 499.659 445.321 502.747C446.379 505.606 450.392 513.268 450.988 514.388L450.938 515.007L450.119 524.866C450.252 526.167 450.57 527.437 451.06 528.628C451.957 530.782 453.693 533.004 457.011 532.762C457.568 532.719 458.208 532.651 458.837 532.558C464.9 531.648 472.359 528.641 472.359 528.641C471.973 528.368 471.619 528.042 471.307 527.669C471.009 527.348 470.773 526.963 470.613 526.538C470.453 526.112 470.373 525.655 470.378 525.194C470.467 523.393 467.444 514.846 466.687 512.736L466.514 512.265C466.514 512.265 473.406 504.251 472.259 497.159C472.259 497.159 464.632 492.208 467.143 489.485C469.654 486.762 474.141 478.964 474.141 478.964C474.141 478.964 474.347 449.785 474.141 445.434C473.926 442.408 474.055 439.364 474.525 436.374C474.608 435.928 474.709 435.489 474.814 435.05C478.29 435.633 481.799 435.928 485.314 435.935C486.598 435.935 487.897 435.906 489.21 435.848C489.21 436.261 489.227 436.706 489.261 437.185C489.55 444.413 490.09 457.094 490.53 461.803C491.153 468.549 494.599 486.75 494.599 486.75C494.599 486.75 488.025 491.435 495.746 503.001C495.746 503.001 495.746 507.185 495.234 507.797C494.687 509.782 494.246 511.801 493.914 513.844C493.592 516.016 493.458 518.225 493.981 519.364C495.234 522.099 502.749 521.876 502.749 521.876C502.81 521.861 502.871 521.85 502.933 521.845C504.351 521.679 505.786 521.828 507.152 522.285C508.518 522.742 509.788 523.497 510.888 524.507C513.744 527.056 524.577 525.942 530.45 525.126C532.749 524.798 534.286 524.507 534.286 524.507C534.36 524.217 534.386 523.915 534.364 523.615C534.303 522.013 533.172 518.497 525.512 515.36C525.512 515.36 518.309 509.976 518.409 505.285H518.248H517.418C517.941 505.266 518.309 505.266 518.309 505.266C518.309 505.266 515.486 493.823 516.639 492.889C517.791 491.954 514.34 479.274 514.34 479.274C514.34 479.274 512.363 457.985 512.252 456.5C512.259 455.22 512.436 453.948 512.775 452.724L512.252 441.046C512.252 441.046 512.152 437.166 512.252 435.904C512.241 434.808 512.163 433.714 512.018 432.63C511.968 432.197 511.918 431.745 511.862 431.299C514.562 430.538 516.316 429.839 516.316 429.839L516.004 389.21C518.298 384.259 518.721 373.392 518.71 365.693C518.71 360.743 518.509 357.079 518.509 357.079L521.643 351.392C521.643 351.392 522.367 344.584 521.22 343.093C520.714 342.418 520.942 341.719 521.359 341.143C521.579 340.943 521.812 340.761 522.055 340.599C522.028 340.555 522.004 340.51 521.983 340.462C522.202 340.259 522.434 340.075 522.679 339.912C522.679 339.912 521.565 337.993 522.562 337.182C523.497 337.888 524.332 338.451 524.967 338.853C524.922 339.305 524.878 339.565 524.878 339.565L525.145 338.946C525.757 339.33 526.13 339.565 526.13 339.565C526.13 339.565 531.04 328.692 530.935 327.095C530.829 325.498 534.275 318.74 534.275 318.74C534.275 318.74 534.692 315.188 536.574 313.703C538.455 312.217 538.032 301.455 538.032 301.455C538.032 301.455 538.556 295.848 539.808 293.565C541.061 291.281 538.689 288.174 538.689 288.174ZM444.742 283.403L444.836 285.996C444.28 285 443.879 284.288 443.879 284.288L444.742 283.403Z" fill="url(#paint1_linear)"/>
<path d="M526.42 334.862L525.217 340.555C525.217 340.555 515.587 335.078 513.855 328.147C512.124 321.216 516.756 318.573 516.756 318.573L525.735 322.794L526.42 334.862Z" fill="white"/>
<path opacity="0.1" d="M526.42 334.862L525.217 340.555C525.217 340.555 515.587 335.078 513.855 328.147C512.124 321.216 516.756 318.573 516.756 318.573L525.735 322.794L526.42 334.862Z" fill="black"/>
<path d="M472.37 528.634C472.37 528.634 463.463 532.273 457.34 532.731C454.089 532.973 452.38 530.757 451.5 528.622C451.022 527.445 450.71 526.192 450.576 524.909L451.383 515.1L451.806 509.883L464.816 506.12L466.659 512.389L466.831 512.86C467.566 514.958 470.539 523.461 470.45 525.237C470.443 525.696 470.519 526.152 470.675 526.578C470.831 527.003 471.063 527.389 471.357 527.712C471.658 528.066 471.999 528.376 472.37 528.634Z" fill="white"/>
<path d="M533.184 523.646C533.207 523.946 533.18 524.248 533.106 524.538C533.106 524.538 514.056 528.065 510.159 524.538C509.063 523.507 507.787 522.742 506.41 522.291C505.034 521.841 503.588 521.714 502.165 521.92C502.165 521.92 494.794 522.143 493.564 519.444C493.052 518.312 493.185 516.115 493.503 513.955C493.827 511.923 494.258 509.915 494.794 507.94L495.089 507.68L496.843 506.114L517.374 505.439H517.529C517.429 510.106 524.494 515.459 524.494 515.459C532.015 518.553 533.122 522.05 533.184 523.646Z" fill="white"/>
<path opacity="0.1" d="M533.189 523.646C533.209 523.947 533.181 524.248 533.106 524.538C533.106 524.538 514.056 528.065 510.164 524.538C509.068 523.506 507.791 522.741 506.413 522.29C505.036 521.839 503.589 521.713 502.165 521.92C502.165 521.92 494.789 522.143 493.558 519.444C493.052 518.312 493.18 516.115 493.497 513.949C496.336 514.264 500.818 515.05 502.577 516.932C505.238 519.778 509.747 522.625 512.508 522.854C514.69 523.003 527.667 523.461 533.189 523.646Z" fill="black"/>
<path opacity="0.1" d="M472.37 528.634C472.37 528.634 463.463 532.273 457.34 532.731C454.089 532.973 452.38 530.757 451.5 528.622C453.771 529.47 456.917 530.355 458.57 529.544C460.53 528.573 467.477 527.954 471.374 527.688C471.668 528.05 472.003 528.368 472.37 528.634Z" fill="black"/>
<path d="M485.586 235.361C478.238 232.186 468.785 221.696 471.146 216.795C471.667 215.557 471.979 214.222 472.064 212.859C472.216 211.007 472.238 209.145 472.131 207.289C471.965 204.248 471.636 201.22 471.146 198.222C471.146 198.222 494.087 198.798 492.751 202.554C492.361 203.662 492.294 205.575 492.406 207.71C492.517 209.845 492.79 212.277 493.079 214.325C493.475 217.129 493.881 219.276 493.881 219.276C493.881 219.276 492.473 221.461 491.654 221.578C490.836 221.696 496.13 239.909 485.586 235.361Z" fill="#CF6F80"/>
<path opacity="0.1" d="M466.809 512.829L466.636 513.039C459.778 503.818 451.483 515.316 451.483 515.316L451.361 515.069L451.784 509.852L464.794 506.089L466.636 512.358L466.809 512.829Z" fill="black"/>
<path opacity="0.1" d="M517.541 506.089C517.541 506.089 512.53 505.978 509.858 508.602C507.186 511.226 494.271 509.165 494.827 508.602C494.99 508.316 495.089 507.992 495.117 507.655L496.871 506.089L517.401 505.415C517.479 505.848 517.541 506.089 517.541 506.089Z" fill="black"/>
<path d="M475.343 433.676C474.971 434.702 474.687 435.765 474.497 436.851C474.033 439.825 473.904 442.852 474.113 445.861C474.319 450.193 474.113 479.224 474.113 479.224C474.113 479.224 469.71 486.966 467.249 489.696C464.788 492.425 472.259 497.326 472.259 497.326C473.373 504.387 466.625 512.358 466.625 512.358C459.767 503.137 451.472 514.63 451.472 514.63C451.472 514.63 446.963 505.965 445.839 502.871C444.714 499.777 450.242 497.642 452.185 496.379C454.128 495.117 452.085 487.715 452.085 487.715C452.085 487.715 450.448 481.223 448.5 475.301C446.551 469.378 450.648 439.902 450.648 439.902C450.648 439.902 450.86 434.66 451.366 432.834C451.619 431.516 451.67 430.161 451.517 428.824C451.483 428.372 451.444 428.001 451.417 427.741C451.389 427.481 451.366 427.37 451.366 427.37L451.444 427.221L454.228 421.453C454.228 421.453 476.679 430.043 475.343 433.676Z" fill="#6C63FF"/>
<path d="M517.54 505.408C517.54 505.408 512.53 505.291 509.858 507.884C507.186 510.477 494.271 508.453 494.827 507.884C495.384 507.315 495.334 503.106 495.334 503.106C487.757 491.602 494.221 486.935 494.221 486.935C494.221 486.935 490.841 468.834 490.229 462.119C489.8 457.434 489.272 444.791 488.988 437.63C488.865 434.536 488.793 432.401 488.793 432.401L494.928 431.046L495.724 430.872L510.654 427.537C510.654 427.537 511.066 430.631 511.344 433.162C511.485 434.242 511.562 435.332 511.573 436.424C511.478 437.661 511.573 441.542 511.573 441.542L512.085 453.151C511.754 454.37 511.582 455.635 511.573 456.908C511.679 458.393 513.621 479.565 513.621 479.565C513.621 479.565 517 492.202 515.848 493.112C514.696 494.021 517.54 505.408 517.54 505.408Z" fill="#6C63FF"/>
<path opacity="0.1" d="M492.751 202.573C492.361 203.681 492.294 205.593 492.406 207.728C489.333 209.785 485.8 210.837 482.214 210.763C478.628 210.688 475.133 209.491 472.131 207.307C471.965 204.266 471.636 201.239 471.146 198.241C471.146 198.241 494.087 198.817 492.751 202.573Z" fill="black"/>
<path d="M501.608 188.909C501.668 194.524 499.72 199.935 496.191 203.953C492.663 207.971 487.843 210.266 482.792 210.334C477.741 210.401 472.873 208.235 469.258 204.312C465.644 200.389 463.58 195.031 463.519 189.416C463.519 189.243 463.519 189.082 463.519 188.909C463.519 183.292 465.526 177.905 469.099 173.934C472.671 169.962 477.517 167.731 482.569 167.731C487.621 167.731 492.467 169.962 496.039 173.934C499.612 177.905 501.619 183.292 501.619 188.909H501.608Z" fill="#CF6F80"/>
<path opacity="0.1" d="M485.586 235.361C478.238 232.186 468.785 221.696 471.146 216.795C471.667 215.557 471.979 214.222 472.064 212.859L482.124 222.055L488.348 227.73L493.079 214.344C493.475 217.147 493.881 219.295 493.881 219.295C493.881 219.295 492.473 221.479 491.654 221.597C490.836 221.715 496.13 239.909 485.586 235.361Z" fill="black"/>
<path d="M511.601 276.001L503.2 432.884L492.244 433.682L463.87 342.715L468.524 234.717L469.509 211.899L482.124 223.416L488.348 229.091L493.219 215.309L502.276 224.085L511.601 276.001Z" fill="#6C63FF"/>
<path opacity="0.1" d="M475.343 433.676C474.971 434.702 474.687 435.765 474.497 436.851C466.518 435.485 458.767 432.796 451.506 428.873L451.355 428.787L451.405 427.79V427.271L454.189 421.503C454.189 421.503 476.679 430.043 475.343 433.676Z" fill="black"/>
<path opacity="0.1" d="M495.111 436.875C493.074 437.263 491.018 437.525 488.954 437.661C488.832 434.567 488.76 432.432 488.76 432.432L494.928 431.046L495.111 436.875Z" fill="black"/>
<path opacity="0.1" d="M511.367 433.162C507.409 434.307 501.291 435.594 495.824 434.79L495.746 430.872L510.676 427.537C510.676 427.537 511.072 430.606 511.367 433.162Z" fill="black"/>
<path opacity="0.1" d="M495.724 435.508C472.899 439.84 451.996 427.419 451.996 427.419L452.196 423.211C452.196 423.211 452.714 375.502 451.277 371.845C449.841 368.187 448.722 349.665 449.535 346.837C450.348 344.008 446.568 301.307 446.568 301.307L445.955 283.979L423.526 273.848L433.547 250.622C434.9 247.366 436.064 244.017 437.032 240.596C438.774 234.562 446.863 228.64 446.863 228.64C446.863 228.64 455.158 222.723 458.436 222.946C461.715 223.169 466.013 217.711 466.013 217.711C469.186 208.718 472.059 212.76 472.059 212.76C472.059 213.193 472.059 212.76 471.903 214.09C470.789 223.961 489.906 255.152 490.179 255.709L492.022 305.008L493.864 367.395L495.724 435.508Z" fill="black"/>
<path d="M495.111 435.508C472.287 439.84 451.378 427.419 451.378 427.419L451.584 423.211C451.584 423.211 452.096 375.502 450.659 371.845C449.223 368.187 448.104 349.646 448.923 346.793C449.741 343.94 445.939 301.282 445.939 301.282L445.321 283.954L422.897 273.823L432.918 250.597C434.268 247.342 435.432 243.996 436.403 240.578C438.145 234.562 446.262 228.633 446.262 228.633C446.262 228.633 454.556 222.717 457.83 222.94C461.103 223.163 465.423 217.711 465.423 217.711C468.602 208.718 472.103 212.76 472.103 212.76C472.103 213.193 471.769 213.378 471.947 214.09C474.397 223.664 489.338 255.152 489.611 255.709L491.454 305.008L493.258 367.426L495.111 435.508Z" fill="white"/>
<path opacity="0.1" d="M488.96 257.101C486.505 255.963 473.501 239.457 473.501 239.457V235.701C473.027 234.463 470.211 235.218 467.934 236.085L468.913 213.267L470.027 214.294C472.46 223.862 488.693 256.55 488.96 257.101Z" fill="black"/>
<path d="M489.578 255.74C487.117 254.595 474.113 238.096 474.113 238.096V234.333C473.64 233.096 470.828 233.851 468.546 234.717L469.509 211.924L470.623 212.945C473.078 222.501 489.305 255.183 489.578 255.74Z" fill="white"/>
<path opacity="0.1" d="M451.996 338.049C452.302 338.049 467.867 336.229 467.867 336.229C467.867 336.229 477.292 356.838 476.674 361.844C476.056 366.851 474.937 371.294 471.146 370.508C467.355 369.722 450.743 371.127 450.743 371.127L451.996 338.049Z" fill="black"/>
<path d="M451.378 336.681C451.689 336.681 467.254 334.862 467.254 334.862C467.254 334.862 476.674 355.501 476.061 360.452C475.449 365.403 474.319 369.902 470.533 369.116C466.748 368.33 450.125 369.735 450.125 369.735L451.378 336.681Z" fill="white"/>
<path d="M463.107 327.033C463.107 327.033 477.392 335.573 477.698 338.173C478.004 340.772 470.428 337.034 468.791 336.576C467.713 336.291 466.617 336.101 465.512 336.006L454.595 336.335L463.107 327.033Z" fill="#CF6F80"/>
<path opacity="0.1" d="M484.968 258.166C485.799 258.166 486.472 257.418 486.472 256.495C486.472 255.572 485.799 254.824 484.968 254.824C484.138 254.824 483.465 255.572 483.465 256.495C483.465 257.418 484.138 258.166 484.968 258.166Z" fill="black"/>
<path d="M484.968 257.485C485.799 257.485 486.472 256.737 486.472 255.814C486.472 254.891 485.799 254.143 484.968 254.143C484.138 254.143 483.465 254.891 483.465 255.814C483.465 256.737 484.138 257.485 484.968 257.485Z" fill="#3F3D56"/>
<path opacity="0.1" d="M487.735 330.499C488.565 330.499 489.238 329.751 489.238 328.828C489.238 327.905 488.565 327.157 487.735 327.157C486.905 327.157 486.232 327.905 486.232 328.828C486.232 329.751 486.905 330.499 487.735 330.499Z" fill="black"/>
<path d="M487.735 329.812C488.565 329.812 489.238 329.064 489.238 328.141C489.238 327.218 488.565 326.47 487.735 326.47C486.905 326.47 486.232 327.218 486.232 328.141C486.232 329.064 486.905 329.812 487.735 329.812Z" fill="#3F3D56"/>
<path opacity="0.1" d="M486.471 294.332C487.302 294.332 487.975 293.584 487.975 292.661C487.975 291.738 487.302 290.99 486.471 290.99C485.641 290.99 484.968 291.738 484.968 292.661C484.968 293.584 485.641 294.332 486.471 294.332Z" fill="black"/>
<path d="M486.471 293.651C487.302 293.651 487.975 292.903 487.975 291.98C487.975 291.058 487.302 290.31 486.471 290.31C485.641 290.31 484.968 291.058 484.968 291.98C484.968 292.903 485.641 293.651 486.471 293.651Z" fill="#3F3D56"/>
<path d="M521.12 335.66C521.12 335.66 522.144 337.368 521.12 338.135C520.096 338.903 521.22 340.871 521.22 340.871C521.22 340.871 518.665 342.529 519.79 344.033C520.914 345.537 520.202 352.289 520.202 352.289L517.129 357.976C517.129 357.976 517.312 361.621 517.323 366.548C517.323 374.234 516.917 385.039 514.668 389.965L514.969 430.383C514.969 430.383 504.208 434.759 495.2 433.422L493.864 368.565C493.864 368.565 495.813 331.786 496.531 324.731C496.951 321.068 497.123 317.375 497.043 313.684C497.043 313.684 496.737 302.644 495.707 297.526C495.707 297.526 494.594 275.321 494.482 269.175C494.432 266.236 494.571 257.658 494.727 249.502C494.9 240.584 495.095 232.173 495.095 232.173L493.063 214.294C493.063 214.294 495.095 214.072 495.707 214.975C495.981 215.26 496.28 215.515 496.598 215.736C500.111 218.373 512.503 226.48 512.503 226.48C512.503 226.48 519.361 229.512 521.003 233.857C522.645 238.201 523.787 241.283 524.583 242.521C525.379 243.759 525.813 249.576 525.813 249.576C525.813 249.576 528.173 260.282 530.016 262.095C531.859 263.909 533.184 275.42 533.184 275.42L516.9 289.654C516.9 289.654 515.47 313.331 515.163 314.247C514.857 315.163 521.12 335.66 521.12 335.66Z" fill="white"/>
<path d="M521.738 335.66C521.738 335.66 522.757 337.368 521.738 338.135C520.719 338.903 521.833 340.871 521.833 340.871C521.833 340.871 519.277 342.529 520.402 344.033C521.527 345.537 520.814 352.289 520.814 352.289L517.752 357.976C517.752 357.976 517.936 361.621 517.953 366.548C517.953 374.234 517.546 385.039 515.297 389.965L515.603 430.383C515.603 430.383 504.842 434.759 495.835 433.422L494.505 368.565C494.505 368.565 496.448 331.786 497.171 324.731C497.592 321.068 497.761 317.375 497.678 313.684C497.678 313.684 497.372 302.644 496.347 297.526C496.347 297.526 495.234 275.321 495.117 269.175C495.067 266.236 495.206 257.658 495.362 249.502C495.535 240.584 495.729 232.173 495.729 232.173L493.046 214.053C493.046 214.053 495.729 214.053 496.347 214.975C496.619 215.263 496.918 215.519 497.238 215.736C500.745 218.373 513.137 226.48 513.137 226.48C513.137 226.48 519.979 229.512 521.649 233.857C523.319 238.201 524.432 241.283 525.229 242.521C526.025 243.759 526.459 249.576 526.459 249.576C526.459 249.576 528.819 260.282 530.662 262.095C532.504 263.909 533.835 275.42 533.835 275.42L517.552 289.654C517.552 289.654 516.121 313.331 515.809 314.247C515.498 315.163 521.738 335.66 521.738 335.66Z" fill="white"/>
<path opacity="0.1" d="M502.237 237.428L503.712 242.193L495.969 250.857C496.141 241.939 496.336 233.529 496.336 233.529L493.653 215.415C493.653 215.415 496.336 215.415 496.954 216.337C497.226 216.625 497.524 216.88 497.845 217.098L504.425 238.195L502.237 237.428Z" fill="black"/>
<path d="M501.608 236.06L503.083 240.819L495.345 249.483C495.512 240.565 495.713 232.155 495.713 232.155L493.024 214.034C493.024 214.034 495.713 214.034 496.325 214.957C496.598 215.243 496.896 215.498 497.216 215.718L503.835 236.833L501.608 236.06Z" fill="white"/>
<path opacity="0.1" d="M501.608 188.909C501.61 191.138 501.294 193.355 500.673 195.475C500.568 195.494 500.461 195.49 500.357 195.462C500.254 195.435 500.157 195.384 500.071 195.314C499.921 189.744 497.461 184.508 494.427 180.059C493.573 178.717 492.541 177.527 491.365 176.531C490.174 175.538 488.694 175.073 487.212 175.225C485.542 175.479 484.067 176.742 482.38 176.903C480.153 177.107 478.16 175.393 475.95 175.312C475.051 175.32 474.165 175.542 473.35 175.963C472.534 176.383 471.81 176.993 471.224 177.75C470.062 179.274 469.199 181.051 468.691 182.967C467.815 185.875 467.339 188.913 467.277 191.978C467.249 193.711 467.099 195.883 465.651 196.514C465.761 195.241 465.631 193.956 465.269 192.741C464.908 191.527 464.323 190.409 463.552 189.459L463.519 189.416C463.519 189.243 463.519 189.082 463.519 188.909C463.519 183.292 465.526 177.905 469.099 173.934C472.671 169.962 477.517 167.731 482.569 167.731C487.621 167.731 492.467 169.962 496.039 173.934C499.612 177.905 501.619 183.292 501.619 188.909H501.608Z" fill="black"/>
<path d="M490.474 155.286C487.581 153.773 484.291 153.487 481.222 154.481C479.68 154.989 478.227 155.812 476.663 156.226C473.322 157.124 469.426 156.152 466.559 158.324C464.966 159.562 464.009 161.518 463.118 163.424L460.891 168.133C459.678 170.714 458.453 173.338 457.947 176.179C457.44 179.019 457.746 182.2 459.366 184.49C460.541 186.148 462.289 187.194 463.569 188.76C464.338 189.715 464.921 190.836 465.282 192.053C465.642 193.271 465.772 194.558 465.662 195.834C467.11 195.215 467.254 193.03 467.288 191.297C467.35 188.232 467.827 185.195 468.702 182.287C469.21 180.37 470.073 178.593 471.235 177.07C471.82 176.311 472.545 175.701 473.36 175.279C474.175 174.858 475.062 174.635 475.961 174.625C478.188 174.712 480.186 176.426 482.391 176.216C484.061 176.061 485.542 174.798 487.223 174.545C488.705 174.389 490.187 174.855 491.376 175.851C492.553 176.843 493.584 178.033 494.432 179.378C497.472 183.834 499.938 189.045 500.083 194.633C500.712 195.141 501.619 194.472 501.931 193.68C502.243 192.888 502.254 191.96 502.649 191.205C503.105 190.332 503.979 189.862 504.664 189.206C506.401 187.541 506.835 184.737 506.768 182.194C506.702 179.65 506.256 177.07 506.691 174.569C506.952 173.041 507.542 171.599 507.865 170.083C508.188 168.566 508.227 166.865 507.464 165.559C506.351 163.646 504.007 163.263 501.964 163.083C499.643 162.861 497.566 163.145 496.086 160.973C495.389 159.841 494.607 158.777 493.747 157.792C493.441 157.464 490.474 155.422 490.474 155.286Z" fill="#512E4E"/>
<path opacity="0.1" d="M429.951 285.792L424.139 273.842L422.296 292.284C422.296 292.284 423.32 300.477 423.114 301.734C422.908 302.99 427.312 314.253 427.312 314.253C427.312 314.253 441.858 343.062 447.798 344.541L467.839 328.599L462.517 321.086C462.517 321.086 460.674 320.287 460.212 321.086C460.212 321.086 450.325 302.186 449.307 300.824C448.288 299.463 448.483 296.721 448.483 296.721C448.483 296.721 446.946 294.902 447.458 293.193C447.971 291.485 444.519 285.569 444.519 285.569L447.692 282.271L429.951 285.792Z" fill="black"/>
<path d="M424.445 272.474L422.908 273.842L421.066 292.284C421.066 292.284 422.09 300.477 421.884 301.734C421.678 302.99 426.087 314.253 426.087 314.253C426.087 314.253 440.628 343.062 446.568 344.541L466.642 328.599L461.315 321.086C461.315 321.086 459.472 320.287 459.01 321.086C459.01 321.086 449.129 302.186 448.104 300.824C447.08 299.463 447.286 296.721 447.286 296.721C447.286 296.721 445.749 294.902 446.262 293.193C446.774 291.485 443.289 285.569 443.289 285.569L446.462 282.271L424.445 272.474Z" fill="white"/>
<path opacity="0.1" d="M519.79 344.745C520.903 346.249 520.201 353.007 520.201 353.007L517.129 358.657C517.129 358.657 517.312 362.308 517.323 367.235L512.157 369.029C511.69 369.191 511.194 369.227 510.711 369.133C510.229 369.038 509.774 368.817 509.384 368.488C508.994 368.158 508.68 367.73 508.469 367.239C508.258 366.747 508.156 366.207 508.171 365.663L509.068 333.729L521.12 338.847C520.096 339.639 521.22 341.583 521.22 341.583C521.22 341.583 518.665 343.241 519.79 344.745Z" fill="black"/>
<path d="M520.402 344.064C521.515 345.562 520.814 352.32 520.814 352.32L517.752 357.976C517.752 357.976 517.936 361.621 517.953 366.547L512.692 368.373C512.235 368.532 511.75 368.568 511.279 368.476C510.807 368.385 510.362 368.169 509.981 367.848C509.599 367.526 509.293 367.108 509.086 366.627C508.88 366.147 508.78 365.619 508.795 365.087L509.691 333.042L521.738 338.173C520.708 338.965 521.833 340.908 521.833 340.908C521.833 340.908 519.277 342.56 520.402 344.064Z" fill="white"/>
<path d="M524.399 328.828C524.399 328.828 523.581 334.639 521.532 334.979C519.483 335.32 518.565 344.38 516.522 344.064C514.479 343.749 515.831 335.635 515.904 334.063C515.976 332.491 513.677 325.981 515.392 324.502C517.106 323.023 522.562 324.502 522.562 324.502L524.399 328.828Z" fill="#CF6F80"/>
<path opacity="0.1" d="M528.73 284.084L532.588 275.42C532.588 275.42 534.13 282.023 534.13 285.55C534.13 289.078 536.279 289.425 536.279 289.425C536.279 289.425 538.634 292.519 537.392 294.778C536.151 297.037 535.655 302.631 535.655 302.631C535.655 302.631 536.062 313.331 534.219 314.81C532.376 316.289 531.965 319.823 531.965 319.823C531.965 319.823 528.585 326.538 528.691 328.135C528.797 329.731 523.982 340.543 523.982 340.543C523.982 340.543 526.336 327.107 512.614 321.302C512.614 321.302 512.508 316.747 513.532 315.497C514.557 314.247 516.154 313.641 515.152 307.353C514.15 301.065 514.863 293.484 514.863 291.968C514.863 290.452 517.936 281.002 517.936 281.002L528.73 284.084Z" fill="black"/>
<path d="M530.445 274.182L533.818 275.42C533.818 275.42 535.36 282.023 535.36 285.55C535.36 289.078 537.509 289.425 537.509 289.425C537.509 289.425 539.864 292.519 538.622 294.778C537.381 297.037 536.88 302.631 536.88 302.631C536.88 302.631 537.292 313.331 535.449 314.81C533.607 316.289 533.223 319.823 533.223 319.823C533.223 319.823 529.843 326.538 529.949 328.135C530.055 329.731 525.234 340.543 525.234 340.543C525.234 340.543 527.589 327.107 513.866 321.302C513.866 321.302 513.766 316.747 514.79 315.497C515.815 314.247 517.413 313.641 516.41 307.353C515.408 301.065 516.121 293.484 516.121 291.968C516.121 290.452 519.194 281.002 519.194 281.002L530.445 274.182Z" fill="white"/>
<path opacity="0.1" d="M455.915 498.749C455.915 498.749 461.292 494.993 464.822 497.722C468.351 500.451 455.915 498.749 455.915 498.749Z" fill="black"/>
<path opacity="0.1" d="M497.711 487.133C497.711 487.133 502.471 486.453 506.468 491.236C510.465 496.02 497.711 487.133 497.711 487.133Z" fill="black"/>
<g opacity="0.1">
<path opacity="0.1" d="M504.664 187.844C503.979 188.506 503.1 188.97 502.643 189.843C502.254 190.592 502.243 191.52 501.931 192.318C501.619 193.117 500.712 193.779 500.077 193.272C499.932 187.702 497.466 182.472 494.432 178.017C493.584 176.674 492.553 175.486 491.376 174.495C490.185 173.497 488.702 173.029 487.217 173.183C485.547 173.437 484.078 174.699 482.391 174.86C480.164 175.065 478.166 173.35 475.956 173.27C475.058 173.277 474.172 173.499 473.357 173.92C472.543 174.34 471.819 174.95 471.235 175.708C470.073 177.232 469.21 179.009 468.702 180.925C467.827 183.833 467.35 186.87 467.288 189.936C467.254 191.662 467.11 193.816 465.673 194.46C465.707 194.919 465.707 195.381 465.673 195.84C467.126 195.221 467.271 193.036 467.305 191.304C467.367 188.238 467.844 185.201 468.719 182.293C469.227 180.377 470.089 178.6 471.251 177.076C471.836 176.318 472.56 175.708 473.374 175.286C474.188 174.865 475.074 174.641 475.972 174.631C478.199 174.718 480.203 176.432 482.408 176.222C484.078 176.067 485.558 174.805 487.234 174.551C488.718 174.395 490.201 174.861 491.393 175.857C492.57 176.849 493.601 178.039 494.449 179.384C497.483 183.84 499.949 189.051 500.094 194.639C500.728 195.147 501.636 194.478 501.948 193.686C502.259 192.894 502.27 191.966 502.66 191.211C503.117 190.338 503.996 189.868 504.681 189.212C506.418 187.547 506.852 184.744 506.785 182.2C506.785 182.12 506.785 182.045 506.785 181.965C506.674 184.18 506.145 186.427 504.664 187.844Z" fill="black"/>
<path opacity="0.1" d="M463.564 187.411C462.289 185.845 460.541 184.793 459.366 183.135C458.374 181.67 457.809 179.904 457.746 178.072C457.571 180.362 458.147 182.646 459.366 184.502C460.541 186.161 462.289 187.207 463.564 188.772C464.795 190.303 465.535 192.244 465.668 194.293C465.752 193.047 465.608 191.796 465.247 190.613C464.885 189.431 464.313 188.342 463.564 187.411Z" fill="black"/>
<path opacity="0.1" d="M507.865 168.721C507.537 170.237 506.952 171.679 506.685 173.208C506.525 174.242 506.467 175.292 506.512 176.339C506.531 175.748 506.588 175.158 506.685 174.576C506.952 173.047 507.537 171.605 507.865 170.089C508.054 169.252 508.116 168.386 508.049 167.527C508.013 167.929 507.952 168.328 507.865 168.721Z" fill="black"/>
</g>
<path opacity="0.1" d="M73.8898 519.153C103.848 519.153 128.134 514.817 128.134 509.468C128.134 504.119 103.848 499.783 73.8898 499.783C43.9316 499.783 19.6457 504.119 19.6457 509.468C19.6457 514.817 43.9316 519.153 73.8898 519.153Z" fill="#6C63FF"/>
<path d="M75.6378 323.926H72.1474V411.291H75.6378V323.926Z" fill="#535461"/>
<path d="M97.5771 411.032L97.3544 414.968L97.0482 420.537L96.9202 422.852L96.6085 428.422L96.4748 430.736L96.1687 436.306L92.6448 499.474C92.4945 502.191 91.4174 504.743 89.6329 506.608C87.8485 508.474 85.4912 509.512 83.0419 509.512H64.7434C62.2872 509.513 59.9238 508.469 58.1381 506.594C56.3524 504.72 55.2798 502.156 55.1404 499.43L51.6166 436.263L51.3104 430.693L51.1823 428.378L50.865 422.809L50.737 420.494L50.4308 414.924L50.2081 410.988C50.1696 410.234 50.2696 409.479 50.5019 408.768C50.7343 408.058 51.0942 407.408 51.5598 406.858C52.0254 406.307 52.5869 405.868 53.2101 405.566C53.8333 405.264 54.5052 405.107 55.185 405.103H92.6058C93.2886 405.107 93.9633 405.267 94.5886 405.571C95.214 405.876 95.7767 406.32 96.2422 406.875C96.7077 407.43 97.0663 408.085 97.2958 408.8C97.5254 409.515 97.6211 410.274 97.5771 411.032Z" fill="#3F3D56"/>
<path d="M97.3544 414.961L97.0427 420.519H50.737L50.4252 414.961H97.3544Z" fill="#9D9CB5"/>
<path d="M96.9146 422.833L96.6085 428.391H51.1768L50.865 422.833H96.9146Z" fill="#9D9CB5"/>
<path d="M96.4749 430.711L96.1687 436.263H51.6165L51.3048 430.711H96.4749Z" fill="#9D9CB5"/>
<path d="M45.1199 356.677C65.4504 373.027 73.9177 398.599 73.9177 398.599C73.9177 398.599 49.4232 397.664 29.0872 381.314C8.75121 364.963 0.272778 339.41 0.272778 339.41C0.272778 339.41 24.7673 340.326 45.1199 356.677Z" fill="#6C63FF"/>
<path d="M0.272778 339.41C0.272778 339.41 25.6969 355.099 33.8525 368.089C42.008 381.078 73.8954 398.611 73.8954 398.611" stroke="#535461" stroke-width="2" stroke-miterlimit="10"/>
<path d="M58.2189 323.741C69.286 332.634 73.8954 346.552 73.8954 346.552C73.8954 346.552 60.5348 346.045 49.4955 337.151C38.4563 328.258 33.8191 314.334 33.8191 314.334C33.8191 314.334 47.1574 314.841 58.2189 323.741Z" fill="#6C63FF"/>
<path d="M33.8191 314.334C33.8191 314.334 47.6585 322.874 52.1009 329.942C56.5433 337.009 73.8954 346.552 73.8954 346.552" stroke="#535461" stroke-width="2" stroke-miterlimit="10"/>
<path d="M89.9727 345.847C77.2634 361.374 74.5746 381.666 74.5746 381.666C74.5746 381.666 92.4945 376.777 105.193 361.244C117.891 345.71 120.591 325.424 120.591 325.424C120.591 325.424 102.682 330.319 89.9727 345.847Z" fill="#6C63FF"/>
<path d="M120.602 325.43C120.602 325.43 104.046 341.347 99.8373 352.314C95.6287 363.28 74.5746 381.666 74.5746 381.666" stroke="#535461" stroke-width="2" stroke-miterlimit="10"/>
</g>
<defs>
<linearGradient id="paint0_linear" x1="259.157" y1="517.099" x2="259.157" y2="159.611" gradientUnits="userSpaceOnUse">
<stop stop-color="#808080" stop-opacity="0.25"/>
<stop offset="0.54" stop-color="#808080" stop-opacity="0.12"/>
<stop offset="1" stop-color="#808080" stop-opacity="0.1"/>
</linearGradient>
<linearGradient id="paint1_linear" x1="105927" y1="335023" x2="105927" y2="100707" gradientUnits="userSpaceOnUse">
<stop stop-color="#808080" stop-opacity="0.25"/>
<stop offset="0.54" stop-color="#808080" stop-opacity="0.12"/>
<stop offset="1" stop-color="#808080" stop-opacity="0.1"/>
</linearGradient>
<clipPath id="clip0">
<rect width="650" height="534" fill="white"/>
</clipPath>
</defs>
</svg>
