<svg width="541" height="67" viewBox="0 0 541 67" fill="none" xmlns="http://www.w3.org/2000/svg">
<path d="M27.652 1.135C27.7293 0.883666 27.8647 0.699999 28.058 0.583998C28.2513 0.448666 28.464 0.380999 28.696 0.380999C29.0053 0.380999 29.2663 0.477666 29.479 0.670999C29.711 0.844999 29.827 1.08667 29.827 1.396C29.827 1.53133 29.798 1.686 29.74 1.86L23.186 20.333C23.0893 20.6037 22.925 20.8163 22.693 20.971C22.461 21.1063 22.2 21.174 21.91 21.174C21.6393 21.174 21.388 21.1063 21.156 20.971C20.924 20.8163 20.7597 20.6037 20.663 20.333L14.979 4.267L9.237 20.333C9.14033 20.6037 8.976 20.8163 8.744 20.971C8.512 21.1063 8.26067 21.174 7.99 21.174C7.71933 21.174 7.468 21.1063 7.236 20.971C7.004 20.8163 6.83967 20.6037 6.743 20.333L0.16 1.86C0.102 1.70533 0.073 1.56033 0.073 1.425C0.073 1.11567 0.189 0.864332 0.421 0.670999C0.672333 0.477666 0.952667 0.380999 1.262 0.380999C1.494 0.380999 1.70667 0.448666 1.9 0.583998C2.11267 0.699999 2.25767 0.883666 2.335 1.135L8.048 17.607L13.848 1.309C13.9447 1.019 14.0993 0.806333 14.312 0.670999C14.5247 0.516332 14.7567 0.438999 15.008 0.438999C15.2593 0.438999 15.4913 0.516332 15.704 0.670999C15.9167 0.825666 16.0713 1.048 16.168 1.338L21.881 17.665L27.652 1.135ZM37.2487 6.529C40.7867 6.529 42.5557 8.385 42.5557 12.097V19.985C42.5557 20.333 42.4494 20.6133 42.2367 20.826C42.0434 21.0387 41.7727 21.145 41.4247 21.145C41.0767 21.145 40.7964 21.0387 40.5837 20.826C40.3711 20.6133 40.2647 20.333 40.2647 19.985V18.593C39.8974 19.4243 39.3367 20.072 38.5827 20.536C37.8287 20.9807 36.9587 21.203 35.9727 21.203C35.0641 21.203 34.2231 21.0193 33.4497 20.652C32.6957 20.2847 32.0964 19.7723 31.6517 19.115C31.2071 18.4577 30.9847 17.7327 30.9847 16.94C30.9847 15.8767 31.2554 15.055 31.7967 14.475C32.3381 13.8757 33.2274 13.4503 34.4647 13.199C35.7021 12.9283 37.4227 12.793 39.6267 12.793H40.2647V11.836C40.2647 10.676 40.0231 9.82533 39.5397 9.284C39.0757 8.74267 38.3121 8.472 37.2487 8.472C35.9341 8.472 34.6001 8.82967 33.2467 9.545C32.7247 9.87367 32.3574 10.038 32.1447 10.038C31.9127 10.038 31.7194 9.951 31.5647 9.777C31.4101 9.603 31.3327 9.38067 31.3327 9.11C31.3327 8.83933 31.4101 8.60733 31.5647 8.414C31.7387 8.20133 32.0094 7.98867 32.3767 7.776C33.0534 7.38933 33.8171 7.08967 34.6677 6.877C35.5377 6.645 36.3981 6.529 37.2487 6.529ZM36.2917 19.347C37.4517 19.347 38.3991 18.9603 39.1337 18.187C39.8877 17.3943 40.2647 16.3793 40.2647 15.142V14.301H39.7427C38.0414 14.301 36.7461 14.3783 35.8567 14.533C34.9674 14.6683 34.3294 14.91 33.9427 15.258C33.5754 15.5867 33.3917 16.0797 33.3917 16.737C33.3917 17.491 33.6624 18.1193 34.2037 18.622C34.7644 19.1053 35.4604 19.347 36.2917 19.347ZM53.9607 6.529C57.344 6.529 59.0357 8.39467 59.0357 12.126V19.985C59.0357 20.3523 58.9293 20.6423 58.7167 20.855C58.5233 21.0483 58.243 21.145 57.8757 21.145C57.5083 21.145 57.2183 21.0483 57.0057 20.855C56.793 20.6423 56.6867 20.3523 56.6867 19.985V12.271C56.6867 10.9563 56.4257 9.99933 55.9037 9.4C55.401 8.80067 54.589 8.501 53.4677 8.501C52.1723 8.501 51.138 8.89733 50.3647 9.69C49.5913 10.4827 49.2047 11.5557 49.2047 12.909V19.985C49.2047 20.3523 49.0983 20.6423 48.8857 20.855C48.6923 21.0483 48.412 21.145 48.0447 21.145C47.6773 21.145 47.3873 21.0483 47.1747 20.855C46.962 20.6423 46.8557 20.3523 46.8557 19.985V7.747C46.8557 7.399 46.962 7.11867 47.1747 6.906C47.3873 6.69333 47.6773 6.587 48.0447 6.587C48.3927 6.587 48.6633 6.69333 48.8567 6.906C49.0693 7.11867 49.1757 7.38933 49.1757 7.718V9.197C49.6397 8.327 50.2873 7.66967 51.1187 7.225C51.95 6.761 52.8973 6.529 53.9607 6.529ZM69.8631 19.289C70.5398 19.347 70.8781 19.6563 70.8781 20.217C70.8781 20.5457 70.7524 20.797 70.5011 20.971C70.2691 21.1257 69.9114 21.1837 69.4281 21.145L68.6451 21.087C67.0984 20.971 65.9578 20.507 65.2231 19.695C64.4884 18.883 64.1211 17.6553 64.1211 16.012V8.733H62.1781C61.8494 8.733 61.5884 8.65567 61.3951 8.501C61.2211 8.327 61.1341 8.10467 61.1341 7.834C61.1341 7.544 61.2211 7.312 61.3951 7.138C61.5884 6.964 61.8494 6.877 62.1781 6.877H64.1211V3.6C64.1211 3.23267 64.2274 2.95233 64.4401 2.759C64.6528 2.54633 64.9428 2.44 65.3101 2.44C65.6581 2.44 65.9384 2.54633 66.1511 2.759C66.3638 2.95233 66.4701 3.23267 66.4701 3.6V6.877H69.6891C69.9984 6.877 70.2401 6.964 70.4141 7.138C70.6074 7.312 70.7041 7.544 70.7041 7.834C70.7041 8.10467 70.6074 8.327 70.4141 8.501C70.2401 8.65567 69.9984 8.733 69.6891 8.733H66.4701V16.128C66.4701 17.1913 66.6828 17.9647 67.1081 18.448C67.5528 18.912 68.2101 19.173 69.0801 19.231L69.8631 19.289ZM87.1951 19.289C87.8718 19.347 88.2101 19.6563 88.2101 20.217C88.2101 20.5457 88.0845 20.797 87.8331 20.971C87.6011 21.1257 87.2435 21.1837 86.7601 21.145L85.9771 21.087C84.4305 20.971 83.2898 20.507 82.5551 19.695C81.8205 18.883 81.4531 17.6553 81.4531 16.012V8.733H79.5101C79.1815 8.733 78.9205 8.65567 78.7271 8.501C78.5531 8.327 78.4661 8.10467 78.4661 7.834C78.4661 7.544 78.5531 7.312 78.7271 7.138C78.9205 6.964 79.1815 6.877 79.5101 6.877H81.4531V3.6C81.4531 3.23267 81.5595 2.95233 81.7721 2.759C81.9848 2.54633 82.2748 2.44 82.6421 2.44C82.9901 2.44 83.2705 2.54633 83.4831 2.759C83.6958 2.95233 83.8021 3.23267 83.8021 3.6V6.877H87.0211C87.3305 6.877 87.5721 6.964 87.7461 7.138C87.9395 7.312 88.0361 7.544 88.0361 7.834C88.0361 8.10467 87.9395 8.327 87.7461 8.501C87.5721 8.65567 87.3305 8.733 87.0211 8.733H83.8021V16.128C83.8021 17.1913 84.0148 17.9647 84.4401 18.448C84.8848 18.912 85.5421 19.173 86.4121 19.231L87.1951 19.289ZM96.3836 21.203C95.0496 21.203 93.8703 20.9033 92.8456 20.304C91.8403 19.7047 91.0573 18.854 90.4966 17.752C89.9553 16.6307 89.6846 15.3353 89.6846 13.866C89.6846 12.3967 89.9553 11.111 90.4966 10.009C91.0573 8.88767 91.8403 8.02733 92.8456 7.428C93.8703 6.82867 95.0496 6.529 96.3836 6.529C97.7176 6.529 98.8969 6.82867 99.9216 7.428C100.946 8.02733 101.729 8.88767 102.271 10.009C102.831 11.111 103.112 12.3967 103.112 13.866C103.112 15.3353 102.831 16.6307 102.271 17.752C101.729 18.854 100.946 19.7047 99.9216 20.304C98.8969 20.9033 97.7176 21.203 96.3836 21.203ZM96.3836 19.26C97.7756 19.26 98.8389 18.8057 99.5736 17.897C100.328 16.969 100.705 15.6253 100.705 13.866C100.705 12.1453 100.328 10.821 99.5736 9.893C98.8196 8.94567 97.7563 8.472 96.3836 8.472C95.0109 8.472 93.9476 8.94567 93.1936 9.893C92.4396 10.821 92.0626 12.1453 92.0626 13.866C92.0626 15.606 92.4299 16.94 93.1646 17.868C93.9186 18.796 94.9916 19.26 96.3836 19.26ZM121.193 6.529C122.43 6.529 123.523 6.82867 124.47 7.428C125.417 8.02733 126.152 8.878 126.674 9.98C127.196 11.082 127.457 12.358 127.457 13.808C127.457 15.2773 127.196 16.5727 126.674 17.694C126.152 18.796 125.417 19.6563 124.47 20.275C123.523 20.8937 122.43 21.203 121.193 21.203C120.091 21.203 119.124 20.9613 118.293 20.478C117.481 19.9947 116.862 19.3083 116.437 18.419V19.985C116.437 20.333 116.331 20.6133 116.118 20.826C115.925 21.0387 115.644 21.145 115.277 21.145C114.91 21.145 114.62 21.0387 114.407 20.826C114.194 20.6133 114.088 20.333 114.088 19.985V1.541C114.088 1.21233 114.194 0.941666 114.407 0.728998C114.62 0.516332 114.91 0.409999 115.277 0.409999C115.644 0.409999 115.925 0.516332 116.118 0.728998C116.331 0.922333 116.437 1.193 116.437 1.541V9.313C116.862 8.42367 117.481 7.73733 118.293 7.254C119.124 6.77067 120.091 6.529 121.193 6.529ZM120.729 19.26C122.102 19.26 123.165 18.7863 123.919 17.839C124.673 16.8723 125.05 15.5287 125.05 13.808C125.05 12.126 124.673 10.821 123.919 9.893C123.165 8.965 122.102 8.501 120.729 8.501C119.356 8.501 118.293 8.965 117.539 9.893C116.804 10.821 116.437 12.1453 116.437 13.866C116.437 15.5867 116.804 16.9207 117.539 17.868C118.293 18.796 119.356 19.26 120.729 19.26ZM141.9 17.723C142.113 17.723 142.296 17.81 142.451 17.984C142.606 18.158 142.683 18.3803 142.683 18.651C142.683 19.1343 142.345 19.579 141.668 19.985C140.972 20.391 140.237 20.7003 139.464 20.913C138.691 21.1063 137.937 21.203 137.202 21.203C135.017 21.203 133.287 20.5553 132.011 19.26C130.754 17.9647 130.126 16.1763 130.126 13.895C130.126 12.445 130.406 11.169 130.967 10.067C131.528 8.94567 132.311 8.07567 133.316 7.457C134.341 6.83833 135.501 6.529 136.796 6.529C138.633 6.529 140.092 7.12833 141.175 8.327C142.258 9.52567 142.799 11.1497 142.799 13.199C142.799 13.5857 142.722 13.866 142.567 14.04C142.412 14.214 142.161 14.301 141.813 14.301H132.475C132.649 17.6263 134.225 19.289 137.202 19.289C137.956 19.289 138.604 19.1923 139.145 18.999C139.686 18.7863 140.266 18.506 140.885 18.158C141.388 17.868 141.726 17.723 141.9 17.723ZM136.825 8.356C135.588 8.356 134.592 8.74267 133.838 9.516C133.103 10.2893 132.668 11.3817 132.533 12.793H140.74C140.701 11.3623 140.344 10.27 139.667 9.516C138.99 8.74267 138.043 8.356 136.825 8.356ZM159.508 6.529C163.046 6.529 164.815 8.385 164.815 12.097V19.985C164.815 20.333 164.708 20.6133 164.496 20.826C164.302 21.0387 164.032 21.145 163.684 21.145C163.336 21.145 163.055 21.0387 162.843 20.826C162.63 20.6133 162.524 20.333 162.524 19.985V18.593C162.156 19.4243 161.596 20.072 160.842 20.536C160.088 20.9807 159.218 21.203 158.232 21.203C157.323 21.203 156.482 21.0193 155.709 20.652C154.955 20.2847 154.355 19.7723 153.911 19.115C153.466 18.4577 153.244 17.7327 153.244 16.94C153.244 15.8767 153.514 15.055 154.056 14.475C154.597 13.8757 155.486 13.4503 156.724 13.199C157.961 12.9283 159.682 12.793 161.886 12.793H162.524V11.836C162.524 10.676 162.282 9.82533 161.799 9.284C161.335 8.74267 160.571 8.472 159.508 8.472C158.193 8.472 156.859 8.82967 155.506 9.545C154.984 9.87367 154.616 10.038 154.404 10.038C154.172 10.038 153.978 9.951 153.824 9.777C153.669 9.603 153.592 9.38067 153.592 9.11C153.592 8.83933 153.669 8.60733 153.824 8.414C153.998 8.20133 154.268 7.98867 154.636 7.776C155.312 7.38933 156.076 7.08967 156.927 6.877C157.797 6.645 158.657 6.529 159.508 6.529ZM158.551 19.347C159.711 19.347 160.658 18.9603 161.393 18.187C162.147 17.3943 162.524 16.3793 162.524 15.142V14.301H162.002C160.3 14.301 159.005 14.3783 158.116 14.533C157.226 14.6683 156.588 14.91 156.202 15.258C155.834 15.5867 155.651 16.0797 155.651 16.737C155.651 17.491 155.921 18.1193 156.463 18.622C157.023 19.1053 157.719 19.347 158.551 19.347ZM183.696 6.529C184.933 6.529 186.026 6.83833 186.973 7.457C187.92 8.07567 188.655 8.94567 189.177 10.067C189.699 11.169 189.96 12.4547 189.96 13.924C189.96 15.3933 189.699 16.679 189.177 17.781C188.655 18.8637 187.92 19.7047 186.973 20.304C186.045 20.9033 184.953 21.203 183.696 21.203C182.594 21.203 181.627 20.9613 180.796 20.478C179.984 19.9947 179.365 19.3083 178.94 18.419V25.234C178.94 25.582 178.834 25.8527 178.621 26.046C178.428 26.2587 178.147 26.365 177.78 26.365C177.413 26.365 177.123 26.2587 176.91 26.046C176.697 25.8333 176.591 25.5627 176.591 25.234V7.747C176.591 7.399 176.697 7.11867 176.91 6.906C177.123 6.69333 177.413 6.587 177.78 6.587C178.147 6.587 178.428 6.69333 178.621 6.906C178.834 7.11867 178.94 7.399 178.94 7.747V9.313C179.365 8.42367 179.984 7.73733 180.796 7.254C181.627 6.77067 182.594 6.529 183.696 6.529ZM183.232 19.26C184.605 19.26 185.668 18.796 186.422 17.868C187.176 16.94 187.553 15.6253 187.553 13.924C187.553 12.2227 187.176 10.8983 186.422 9.951C185.668 8.98433 184.605 8.501 183.232 8.501C181.859 8.501 180.796 8.965 180.042 9.893C179.307 10.821 178.94 12.1453 178.94 13.866C178.94 15.5867 179.307 16.9207 180.042 17.868C180.796 18.796 181.859 19.26 183.232 19.26ZM199.241 6.529C202.779 6.529 204.548 8.385 204.548 12.097V19.985C204.548 20.333 204.442 20.6133 204.229 20.826C204.036 21.0387 203.765 21.145 203.417 21.145C203.069 21.145 202.789 21.0387 202.576 20.826C202.363 20.6133 202.257 20.333 202.257 19.985V18.593C201.89 19.4243 201.329 20.072 200.575 20.536C199.821 20.9807 198.951 21.203 197.965 21.203C197.056 21.203 196.215 21.0193 195.442 20.652C194.688 20.2847 194.089 19.7723 193.644 19.115C193.199 18.4577 192.977 17.7327 192.977 16.94C192.977 15.8767 193.248 15.055 193.789 14.475C194.33 13.8757 195.22 13.4503 196.457 13.199C197.694 12.9283 199.415 12.793 201.619 12.793H202.257V11.836C202.257 10.676 202.015 9.82533 201.532 9.284C201.068 8.74267 200.304 8.472 199.241 8.472C197.926 8.472 196.592 8.82967 195.239 9.545C194.717 9.87367 194.35 10.038 194.137 10.038C193.905 10.038 193.712 9.951 193.557 9.777C193.402 9.603 193.325 9.38067 193.325 9.11C193.325 8.83933 193.402 8.60733 193.557 8.414C193.731 8.20133 194.002 7.98867 194.369 7.776C195.046 7.38933 195.809 7.08967 196.66 6.877C197.53 6.645 198.39 6.529 199.241 6.529ZM198.284 19.347C199.444 19.347 200.391 18.9603 201.126 18.187C201.88 17.3943 202.257 16.3793 202.257 15.142V14.301H201.735C200.034 14.301 198.738 14.3783 197.849 14.533C196.96 14.6683 196.322 14.91 195.935 15.258C195.568 15.5867 195.384 16.0797 195.384 16.737C195.384 17.491 195.655 18.1193 196.196 18.622C196.757 19.1053 197.453 19.347 198.284 19.347ZM215.837 6.587C216.649 6.529 217.055 6.85767 217.055 7.573C217.055 7.88233 216.968 8.13367 216.794 8.327C216.62 8.501 216.32 8.60733 215.895 8.646L215.025 8.733C213.73 8.849 212.763 9.313 212.125 10.125C211.506 10.9177 211.197 11.8553 211.197 12.938V19.985C211.197 20.3717 211.091 20.6617 210.878 20.855C210.665 21.0483 210.385 21.145 210.037 21.145C209.689 21.145 209.399 21.0483 209.167 20.855C208.954 20.6423 208.848 20.3523 208.848 19.985V7.747C208.848 7.37967 208.964 7.09933 209.196 6.906C209.428 6.69333 209.708 6.587 210.037 6.587C210.346 6.587 210.607 6.69333 210.82 6.906C211.033 7.09933 211.139 7.37 211.139 7.718V9.342C211.545 8.49133 212.115 7.84367 212.85 7.399C213.604 6.95433 214.464 6.69333 215.431 6.616L215.837 6.587ZM226.729 19.289C227.406 19.347 227.744 19.6563 227.744 20.217C227.744 20.5457 227.619 20.797 227.367 20.971C227.135 21.1257 226.778 21.1837 226.294 21.145L225.511 21.087C223.965 20.971 222.824 20.507 222.089 19.695C221.355 18.883 220.987 17.6553 220.987 16.012V8.733H219.044C218.716 8.733 218.455 8.65567 218.261 8.501C218.087 8.327 218 8.10467 218 7.834C218 7.544 218.087 7.312 218.261 7.138C218.455 6.964 218.716 6.877 219.044 6.877H220.987V3.6C220.987 3.23267 221.094 2.95233 221.306 2.759C221.519 2.54633 221.809 2.44 222.176 2.44C222.524 2.44 222.805 2.54633 223.017 2.759C223.23 2.95233 223.336 3.23267 223.336 3.6V6.877H226.555C226.865 6.877 227.106 6.964 227.28 7.138C227.474 7.312 227.57 7.544 227.57 7.834C227.57 8.10467 227.474 8.327 227.28 8.501C227.106 8.65567 226.865 8.733 226.555 8.733H223.336V16.128C223.336 17.1913 223.549 17.9647 223.974 18.448C224.419 18.912 225.076 19.173 225.946 19.231L226.729 19.289ZM243.394 21.203C242.06 21.203 240.881 20.9033 239.856 20.304C238.851 19.7047 238.068 18.854 237.507 17.752C236.966 16.6307 236.695 15.3353 236.695 13.866C236.695 12.3967 236.966 11.111 237.507 10.009C238.068 8.88767 238.851 8.02733 239.856 7.428C240.881 6.82867 242.06 6.529 243.394 6.529C244.728 6.529 245.908 6.82867 246.932 7.428C247.957 8.02733 248.74 8.88767 249.281 10.009C249.842 11.111 250.122 12.3967 250.122 13.866C250.122 15.3353 249.842 16.6307 249.281 17.752C248.74 18.854 247.957 19.7047 246.932 20.304C245.908 20.9033 244.728 21.203 243.394 21.203ZM243.394 19.26C244.786 19.26 245.85 18.8057 246.584 17.897C247.338 16.969 247.715 15.6253 247.715 13.866C247.715 12.1453 247.338 10.821 246.584 9.893C245.83 8.94567 244.767 8.472 243.394 8.472C242.022 8.472 240.958 8.94567 240.204 9.893C239.45 10.821 239.073 12.1453 239.073 13.866C239.073 15.606 239.441 16.94 240.175 17.868C240.929 18.796 242.002 19.26 243.394 19.26ZM259.829 2.411C258.804 2.48833 258.031 2.817 257.509 3.397C256.987 3.95767 256.726 4.80833 256.726 5.949V6.877H259.945C260.274 6.877 260.525 6.964 260.699 7.138C260.873 7.312 260.96 7.544 260.96 7.834C260.96 8.124 260.873 8.34633 260.699 8.501C260.525 8.65567 260.274 8.733 259.945 8.733H256.726V19.985C256.726 20.3523 256.61 20.6423 256.378 20.855C256.165 21.0483 255.895 21.145 255.566 21.145C255.218 21.145 254.928 21.0483 254.696 20.855C254.483 20.6423 254.377 20.3523 254.377 19.985V8.733H252.434C252.105 8.733 251.844 8.65567 251.651 8.501C251.477 8.327 251.39 8.10467 251.39 7.834C251.39 7.544 251.477 7.312 251.651 7.138C251.844 6.964 252.105 6.877 252.434 6.877H254.377V6.355C254.377 4.615 254.812 3.252 255.682 2.266C256.552 1.26067 257.799 0.699999 259.423 0.583998L260.177 0.525999C260.68 0.487333 261.037 0.535666 261.25 0.670999C261.482 0.806333 261.598 1.048 261.598 1.396C261.598 1.95667 261.26 2.27567 260.583 2.353L259.829 2.411ZM277.111 19.289C277.788 19.347 278.126 19.6563 278.126 20.217C278.126 20.5457 278 20.797 277.749 20.971C277.517 21.1257 277.159 21.1837 276.676 21.145L275.893 21.087C274.346 20.971 273.206 20.507 272.471 19.695C271.736 18.883 271.369 17.6553 271.369 16.012V8.733H269.426C269.097 8.733 268.836 8.65567 268.643 8.501C268.469 8.327 268.382 8.10467 268.382 7.834C268.382 7.544 268.469 7.312 268.643 7.138C268.836 6.964 269.097 6.877 269.426 6.877H271.369V3.6C271.369 3.23267 271.475 2.95233 271.688 2.759C271.901 2.54633 272.191 2.44 272.558 2.44C272.906 2.44 273.186 2.54633 273.399 2.759C273.612 2.95233 273.718 3.23267 273.718 3.6V6.877H276.937C277.246 6.877 277.488 6.964 277.662 7.138C277.855 7.312 277.952 7.544 277.952 7.834C277.952 8.10467 277.855 8.327 277.662 8.501C277.488 8.65567 277.246 8.733 276.937 8.733H273.718V16.128C273.718 17.1913 273.931 17.9647 274.356 18.448C274.801 18.912 275.458 19.173 276.328 19.231L277.111 19.289ZM287.576 6.529C289.238 6.529 290.495 7.00267 291.346 7.95C292.196 8.878 292.622 10.27 292.622 12.126V19.985C292.622 20.3523 292.515 20.6423 292.303 20.855C292.09 21.0483 291.81 21.145 291.462 21.145C291.094 21.145 290.804 21.0483 290.592 20.855C290.379 20.6423 290.273 20.3523 290.273 19.985V12.184C290.273 10.9273 290.012 9.99933 289.49 9.4C288.987 8.80067 288.175 8.501 287.054 8.501C285.758 8.501 284.724 8.89733 283.951 9.69C283.177 10.4827 282.791 11.5557 282.791 12.909V19.985C282.791 20.3523 282.684 20.6423 282.472 20.855C282.278 21.0483 281.998 21.145 281.631 21.145C281.263 21.145 280.973 21.0483 280.761 20.855C280.548 20.6423 280.442 20.3523 280.442 19.985V1.541C280.442 1.21233 280.548 0.941666 280.761 0.728998C280.993 0.516332 281.283 0.409999 281.631 0.409999C281.998 0.409999 282.278 0.516332 282.472 0.728998C282.684 0.922333 282.791 1.193 282.791 1.541V9.139C283.255 8.28833 283.902 7.64067 284.734 7.196C285.565 6.75133 286.512 6.529 287.576 6.529ZM298.113 21.145C297.765 21.145 297.475 21.0483 297.243 20.855C297.03 20.6423 296.924 20.3523 296.924 19.985V7.747C296.924 7.37967 297.03 7.09933 297.243 6.906C297.475 6.69333 297.765 6.587 298.113 6.587C298.461 6.587 298.741 6.69333 298.954 6.906C299.167 7.09933 299.273 7.37967 299.273 7.747V19.985C299.273 20.3717 299.167 20.6617 298.954 20.855C298.741 21.0483 298.461 21.145 298.113 21.145ZM298.113 3.542C297.649 3.542 297.272 3.40667 296.982 3.136C296.692 2.86533 296.547 2.50767 296.547 2.063C296.547 1.63767 296.692 1.28967 296.982 1.019C297.272 0.748333 297.649 0.613 298.113 0.613C298.577 0.613 298.954 0.748333 299.244 1.019C299.534 1.28967 299.679 1.63767 299.679 2.063C299.679 2.50767 299.534 2.86533 299.244 3.136C298.954 3.40667 298.577 3.542 298.113 3.542ZM308.42 21.203C307.531 21.203 306.68 21.0967 305.868 20.884C305.076 20.6713 304.37 20.3717 303.751 19.985C303.403 19.753 303.152 19.5403 302.997 19.347C302.862 19.1343 302.794 18.883 302.794 18.593C302.794 18.3417 302.862 18.1387 302.997 17.984C303.152 17.81 303.345 17.723 303.577 17.723C303.809 17.723 304.148 17.868 304.592 18.158C305.172 18.506 305.743 18.7863 306.303 18.999C306.883 19.1923 307.599 19.289 308.449 19.289C309.493 19.289 310.305 19.1053 310.885 18.738C311.465 18.3707 311.755 17.839 311.755 17.143C311.755 16.7177 311.649 16.3793 311.436 16.128C311.224 15.8573 310.856 15.6253 310.334 15.432C309.812 15.2193 309.049 15.0067 308.043 14.794C306.342 14.4267 305.124 13.9337 304.389 13.315C303.655 12.6963 303.287 11.8553 303.287 10.792C303.287 9.96067 303.519 9.226 303.983 8.588C304.447 7.95 305.085 7.44733 305.897 7.08C306.729 6.71267 307.666 6.529 308.71 6.529C309.464 6.529 310.189 6.63533 310.885 6.848C311.601 7.04133 312.229 7.32167 312.77 7.689C313.428 8.153 313.756 8.63633 313.756 9.139C313.756 9.39033 313.679 9.603 313.524 9.777C313.37 9.951 313.186 10.038 312.973 10.038C312.741 10.038 312.393 9.87367 311.929 9.545C311.388 9.197 310.876 8.92633 310.392 8.733C309.909 8.53967 309.31 8.443 308.594 8.443C307.686 8.443 306.951 8.646 306.39 9.052C305.849 9.458 305.578 9.99933 305.578 10.676C305.578 11.1013 305.675 11.4493 305.868 11.72C306.081 11.9713 306.419 12.2033 306.883 12.416C307.367 12.6093 308.053 12.8027 308.942 12.996C310.257 13.286 311.272 13.605 311.987 13.953C312.722 14.301 313.244 14.7263 313.553 15.229C313.863 15.7317 314.017 16.3697 314.017 17.143C314.017 18.361 313.505 19.347 312.48 20.101C311.456 20.8357 310.102 21.203 308.42 21.203ZM336.529 6.587C336.897 6.587 337.187 6.69333 337.399 6.906C337.612 7.11867 337.718 7.399 337.718 7.747V20.043C337.718 22.1503 337.177 23.7357 336.094 24.799C335.012 25.8817 333.407 26.423 331.28 26.423C329.212 26.423 327.491 26.017 326.118 25.205C325.422 24.8183 325.074 24.3737 325.074 23.871C325.074 23.6003 325.142 23.378 325.277 23.204C325.432 23.03 325.625 22.943 325.857 22.943C326.051 22.943 326.399 23.0783 326.901 23.349C327.578 23.697 328.245 23.9773 328.902 24.19C329.56 24.4027 330.343 24.509 331.251 24.509C332.624 24.509 333.658 24.1417 334.354 23.407C335.05 22.6917 335.398 21.638 335.398 20.246V17.752C334.992 18.6607 334.364 19.3567 333.513 19.84C332.682 20.3233 331.696 20.565 330.555 20.565C329.318 20.565 328.216 20.275 327.249 19.695C326.302 19.115 325.558 18.2933 325.016 17.23C324.494 16.1667 324.233 14.939 324.233 13.547C324.233 12.155 324.494 10.9273 325.016 9.864C325.558 8.80067 326.302 7.979 327.249 7.399C328.216 6.819 329.318 6.529 330.555 6.529C331.677 6.529 332.653 6.77067 333.484 7.254C334.316 7.73733 334.944 8.42367 335.369 9.313V7.747C335.369 7.399 335.466 7.11867 335.659 6.906C335.872 6.69333 336.162 6.587 336.529 6.587ZM331.019 18.622C332.373 18.622 333.436 18.1773 334.209 17.288C334.983 16.3793 335.369 15.1323 335.369 13.547C335.369 11.981 334.983 10.7533 334.209 9.864C333.455 8.95533 332.392 8.501 331.019 8.501C329.647 8.501 328.564 8.95533 327.771 9.864C326.998 10.7533 326.611 11.981 326.611 13.547C326.611 15.1323 326.998 16.3793 327.771 17.288C328.564 18.1773 329.647 18.622 331.019 18.622ZM349.056 6.587C349.868 6.529 350.274 6.85767 350.274 7.573C350.274 7.88233 350.187 8.13367 350.013 8.327C349.839 8.501 349.539 8.60733 349.114 8.646L348.244 8.733C346.948 8.849 345.982 9.313 345.344 10.125C344.725 10.9177 344.416 11.8553 344.416 12.938V19.985C344.416 20.3717 344.309 20.6617 344.097 20.855C343.884 21.0483 343.604 21.145 343.256 21.145C342.908 21.145 342.618 21.0483 342.386 20.855C342.173 20.6423 342.067 20.3523 342.067 19.985V7.747C342.067 7.37967 342.183 7.09933 342.415 6.906C342.647 6.69333 342.927 6.587 343.256 6.587C343.565 6.587 343.826 6.69333 344.039 6.906C344.251 7.09933 344.358 7.37 344.358 7.718V9.342C344.764 8.49133 345.334 7.84367 346.069 7.399C346.823 6.95433 347.683 6.69333 348.65 6.616L349.056 6.587ZM362.94 17.723C363.153 17.723 363.336 17.81 363.491 17.984C363.646 18.158 363.723 18.3803 363.723 18.651C363.723 19.1343 363.385 19.579 362.708 19.985C362.012 20.391 361.277 20.7003 360.504 20.913C359.731 21.1063 358.977 21.203 358.242 21.203C356.057 21.203 354.327 20.5553 353.051 19.26C351.794 17.9647 351.166 16.1763 351.166 13.895C351.166 12.445 351.446 11.169 352.007 10.067C352.568 8.94567 353.351 8.07567 354.356 7.457C355.381 6.83833 356.541 6.529 357.836 6.529C359.673 6.529 361.132 7.12833 362.215 8.327C363.298 9.52567 363.839 11.1497 363.839 13.199C363.839 13.5857 363.762 13.866 363.607 14.04C363.452 14.214 363.201 14.301 362.853 14.301H353.515C353.689 17.6263 355.265 19.289 358.242 19.289C358.996 19.289 359.644 19.1923 360.185 18.999C360.726 18.7863 361.306 18.506 361.925 18.158C362.428 17.868 362.766 17.723 362.94 17.723ZM357.865 8.356C356.628 8.356 355.632 8.74267 354.878 9.516C354.143 10.2893 353.708 11.3817 353.573 12.793H361.78C361.741 11.3623 361.384 10.27 360.707 9.516C360.03 8.74267 359.083 8.356 357.865 8.356ZM373.071 6.529C376.609 6.529 378.378 8.385 378.378 12.097V19.985C378.378 20.333 378.272 20.6133 378.059 20.826C377.866 21.0387 377.595 21.145 377.247 21.145C376.899 21.145 376.619 21.0387 376.406 20.826C376.193 20.6133 376.087 20.333 376.087 19.985V18.593C375.72 19.4243 375.159 20.072 374.405 20.536C373.651 20.9807 372.781 21.203 371.795 21.203C370.886 21.203 370.045 21.0193 369.272 20.652C368.518 20.2847 367.919 19.7723 367.474 19.115C367.029 18.4577 366.807 17.7327 366.807 16.94C366.807 15.8767 367.078 15.055 367.619 14.475C368.16 13.8757 369.05 13.4503 370.287 13.199C371.524 12.9283 373.245 12.793 375.449 12.793H376.087V11.836C376.087 10.676 375.845 9.82533 375.362 9.284C374.898 8.74267 374.134 8.472 373.071 8.472C371.756 8.472 370.422 8.82967 369.069 9.545C368.547 9.87367 368.18 10.038 367.967 10.038C367.735 10.038 367.542 9.951 367.387 9.777C367.232 9.603 367.155 9.38067 367.155 9.11C367.155 8.83933 367.232 8.60733 367.387 8.414C367.561 8.20133 367.832 7.98867 368.199 7.776C368.876 7.38933 369.639 7.08967 370.49 6.877C371.36 6.645 372.22 6.529 373.071 6.529ZM372.114 19.347C373.274 19.347 374.221 18.9603 374.956 18.187C375.71 17.3943 376.087 16.3793 376.087 15.142V14.301H375.565C373.864 14.301 372.568 14.3783 371.679 14.533C370.79 14.6683 370.152 14.91 369.765 15.258C369.398 15.5867 369.214 16.0797 369.214 16.737C369.214 17.491 369.485 18.1193 370.026 18.622C370.587 19.1053 371.283 19.347 372.114 19.347ZM389.203 19.289C389.88 19.347 390.218 19.6563 390.218 20.217C390.218 20.5457 390.092 20.797 389.841 20.971C389.609 21.1257 389.251 21.1837 388.768 21.145L387.985 21.087C386.438 20.971 385.298 20.507 384.563 19.695C383.828 18.883 383.461 17.6553 383.461 16.012V8.733H381.518C381.189 8.733 380.928 8.65567 380.735 8.501C380.561 8.327 380.474 8.10467 380.474 7.834C380.474 7.544 380.561 7.312 380.735 7.138C380.928 6.964 381.189 6.877 381.518 6.877H383.461V3.6C383.461 3.23267 383.567 2.95233 383.78 2.759C383.993 2.54633 384.283 2.44 384.65 2.44C384.998 2.44 385.278 2.54633 385.491 2.759C385.704 2.95233 385.81 3.23267 385.81 3.6V6.877H389.029C389.338 6.877 389.58 6.964 389.754 7.138C389.947 7.312 390.044 7.544 390.044 7.834C390.044 8.10467 389.947 8.327 389.754 8.501C389.58 8.65567 389.338 8.733 389.029 8.733H385.81V16.128C385.81 17.1913 386.023 17.9647 386.448 18.448C386.893 18.912 387.55 19.173 388.42 19.231L389.203 19.289ZM401.199 21.145C400.851 21.145 400.561 21.0483 400.329 20.855C400.116 20.6423 400.01 20.3523 400.01 19.985V7.747C400.01 7.37967 400.116 7.09933 400.329 6.906C400.561 6.69333 400.851 6.587 401.199 6.587C401.547 6.587 401.827 6.69333 402.04 6.906C402.253 7.09933 402.359 7.37967 402.359 7.747V19.985C402.359 20.3717 402.253 20.6617 402.04 20.855C401.827 21.0483 401.547 21.145 401.199 21.145ZM401.199 3.542C400.735 3.542 400.358 3.40667 400.068 3.136C399.778 2.86533 399.633 2.50767 399.633 2.063C399.633 1.63767 399.778 1.28967 400.068 1.019C400.358 0.748333 400.735 0.613 401.199 0.613C401.663 0.613 402.04 0.748333 402.33 1.019C402.62 1.28967 402.765 1.63767 402.765 2.063C402.765 2.50767 402.62 2.86533 402.33 3.136C402.04 3.40667 401.663 3.542 401.199 3.542ZM413.855 6.529C417.239 6.529 418.93 8.39467 418.93 12.126V19.985C418.93 20.3523 418.824 20.6423 418.611 20.855C418.418 21.0483 418.138 21.145 417.77 21.145C417.403 21.145 417.113 21.0483 416.9 20.855C416.688 20.6423 416.581 20.3523 416.581 19.985V12.271C416.581 10.9563 416.32 9.99933 415.798 9.4C415.296 8.80067 414.484 8.501 413.362 8.501C412.067 8.501 411.033 8.89733 410.259 9.69C409.486 10.4827 409.099 11.5557 409.099 12.909V19.985C409.099 20.3523 408.993 20.6423 408.78 20.855C408.587 21.0483 408.307 21.145 407.939 21.145C407.572 21.145 407.282 21.0483 407.069 20.855C406.857 20.6423 406.75 20.3523 406.75 19.985V7.747C406.75 7.399 406.857 7.11867 407.069 6.906C407.282 6.69333 407.572 6.587 407.939 6.587C408.287 6.587 408.558 6.69333 408.751 6.906C408.964 7.11867 409.07 7.38933 409.07 7.718V9.197C409.534 8.327 410.182 7.66967 411.013 7.225C411.845 6.761 412.792 6.529 413.855 6.529ZM424.422 21.145C424.074 21.145 423.784 21.0483 423.552 20.855C423.339 20.6423 423.233 20.3523 423.233 19.985V7.747C423.233 7.37967 423.339 7.09933 423.552 6.906C423.784 6.69333 424.074 6.587 424.422 6.587C424.77 6.587 425.05 6.69333 425.263 6.906C425.475 7.09933 425.582 7.37967 425.582 7.747V19.985C425.582 20.3717 425.475 20.6617 425.263 20.855C425.05 21.0483 424.77 21.145 424.422 21.145ZM424.422 3.542C423.958 3.542 423.581 3.40667 423.291 3.136C423.001 2.86533 422.856 2.50767 422.856 2.063C422.856 1.63767 423.001 1.28967 423.291 1.019C423.581 0.748333 423.958 0.613 424.422 0.613C424.886 0.613 425.263 0.748333 425.553 1.019C425.843 1.28967 425.988 1.63767 425.988 2.063C425.988 2.50767 425.843 2.86533 425.553 3.136C425.263 3.40667 424.886 3.542 424.422 3.542ZM436.724 19.289C437.401 19.347 437.739 19.6563 437.739 20.217C437.739 20.5457 437.614 20.797 437.362 20.971C437.13 21.1257 436.773 21.1837 436.289 21.145L435.506 21.087C433.96 20.971 432.819 20.507 432.084 19.695C431.35 18.883 430.982 17.6553 430.982 16.012V8.733H429.039C428.711 8.733 428.45 8.65567 428.256 8.501C428.082 8.327 427.995 8.10467 427.995 7.834C427.995 7.544 428.082 7.312 428.256 7.138C428.45 6.964 428.711 6.877 429.039 6.877H430.982V3.6C430.982 3.23267 431.089 2.95233 431.301 2.759C431.514 2.54633 431.804 2.44 432.171 2.44C432.519 2.44 432.8 2.54633 433.012 2.759C433.225 2.95233 433.331 3.23267 433.331 3.6V6.877H436.55C436.86 6.877 437.101 6.964 437.275 7.138C437.469 7.312 437.565 7.544 437.565 7.834C437.565 8.10467 437.469 8.327 437.275 8.501C437.101 8.65567 436.86 8.733 436.55 8.733H433.331V16.128C433.331 17.1913 433.544 17.9647 433.969 18.448C434.414 18.912 435.071 19.173 435.941 19.231L436.724 19.289ZM441.244 21.145C440.896 21.145 440.606 21.0483 440.374 20.855C440.161 20.6423 440.055 20.3523 440.055 19.985V7.747C440.055 7.37967 440.161 7.09933 440.374 6.906C440.606 6.69333 440.896 6.587 441.244 6.587C441.592 6.587 441.872 6.69333 442.085 6.906C442.298 7.09933 442.404 7.37967 442.404 7.747V19.985C442.404 20.3717 442.298 20.6617 442.085 20.855C441.872 21.0483 441.592 21.145 441.244 21.145ZM441.244 3.542C440.78 3.542 440.403 3.40667 440.113 3.136C439.823 2.86533 439.678 2.50767 439.678 2.063C439.678 1.63767 439.823 1.28967 440.113 1.019C440.403 0.748333 440.78 0.613 441.244 0.613C441.708 0.613 442.085 0.748333 442.375 1.019C442.665 1.28967 442.81 1.63767 442.81 2.063C442.81 2.50767 442.665 2.86533 442.375 3.136C442.085 3.40667 441.708 3.542 441.244 3.542ZM452.566 6.529C456.104 6.529 457.873 8.385 457.873 12.097V19.985C457.873 20.333 457.767 20.6133 457.554 20.826C457.361 21.0387 457.09 21.145 456.742 21.145C456.394 21.145 456.114 21.0387 455.901 20.826C455.688 20.6133 455.582 20.333 455.582 19.985V18.593C455.215 19.4243 454.654 20.072 453.9 20.536C453.146 20.9807 452.276 21.203 451.29 21.203C450.381 21.203 449.54 21.0193 448.767 20.652C448.013 20.2847 447.414 19.7723 446.969 19.115C446.524 18.4577 446.302 17.7327 446.302 16.94C446.302 15.8767 446.573 15.055 447.114 14.475C447.655 13.8757 448.545 13.4503 449.782 13.199C451.019 12.9283 452.74 12.793 454.944 12.793H455.582V11.836C455.582 10.676 455.34 9.82533 454.857 9.284C454.393 8.74267 453.629 8.472 452.566 8.472C451.251 8.472 449.917 8.82967 448.564 9.545C448.042 9.87367 447.675 10.038 447.462 10.038C447.23 10.038 447.037 9.951 446.882 9.777C446.727 9.603 446.65 9.38067 446.65 9.11C446.65 8.83933 446.727 8.60733 446.882 8.414C447.056 8.20133 447.327 7.98867 447.694 7.776C448.371 7.38933 449.134 7.08967 449.985 6.877C450.855 6.645 451.715 6.529 452.566 6.529ZM451.609 19.347C452.769 19.347 453.716 18.9603 454.451 18.187C455.205 17.3943 455.582 16.3793 455.582 15.142V14.301H455.06C453.359 14.301 452.063 14.3783 451.174 14.533C450.285 14.6683 449.647 14.91 449.26 15.258C448.893 15.5867 448.709 16.0797 448.709 16.737C448.709 17.491 448.98 18.1193 449.521 18.622C450.082 19.1053 450.778 19.347 451.609 19.347ZM468.698 19.289C469.375 19.347 469.713 19.6563 469.713 20.217C469.713 20.5457 469.587 20.797 469.336 20.971C469.104 21.1257 468.746 21.1837 468.263 21.145L467.48 21.087C465.933 20.971 464.793 20.507 464.058 19.695C463.323 18.883 462.956 17.6553 462.956 16.012V8.733H461.013C460.684 8.733 460.423 8.65567 460.23 8.501C460.056 8.327 459.969 8.10467 459.969 7.834C459.969 7.544 460.056 7.312 460.23 7.138C460.423 6.964 460.684 6.877 461.013 6.877H462.956V3.6C462.956 3.23267 463.062 2.95233 463.275 2.759C463.488 2.54633 463.778 2.44 464.145 2.44C464.493 2.44 464.773 2.54633 464.986 2.759C465.199 2.95233 465.305 3.23267 465.305 3.6V6.877H468.524C468.833 6.877 469.075 6.964 469.249 7.138C469.442 7.312 469.539 7.544 469.539 7.834C469.539 8.10467 469.442 8.327 469.249 8.501C469.075 8.65567 468.833 8.733 468.524 8.733H465.305V16.128C465.305 17.1913 465.518 17.9647 465.943 18.448C466.388 18.912 467.045 19.173 467.915 19.231L468.698 19.289ZM473.218 21.145C472.87 21.145 472.58 21.0483 472.348 20.855C472.135 20.6423 472.029 20.3523 472.029 19.985V7.747C472.029 7.37967 472.135 7.09933 472.348 6.906C472.58 6.69333 472.87 6.587 473.218 6.587C473.566 6.587 473.846 6.69333 474.059 6.906C474.271 7.09933 474.378 7.37967 474.378 7.747V19.985C474.378 20.3717 474.271 20.6617 474.059 20.855C473.846 21.0483 473.566 21.145 473.218 21.145ZM473.218 3.542C472.754 3.542 472.377 3.40667 472.087 3.136C471.797 2.86533 471.652 2.50767 471.652 2.063C471.652 1.63767 471.797 1.28967 472.087 1.019C472.377 0.748333 472.754 0.613 473.218 0.613C473.682 0.613 474.059 0.748333 474.349 1.019C474.639 1.28967 474.784 1.63767 474.784 2.063C474.784 2.50767 474.639 2.86533 474.349 3.136C474.059 3.40667 473.682 3.542 473.218 3.542ZM488.948 7.312C489.16 6.848 489.499 6.616 489.963 6.616C490.253 6.616 490.514 6.71267 490.746 6.906C490.978 7.09933 491.094 7.341 491.094 7.631C491.094 7.805 491.055 7.95967 490.978 8.095L485.323 20.275C485.207 20.5263 485.033 20.7293 484.801 20.884C484.569 21.0193 484.317 21.087 484.047 21.087C483.795 21.087 483.554 21.0193 483.322 20.884C483.09 20.7293 482.906 20.5263 482.771 20.275L477.145 8.095C477.067 7.95967 477.029 7.81467 477.029 7.66C477.029 7.37 477.154 7.11867 477.406 6.906C477.676 6.69333 477.966 6.587 478.276 6.587C478.469 6.587 478.653 6.645 478.827 6.761C479.02 6.877 479.165 7.04133 479.262 7.254L484.105 18.129L488.948 7.312ZM504.428 17.723C504.641 17.723 504.825 17.81 504.979 17.984C505.134 18.158 505.211 18.3803 505.211 18.651C505.211 19.1343 504.873 19.579 504.196 19.985C503.5 20.391 502.766 20.7003 501.992 20.913C501.219 21.1063 500.465 21.203 499.73 21.203C497.546 21.203 495.815 20.5553 494.539 19.26C493.283 17.9647 492.654 16.1763 492.654 13.895C492.654 12.445 492.935 11.169 493.495 10.067C494.056 8.94567 494.839 8.07567 495.844 7.457C496.869 6.83833 498.029 6.529 499.324 6.529C501.161 6.529 502.621 7.12833 503.703 8.327C504.786 9.52567 505.327 11.1497 505.327 13.199C505.327 13.5857 505.25 13.866 505.095 14.04C504.941 14.214 504.689 14.301 504.341 14.301H495.003C495.177 17.6263 496.753 19.289 499.73 19.289C500.484 19.289 501.132 19.1923 501.673 18.999C502.215 18.7863 502.795 18.506 503.413 18.158C503.916 17.868 504.254 17.723 504.428 17.723ZM499.353 8.356C498.116 8.356 497.12 8.74267 496.366 9.516C495.632 10.2893 495.197 11.3817 495.061 12.793H503.268C503.23 11.3623 502.872 10.27 502.195 9.516C501.519 8.74267 500.571 8.356 499.353 8.356ZM522.123 21.203C520.789 21.203 519.61 20.9033 518.585 20.304C517.58 19.7047 516.797 18.854 516.236 17.752C515.695 16.6307 515.424 15.3353 515.424 13.866C515.424 12.3967 515.695 11.111 516.236 10.009C516.797 8.88767 517.58 8.02733 518.585 7.428C519.61 6.82867 520.789 6.529 522.123 6.529C523.457 6.529 524.636 6.82867 525.661 7.428C526.686 8.02733 527.469 8.88767 528.01 10.009C528.571 11.111 528.851 12.3967 528.851 13.866C528.851 15.3353 528.571 16.6307 528.01 17.752C527.469 18.854 526.686 19.7047 525.661 20.304C524.636 20.9033 523.457 21.203 522.123 21.203ZM522.123 19.26C523.515 19.26 524.578 18.8057 525.313 17.897C526.067 16.969 526.444 15.6253 526.444 13.866C526.444 12.1453 526.067 10.821 525.313 9.893C524.559 8.94567 523.496 8.472 522.123 8.472C520.75 8.472 519.687 8.94567 518.933 9.893C518.179 10.821 517.802 12.1453 517.802 13.866C517.802 15.606 518.169 16.94 518.904 17.868C519.658 18.796 520.731 19.26 522.123 19.26ZM538.557 2.411C537.533 2.48833 536.759 2.817 536.237 3.397C535.715 3.95767 535.454 4.80833 535.454 5.949V6.877H538.673C539.002 6.877 539.253 6.964 539.427 7.138C539.601 7.312 539.688 7.544 539.688 7.834C539.688 8.124 539.601 8.34633 539.427 8.501C539.253 8.65567 539.002 8.733 538.673 8.733H535.454V19.985C535.454 20.3523 535.338 20.6423 535.106 20.855C534.894 21.0483 534.623 21.145 534.294 21.145C533.946 21.145 533.656 21.0483 533.424 20.855C533.212 20.6423 533.105 20.3523 533.105 19.985V8.733H531.162C530.834 8.733 530.573 8.65567 530.379 8.501C530.205 8.327 530.118 8.10467 530.118 7.834C530.118 7.544 530.205 7.312 530.379 7.138C530.573 6.964 530.834 6.877 531.162 6.877H533.105V6.355C533.105 4.615 533.54 3.252 534.41 2.266C535.28 1.26067 536.527 0.699999 538.151 0.583998L538.905 0.525999C539.408 0.487333 539.766 0.535666 539.978 0.670999C540.21 0.806333 540.326 1.048 540.326 1.396C540.326 1.95667 539.988 2.27567 539.311 2.353L538.557 2.411ZM7.033 61.203C5.699 61.203 4.51967 60.9033 3.495 60.304C2.48967 59.7047 1.70667 58.854 1.146 57.752C0.604667 56.6307 0.334 55.3353 0.334 53.866C0.334 52.3967 0.604667 51.111 1.146 50.009C1.70667 48.8877 2.48967 48.0273 3.495 47.428C4.51967 46.8287 5.699 46.529 7.033 46.529C8.367 46.529 9.54633 46.8287 10.571 47.428C11.5957 48.0273 12.3787 48.8877 12.92 50.009C13.4807 51.111 13.761 52.3967 13.761 53.866C13.761 55.3353 13.4807 56.6307 12.92 57.752C12.3787 58.854 11.5957 59.7047 10.571 60.304C9.54633 60.9033 8.367 61.203 7.033 61.203ZM7.033 59.26C8.425 59.26 9.48833 58.8057 10.223 57.897C10.977 56.969 11.354 55.6253 11.354 53.866C11.354 52.1453 10.977 50.821 10.223 49.893C9.469 48.9457 8.40567 48.472 7.033 48.472C5.66033 48.472 4.597 48.9457 3.843 49.893C3.089 50.821 2.712 52.1453 2.712 53.866C2.712 55.606 3.07933 56.94 3.814 57.868C4.568 58.796 5.641 59.26 7.033 59.26ZM27.9909 46.587C28.3583 46.587 28.6386 46.6933 28.8319 46.906C29.0446 47.1187 29.1509 47.399 29.1509 47.747V60.014C29.1509 60.3427 29.0446 60.6133 28.8319 60.826C28.6386 61.0387 28.3583 61.145 27.9909 61.145C27.6429 61.145 27.3626 61.0483 27.1499 60.855C26.9566 60.6423 26.8599 60.3717 26.8599 60.043V58.593C26.4153 59.4437 25.7869 60.0913 24.9749 60.536C24.1823 60.9807 23.2833 61.203 22.2779 61.203C20.5959 61.203 19.3296 60.739 18.4789 59.811C17.6283 58.8637 17.2029 57.4717 17.2029 55.635V47.747C17.2029 47.399 17.3093 47.1187 17.5219 46.906C17.7346 46.6933 18.0246 46.587 18.3919 46.587C18.7593 46.587 19.0396 46.6933 19.2329 46.906C19.4456 47.1187 19.5519 47.399 19.5519 47.747V55.577C19.5519 56.8337 19.8033 57.7617 20.3059 58.361C20.8086 58.941 21.6013 59.231 22.6839 59.231C23.9213 59.231 24.9169 58.8347 25.6709 58.042C26.4249 57.23 26.8019 56.1667 26.8019 54.852V47.747C26.8019 47.399 26.9083 47.1187 27.1209 46.906C27.3336 46.6933 27.6236 46.587 27.9909 46.587ZM40.5058 46.587C41.3178 46.529 41.7238 46.8577 41.7238 47.573C41.7238 47.8823 41.6368 48.1337 41.4628 48.327C41.2888 48.501 40.9891 48.6073 40.5638 48.646L39.6938 48.733C38.3985 48.849 37.4318 49.313 36.7938 50.125C36.1751 50.9177 35.8658 51.8553 35.8658 52.938V59.985C35.8658 60.3717 35.7595 60.6617 35.5468 60.855C35.3341 61.0483 35.0538 61.145 34.7058 61.145C34.3578 61.145 34.0678 61.0483 33.8358 60.855C33.6231 60.6423 33.5168 60.3523 33.5168 59.985V47.747C33.5168 47.3797 33.6328 47.0993 33.8648 46.906C34.0968 46.6933 34.3771 46.587 34.7058 46.587C35.0151 46.587 35.2761 46.6933 35.4888 46.906C35.7015 47.0993 35.8078 47.37 35.8078 47.718V49.342C36.2138 48.4913 36.7841 47.8437 37.5188 47.399C38.2728 46.9543 39.1331 46.6933 40.0998 46.616L40.5058 46.587ZM48.3548 61.203C47.4655 61.203 46.6148 61.0967 45.8028 60.884C45.0102 60.6713 44.3045 60.3717 43.6858 59.985C43.3378 59.753 43.0865 59.5403 42.9318 59.347C42.7965 59.1343 42.7288 58.883 42.7288 58.593C42.7288 58.3417 42.7965 58.1387 42.9318 57.984C43.0865 57.81 43.2798 57.723 43.5118 57.723C43.7438 57.723 44.0822 57.868 44.5268 58.158C45.1068 58.506 45.6772 58.7863 46.2378 58.999C46.8178 59.1923 47.5332 59.289 48.3838 59.289C49.4278 59.289 50.2398 59.1053 50.8198 58.738C51.3998 58.3707 51.6898 57.839 51.6898 57.143C51.6898 56.7177 51.5835 56.3793 51.3708 56.128C51.1582 55.8573 50.7908 55.6253 50.2688 55.432C49.7468 55.2193 48.9832 55.0067 47.9778 54.794C46.2765 54.4267 45.0585 53.9337 44.3238 53.315C43.5892 52.6963 43.2218 51.8553 43.2218 50.792C43.2218 49.9607 43.4538 49.226 43.9178 48.588C44.3818 47.95 45.0198 47.4473 45.8318 47.08C46.6632 46.7127 47.6008 46.529 48.6448 46.529C49.3988 46.529 50.1238 46.6353 50.8198 46.848C51.5352 47.0413 52.1635 47.3217 52.7048 47.689C53.3622 48.153 53.6908 48.6363 53.6908 49.139C53.6908 49.3903 53.6135 49.603 53.4588 49.777C53.3042 49.951 53.1205 50.038 52.9078 50.038C52.6758 50.038 52.3278 49.8737 51.8638 49.545C51.3225 49.197 50.8102 48.9263 50.3268 48.733C49.8435 48.5397 49.2442 48.443 48.5288 48.443C47.6202 48.443 46.8855 48.646 46.3248 49.052C45.7835 49.458 45.5128 49.9993 45.5128 50.676C45.5128 51.1013 45.6095 51.4493 45.8028 51.72C46.0155 51.9713 46.3538 52.2033 46.8178 52.416C47.3012 52.6093 47.9875 52.8027 48.8768 52.996C50.1915 53.286 51.2065 53.605 51.9218 53.953C52.6565 54.301 53.1785 54.7263 53.4878 55.229C53.7972 55.7317 53.9518 56.3697 53.9518 57.143C53.9518 58.361 53.4395 59.347 52.4148 60.101C51.3902 60.8357 50.0368 61.203 48.3548 61.203ZM58.5508 61.145C58.0868 61.145 57.7002 61 57.3908 60.71C57.0815 60.4007 56.9268 60.0043 56.9268 59.521C56.9268 59.0377 57.0815 58.6413 57.3908 58.332C57.7002 58.0227 58.0868 57.868 58.5508 57.868C58.9955 57.868 59.3628 58.0227 59.6528 58.332C59.9622 58.6413 60.1168 59.0377 60.1168 59.521C60.1168 60.0043 59.9622 60.4007 59.6528 60.71C59.3628 61 58.9955 61.145 58.5508 61.145ZM78.3673 61.232C76.9173 61.232 75.5253 61.0193 74.1913 60.594C72.8767 60.1493 71.823 59.5597 71.0303 58.825C70.7403 58.5543 70.5953 58.216 70.5953 57.81C70.5953 57.5393 70.6727 57.3073 70.8273 57.114C70.982 56.9013 71.1657 56.795 71.3783 56.795C71.6297 56.795 71.9003 56.9013 72.1903 57.114C73.9883 58.506 76.0377 59.202 78.3383 59.202C80.001 59.202 81.277 58.883 82.1663 58.245C83.0557 57.607 83.5003 56.6983 83.5003 55.519C83.5003 54.8423 83.2877 54.301 82.8623 53.895C82.437 53.4697 81.8763 53.1313 81.1803 52.88C80.4843 52.6287 79.5467 52.3677 78.3673 52.097C76.782 51.7297 75.477 51.343 74.4523 50.937C73.447 50.531 72.6253 49.951 71.9873 49.197C71.3687 48.443 71.0593 47.457 71.0593 46.239C71.0593 45.079 71.3687 44.0543 71.9873 43.165C72.6253 42.2563 73.505 41.5603 74.6263 41.077C75.767 40.5743 77.0623 40.323 78.5123 40.323C79.8657 40.323 81.1223 40.5357 82.2823 40.961C83.4617 41.367 84.4477 41.9567 85.2403 42.73C85.5497 43.0393 85.7043 43.3777 85.7043 43.745C85.7043 44.0157 85.627 44.2573 85.4723 44.47C85.3177 44.6633 85.134 44.76 84.9213 44.76C84.7087 44.76 84.4283 44.6537 84.0803 44.441C83.133 43.6677 82.2533 43.1263 81.4413 42.817C80.6293 42.5077 79.653 42.353 78.5123 42.353C76.9077 42.353 75.6607 42.6913 74.7713 43.368C73.882 44.0253 73.4373 44.9533 73.4373 46.152C73.4373 47.1767 73.824 47.95 74.5973 48.472C75.39 48.9747 76.5983 49.4193 78.2223 49.806C79.9817 50.2313 81.364 50.6277 82.3693 50.995C83.3747 51.343 84.206 51.8747 84.8633 52.59C85.54 53.3053 85.8783 54.2623 85.8783 55.461C85.8783 56.6017 85.5593 57.607 84.9213 58.477C84.3027 59.347 83.423 60.0237 82.2823 60.507C81.1417 60.9903 79.8367 61.232 78.3673 61.232ZM90.5818 61.145C90.2338 61.145 89.9438 61.0483 89.7118 60.855C89.4991 60.6423 89.3928 60.3523 89.3928 59.985V47.747C89.3928 47.3797 89.4991 47.0993 89.7118 46.906C89.9438 46.6933 90.2338 46.587 90.5818 46.587C90.9298 46.587 91.2101 46.6933 91.4228 46.906C91.6354 47.0993 91.7418 47.3797 91.7418 47.747V59.985C91.7418 60.3717 91.6354 60.6617 91.4228 60.855C91.2101 61.0483 90.9298 61.145 90.5818 61.145ZM90.5818 43.542C90.1178 43.542 89.7408 43.4067 89.4508 43.136C89.1608 42.8653 89.0158 42.5077 89.0158 42.063C89.0158 41.6377 89.1608 41.2897 89.4508 41.019C89.7408 40.7483 90.1178 40.613 90.5818 40.613C91.0458 40.613 91.4228 40.7483 91.7128 41.019C92.0028 41.2897 92.1478 41.6377 92.1478 42.063C92.1478 42.5077 92.0028 42.8653 91.7128 43.136C91.4228 43.4067 91.0458 43.542 90.5818 43.542ZM107.588 46.587C107.955 46.587 108.245 46.6933 108.458 46.906C108.671 47.1187 108.777 47.399 108.777 47.747V60.043C108.777 62.1503 108.236 63.7357 107.153 64.799C106.07 65.8817 104.466 66.423 102.339 66.423C100.27 66.423 98.5497 66.017 97.177 65.205C96.481 64.8183 96.133 64.3737 96.133 63.871C96.133 63.6003 96.2007 63.378 96.336 63.204C96.4907 63.03 96.684 62.943 96.916 62.943C97.1093 62.943 97.4573 63.0783 97.96 63.349C98.6367 63.697 99.3037 63.9773 99.961 64.19C100.618 64.4027 101.401 64.509 102.31 64.509C103.683 64.509 104.717 64.1417 105.413 63.407C106.109 62.6917 106.457 61.638 106.457 60.246V57.752C106.051 58.6607 105.423 59.3567 104.572 59.84C103.741 60.3233 102.755 60.565 101.614 60.565C100.377 60.565 99.2747 60.275 98.308 59.695C97.3607 59.115 96.6163 58.2933 96.075 57.23C95.553 56.1667 95.292 54.939 95.292 53.547C95.292 52.155 95.553 50.9273 96.075 49.864C96.6163 48.8007 97.3607 47.979 98.308 47.399C99.2747 46.819 100.377 46.529 101.614 46.529C102.735 46.529 103.712 46.7707 104.543 47.254C105.374 47.7373 106.003 48.4237 106.428 49.313V47.747C106.428 47.399 106.525 47.1187 106.718 46.906C106.931 46.6933 107.221 46.587 107.588 46.587ZM102.078 58.622C103.431 58.622 104.495 58.1773 105.268 57.288C106.041 56.3793 106.428 55.1323 106.428 53.547C106.428 51.981 106.041 50.7533 105.268 49.864C104.514 48.9553 103.451 48.501 102.078 48.501C100.705 48.501 99.6227 48.9553 98.83 49.864C98.0567 50.7533 97.67 51.981 97.67 53.547C97.67 55.1323 98.0567 56.3793 98.83 57.288C99.6227 58.1773 100.705 58.622 102.078 58.622ZM120.23 46.529C123.614 46.529 125.305 48.3947 125.305 52.126V59.985C125.305 60.3523 125.199 60.6423 124.986 60.855C124.793 61.0483 124.513 61.145 124.145 61.145C123.778 61.145 123.488 61.0483 123.275 60.855C123.063 60.6423 122.956 60.3523 122.956 59.985V52.271C122.956 50.9563 122.695 49.9993 122.173 49.4C121.671 48.8007 120.859 48.501 119.737 48.501C118.442 48.501 117.408 48.8973 116.634 49.69C115.861 50.4827 115.474 51.5557 115.474 52.909V59.985C115.474 60.3523 115.368 60.6423 115.155 60.855C114.962 61.0483 114.682 61.145 114.314 61.145C113.947 61.145 113.657 61.0483 113.444 60.855C113.232 60.6423 113.125 60.3523 113.125 59.985V47.747C113.125 47.399 113.232 47.1187 113.444 46.906C113.657 46.6933 113.947 46.587 114.314 46.587C114.662 46.587 114.933 46.6933 115.126 46.906C115.339 47.1187 115.445 47.3893 115.445 47.718V49.197C115.909 48.327 116.557 47.6697 117.388 47.225C118.22 46.761 119.167 46.529 120.23 46.529ZM147.814 46.587C148.182 46.587 148.462 46.6933 148.655 46.906C148.868 47.1187 148.974 47.399 148.974 47.747V60.014C148.974 60.3427 148.868 60.6133 148.655 60.826C148.462 61.0387 148.182 61.145 147.814 61.145C147.466 61.145 147.186 61.0483 146.973 60.855C146.78 60.6423 146.683 60.3717 146.683 60.043V58.593C146.239 59.4437 145.61 60.0913 144.798 60.536C144.006 60.9807 143.107 61.203 142.101 61.203C140.419 61.203 139.153 60.739 138.302 59.811C137.452 58.8637 137.026 57.4717 137.026 55.635V47.747C137.026 47.399 137.133 47.1187 137.345 46.906C137.558 46.6933 137.848 46.587 138.215 46.587C138.583 46.587 138.863 46.6933 139.056 46.906C139.269 47.1187 139.375 47.399 139.375 47.747V55.577C139.375 56.8337 139.627 57.7617 140.129 58.361C140.632 58.941 141.425 59.231 142.507 59.231C143.745 59.231 144.74 58.8347 145.494 58.042C146.248 57.23 146.625 56.1667 146.625 54.852V47.747C146.625 47.399 146.732 47.1187 146.944 46.906C147.157 46.6933 147.447 46.587 147.814 46.587ZM160.445 46.529C161.682 46.529 162.775 46.8383 163.722 47.457C164.669 48.0757 165.404 48.9457 165.926 50.067C166.448 51.169 166.709 52.4547 166.709 53.924C166.709 55.3933 166.448 56.679 165.926 57.781C165.404 58.8637 164.669 59.7047 163.722 60.304C162.794 60.9033 161.702 61.203 160.445 61.203C159.343 61.203 158.376 60.9613 157.545 60.478C156.733 59.9947 156.114 59.3083 155.689 58.419V65.234C155.689 65.582 155.583 65.8527 155.37 66.046C155.177 66.2587 154.896 66.365 154.529 66.365C154.162 66.365 153.872 66.2587 153.659 66.046C153.446 65.8333 153.34 65.5627 153.34 65.234V47.747C153.34 47.399 153.446 47.1187 153.659 46.906C153.872 46.6933 154.162 46.587 154.529 46.587C154.896 46.587 155.177 46.6933 155.37 46.906C155.583 47.1187 155.689 47.399 155.689 47.747V49.313C156.114 48.4237 156.733 47.7373 157.545 47.254C158.376 46.7707 159.343 46.529 160.445 46.529ZM159.981 59.26C161.354 59.26 162.417 58.796 163.171 57.868C163.925 56.94 164.302 55.6253 164.302 53.924C164.302 52.2227 163.925 50.8983 163.171 49.951C162.417 48.9843 161.354 48.501 159.981 48.501C158.608 48.501 157.545 48.965 156.791 49.893C156.056 50.821 155.689 52.1453 155.689 53.866C155.689 55.5867 156.056 56.9207 156.791 57.868C157.545 58.796 158.608 59.26 159.981 59.26ZM184.801 46.529C188.184 46.529 189.876 48.3947 189.876 52.126V59.985C189.876 60.3523 189.769 60.6423 189.557 60.855C189.363 61.0483 189.083 61.145 188.716 61.145C188.348 61.145 188.058 61.0483 187.846 60.855C187.633 60.6423 187.527 60.3523 187.527 59.985V52.271C187.527 50.9563 187.266 49.9993 186.744 49.4C186.241 48.8007 185.429 48.501 184.308 48.501C183.012 48.501 181.978 48.8973 181.205 49.69C180.431 50.4827 180.045 51.5557 180.045 52.909V59.985C180.045 60.3523 179.938 60.6423 179.726 60.855C179.532 61.0483 179.252 61.145 178.885 61.145C178.517 61.145 178.227 61.0483 178.015 60.855C177.802 60.6423 177.696 60.3523 177.696 59.985V47.747C177.696 47.399 177.802 47.1187 178.015 46.906C178.227 46.6933 178.517 46.587 178.885 46.587C179.233 46.587 179.503 46.6933 179.697 46.906C179.909 47.1187 180.016 47.3893 180.016 47.718V49.197C180.48 48.327 181.127 47.6697 181.959 47.225C182.79 46.761 183.737 46.529 184.801 46.529ZM200.036 61.203C198.702 61.203 197.523 60.9033 196.498 60.304C195.493 59.7047 194.71 58.854 194.149 57.752C193.608 56.6307 193.337 55.3353 193.337 53.866C193.337 52.3967 193.608 51.111 194.149 50.009C194.71 48.8877 195.493 48.0273 196.498 47.428C197.523 46.8287 198.702 46.529 200.036 46.529C201.37 46.529 202.549 46.8287 203.574 47.428C204.599 48.0273 205.382 48.8877 205.923 50.009C206.484 51.111 206.764 52.3967 206.764 53.866C206.764 55.3353 206.484 56.6307 205.923 57.752C205.382 58.854 204.599 59.7047 203.574 60.304C202.549 60.9033 201.37 61.203 200.036 61.203ZM200.036 59.26C201.428 59.26 202.491 58.8057 203.226 57.897C203.98 56.969 204.357 55.6253 204.357 53.866C204.357 52.1453 203.98 50.821 203.226 49.893C202.472 48.9457 201.409 48.472 200.036 48.472C198.663 48.472 197.6 48.9457 196.846 49.893C196.092 50.821 195.715 52.1453 195.715 53.866C195.715 55.606 196.082 56.94 196.817 57.868C197.571 58.796 198.644 59.26 200.036 59.26ZM229.408 47.341C229.601 46.877 229.92 46.645 230.365 46.645C230.655 46.645 230.916 46.7417 231.148 46.935C231.38 47.1283 231.496 47.37 231.496 47.66C231.496 47.7953 231.467 47.9403 231.409 48.095L226.595 60.275C226.479 60.5263 226.305 60.7293 226.073 60.884C225.86 61.0193 225.619 61.087 225.348 61.087C225.097 61.087 224.855 61.0193 224.623 60.884C224.41 60.7293 224.246 60.5263 224.13 60.275L220.128 50.096L216.155 60.275C216.058 60.5263 215.894 60.7293 215.662 60.884C215.43 61.0193 215.179 61.087 214.908 61.087C214.657 61.087 214.415 61.0193 214.183 60.884C213.951 60.7293 213.777 60.5263 213.661 60.275L208.847 48.124C208.789 47.9693 208.76 47.834 208.76 47.718C208.76 47.4087 208.886 47.1477 209.137 46.935C209.408 46.7223 209.698 46.616 210.007 46.616C210.471 46.616 210.8 46.848 210.993 47.312L214.966 58.013L219.055 47.399C219.171 47.1477 219.326 46.9543 219.519 46.819C219.732 46.6837 219.954 46.616 220.186 46.616C220.437 46.616 220.66 46.6837 220.853 46.819C221.066 46.9543 221.22 47.1477 221.317 47.399L225.406 57.984L229.408 47.341ZM247.754 46.529C251.292 46.529 253.061 48.385 253.061 52.097V59.985C253.061 60.333 252.954 60.6133 252.742 60.826C252.548 61.0387 252.278 61.145 251.93 61.145C251.582 61.145 251.301 61.0387 251.089 60.826C250.876 60.6133 250.77 60.333 250.77 59.985V58.593C250.402 59.4243 249.842 60.072 249.088 60.536C248.334 60.9807 247.464 61.203 246.478 61.203C245.569 61.203 244.728 61.0193 243.955 60.652C243.201 60.2847 242.601 59.7723 242.157 59.115C241.712 58.4577 241.49 57.7327 241.49 56.94C241.49 55.8767 241.76 55.055 242.302 54.475C242.843 53.8757 243.732 53.4503 244.97 53.199C246.207 52.9283 247.928 52.793 250.132 52.793H250.77V51.836C250.77 50.676 250.528 49.8253 250.045 49.284C249.581 48.7427 248.817 48.472 247.754 48.472C246.439 48.472 245.105 48.8297 243.752 49.545C243.23 49.8737 242.862 50.038 242.65 50.038C242.418 50.038 242.224 49.951 242.07 49.777C241.915 49.603 241.838 49.3807 241.838 49.11C241.838 48.8393 241.915 48.6073 242.07 48.414C242.244 48.2013 242.514 47.9887 242.882 47.776C243.558 47.3893 244.322 47.0897 245.173 46.877C246.043 46.645 246.903 46.529 247.754 46.529ZM246.797 59.347C247.957 59.347 248.904 58.9603 249.639 58.187C250.393 57.3943 250.77 56.3793 250.77 55.142V54.301H250.248C248.546 54.301 247.251 54.3783 246.362 54.533C245.472 54.6683 244.834 54.91 244.448 55.258C244.08 55.5867 243.897 56.0797 243.897 56.737C243.897 57.491 244.167 58.1193 244.709 58.622C245.269 59.1053 245.965 59.347 246.797 59.347ZM264.466 46.529C267.849 46.529 269.541 48.3947 269.541 52.126V59.985C269.541 60.3523 269.434 60.6423 269.222 60.855C269.028 61.0483 268.748 61.145 268.381 61.145C268.013 61.145 267.723 61.0483 267.511 60.855C267.298 60.6423 267.192 60.3523 267.192 59.985V52.271C267.192 50.9563 266.931 49.9993 266.409 49.4C265.906 48.8007 265.094 48.501 263.973 48.501C262.677 48.501 261.643 48.8973 260.87 49.69C260.096 50.4827 259.71 51.5557 259.71 52.909V59.985C259.71 60.3523 259.603 60.6423 259.391 60.855C259.197 61.0483 258.917 61.145 258.55 61.145C258.182 61.145 257.892 61.0483 257.68 60.855C257.467 60.6423 257.361 60.3523 257.361 59.985V47.747C257.361 47.399 257.467 47.1187 257.68 46.906C257.892 46.6933 258.182 46.587 258.55 46.587C258.898 46.587 259.168 46.6933 259.362 46.906C259.574 47.1187 259.681 47.3893 259.681 47.718V49.197C260.145 48.327 260.792 47.6697 261.624 47.225C262.455 46.761 263.402 46.529 264.466 46.529ZM285.182 40.41C285.549 40.41 285.839 40.5163 286.052 40.729C286.265 40.9417 286.371 41.2123 286.371 41.541V59.985C286.371 60.333 286.265 60.6133 286.052 60.826C285.839 61.0387 285.549 61.145 285.182 61.145C284.815 61.145 284.525 61.0387 284.312 60.826C284.119 60.6133 284.022 60.333 284.022 59.985V58.419C283.597 59.3083 282.968 59.9947 282.137 60.478C281.325 60.9613 280.368 61.203 279.266 61.203C278.029 61.203 276.936 60.8937 275.989 60.275C275.042 59.6563 274.307 58.796 273.785 57.694C273.263 56.5727 273.002 55.2773 273.002 53.808C273.002 52.358 273.263 51.082 273.785 49.98C274.307 48.878 275.042 48.0273 275.989 47.428C276.936 46.8287 278.029 46.529 279.266 46.529C280.368 46.529 281.325 46.7707 282.137 47.254C282.968 47.7373 283.597 48.4237 284.022 49.313V41.541C284.022 41.193 284.119 40.9223 284.312 40.729C284.525 40.5163 284.815 40.41 285.182 40.41ZM279.73 59.26C281.103 59.26 282.156 58.796 282.891 57.868C283.645 56.9207 284.022 55.5867 284.022 53.866C284.022 52.1453 283.645 50.821 282.891 49.893C282.156 48.965 281.103 48.501 279.73 48.501C278.357 48.501 277.284 48.965 276.511 49.893C275.757 50.821 275.38 52.126 275.38 53.808C275.38 55.5287 275.757 56.8723 276.511 57.839C277.284 58.7863 278.357 59.26 279.73 59.26ZM305.332 46.529C306.995 46.529 308.252 47.0027 309.102 47.95C309.953 48.878 310.378 50.27 310.378 52.126V59.985C310.378 60.3523 310.272 60.6423 310.059 60.855C309.847 61.0483 309.566 61.145 309.218 61.145C308.851 61.145 308.561 61.0483 308.348 60.855C308.136 60.6423 308.029 60.3523 308.029 59.985V52.184C308.029 50.9273 307.768 49.9993 307.246 49.4C306.744 48.8007 305.932 48.501 304.81 48.501C303.515 48.501 302.481 48.8973 301.707 49.69C300.934 50.4827 300.547 51.5557 300.547 52.909V59.985C300.547 60.3523 300.441 60.6423 300.228 60.855C300.035 61.0483 299.755 61.145 299.387 61.145C299.02 61.145 298.73 61.0483 298.517 60.855C298.305 60.6423 298.198 60.3523 298.198 59.985V41.541C298.198 41.2123 298.305 40.9417 298.517 40.729C298.749 40.5163 299.039 40.41 299.387 40.41C299.755 40.41 300.035 40.5163 300.228 40.729C300.441 40.9223 300.547 41.193 300.547 41.541V49.139C301.011 48.2883 301.659 47.6407 302.49 47.196C303.322 46.7513 304.269 46.529 305.332 46.529ZM325.614 57.723C325.827 57.723 326.01 57.81 326.165 57.984C326.32 58.158 326.397 58.3803 326.397 58.651C326.397 59.1343 326.059 59.579 325.382 59.985C324.686 60.391 323.951 60.7003 323.178 60.913C322.405 61.1063 321.651 61.203 320.916 61.203C318.731 61.203 317.001 60.5553 315.725 59.26C314.468 57.9647 313.84 56.1763 313.84 53.895C313.84 52.445 314.12 51.169 314.681 50.067C315.242 48.9457 316.025 48.0757 317.03 47.457C318.055 46.8383 319.215 46.529 320.51 46.529C322.347 46.529 323.806 47.1283 324.889 48.327C325.972 49.5257 326.513 51.1497 326.513 53.199C326.513 53.5857 326.436 53.866 326.281 54.04C326.126 54.214 325.875 54.301 325.527 54.301H316.189C316.363 57.6263 317.939 59.289 320.916 59.289C321.67 59.289 322.318 59.1923 322.859 58.999C323.4 58.7863 323.98 58.506 324.599 58.158C325.102 57.868 325.44 57.723 325.614 57.723ZM320.539 48.356C319.302 48.356 318.306 48.7427 317.552 49.516C316.817 50.2893 316.382 51.3817 316.247 52.793H324.454C324.415 51.3623 324.058 50.27 323.381 49.516C322.704 48.7427 321.757 48.356 320.539 48.356ZM331.163 61.145C330.815 61.145 330.525 61.0483 330.293 60.855C330.08 60.6423 329.974 60.3523 329.974 59.985V41.57C329.974 41.2027 330.08 40.9223 330.293 40.729C330.525 40.5163 330.815 40.41 331.163 40.41C331.491 40.41 331.762 40.5163 331.975 40.729C332.207 40.9223 332.323 41.2027 332.323 41.57V59.985C332.323 60.3523 332.207 60.6423 331.975 60.855C331.762 61.0483 331.491 61.145 331.163 61.145ZM343.819 46.529C345.056 46.529 346.149 46.8383 347.096 47.457C348.043 48.0757 348.778 48.9457 349.3 50.067C349.822 51.169 350.083 52.4547 350.083 53.924C350.083 55.3933 349.822 56.679 349.3 57.781C348.778 58.8637 348.043 59.7047 347.096 60.304C346.168 60.9033 345.076 61.203 343.819 61.203C342.717 61.203 341.75 60.9613 340.919 60.478C340.107 59.9947 339.488 59.3083 339.063 58.419V65.234C339.063 65.582 338.957 65.8527 338.744 66.046C338.551 66.2587 338.27 66.365 337.903 66.365C337.536 66.365 337.246 66.2587 337.033 66.046C336.82 65.8333 336.714 65.5627 336.714 65.234V47.747C336.714 47.399 336.82 47.1187 337.033 46.906C337.246 46.6933 337.536 46.587 337.903 46.587C338.27 46.587 338.551 46.6933 338.744 46.906C338.957 47.1187 339.063 47.399 339.063 47.747V49.313C339.488 48.4237 340.107 47.7373 340.919 47.254C341.75 46.7707 342.717 46.529 343.819 46.529ZM343.355 59.26C344.728 59.26 345.791 58.796 346.545 57.868C347.299 56.94 347.676 55.6253 347.676 53.924C347.676 52.2227 347.299 50.8983 346.545 49.951C345.791 48.9843 344.728 48.501 343.355 48.501C341.982 48.501 340.919 48.965 340.165 49.893C339.43 50.821 339.063 52.1453 339.063 53.866C339.063 55.5867 339.43 56.9207 340.165 57.868C340.919 58.796 341.982 59.26 343.355 59.26ZM367.595 59.289C368.271 59.347 368.61 59.6563 368.61 60.217C368.61 60.5457 368.484 60.797 368.233 60.971C368.001 61.1257 367.643 61.1837 367.16 61.145L366.377 61.087C364.83 60.971 363.689 60.507 362.955 59.695C362.22 58.883 361.853 57.6553 361.853 56.012V48.733H359.91C359.581 48.733 359.32 48.6557 359.127 48.501C358.953 48.327 358.866 48.1047 358.866 47.834C358.866 47.544 358.953 47.312 359.127 47.138C359.32 46.964 359.581 46.877 359.91 46.877H361.853V43.6C361.853 43.2327 361.959 42.9523 362.172 42.759C362.384 42.5463 362.674 42.44 363.042 42.44C363.39 42.44 363.67 42.5463 363.883 42.759C364.095 42.9523 364.202 43.2327 364.202 43.6V46.877H367.421C367.73 46.877 367.972 46.964 368.146 47.138C368.339 47.312 368.436 47.544 368.436 47.834C368.436 48.1047 368.339 48.327 368.146 48.501C367.972 48.6557 367.73 48.733 367.421 48.733H364.202V56.128C364.202 57.1913 364.414 57.9647 364.84 58.448C365.284 58.912 365.942 59.173 366.812 59.231L367.595 59.289ZM378.059 46.529C379.722 46.529 380.978 47.0027 381.829 47.95C382.68 48.878 383.105 50.27 383.105 52.126V59.985C383.105 60.3523 382.999 60.6423 382.786 60.855C382.573 61.0483 382.293 61.145 381.945 61.145C381.578 61.145 381.288 61.0483 381.075 60.855C380.862 60.6423 380.756 60.3523 380.756 59.985V52.184C380.756 50.9273 380.495 49.9993 379.973 49.4C379.47 48.8007 378.658 48.501 377.537 48.501C376.242 48.501 375.207 48.8973 374.434 49.69C373.661 50.4827 373.274 51.5557 373.274 52.909V59.985C373.274 60.3523 373.168 60.6423 372.955 60.855C372.762 61.0483 372.481 61.145 372.114 61.145C371.747 61.145 371.457 61.0483 371.244 60.855C371.031 60.6423 370.925 60.3523 370.925 59.985V41.541C370.925 41.2123 371.031 40.9417 371.244 40.729C371.476 40.5163 371.766 40.41 372.114 40.41C372.481 40.41 372.762 40.5163 372.955 40.729C373.168 40.9223 373.274 41.193 373.274 41.541V49.139C373.738 48.2883 374.386 47.6407 375.217 47.196C376.048 46.7513 376.996 46.529 378.059 46.529ZM393.265 61.203C391.931 61.203 390.752 60.9033 389.727 60.304C388.722 59.7047 387.939 58.854 387.378 57.752C386.837 56.6307 386.566 55.3353 386.566 53.866C386.566 52.3967 386.837 51.111 387.378 50.009C387.939 48.8877 388.722 48.0273 389.727 47.428C390.752 46.8287 391.931 46.529 393.265 46.529C394.599 46.529 395.779 46.8287 396.803 47.428C397.828 48.0273 398.611 48.8877 399.152 50.009C399.713 51.111 399.993 52.3967 399.993 53.866C399.993 55.3353 399.713 56.6307 399.152 57.752C398.611 58.854 397.828 59.7047 396.803 60.304C395.779 60.9033 394.599 61.203 393.265 61.203ZM393.265 59.26C394.657 59.26 395.721 58.8057 396.455 57.897C397.209 56.969 397.586 55.6253 397.586 53.866C397.586 52.1453 397.209 50.821 396.455 49.893C395.701 48.9457 394.638 48.472 393.265 48.472C391.893 48.472 390.829 48.9457 390.075 49.893C389.321 50.821 388.944 52.1453 388.944 53.866C388.944 55.606 389.312 56.94 390.046 57.868C390.8 58.796 391.873 59.26 393.265 59.26ZM408.249 61.203C407.36 61.203 406.509 61.0967 405.697 60.884C404.905 60.6713 404.199 60.3717 403.58 59.985C403.232 59.753 402.981 59.5403 402.826 59.347C402.691 59.1343 402.623 58.883 402.623 58.593C402.623 58.3417 402.691 58.1387 402.826 57.984C402.981 57.81 403.174 57.723 403.406 57.723C403.638 57.723 403.977 57.868 404.421 58.158C405.001 58.506 405.572 58.7863 406.132 58.999C406.712 59.1923 407.428 59.289 408.278 59.289C409.322 59.289 410.134 59.1053 410.714 58.738C411.294 58.3707 411.584 57.839 411.584 57.143C411.584 56.7177 411.478 56.3793 411.265 56.128C411.053 55.8573 410.685 55.6253 410.163 55.432C409.641 55.2193 408.878 55.0067 407.872 54.794C406.171 54.4267 404.953 53.9337 404.218 53.315C403.484 52.6963 403.116 51.8553 403.116 50.792C403.116 49.9607 403.348 49.226 403.812 48.588C404.276 47.95 404.914 47.4473 405.726 47.08C406.558 46.7127 407.495 46.529 408.539 46.529C409.293 46.529 410.018 46.6353 410.714 46.848C411.43 47.0413 412.058 47.3217 412.599 47.689C413.257 48.153 413.585 48.6363 413.585 49.139C413.585 49.3903 413.508 49.603 413.353 49.777C413.199 49.951 413.015 50.038 412.802 50.038C412.57 50.038 412.222 49.8737 411.758 49.545C411.217 49.197 410.705 48.9263 410.221 48.733C409.738 48.5397 409.139 48.443 408.423 48.443C407.515 48.443 406.78 48.646 406.219 49.052C405.678 49.458 405.407 49.9993 405.407 50.676C405.407 51.1013 405.504 51.4493 405.697 51.72C405.91 51.9713 406.248 52.2033 406.712 52.416C407.196 52.6093 407.882 52.8027 408.771 52.996C410.086 53.286 411.101 53.605 411.816 53.953C412.551 54.301 413.073 54.7263 413.382 55.229C413.692 55.7317 413.846 56.3697 413.846 57.143C413.846 58.361 413.334 59.347 412.309 60.101C411.285 60.8357 409.931 61.203 408.249 61.203ZM428.36 57.723C428.573 57.723 428.756 57.81 428.911 57.984C429.066 58.158 429.143 58.3803 429.143 58.651C429.143 59.1343 428.805 59.579 428.128 59.985C427.432 60.391 426.697 60.7003 425.924 60.913C425.151 61.1063 424.397 61.203 423.662 61.203C421.477 61.203 419.747 60.5553 418.471 59.26C417.214 57.9647 416.586 56.1763 416.586 53.895C416.586 52.445 416.866 51.169 417.427 50.067C417.988 48.9457 418.771 48.0757 419.776 47.457C420.801 46.8383 421.961 46.529 423.256 46.529C425.093 46.529 426.552 47.1283 427.635 48.327C428.718 49.5257 429.259 51.1497 429.259 53.199C429.259 53.5857 429.182 53.866 429.027 54.04C428.872 54.214 428.621 54.301 428.273 54.301H418.935C419.109 57.6263 420.685 59.289 423.662 59.289C424.416 59.289 425.064 59.1923 425.605 58.999C426.146 58.7863 426.726 58.506 427.345 58.158C427.848 57.868 428.186 57.723 428.36 57.723ZM423.285 48.356C422.048 48.356 421.052 48.7427 420.298 49.516C419.563 50.2893 419.128 51.3817 418.993 52.793H427.2C427.161 51.3623 426.804 50.27 426.127 49.516C425.45 48.7427 424.503 48.356 423.285 48.356ZM441.385 61.145C441.037 61.145 440.747 61.0483 440.515 60.855C440.303 60.6423 440.196 60.3523 440.196 59.985V47.747C440.196 47.3797 440.303 47.0993 440.515 46.906C440.747 46.6933 441.037 46.587 441.385 46.587C441.733 46.587 442.014 46.6933 442.226 46.906C442.439 47.0993 442.545 47.3797 442.545 47.747V59.985C442.545 60.3717 442.439 60.6617 442.226 60.855C442.014 61.0483 441.733 61.145 441.385 61.145ZM441.385 43.542C440.921 43.542 440.544 43.4067 440.254 43.136C439.964 42.8653 439.819 42.5077 439.819 42.063C439.819 41.6377 439.964 41.2897 440.254 41.019C440.544 40.7483 440.921 40.613 441.385 40.613C441.849 40.613 442.226 40.7483 442.516 41.019C442.806 41.2897 442.951 41.6377 442.951 42.063C442.951 42.5077 442.806 42.8653 442.516 43.136C442.226 43.4067 441.849 43.542 441.385 43.542ZM454.042 46.529C457.425 46.529 459.117 48.3947 459.117 52.126V59.985C459.117 60.3523 459.01 60.6423 458.798 60.855C458.604 61.0483 458.324 61.145 457.957 61.145C457.589 61.145 457.299 61.0483 457.087 60.855C456.874 60.6423 456.768 60.3523 456.768 59.985V52.271C456.768 50.9563 456.507 49.9993 455.985 49.4C455.482 48.8007 454.67 48.501 453.549 48.501C452.253 48.501 451.219 48.8973 450.446 49.69C449.672 50.4827 449.286 51.5557 449.286 52.909V59.985C449.286 60.3523 449.179 60.6423 448.967 60.855C448.773 61.0483 448.493 61.145 448.126 61.145C447.758 61.145 447.468 61.0483 447.256 60.855C447.043 60.6423 446.937 60.3523 446.937 59.985V47.747C446.937 47.399 447.043 47.1187 447.256 46.906C447.468 46.6933 447.758 46.587 448.126 46.587C448.474 46.587 448.744 46.6933 448.938 46.906C449.15 47.1187 449.257 47.3893 449.257 47.718V49.197C449.721 48.327 450.368 47.6697 451.2 47.225C452.031 46.761 452.978 46.529 454.042 46.529ZM478.001 46.529C481.384 46.529 483.076 48.3947 483.076 52.126V59.985C483.076 60.3523 482.969 60.6423 482.757 60.855C482.563 61.0483 482.283 61.145 481.916 61.145C481.548 61.145 481.258 61.0483 481.046 60.855C480.833 60.6423 480.727 60.3523 480.727 59.985V52.271C480.727 50.9563 480.466 49.9993 479.944 49.4C479.441 48.8007 478.629 48.501 477.508 48.501C476.212 48.501 475.178 48.8973 474.405 49.69C473.631 50.4827 473.245 51.5557 473.245 52.909V59.985C473.245 60.3523 473.138 60.6423 472.926 60.855C472.732 61.0483 472.452 61.145 472.085 61.145C471.717 61.145 471.427 61.0483 471.215 60.855C471.002 60.6423 470.896 60.3523 470.896 59.985V47.747C470.896 47.399 471.002 47.1187 471.215 46.906C471.427 46.6933 471.717 46.587 472.085 46.587C472.433 46.587 472.703 46.6933 472.897 46.906C473.109 47.1187 473.216 47.3893 473.216 47.718V49.197C473.68 48.327 474.327 47.6697 475.159 47.225C475.99 46.761 476.937 46.529 478.001 46.529ZM498.311 57.723C498.524 57.723 498.707 57.81 498.862 57.984C499.017 58.158 499.094 58.3803 499.094 58.651C499.094 59.1343 498.756 59.579 498.079 59.985C497.383 60.391 496.648 60.7003 495.875 60.913C495.102 61.1063 494.348 61.203 493.613 61.203C491.428 61.203 489.698 60.5553 488.422 59.26C487.165 57.9647 486.537 56.1763 486.537 53.895C486.537 52.445 486.817 51.169 487.378 50.067C487.939 48.9457 488.722 48.0757 489.727 47.457C490.752 46.8383 491.912 46.529 493.207 46.529C495.044 46.529 496.503 47.1283 497.586 48.327C498.669 49.5257 499.21 51.1497 499.21 53.199C499.21 53.5857 499.133 53.866 498.978 54.04C498.823 54.214 498.572 54.301 498.224 54.301H488.886C489.06 57.6263 490.636 59.289 493.613 59.289C494.367 59.289 495.015 59.1923 495.556 58.999C496.097 58.7863 496.677 58.506 497.296 58.158C497.799 57.868 498.137 57.723 498.311 57.723ZM493.236 48.356C491.999 48.356 491.003 48.7427 490.249 49.516C489.514 50.2893 489.079 51.3817 488.944 52.793H497.151C497.112 51.3623 496.755 50.27 496.078 49.516C495.401 48.7427 494.454 48.356 493.236 48.356ZM513.604 57.723C513.817 57.723 514 57.81 514.155 57.984C514.31 58.158 514.387 58.3803 514.387 58.651C514.387 59.1343 514.049 59.579 513.372 59.985C512.676 60.391 511.941 60.7003 511.168 60.913C510.395 61.1063 509.641 61.203 508.906 61.203C506.721 61.203 504.991 60.5553 503.715 59.26C502.458 57.9647 501.83 56.1763 501.83 53.895C501.83 52.445 502.11 51.169 502.671 50.067C503.232 48.9457 504.015 48.0757 505.02 47.457C506.045 46.8383 507.205 46.529 508.5 46.529C510.337 46.529 511.796 47.1283 512.879 48.327C513.962 49.5257 514.503 51.1497 514.503 53.199C514.503 53.5857 514.426 53.866 514.271 54.04C514.116 54.214 513.865 54.301 513.517 54.301H504.179C504.353 57.6263 505.929 59.289 508.906 59.289C509.66 59.289 510.308 59.1923 510.849 58.999C511.39 58.7863 511.97 58.506 512.589 58.158C513.092 57.868 513.43 57.723 513.604 57.723ZM508.529 48.356C507.292 48.356 506.296 48.7427 505.542 49.516C504.807 50.2893 504.372 51.3817 504.237 52.793H512.444C512.405 51.3623 512.048 50.27 511.371 49.516C510.694 48.7427 509.747 48.356 508.529 48.356ZM529.303 40.41C529.67 40.41 529.96 40.5163 530.173 40.729C530.386 40.9417 530.492 41.2123 530.492 41.541V59.985C530.492 60.333 530.386 60.6133 530.173 60.826C529.96 61.0387 529.67 61.145 529.303 61.145C528.936 61.145 528.646 61.0387 528.433 60.826C528.24 60.6133 528.143 60.333 528.143 59.985V58.419C527.718 59.3083 527.089 59.9947 526.258 60.478C525.446 60.9613 524.489 61.203 523.387 61.203C522.15 61.203 521.057 60.8937 520.11 60.275C519.163 59.6563 518.428 58.796 517.906 57.694C517.384 56.5727 517.123 55.2773 517.123 53.808C517.123 52.358 517.384 51.082 517.906 49.98C518.428 48.878 519.163 48.0273 520.11 47.428C521.057 46.8287 522.15 46.529 523.387 46.529C524.489 46.529 525.446 46.7707 526.258 47.254C527.089 47.7373 527.718 48.4237 528.143 49.313V41.541C528.143 41.193 528.24 40.9223 528.433 40.729C528.646 40.5163 528.936 40.41 529.303 40.41ZM523.851 59.26C525.224 59.26 526.277 58.796 527.012 57.868C527.766 56.9207 528.143 55.5867 528.143 53.866C528.143 52.1453 527.766 50.821 527.012 49.893C526.277 48.965 525.224 48.501 523.851 48.501C522.478 48.501 521.405 48.965 520.632 49.893C519.878 50.821 519.501 52.126 519.501 53.808C519.501 55.5287 519.878 56.8723 520.632 57.839C521.405 58.7863 522.478 59.26 523.851 59.26Z" fill="#FFFBFB"/>
</svg>
